<?xml version="1.0" encoding="utf-8"?>
<!-- Generator: Adobe Illustrator 25.4.1, SVG Export Plug-In . SVG Version: 6.00 Build 0)  -->
<svg version="1.1" id="Layer_1" xmlns="http://www.w3.org/2000/svg" xmlns:xlink="http://www.w3.org/1999/xlink" x="0px" y="0px"
	 viewBox="0 0 20.6 12.1" style="enable-background:new 0 0 20.6 12.1;" xml:space="preserve">
<style type="text/css">
	.st0{fill:#F68620;}
</style>
<g>
	<g>
		<path class="st0" d="M20.2,5.4c-1.7-1.7-3.4-3.4-5.2-5.2c-0.1-0.1-0.2-0.3-0.4-0.3c-0.2,0-0.5,0-0.6,0.1c-0.1,0.1-0.1,0.4-0.1,0.6
			c0,0.1,0.2,0.2,0.3,0.4c1.3,1.3,2.6,2.7,4,4c0.1,0.1,0.2,0.2,0.4,0.4h-0.7c-7,0-10,0-16.9,0c-0.2,0-0.4,0-0.6,0C0.2,5.6,0,5.8,0,6
			c0,0.2,0.3,0.4,0.4,0.5c0.1,0.1,0.3,0,0.5,0c7,0,10,0,17,0h0.7c-0.2,0.2-0.3,0.3-0.4,0.5c-1.3,1.3-2.6,2.6-3.9,3.9
			C14.2,11,14,11.2,14,11.3c-0.1,0.2-0.1,0.5,0,0.6c0.1,0.1,0.4,0.1,0.7,0.1c0.1,0,0.2-0.1,0.3-0.2c1.7-1.7,3.5-3.5,5.2-5.2
			C20.7,6.1,20.7,5.9,20.2,5.4z"/>
	</g>
</g>
</svg>
