<svg width="169" height="298" viewBox="0 0 169 298" fill="none" xmlns="http://www.w3.org/2000/svg">
<path d="M84.8392 1H1V75.059L84.8392 1Z" stroke="#F1E4B2" stroke-opacity="0.5" stroke-width="0.5" stroke-linecap="round" stroke-linejoin="round"/>
<path d="M51.5098 75.0591H84.8393V45.6152L51.5098 75.0591Z" stroke="#F1E4B2" stroke-opacity="0.5" stroke-width="0.5" stroke-linecap="round" stroke-linejoin="round"/>
<path d="M1 1.52881L42.6024 38.294" stroke="#F1E4B2" stroke-opacity="0.5" stroke-width="0.5" stroke-linecap="round" stroke-linejoin="round"/>
<path d="M51.5098 75.059V30.5232" stroke="#F1E4B2" stroke-opacity="0.5" stroke-width="0.5" stroke-linecap="round" stroke-linejoin="round"/>
<path d="M168.705 1H84.8394V75.059L168.705 1Z" stroke="#F1E4B2" stroke-opacity="0.5" stroke-width="0.5" stroke-linecap="round" stroke-linejoin="round"/>
<path d="M135.375 75.0591H168.705V45.6152L135.375 75.0591Z" stroke="#F1E4B2" stroke-opacity="0.5" stroke-width="0.5" stroke-linecap="round" stroke-linejoin="round"/>
<path d="M84.8394 1.52881L126.468 38.294" stroke="#F1E4B2" stroke-opacity="0.5" stroke-width="0.5" stroke-linecap="round" stroke-linejoin="round"/>
<path d="M135.375 75.059V30.5232" stroke="#F1E4B2" stroke-opacity="0.5" stroke-width="0.5" stroke-linecap="round" stroke-linejoin="round"/>
<path d="M84.8394 75.0591H168.705V149.145L84.8394 75.0591Z" stroke="#F1E4B2" stroke-opacity="0.5" stroke-width="0.5" stroke-linecap="round" stroke-linejoin="round"/>
<path d="M118.195 149.145H84.8394V119.701L118.195 149.145Z" stroke="#F1E4B2" stroke-opacity="0.5" stroke-width="0.5" stroke-linecap="round" stroke-linejoin="round"/>
<path d="M168.705 75.6143L127.076 112.379" stroke="#F1E4B2" stroke-opacity="0.5" stroke-width="0.5" stroke-linecap="round" stroke-linejoin="round"/>
<path d="M118.195 149.145V104.582" stroke="#F1E4B2" stroke-opacity="0.5" stroke-width="0.5" stroke-linecap="round" stroke-linejoin="round"/>
<path d="M1 75.0591H84.8392V149.145L1 75.0591Z" stroke="#F1E4B2" stroke-opacity="0.5" stroke-width="0.5" stroke-linecap="round" stroke-linejoin="round"/>
<path d="M34.3295 149.145H1V119.701L34.3295 149.145Z" stroke="#F1E4B2" stroke-opacity="0.5" stroke-width="0.5" stroke-linecap="round" stroke-linejoin="round"/>
<path d="M84.8393 75.6143L43.2104 112.379" stroke="#F1E4B2" stroke-opacity="0.5" stroke-width="0.5" stroke-linecap="round" stroke-linejoin="round"/>
<path d="M34.3296 149.145V104.582" stroke="#F1E4B2" stroke-opacity="0.5" stroke-width="0.5" stroke-linecap="round" stroke-linejoin="round"/>
<path d="M84.8392 149.145H1V223.23L84.8392 149.145Z" stroke="#F1E4B2" stroke-opacity="0.5" stroke-width="0.5" stroke-linecap="round" stroke-linejoin="round"/>
<path d="M51.5098 223.23H84.8393V193.76L51.5098 223.23Z" stroke="#F1E4B2" stroke-opacity="0.5" stroke-width="0.5" stroke-linecap="round" stroke-linejoin="round"/>
<path d="M1 149.673L42.6024 186.465" stroke="#F1E4B2" stroke-opacity="0.5" stroke-width="0.5" stroke-linecap="round" stroke-linejoin="round"/>
<path d="M51.5098 223.23V178.668" stroke="#F1E4B2" stroke-opacity="0.5" stroke-width="0.5" stroke-linecap="round" stroke-linejoin="round"/>
<path d="M168.705 149.145H84.8394V223.23L168.705 149.145Z" stroke="#F1E4B2" stroke-opacity="0.5" stroke-width="0.5" stroke-linecap="round" stroke-linejoin="round"/>
<path d="M135.375 223.23H168.705V193.76L135.375 223.23Z" stroke="#F1E4B2" stroke-opacity="0.5" stroke-width="0.5" stroke-linecap="round" stroke-linejoin="round"/>
<path d="M84.8394 149.673L126.468 186.465" stroke="#F1E4B2" stroke-opacity="0.5" stroke-width="0.5" stroke-linecap="round" stroke-linejoin="round"/>
<path d="M135.375 223.23V178.668" stroke="#F1E4B2" stroke-opacity="0.5" stroke-width="0.5" stroke-linecap="round" stroke-linejoin="round"/>
<path d="M84.8394 223.23H168.705V297.315L84.8394 223.23Z" stroke="#F1E4B2" stroke-opacity="0.5" stroke-width="0.5" stroke-linecap="round" stroke-linejoin="round"/>
<path d="M118.195 297.315H84.8394V267.845L118.195 297.315Z" stroke="#F1E4B2" stroke-opacity="0.5" stroke-width="0.5" stroke-linecap="round" stroke-linejoin="round"/>
<path d="M168.705 223.759L127.076 260.524" stroke="#F1E4B2" stroke-opacity="0.5" stroke-width="0.5" stroke-linecap="round" stroke-linejoin="round"/>
<path d="M118.195 297.315V252.753" stroke="#F1E4B2" stroke-opacity="0.5" stroke-width="0.5" stroke-linecap="round" stroke-linejoin="round"/>
<path d="M1 223.23H84.8392V297.315L1 223.23Z" stroke="#F1E4B2" stroke-opacity="0.5" stroke-width="0.5" stroke-linecap="round" stroke-linejoin="round"/>
<path d="M34.3295 297.315H1V267.845L34.3295 297.315Z" stroke="#F1E4B2" stroke-opacity="0.5" stroke-width="0.5" stroke-linecap="round" stroke-linejoin="round"/>
<path d="M84.8393 223.759L43.2104 260.524" stroke="#F1E4B2" stroke-opacity="0.5" stroke-width="0.5" stroke-linecap="round" stroke-linejoin="round"/>
<path d="M34.3296 297.315V252.753" stroke="#F1E4B2" stroke-opacity="0.5" stroke-width="0.5" stroke-linecap="round" stroke-linejoin="round"/>
</svg>
