<svg width="16" height="16" viewBox="0 0 16 16" fill="none" xmlns="http://www.w3.org/2000/svg">
<path d="M14.3333 8.16667C14.3333 9.38632 13.9717 10.5786 13.2941 11.5927C12.6165 12.6068 11.6534 13.3972 10.5266 13.8639C9.39974 14.3307 8.15983 14.4528 6.96361 14.2148C5.7674 13.9769 4.6686 13.3896 3.80618 12.5272C2.94375 11.6647 2.35644 10.5659 2.11849 9.36972C1.88055 8.17351 2.00267 6.9336 2.46941 5.80679C2.93615 4.67997 3.72655 3.71687 4.74065 3.03927C5.75476 2.36167 6.94702 2 8.16667 2C9.80217 2 11.3707 2.6497 12.5272 3.80617C13.6836 4.96265 14.3333 6.53117 14.3333 8.16667Z" stroke="white" stroke-width="1.5" stroke-miterlimit="10" stroke-linecap="round" stroke-linejoin="round"/>
<path d="M10.4538 10.1305L7.94043 8.62855V5.39722" stroke="white" stroke-width="1.5" stroke-miterlimit="10" stroke-linecap="round" stroke-linejoin="round"/>
</svg>
