<svg width="20" height="20" viewBox="0 0 20 20" fill="none" xmlns="http://www.w3.org/2000/svg">
<path d="M10.0001 0.041748C4.47724 0.041748 0 4.51899 0 10.0418C0 14.9951 3.60522 19.0973 8.3322 19.8916V12.128H5.91994V9.33425H8.3322V7.27425C8.3322 4.88402 9.7921 3.58148 11.9247 3.58148C12.9461 3.58148 13.8238 3.65758 14.0786 3.69111V6.18954L12.5995 6.19026C11.44 6.19026 11.2165 6.74114 11.2165 7.54982V9.33285H13.9832L13.6223 12.1266H11.2165V19.9584C16.1642 19.3563 20 15.1496 20 10.0389C20 4.51899 15.5228 0.041748 10.0001 0.041748Z" fill="#C1B486"/>
</svg>
