<svg width="20" height="20" viewBox="0 0 20 20" fill="none" xmlns="http://www.w3.org/2000/svg">
<path d="M19.945 5.88008C19.898 4.81737 19.727 4.08683 19.48 3.45373C19.226 2.78177 18.836 2.18016 18.324 1.68002C17.824 1.17211 17.218 0.77742 16.554 0.52745C15.917 0.28131 15.19 0.1094 14.128 0.0625899C13.057 0.0117199 12.717 0 10.002 0C7.287 0 6.947 0.0117199 5.88 0.05861C4.817 0.10549 4.087 0.27748 3.454 0.52346C2.782 0.77742 2.18 1.16812 1.68 1.68002C1.172 2.18012 0.778 2.78571 0.527 3.44991C0.280998 4.08683 0.109001 4.81346 0.0619965 5.87609C0.012001 6.94673 0 7.28661 0 10.002C0 12.7174 0.012001 13.0573 0.0589981 14.1239C0.105003 15.1866 0.277 15.9172 0.524002 16.5502C0.778 17.2222 1.172 17.8238 1.68 18.324C2.18 18.8319 2.786 19.2266 3.45 19.4765C4.087 19.7227 4.813 19.8946 5.876 19.9414C6.943 19.9884 7.283 20 9.998 20C12.713 20 13.053 19.9884 14.12 19.9414C15.183 19.8945 15.913 19.7227 16.546 19.4765C17.211 19.2195 17.815 18.8265 18.319 18.3225C18.822 17.8186 19.216 17.215 19.473 16.5502C19.719 15.9134 19.891 15.1866 19.938 14.1239C19.984 13.0573 19.996 12.7174 19.996 10.002C19.996 7.28661 19.992 6.9467 19.945 5.88008ZM18.144 14.0458C18.101 15.0225 17.937 15.55 17.8 15.9016C17.464 16.7729 16.773 17.4644 15.902 17.8005C15.55 17.9372 15.019 18.1013 14.046 18.1442C12.991 18.1912 12.674 18.2028 10.006 18.2028C7.337 18.2028 7.017 18.1912 5.966 18.1442C4.989 18.1013 4.462 17.9372 4.11 17.8005C3.677 17.6402 3.282 17.3863 2.961 17.0542C2.629 16.7299 2.375 16.3392 2.215 15.9056C2.078 15.554 1.914 15.0225 1.871 14.0498C1.824 12.9949 1.813 12.6783 1.813 10.0098C1.813 7.34123 1.824 7.02089 1.871 5.96998C1.914 4.99322 2.078 4.46577 2.215 4.11414C2.375 3.68038 2.629 3.28581 2.965 2.96536C3.29 2.63326 3.68 2.3793 4.114 2.21923C4.466 2.08248 4.997 1.91839 5.97 1.87537C7.025 1.82849 7.341 1.81677 10.01 1.81677C12.682 1.81677 12.999 1.82849 14.05 1.87537C15.026 1.91843 15.554 2.08245 15.905 2.21919C16.339 2.3793 16.734 2.63326 17.054 2.96536C17.386 3.28968 17.64 3.68038 17.8 4.11414C17.937 4.46577 18.101 4.99701 18.144 5.96998C18.191 7.02488 18.203 7.34123 18.203 10.0098C18.203 12.6783 18.191 12.9909 18.144 14.0458Z" fill="#C1B486"/>
<path d="M10.002 4.86422C7.166 4.86422 4.864 7.16538 4.864 10.002C4.864 12.8385 7.166 15.1397 10.002 15.1397C12.838 15.1397 15.14 12.8385 15.14 10.002C15.14 7.16538 12.838 4.86422 10.002 4.86422ZM10.002 13.3347C8.162 13.3347 6.669 11.8422 6.669 10.002C6.669 8.1617 8.162 6.66926 10.002 6.66926C11.842 6.66926 13.335 8.1617 13.335 10.002C13.335 11.8422 11.842 13.3347 10.002 13.3347ZM16.542 4.66105C16.542 5.32345 16.005 5.86051 15.343 5.86051C14.68 5.86051 14.143 5.32345 14.143 4.66105C14.143 3.99857 14.68 3.46167 15.343 3.46167C16.005 3.46167 16.542 3.99853 16.542 4.66105Z" fill="#C1B486"/>
</svg>
