<?xml version="1.0" encoding="utf-8"?>
<!-- Generator: Adobe Illustrator 26.2.1, SVG Export Plug-In . SVG Version: 6.00 Build 0)  -->
<svg version="1.1" id="Layer_1" xmlns="http://www.w3.org/2000/svg" xmlns:xlink="http://www.w3.org/1999/xlink" x="0px" y="0px"
	 viewBox="0 0 252.5 74.4" style="enable-background:new 0 0 252.5 74.4;" xml:space="preserve">
<style type="text/css">
	.st0{fill:none;stroke:#393216;stroke-width:0.5;stroke-linecap:round;stroke-linejoin:round;}
</style>
<path class="st0" d="M84.3,74.5H0.5V0.4L84.3,74.5z"/>
<path class="st0" d="M51,0.4h33.4v29.5L51,0.4z"/>
<path class="st0" d="M0.5,74l41.6-36.8"/>
<path class="st0" d="M51,0.4V45"/>
<path class="st0" d="M168.2,74.5H84.3V0.4L168.2,74.5z"/>
<path class="st0" d="M134.9,0.4h33.3v29.5L134.9,0.4z"/>
<path class="st0" d="M84.3,74L126,37.2"/>
<path class="st0" d="M134.9,0.4V45"/>
<path class="st0" d="M252.1,74.5h-83.9V0.4L252.1,74.5z"/>
<path class="st0" d="M218.7,0.4h33.3v29.5L218.7,0.4z"/>
<path class="st0" d="M168.2,74l41.6-36.8"/>
<path class="st0" d="M218.7,0.4V45"/>
<path class="st0" d="M-634.8-536.4h-83.9v74.1L-634.8-536.4z"/>
<path class="st0" d="M-668.1-462.3h33.4v-29.5L-668.1-462.3z"/>
<path class="st0" d="M-668.1-462.3v-44.6"/>
<path class="st0" d="M-550.9-536.4h-83.8v74.1L-550.9-536.4z"/>
<path class="st0" d="M-584.3-462.3h33.3v-29.5L-584.3-462.3z"/>
<path class="st0" d="M-584.3-462.3v-44.6"/>
<path class="st0" d="M-467.1-536.4h-83.9v74.1L-467.1-536.4z"/>
<path class="st0" d="M-500.4-462.3h33.3v-29.5L-500.4-462.3z"/>
<path class="st0" d="M-500.4-462.3v-44.6"/>
<path class="st0" d="M-550.9-462.3h83.9v74.1L-550.9-462.3z"/>
<path class="st0" d="M-517.6-388.3h-33.4v-29.5L-517.6-388.3z"/>
<path class="st0" d="M-467.1-461.8l-41.6,36.8"/>
<path class="st0" d="M-517.6-388.3v-44.6"/>
<path class="st0" d="M-634.8-462.3h83.8v74.1L-634.8-462.3z"/>
<path class="st0" d="M-601.5-388.3h-33.3v-29.5L-601.5-388.3z"/>
<path class="st0" d="M-550.9-461.8l-41.6,36.8"/>
<path class="st0" d="M-601.5-388.3v-44.6"/>
<path class="st0" d="M-718.7-462.3h83.9v74.1L-718.7-462.3z"/>
<path class="st0" d="M-685.3-388.3h-33.3v-29.5L-685.3-388.3z"/>
<path class="st0" d="M-634.8-461.8l-41.6,36.8"/>
<path class="st0" d="M-685.3-388.3v-44.6"/>
</svg>
