<?xml version="1.0" encoding="utf-8"?>
<!-- Generator: Adobe Illustrator 26.2.1, SVG Export Plug-In . SVG Version: 6.00 Build 0)  -->
<svg version="1.1" id="Layer_1" xmlns="http://www.w3.org/2000/svg" xmlns:xlink="http://www.w3.org/1999/xlink" x="0px" y="0px"
	 viewBox="0 0 264 83" style="enable-background:new 0 0 264 83;" xml:space="preserve">
<style type="text/css">
	.st0{fill:#FFFFFF;}
	.st1{fill:#F37A2B;}
</style>
<path class="st0" d="M9.5,55.1c0.7-2.2,1.4-4.4,2.1-6.7c3.1-10.6,6.2-21.1,9.4-31.7c1.6-5.3,7.1-7.8,11.8-5.2c1.8,1,3,2.6,3.9,4.3
	c4.4,8,8.9,16,13.3,24c0.2,0.3,0.3,0.6,0.6,1c0.6-1.1,1.2-2.1,1.7-3.1c4.2-7.6,8.4-15.1,12.6-22.7c2.3-4.1,6.6-5.6,10.7-3.9
	c2.3,1,3.8,2.8,4.5,5.2c3.1,10.4,6.2,20.8,9.3,31.2c0.8,2.6,1.5,5.2,2.3,7.9c-0.5,0-0.9,0.1-1.3,0.1c-3.7,0-7.3,0-11,0
	c-1.1,0-1.4-0.3-1.7-1.3c-2.1-8.4-4.3-16.7-6.5-25.1c-0.1-0.3-0.2-0.5-0.3-1c-1.1,2.1-2.2,4.1-3.2,6c-2.7,5.1-5.2,10.2-8,15.2
	c-1,1.8-2.4,3.4-3.8,4.9c-1.2,1.4-3.1,1.7-4.8,2.1c-0.4,0-0.8,0-1.2,0c-0.1-0.1-0.3-0.2-0.4-0.2c-2.5-0.2-4.4-1.4-5.9-3.4
	c-1.1-1.4-2-2.9-2.9-4.5c-3.4-6.4-6.7-12.8-10.1-19.2c-0.1-0.3-0.3-0.5-0.6-1c-0.6,2.2-1.1,4.2-1.6,6.1c-1.7,6.7-3.5,13.4-5.2,20
	c-0.1,0.5-0.1,1.2-1,1.2c-4.3-0.1-8.6-0.1-12.9-0.1C9.5,55.4,9.5,55.2,9.5,55.1z"/>
<path class="st1" d="M257.1,49.3c-0.1,0.1-0.2,0.2-0.2,0.3c-0.5,3.7-3.5,5.9-7.1,6c-7.1,0.1-14.2,0.1-21.3,0.1
	c-0.3,0-0.7-0.2-0.8-0.4c-2.5-3.5-4.9-7.1-7.5-10.8c6.4,0,12.6,0,19.2,0c-4.2-6.1-8.2-12-12.4-18c-0.8,1.1-1.6,2.2-2.3,3.2
	c-5.9,8.4-11.9,16.7-17.8,25.1c-0.5,0.7-1,1-1.9,1c-5,0-9.9,0-15.1,0c0.3-0.5,0.5-0.8,0.7-1.1c9.1-12.8,18.2-25.5,27.3-38.3
	c1.6-2.2,3.4-4.2,6.1-5.1c4.7-1.5,9.1,0.1,12.1,4.5c4.3,6.2,8.6,12.3,12.8,18.5c1.7,2.4,3.4,4.9,5.1,7.3c1.2,1.8,2.6,3.4,3.1,5.6
	C257.1,47.7,257.1,48.5,257.1,49.3z"/>
<path class="st0" d="M153.3,10.5c-2.9,3.3-4.8,7-8.1,9.5c-1.8,1.4-3.9,2.1-6.3,2.1c-8.6,0-17.2,0-25.9,0.1c-0.7,0-1.4,0.1-2.1,0.2
	c-1.6,0.3-2.3,1.2-2.3,2.7c0,1.5,0.7,2.5,2.2,2.8c1.1,0.2,2.2,0.3,3.2,0.3c8.1,0,16.2,0,24.4,0c3.2,0,6.3,0.4,9.2,1.7
	c5.2,2.3,6.8,6.3,6.6,11.1c-0.1,3.8-1.2,7.3-4.3,9.9c-2.3,1.9-5,2.9-7.9,3.4c-2.1,0.3-4.2,0.5-6.2,0.5c-13.5,0-27,0-40.4,0
	c-0.5,0-0.9,0-1.6,0c0.3-0.4,0.4-0.7,0.6-1c1.5-2,3.1-4,4.6-6c2.3-3,5.4-4.5,9.2-4.5c9.2,0,18.5,0,27.7,0c1,0,2.1-0.2,3.1-0.5
	c1.3-0.4,1.8-1.4,1.8-2.9c0-1.3-0.7-2.3-1.9-2.6c-1-0.3-2.1-0.3-3.2-0.3c-8.1,0-16.2,0-24.4,0c-3.2,0-6.3-0.5-9.3-1.8
	c-5-2.3-7.1-6.5-6.8-11.7c0.4-8,5.7-11.1,11.7-12.3c2.3-0.5,4.7-0.7,7-0.7c12.5-0.1,25,0,37.5,0C152.1,10.5,152.5,10.5,153.3,10.5z"
	/>
<path class="st0" d="M185.8,55.5c-4.7,0-9.2,0-13.9,0c0-10.8,0-21.6,0-32.6c-7.7,0-15.4,0-23,0c0-0.2-0.1-0.3-0.1-0.3
	c2.1-2.7,4-5.4,6.3-7.9c2.2-2.5,5.3-3.4,8.6-3.4c4.3,0,48.5,0,49.2,0c-0.5,0.6-0.8,1.1-1.2,1.5c-1.6,2-3.2,4.1-4.8,6.1
	c-2.3,2.8-5.3,3.9-8.8,3.9c-4,0-8.1,0-12.3,0C185.8,33.7,185.8,44.6,185.8,55.5z"/>
<g>
	<path class="st0" d="M13.9,66v1.5H9v2.2h4.4v1.5H9v2.3h5V75H7.3v-9H13.9z"/>
	<path class="st0" d="M23.2,66l4.6,6.1V66h1.7v9h-1.6l-4.6-6.1V75h-1.7v-9H23.2z"/>
	<path class="st0" d="M43.7,70.5h1.5v3.4c-0.9,0.7-2.3,1.2-3.6,1.2c-2.7,0-4.7-2-4.7-4.6S39,66,41.7,66c1.3,0,2.6,0.5,3.5,1.3
		l-1,1.3c-0.7-0.6-1.6-1-2.5-1c-1.7,0-3.1,1.3-3.1,3c0,1.7,1.4,3,3.1,3c0.6,0,1.3-0.2,1.9-0.6V70.5z"/>
	<path class="st0" d="M54.7,66v9H53v-9H54.7z"/>
	<path class="st0" d="M64.4,66l4.6,6.1V66h1.7v9H69l-4.6-6.1V75h-1.7v-9H64.4z"/>
	<path class="st0" d="M85.3,66v1.5h-4.9v2.2h4.4v1.5h-4.4v2.3h5V75h-6.7v-9H85.3z"/>
	<path class="st0" d="M99.6,66v1.5h-4.9v2.2h4.4v1.5h-4.4v2.3h5V75H93v-9H99.6z"/>
	<path class="st0" d="M113,75l-1.6-2.7c-0.1,0-0.2,0-0.3,0h-2V75h-1.7v-9h3.7c2.3,0,3.6,1.1,3.6,3.1c0,1.4-0.6,2.4-1.8,2.9l2,3H113z
		 M109.1,70.9h2c1.3,0,2-0.6,2-1.7c0-1.1-0.7-1.6-2-1.6h-2V70.9z"/>
	<path class="st0" d="M124.2,66v9h-1.7v-9H124.2z"/>
	<path class="st0" d="M133.8,66l4.6,6.1V66h1.7v9h-1.6l-4.6-6.1V75h-1.7v-9H133.8z"/>
	<path class="st0" d="M154.2,70.5h1.5v3.4c-0.9,0.7-2.3,1.2-3.6,1.2c-2.7,0-4.7-2-4.7-4.6s2.1-4.5,4.9-4.5c1.3,0,2.6,0.5,3.5,1.3
		l-1,1.3c-0.7-0.6-1.6-1-2.5-1c-1.7,0-3.1,1.3-3.1,3c0,1.7,1.4,3,3.1,3c0.6,0,1.3-0.2,1.9-0.6V70.5z"/>
	<path class="st0" d="M180.5,69.1c0,2.1-1.3,3.2-3.6,3.2h-2V75h-1.7v-9h3.7C179.2,66,180.5,67.1,180.5,69.1z M178.9,69.2
		c0-1.1-0.7-1.6-2-1.6H175v3.3h1.9C178.1,70.9,178.9,70.3,178.9,69.2z"/>
	<path class="st0" d="M188.5,66l2.6,7.1l2.7-7.1h1.8l-3.6,9h-1.8l-3.6-9H188.5z"/>
	<path class="st0" d="M208.9,66v1.5h-2.8V75h-1.7v-7.5h-2.8V66H208.9z"/>
	<path class="st0" d="M216.4,74.2c0,0.5-0.4,0.9-0.9,0.9c-0.5,0-0.9-0.4-0.9-0.9s0.4-0.9,0.9-0.9C216.1,73.3,216.4,73.7,216.4,74.2z
		"/>
	<path class="st0" d="M225.6,66v7.4h3.9V75h-5.6v-9H225.6z"/>
	<path class="st0" d="M243,66v1.5h-2.8V75h-1.7v-7.5h-2.8V66H243z"/>
	<path class="st0" d="M258.5,70.5c0,2.6-2,4.5-4.7,4.5h-3.7v-9h3.7C256.5,66,258.5,67.9,258.5,70.5z M256.7,70.5c0-1.8-1.3-3-3-3h-2
		v6h2.1C255.5,73.5,256.7,72.3,256.7,70.5z"/>
</g>
</svg>
