<?xml version="1.0" encoding="utf-8"?>
<!-- Generator: Adobe Illustrator 26.2.1, SVG Export Plug-In . SVG Version: 6.00 Build 0)  -->
<svg version="1.1" id="Layer_1" xmlns="http://www.w3.org/2000/svg" xmlns:xlink="http://www.w3.org/1999/xlink" x="0px" y="0px"
	 viewBox="0 0 179.6 180.2" style="enable-background:new 0 0 179.6 180.2;" xml:space="preserve">
<style type="text/css">
	.st0{fill:#F37A2B;}
	.st1{fill:#0A0A0A;}
	.st2{fill:#FFFFFF;}
</style>
<path class="st0" d="M49,113c0.7-2.2,1.4-4.4,2.1-6.7c3.1-10.6,6.2-21.1,9.4-31.7c1.6-5.3,7.1-7.8,11.8-5.2c1.8,1,3,2.6,3.9,4.3
	c4.4,8,8.9,16,13.3,24c0.2,0.3,0.3,0.6,0.6,1c0.6-1.1,1.2-2.1,1.7-3.1c4.2-7.6,8.4-15.1,12.6-22.7c2.3-4.1,6.6-5.6,10.7-3.9
	c2.3,1,3.8,2.8,4.5,5.2c3.1,10.4,6.2,20.8,9.3,31.2c0.8,2.6,1.5,5.2,2.3,7.9c-0.5,0-0.9,0.1-1.3,0.1c-3.7,0-7.3,0-11,0
	c-1.1,0-1.4-0.3-1.7-1.3c-2.1-8.4-4.3-16.7-6.5-25.1c-0.1-0.3-0.2-0.5-0.3-1c-1.1,2.1-2.2,4.1-3.2,6c-2.7,5.1-5.2,10.2-8,15.2
	c-1,1.8-2.4,3.4-3.8,4.9c-1.2,1.4-3.1,1.7-4.8,2.1c-0.4,0-0.8,0-1.2,0c-0.1-0.1-0.3-0.2-0.4-0.2c-2.5-0.2-4.4-1.4-5.9-3.4
	c-1.1-1.4-2-2.9-2.9-4.5C77,100,73.7,93.6,70.3,87.2c-0.1-0.3-0.3-0.5-0.6-1c-0.6,2.2-1.1,4.2-1.6,6.1c-1.7,6.7-3.5,13.4-5.2,20
	c-0.1,0.5-0.1,1.2-1,1.2c-4.3-0.1-8.6-0.1-12.9-0.1C49,113.3,49,113.1,49,113z"/>
<path class="st1" d="M159.6,21.8v139h-139v-139h69.5H159.6 M166.9,14.5H90.1H13.3v153.7h153.7V14.5L166.9,14.5z"/>
<g>
	<path class="st0" d="M142.2,39.2v104.2H38V39.2h52.1H142.2 M149.6,31.9H90.1H30.6v118.9h118.9V31.9L149.6,31.9z"/>
</g>
<g>
	<g>
		<g>
			<polygon class="st2" points="101.7,23.4 78.5,23.4 78.5,5.6 101.7,5.6 			"/>
		</g>
		<g>
			<polygon class="st2" points="78.5,176 78.5,158.3 101.7,158.3 101.7,176 			"/>
		</g>
	</g>
	<g>
		<g>
			<rect x="157.6" y="79.3" class="st2" width="17.7" height="23.2"/>
		</g>
		<g>
			<rect x="4.9" y="79.3" class="st2" width="17.7" height="23.2"/>
		</g>
	</g>
</g>
<g>
	<g>
		<g>
			<rect x="86.4" y="4.3" class="st1" width="7.3" height="18"/>
		</g>
		<g>
			<rect x="86.4" y="159.4" class="st1" width="7.3" height="18"/>
		</g>
	</g>
	<g>
		<g>
			<rect x="158.6" y="87.2" class="st1" width="18" height="7.3"/>
		</g>
		<g>
			<rect x="3.5" y="87.2" class="st1" width="18" height="7.3"/>
		</g>
	</g>
</g>
</svg>
