<?xml version="1.0" standalone="no"?>
<!DOCTYPE svg PUBLIC "-//W3C//DTD SVG 1.1//EN" "http://www.w3.org/Graphics/SVG/1.1/DTD/svg11.dtd" >
<svg xmlns="http://www.w3.org/2000/svg" xmlns:xlink="http://www.w3.org/1999/xlink" version="1.1">
<metadata>
Created by FontForge 20201107 at Mon Mar 11 11:03:39 2024
 By 
Glancyr (c) Drizy Studio 2022
</metadata>
<defs>
<font id="Glancyr-Medium" horiz-adv-x="1196" >
  <font-face 
    font-family="Glancyr Med"
    font-weight="500"
    font-stretch="normal"
    units-per-em="2048"
    panose-1="0 0 0 0 0 0 0 0 0 0"
    ascent="1536"
    descent="-512"
    x-height="1024"
    cap-height="1434"
    bbox="-401 -489 2144 2091"
    underline-thickness="102"
    underline-position="-255"
    unicode-range="U+000D-FB06"
  />
<missing-glyph horiz-adv-x="512" 
 />
    <glyph glyph-name="f_f" unicode="ff" horiz-adv-x="1892" 
d="M246 1120q0 210 95.5 313t301.5 103q98 0 169 -21.5t123 -69.5t77.5 -130t25.5 -199h-252q0 88 -33.5 124t-103.5 36q-63 0 -93 -38t-30 -130v-84h553v96q0 210 95.5 313t300.5 103q200 0 298.5 -95.5t98.5 -324.5h-252q0 88 -33.5 124t-103.5 36q-64 0 -94.5 -38
t-30.5 -130v-84h491v-252h-491v-772h-279v772h-553v-772h-280v772h-205v252h205v96z" />
    <glyph glyph-name="fi" unicode="fi" horiz-adv-x="1382" 
d="M246 1120q0 210 128 313t404 103q132 0 227.5 -21.5t165.5 -69.5t105 -130t35 -199h-252q0 88 -68.5 124t-210.5 36q-130 0 -192 -38t-62 -130v-84h785v-1024h-281v772h-504v-772h-280v772h-205v252h205v96z" />
    <glyph glyph-name="fl" unicode="fl" horiz-adv-x="1488" 
d="M246 1120q0 210 134.5 313t422.5 103q110 0 197.5 -12t161 -39.5t122 -70.5t75.5 -107t27 -148v-1159h-280v1085q0 112 -71.5 151.5t-231.5 39.5q-141 0 -209 -38t-68 -130v-84h492v-252h-492v-772h-280v772h-205v252h205v96z" />
    <glyph glyph-name="f_f_i" unicode="ffi" horiz-adv-x="2215" 
d="M246 1120q0 210 95.5 313t301.5 103q98 0 169 -21.5t123 -69.5t77.5 -130t25.5 -199h-252q0 88 -33.5 124t-103.5 36q-63 0 -93 -38t-30 -130v-84h553v96q0 210 128.5 313t404.5 103q267 0 399.5 -95.5t132.5 -324.5h-254q0 88 -68 124t-210 36q-129 0 -191.5 -38
t-62.5 -130v-84h786v-1024h-280v772h-506v-772h-279v772h-553v-772h-280v772h-205v252h205v96z" />
    <glyph glyph-name="f_t" unicode="ft" horiz-adv-x="1904" 
d="M246 1120q0 210 95.5 313t301.5 103q98 0 169 -21.5t123 -69.5t77.5 -130t25.5 -199h-252q0 88 -33.5 124t-103.5 36q-63 0 -93 -38t-30 -130v-84h545l111 410h170v-410h499v-252h-499v-371q0 -81 26.5 -126.5t96.5 -45.5q67 0 103 36.5t36 123.5h252q0 -117 -27 -199
t-80 -130t-125 -69.5t-170 -21.5q-198 0 -295.5 98.5t-97.5 305.5v399h-545v-772h-280v772h-205v252h205v96z" />
    <glyph glyph-name=".notdef" horiz-adv-x="512" 
 />
    <glyph glyph-name="uni0000" horiz-adv-x="0" 
 />
    <glyph glyph-name="uni0000" horiz-adv-x="0" 
 />
    <glyph glyph-name="uni000D" unicode="&#xd;" horiz-adv-x="512" 
 />
    <glyph glyph-name="space" unicode=" " horiz-adv-x="532" 
 />
    <glyph glyph-name="exclam" unicode="!" horiz-adv-x="464" 
d="M92 1434h281l-41 -942h-199zM61 139q0 87 41 129.5t129 42.5q90 0 131 -42.5t41 -129.5t-41 -128.5t-131 -41.5q-88 0 -129 41.5t-41 128.5z" />
    <glyph glyph-name="quotedbl" unicode="&#x22;" horiz-adv-x="731" 
d="M92 928l-31 506h170l-30 -506h-109zM406 928l-31 506h170l-31 -506h-108z" />
    <glyph glyph-name="numbersign" unicode="#" horiz-adv-x="1265" 
d="M63 854v170h363l137 410h182l-137 -410h236l139 410h182l-139 -410h178v-170h-235l-117 -346h352v-172h-409l-115 -336h-182l114 336h-237l-113 -336h-182l113 336h-130v172h189l117 346h-306zM434 508h236l116 346h-235z" />
    <glyph glyph-name="dollar" unicode="$" horiz-adv-x="1404" 
d="M618 -328v299q-133 6 -233.5 35.5t-174 87t-111.5 148.5t-38 215h281q0 -57 20.5 -97.5t60 -63.5t86 -34.5t109.5 -15.5v327q-106 19 -182.5 40.5t-149.5 56.5t-117.5 80.5t-71.5 113.5t-27 156q0 220 132 325t416 117v156h170v-156q264 -14 401.5 -129t137.5 -356h-280
q0 73 -36 119t-90 64.5t-133 23.5v-318q139 -23 235 -54.5t171.5 -84t112 -132t36.5 -189.5q0 -214 -133 -317.5t-422 -117.5v-299h-170zM618 893v293q-128 -6 -185.5 -42.5t-57.5 -103.5q0 -60 55 -91.5t188 -55.5zM788 549v-305q127 6 189.5 41.5t62.5 105.5q0 37 -19 64
t-57.5 45t-78 28.5t-97.5 20.5z" />
    <glyph glyph-name="percent" unicode="%" horiz-adv-x="1638" 
d="M61 1087q0 377 316 377q313 0 313 -377q0 -380 -313 -380q-316 0 -316 380zM305 0l813 1434h197l-813 -1434h-197zM242 1087q0 -210 135 -210q133 0 133 210q0 207 -133 207q-71 0 -103 -51.5t-32 -155.5zM948 350q0 377 316 377q313 0 313 -377q0 -381 -313 -381
q-316 0 -316 381zM1128 350q0 -211 136 -211q133 0 133 211q0 207 -133 207q-71 0 -103.5 -52t-32.5 -155z" />
    <glyph glyph-name="ampersand" unicode="&#x26;" horiz-adv-x="1681" 
d="M874 664l332 -273q123 120 123 320v28h266v-24q0 -131 -41 -263.5t-131 -238.5l258 -213h-368l-82 63q-180 -94 -440 -94q-203 0 -344.5 27.5t-226 85t-122 137t-37.5 191.5q0 97 33.5 171t87 119.5t131.5 77.5q-123 130 -123 271q0 197 125.5 306t382.5 109
q516 0 516 -438q0 -80 -26.5 -141.5t-77 -103.5t-106 -68.5t-130.5 -48.5zM629 852q151 27 215.5 62.5t64.5 109.5q0 81 -53.5 124.5t-157.5 43.5q-114 0 -159 -41.5t-45 -114.5q0 -87 135 -184zM582 561q-12 12 -35 25q-96 -27 -139 -65t-43 -103q0 -60 34.5 -96.5
t132.5 -58t269 -21.5q77 0 168 22z" />
    <glyph glyph-name="quotesingle" unicode="'" horiz-adv-x="292" 
d="M92 928l-31 506h170l-30 -506h-109z" />
    <glyph glyph-name="parenleft" unicode="(" horiz-adv-x="657" 
d="M231 543q0 -141 25 -285t69.5 -267t115.5 -200.5t155 -77.5v-143q-87 0 -161.5 36t-128.5 96.5t-97 143t-70 171.5t-45 186.5t-25.5 183.5t-7.5 166t7.5 166t25.5 183.5t45 186.5t70 171.5t97 143t128.5 96.5t161.5 36v-143q-84 0 -155 -77.5t-115.5 -202t-69.5 -273
t-25 -297.5z" />
    <glyph glyph-name="parenright" unicode=")" horiz-adv-x="657" 
d="M426 543q0 149 -25 297.5t-69.5 273t-115.5 202t-155 77.5v143q87 0 161.5 -36t128.5 -96.5t97 -143t70 -171.5t45 -186.5t25.5 -183.5t7.5 -166t-7.5 -166t-25.5 -183.5t-45 -186.5t-70 -171.5t-97 -143t-128.5 -96.5t-161.5 -36v143q84 0 155 77.5t115.5 200.5
t69.5 267t25 285z" />
    <glyph glyph-name="asterisk" unicode="*" horiz-adv-x="1024" 
d="M428 1536h170l-12 -379l346 80l31 -168l-330 -51l219 -293l-145 -94l-193 305l-195 -305l-145 94l219 293l-332 51l31 168l350 -80z" />
    <glyph glyph-name="plus" unicode="+" horiz-adv-x="737" 
d="M61 473v170h222v221h172v-221h221v-170h-221v-223h-172v223h-222z" />
    <glyph glyph-name="comma" unicode="," horiz-adv-x="448" 
d="M72 127q0 79 37.5 117.5t119.5 38.5t120 -38.5t38 -117.5q0 -66 -15 -131t-46.5 -127.5t-86.5 -113t-128 -77.5l-35 52q128 117 147 239q-78 1 -114.5 39.5t-36.5 118.5z" />
    <glyph glyph-name="hyphen" unicode="-" horiz-adv-x="655" 
d="M61 397v170h533v-170h-533z" />
    <glyph glyph-name="period" unicode="." horiz-adv-x="436" 
d="M61 127q0 79 38 117.5t120 38.5q81 0 118.5 -38.5t37.5 -117.5t-37.5 -118.5t-118.5 -39.5q-82 0 -120 39.5t-38 118.5z" />
    <glyph glyph-name="slash" unicode="/" horiz-adv-x="880" 
d="M0 0l690 1434h191l-691 -1434h-190z" />
    <glyph glyph-name="zero" unicode="0" horiz-adv-x="1314" 
d="M61 717q0 747 596 747t596 -747q0 -748 -596 -748t-596 748zM365 717q0 -475 292 -475q291 0 291 475t-291 475q-158 0 -225 -115.5t-67 -359.5z" />
    <glyph glyph-name="one" unicode="1" horiz-adv-x="743" 
d="M348 0v1167h-307v267h600v-1434h-293z" />
    <glyph glyph-name="two" unicode="2" horiz-adv-x="1269" 
d="M61 0v274q0 62 8 113.5t26 93t40 75t57 62.5t68.5 50.5t84.5 43t95 37.5t109 37q195 63 245 87q87 42 105 101q6 21 6 46q0 172 -248 172q-53 0 -92.5 -4t-81.5 -17t-68.5 -36t-43.5 -63t-17 -95h-280q0 133 38.5 227.5t114.5 151t179 82.5t241 26q288 0 424.5 -109.5
t136.5 -338.5q0 -61 -13 -112.5t-33 -90.5t-57.5 -73.5t-73.5 -59t-95.5 -50.5t-108 -43.5t-125.5 -43.5q-14 -4 -52 -16.5t-53.5 -17.5t-49.5 -17.5t-49.5 -20t-43 -21.5t-40.5 -26t-31 -29.5t-26.5 -34.5t-14.5 -39.5t-6 -46.5v-8h866v-266h-1141z" />
    <glyph glyph-name="three" unicode="3" horiz-adv-x="1271" 
d="M434 850h150q75 0 130 10.5t86 27t49.5 41.5t24 48t5.5 53q0 162 -238 162q-55 0 -93 -4t-76 -17t-61 -36t-37 -62.5t-14 -95.5h-280q0 260 139 373.5t412 113.5q283 0 418 -105t135 -323q0 -185 -133 -305q159 -116 159 -313q0 -237 -140 -343t-449 -106
q-281 0 -430.5 114.5t-149.5 373.5h281q0 -55 16.5 -95t42.5 -63t68.5 -36t84 -17t99.5 -4q140 0 206 37t66 127q0 178 -317 178h-154v266z" />
    <glyph glyph-name="four" unicode="4" horiz-adv-x="1275" 
d="M778 0v332h-737v266l737 836h293v-836h164v-266h-164v-332h-293zM393 598h385v434z" />
    <glyph glyph-name="five" unicode="5" horiz-adv-x="1247" 
d="M147 1434h951v-267h-692l-25 -276h225q131 0 232 -21.5t181.5 -70t123.5 -135.5t43 -209q0 -257 -137 -371.5t-433 -114.5q-287 0 -431 113.5t-144 374.5h281q0 -68 23 -113t67 -66t90 -28.5t110 -7.5q81 0 135 14t82.5 41.5t40 61t11.5 79.5q0 187 -320 187h-483z" />
    <glyph glyph-name="six" unicode="6" horiz-adv-x="1327" 
d="M670 1464q275 0 416 -114t141 -375h-279q0 217 -268 217q-148 0 -222 -85.5t-89 -275.5q139 56 288 56q91 0 173.5 -12.5t163.5 -44t140 -80t95.5 -127t36.5 -177.5q0 -226 -144.5 -351.5t-431.5 -125.5q-629 0 -629 748q0 379 150.5 563t458.5 184zM377 539
q25 -153 100.5 -225t212.5 -72q132 0 202.5 56t70.5 140q0 49 -24.5 84.5t-68 54.5t-95.5 28t-116 9q-156 0 -282 -75z" />
    <glyph glyph-name="seven" unicode="7" horiz-adv-x="1140" 
d="M61 1167v267h1018v-267l-600 -1167h-327l598 1167h-689z" />
    <glyph glyph-name="eight" unicode="8" horiz-adv-x="1325" 
d="M111 1024q0 440 555 440q548 0 548 -440q0 -172 -122 -287q172 -121 172 -325q0 -443 -598 -443q-605 0 -605 443q0 205 164 323q-114 114 -114 289zM414 1024q0 -170 252 -170q245 0 245 170q0 168 -245 168q-138 0 -195 -41t-57 -127zM365 412q0 -170 301 -170
q295 0 295 170t-295 170q-163 0 -232 -42t-69 -128z" />
    <glyph glyph-name="nine" unicode="9" horiz-adv-x="1327" 
d="M659 -31q-277 0 -418 114.5t-141 375.5h281q0 -217 266 -217q148 0 222 85t89 275q-133 -55 -286 -55q-91 0 -174 12.5t-164.5 44t-140.5 80t-95.5 126.5t-36.5 177q0 226 144.5 351.5t431.5 125.5q629 0 629 -747q0 -379 -149.5 -563.5t-457.5 -184.5zM950 893
q-25 154 -100 226.5t-213 72.5q-132 0 -202 -56.5t-70 -140.5q0 -49 24.5 -84t68 -54.5t95.5 -28.5t115 -9q152 0 282 74z" />
    <glyph glyph-name="colon" unicode=":" horiz-adv-x="436" 
d="M61 844q0 79 38 117t120 38q81 0 118.5 -38t37.5 -117t-37.5 -118.5t-118.5 -39.5q-82 0 -120 39.5t-38 118.5zM61 127q0 79 38 117.5t120 38.5q81 0 118.5 -38.5t37.5 -117.5t-37.5 -118.5t-118.5 -39.5q-82 0 -120 39.5t-38 118.5z" />
    <glyph glyph-name="semicolon" unicode=";" horiz-adv-x="448" 
d="M68 844q0 79 37 117t118 38q82 0 120 -38t38 -117t-38 -118.5t-120 -39.5q-80 0 -117.5 39.5t-37.5 118.5zM72 127q0 79 37.5 117.5t119.5 38.5t120 -38.5t38 -117.5q0 -66 -15 -131t-46.5 -127.5t-86.5 -113t-128 -77.5l-35 52q128 117 147 239q-78 1 -114.5 39.5
t-36.5 118.5z" />
    <glyph glyph-name="less" unicode="&#x3c;" horiz-adv-x="890" 
d="M61 541v184l768 317v-184l-544 -225l544 -225v-185z" />
    <glyph glyph-name="equal" unicode="=" horiz-adv-x="737" 
d="M61 676v170h615v-170h-615zM61 295v170h615v-170h-615z" />
    <glyph glyph-name="greater" unicode="&#x3e;" horiz-adv-x="890" 
d="M829 725v-184l-768 -318v185l545 225l-545 225v184z" />
    <glyph glyph-name="question" unicode="?" horiz-adv-x="1206" 
d="M344 492q0 81 27.5 143.5t71.5 100.5t97 67.5t106 52t97 46t71.5 57t27.5 77.5q0 156 -226 156q-61 0 -104.5 -7.5t-85 -28.5t-63 -66t-21.5 -113h-281q0 260 139 373.5t408 113.5q276 0 406.5 -99.5t130.5 -305.5q0 -88 -32 -156t-82.5 -109t-112 -72.5t-123 -54.5
t-112 -45.5t-82.5 -55t-32 -74.5h-225zM303 139q0 87 41 129.5t129 42.5q90 0 131 -42.5t41 -129.5t-41 -128.5t-131 -41.5q-88 0 -129 41.5t-41 128.5z" />
    <glyph glyph-name="at" unicode="@" horiz-adv-x="1921" 
d="M537 596q0 201 100.5 308.5t277.5 107.5q180 0 244 -131v106h225v-436q0 -59 33 -98t80 -39q34 0 58 12.5t37.5 32.5t20.5 57t9 73t2 93q0 578 -663 578q-298 0 -481 -179.5t-183 -472.5q0 -146 46 -276t131 -228.5t214.5 -155.5t286.5 -57q187 0 300.5 51.5t113.5 137.5
h196q0 -71 -23.5 -129.5t-61 -98t-90.5 -70.5t-107 -48.5t-116 -28.5t-111.5 -14.5t-98.5 -3.5q-207 0 -380.5 71.5t-290 195.5t-181 292t-64.5 360q0 254 112 449t316.5 302t471.5 107q203 0 368 -50.5t283.5 -147t183 -245t64.5 -337.5q0 -128 -26.5 -219t-77.5 -143
t-116 -75.5t-151 -23.5q-229 0 -301 176q-53 -217 -266 -217q-174 0 -279.5 108t-105.5 306zM772 596q0 -103 50 -156t145 -53q192 0 192 207q0 211 -194 211q-105 0 -149 -51t-44 -158z" />
    <glyph glyph-name="A" unicode="A" horiz-adv-x="1382" 
d="M-41 0l573 1434h316l575 -1434h-315l-92 227h-651l-91 -227h-315zM473 494h436l-219 546z" />
    <glyph glyph-name="B" unicode="B" horiz-adv-x="1464" 
d="M102 0v1434h709q205 0 327.5 -48.5t173 -139.5t50.5 -236q0 -168 -109 -271q170 -110 170 -313q0 -87 -18 -152.5t-60.5 -118.5t-110.5 -86.5t-168.5 -51t-234.5 -17.5h-729zM395 850h404q134 0 197 35.5t63 124.5q0 157 -258 157h-406v-317zM395 266h439
q149 0 217.5 36.5t68.5 123.5q0 77 -76 117.5t-210 40.5h-439v-318z" />
    <glyph glyph-name="C" unicode="C" horiz-adv-x="1521" 
d="M827 -31q-388 0 -577 185t-189 563t176.5 562.5t538.5 184.5q170 0 297 -29t217.5 -91.5t136.5 -164.5t46 -243h-281q0 256 -420 256q-220 0 -313.5 -111.5t-93.5 -361.5q0 -248 114 -362.5t352 -114.5q60 0 107.5 4.5t98.5 19t85 39.5t56 69.5t22 104.5h281
q0 -140 -46 -240t-134.5 -158.5t-204.5 -85t-269 -26.5z" />
    <glyph glyph-name="D" unicode="D" horiz-adv-x="1478" 
d="M102 0v1434h588q357 0 542 -181.5t185 -535.5t-185 -535.5t-542 -181.5h-588zM395 266h305q200 0 306 114.5t106 338.5q0 221 -106 334.5t-306 113.5h-305v-901z" />
    <glyph glyph-name="E" unicode="E" horiz-adv-x="1325" 
d="M102 0v1434h1147v-267h-854v-317h772v-266h-772v-318h875v-266h-1168z" />
    <glyph glyph-name="F" unicode="F" horiz-adv-x="1275" 
d="M102 0v1434h1133v-267h-840v-317h758v-266h-758v-584h-293z" />
    <glyph glyph-name="G" unicode="G" horiz-adv-x="1564" 
d="M696 -31q-304 0 -469.5 188.5t-165.5 559.5q0 378 176.5 562.5t538.5 184.5q170 0 297 -29t217.5 -91.5t136.5 -164.5t46 -243h-281q0 256 -420 256q-220 0 -313.5 -111.5t-93.5 -361.5q0 -477 403 -477q213 0 377 274h-385v254h723v-770h-281v283q-221 -314 -506 -314z
" />
    <glyph glyph-name="H" unicode="H" horiz-adv-x="1501" 
d="M102 0v1434h293v-584h711v584h293v-1434h-293v584h-711v-584h-293z" />
    <glyph glyph-name="I" unicode="I" horiz-adv-x="497" 
d="M102 0v1434h293v-1434h-293z" />
    <glyph glyph-name="J" unicode="J" horiz-adv-x="1249" 
d="M1167 573q0 -170 -36 -287t-111.5 -186.5t-180.5 -100t-253 -30.5q-131 0 -228.5 26.5t-170 85t-109.5 158.5t-37 240h281q0 -72 22 -121t63.5 -73t87 -33.5t105.5 -9.5q139 0 205.5 68.5t66.5 228.5v895h295v-861z" />
    <glyph glyph-name="K" unicode="K" horiz-adv-x="1374" 
d="M102 0v1434h293v-1434h-293zM760 717l614 -717h-364l-615 717l615 717h364z" />
    <glyph glyph-name="L" unicode="L" horiz-adv-x="1275" 
d="M102 0v1434h293v-1168h840v-266h-1133z" />
    <glyph glyph-name="M" unicode="M" horiz-adv-x="1882" 
d="M102 0v1434h293l547 -1026l545 1026h293v-1434h-293v848l-451 -848h-188l-453 848v-848h-293z" />
    <glyph glyph-name="N" unicode="N" horiz-adv-x="1478" 
d="M102 0v1434h293l688 -947v947h293v-1434h-293l-688 948v-948h-293z" />
    <glyph glyph-name="O" unicode="O" horiz-adv-x="1583" 
d="M61 717q0 747 732 747q729 0 729 -747q0 -748 -729 -748q-732 0 -732 748zM365 717q0 -475 428 -475q426 0 426 475t-426 475q-223 0 -325.5 -118t-102.5 -357z" />
    <glyph glyph-name="P" unicode="P" horiz-adv-x="1417" 
d="M102 0v1434h648q166 0 282.5 -31t188 -94.5t103.5 -154t32 -216.5q0 -125 -32 -215t-102.5 -153.5t-187.5 -94.5t-284 -31h-355v-444h-293zM395 711h350q92 0 152.5 13.5t94 43.5t46.5 70t13 100q0 61 -13 101.5t-47 70.5t-94 43.5t-152 13.5h-350v-456z" />
    <glyph glyph-name="Q" unicode="Q" horiz-adv-x="1583" 
d="M61 717q0 747 732 747q729 0 729 -747q0 -494 -320 -662l121 -256l-233 -94l-129 277q-86 -13 -168 -13q-732 0 -732 748zM365 717q0 -475 428 -475q7 0 21.5 1t21.5 1l-152 321l234 94l157 -333q144 117 144 391q0 475 -426 475q-223 0 -325.5 -118t-102.5 -357z" />
    <glyph glyph-name="R" unicode="R" horiz-adv-x="1417" 
d="M102 0v1434h648q166 0 282.5 -29t188 -89t103.5 -144.5t32 -202.5q0 -199 -97.5 -311t-314.5 -142l397 -516h-356l-391 506h-199v-506h-293zM395 772h350q92 0 152.5 12t94 38t46.5 60.5t13 86.5t-13 86.5t-46.5 61t-94 38.5t-152.5 12h-350v-395z" />
    <glyph glyph-name="S" unicode="S" horiz-adv-x="1404" 
d="M627 573q-107 19 -185 39.5t-152 55.5t-119.5 81t-73 114.5t-27.5 156.5q0 236 152.5 340t484.5 104q149 0 260 -26t193.5 -82.5t124.5 -151t42 -227.5h-280q0 55 -20 94t-51.5 61.5t-82 35.5t-98 16.5t-113.5 3.5q-163 0 -235 -37t-72 -111q0 -72 80.5 -104.5
t300.5 -65.5q117 -17 203.5 -39.5t162 -58.5t122 -85t73 -119.5t26.5 -161.5q0 -231 -155.5 -334t-495.5 -103q-120 0 -215.5 16t-174.5 52t-131.5 92.5t-81 139t-28.5 188.5h281q0 -55 21 -95t53.5 -63t85 -36t102 -17t117.5 -4q164 0 241.5 35.5t77.5 113.5q0 30 -12 53.5
t-38 40t-52.5 28t-70 20.5t-75.5 14.5t-84 13t-81 12.5z" />
    <glyph glyph-name="T" unicode="T" horiz-adv-x="1234" 
d="M471 0v1167h-444v267h1181v-267h-444v-1167h-293z" />
    <glyph glyph-name="U" unicode="U" horiz-adv-x="1447" 
d="M725 242q348 0 348 319v873h293v-824q0 -182 -42 -308t-127.5 -198.5t-199 -103.5t-272.5 -31t-273 31t-199.5 103.5t-128 198.5t-42.5 308v824h293v-873q0 -319 350 -319z" />
    <glyph glyph-name="V" unicode="V" horiz-adv-x="1327" 
d="M1368 1434l-547 -1434h-315l-547 1434h315l390 -1020l389 1020h315z" />
    <glyph glyph-name="W" unicode="W" horiz-adv-x="2037" 
d="M1178 1434l292 -932l293 932h316l-451 -1434h-315l-293 932l-295 -932h-315l-451 1434h315l293 -932l295 932h316z" />
    <glyph glyph-name="X" unicode="X" horiz-adv-x="1470" 
d="M915 717l555 -717h-360l-375 477l-375 -477h-360l555 717l-555 717h360l375 -478l375 478h360z" />
    <glyph glyph-name="Y" unicode="Y" horiz-adv-x="1357" 
d="M532 0v678l-532 756h350l330 -465l328 465h350l-533 -756v-678h-293z" />
    <glyph glyph-name="Z" unicode="Z" horiz-adv-x="1290" 
d="M61 1167v267h1168v-267l-774 -901h774v-266h-1168v266l775 901h-775z" />
    <glyph glyph-name="bracketleft" unicode="[" horiz-adv-x="491" 
d="M61 -410v1946h369v-170h-199v-1606h199v-170h-369z" />
    <glyph glyph-name="backslash" unicode="\" horiz-adv-x="880" 
d="M881 0h-191l-690 1434h190z" />
    <glyph glyph-name="bracketright" unicode="]" horiz-adv-x="491" 
d="M430 -410h-369v170h199v1606h-199v170h369v-1946z" />
    <glyph glyph-name="asciicircum" unicode="^" horiz-adv-x="942" 
d="M379 1434h184l318 -768h-185l-225 544l-225 -544h-185z" />
    <glyph glyph-name="underscore" unicode="_" horiz-adv-x="798" 
d="M-61 -383v172h921v-172h-921z" />
    <glyph glyph-name="a" unicode="a" 
d="M836 649q0 38 -11 67.5t-31 48t-43 30.5t-53.5 18t-55 8t-54.5 2q-37 0 -64 -2t-62 -11t-57.5 -24.5t-38.5 -45t-16 -70.5h-252q0 203 127 294t367 91q137 0 230.5 -21t161 -72t99 -139t31.5 -219v-604h-278v137q-33 -81 -116 -124.5t-237 -43.5q-78 0 -141.5 9
t-121 31.5t-96 59t-61 94t-22.5 132.5q0 151 108.5 223t321.5 94l365 33v4zM836 451l-312 -31q-94 -8 -143 -35.5t-49 -85.5q0 -98 196 -98q141 0 221 44.5t87 102.5v103z" />
    <glyph glyph-name="b" unicode="b" horiz-adv-x="1218" 
d="M383 0h-281v1536h281v-651q83 170 315 170q212 0 335.5 -140.5t123.5 -402.5q0 -130 -36.5 -234.5t-100 -171t-147.5 -102t-181 -35.5q-221 0 -309 176v-145zM866 512q0 143 -56.5 213t-182.5 70q-120 0 -182 -72t-62 -211q0 -138 62 -210.5t182 -72.5q113 0 176 73
t63 210z" />
    <glyph glyph-name="c" unicode="c" horiz-adv-x="1173" 
d="M625 1055q235 0 366 -124.5t131 -316.5h-252q0 81 -65.5 131t-181.5 50q-271 0 -271 -281q0 -285 287 -285q119 0 180.5 49t61.5 132h252q0 -94 -31 -173t-92 -139.5t-158.5 -94.5t-222.5 -34q-277 0 -422.5 138.5t-145.5 404.5q0 274 136.5 408.5t427.5 134.5z" />
    <glyph glyph-name="d" unicode="d" horiz-adv-x="1259" 
d="M877 0v152q-91 -183 -326 -183q-218 0 -354 142t-136 401q0 264 127.5 403.5t354.5 139.5q248 0 334 -176v657h280v-1536h-280zM352 512q0 -139 66 -211t194 -72q131 0 198 72t67 211q0 283 -265 283q-143 0 -201.5 -69t-58.5 -214z" />
    <glyph glyph-name="e" unicode="e" horiz-adv-x="1202" 
d="M1141 471v-41h-785q17 -123 87 -176t194 -53q103 0 170 43t67 104h254q0 -172 -129 -275.5t-364 -103.5q-287 0 -430.5 137t-143.5 406q0 261 139 402t398 141q286 0 414.5 -143.5t128.5 -440.5zM367 629h497q-17 97 -83 145.5t-169 48.5q-90 0 -154.5 -49.5
t-90.5 -144.5z" />
    <glyph glyph-name="f" unicode="f" horiz-adv-x="1058" 
d="M246 1120q0 210 95.5 313t301.5 103q98 0 169 -21.5t123 -69.5t77.5 -130t25.5 -199h-252q0 88 -33.5 124t-103.5 36q-63 0 -93 -38t-30 -130v-84h492v-252h-492v-772h-280v772h-205v252h205v96z" />
    <glyph glyph-name="g" unicode="g" horiz-adv-x="1214" 
d="M1133 1278v-213q-96 57 -228 57q-51 0 -98.5 -18t-67.5 -57q363 -49 363 -351q0 -358 -504 -358q-186 0 -243.5 -8t-57.5 -41q0 -32 63.5 -47t262.5 -37q213 -23 272 -36q160 -34 216 -120q42 -63 42 -164q0 -161 -129 -238t-387 -77q-302 0 -439 90t-137 289h252
q0 -80 84.5 -114t253.5 -34q135 0 203 20t68 68q0 17 -6.5 28.5t-21.5 19t-33 11.5t-49 6.5t-60 4t-75 5t-87 7.5q-203 21 -280 40q-197 49 -234 177q-10 33 -10 72q0 131 122 189q-104 85 -104 247q0 67 18 121t47 91t73.5 64.5t90 43t104.5 24.5t109 12t111 3
q14 117 88.5 191.5t194.5 74.5q95 0 213 -43zM375 696q0 -127 223 -127q213 0 213 127t-221 127q-119 0 -167 -29.5t-48 -97.5z" />
    <glyph glyph-name="h" unicode="h" horiz-adv-x="1239" 
d="M383 0h-281v1536h281v-651q109 170 342 170q221 0 326.5 -112t105.5 -378v-565h-280v539q0 129 -51 192.5t-185 63.5q-126 0 -192 -72t-66 -211v-512z" />
    <glyph glyph-name="i" unicode="i" horiz-adv-x="485" 
d="M72 1335q0 87 41 128.5t129 41.5q90 0 131 -41.5t41 -128.5t-41 -128.5t-131 -41.5q-88 0 -129 41.5t-41 128.5zM102 0v1024h281v-1024h-281z" />
    <glyph glyph-name="j" unicode="j" horiz-adv-x="755" 
d="M342 1335q0 87 41 128.5t131 41.5q88 0 129 -41.5t41 -128.5t-41 -128.5t-129 -41.5q-90 0 -131 41.5t-41 128.5zM653 61q0 -268 -101 -400t-294 -132q-97 0 -169 29.5t-114.5 84t-63 124.5t-20.5 157h238q0 -81 31.5 -122.5t89.5 -41.5q64 0 93.5 56t29.5 151v1057h280
v-963z" />
    <glyph glyph-name="k" unicode="k" horiz-adv-x="1200" 
d="M383 0h-281v1536h281v-1536zM725 512l475 -512h-342l-475 512l475 512h342z" />
    <glyph glyph-name="l" unicode="l" horiz-adv-x="485" 
d="M383 0h-281v1536h281v-1536z" />
    <glyph glyph-name="m" unicode="m" horiz-adv-x="1849" 
d="M1075 0h-280v565q0 110 -43.5 170t-153.5 60q-106 0 -160.5 -72t-54.5 -211v-512h-281v1024h281v-137q100 168 324 168q221 0 307 -164q102 164 321 164q229 0 330.5 -110.5t101.5 -379.5v-565h-278v539q0 129 -43 192.5t-154 63.5q-104 0 -160.5 -63.5t-56.5 -168.5
v-563z" />
    <glyph glyph-name="n" unicode="n" horiz-adv-x="1239" 
d="M1157 0h-280v539q0 129 -51 192.5t-185 63.5q-126 0 -192 -72t-66 -211v-512h-281v1024h281v-139q109 170 342 170q221 0 326.5 -112t105.5 -378v-565z" />
    <glyph glyph-name="o" unicode="o" horiz-adv-x="1280" 
d="M61 512q0 543 578 543q580 0 580 -543t-580 -543q-578 0 -578 543zM352 512q0 -283 287 -283q289 0 289 283t-289 283q-151 0 -219 -70t-68 -213z" />
    <glyph glyph-name="p" unicode="p" horiz-adv-x="1218" 
d="M383 -410h-281v1434h281v-139q83 170 315 170q212 0 335.5 -140.5t123.5 -402.5q0 -130 -36.5 -234.5t-100 -171t-147.5 -102t-181 -35.5q-221 0 -309 176v-555zM866 512q0 143 -56.5 213t-182.5 70q-120 0 -182 -72t-62 -211q0 -138 62 -210.5t182 -72.5q113 0 176 73
t63 210z" />
    <glyph glyph-name="q" unicode="q" horiz-adv-x="1259" 
d="M877 -410v562q-91 -183 -326 -183q-218 0 -354 142t-136 401q0 264 127.5 403.5t354.5 139.5q248 0 334 -176v145h280v-1434h-280zM352 512q0 -139 66 -211t194 -72q131 0 198 72t67 211q0 283 -265 283q-143 0 -201.5 -69t-58.5 -214z" />
    <glyph glyph-name="r" unicode="r" horiz-adv-x="1095" 
d="M383 0h-281v1024h281v-137q100 168 293 168q184 0 281.5 -110t97.5 -335h-252q0 84 -50.5 134.5t-142.5 50.5q-108 0 -167.5 -72.5t-59.5 -210.5v-512z" />
    <glyph glyph-name="s" unicode="s" horiz-adv-x="1144" 
d="M63 733q0 169 117 245.5t369 76.5q272 0 397 -90t125 -289h-254q0 82 -76.5 114.5t-244.5 32.5q-197 0 -197 -84q0 -35 68 -60t227 -52q208 -33 282 -57q139 -45 183 -143q24 -55 24 -132q0 -171 -119.5 -248.5t-359.5 -77.5q-282 0 -412.5 90t-130.5 289h252
q0 -80 84.5 -113.5t247.5 -33.5q102 0 152.5 23.5t50.5 62.5q0 24 -14 39t-44.5 25t-70.5 17t-100 15q-48 6 -74 10q-55 7 -97.5 14.5t-95 20.5t-91 29.5t-78 42.5t-64.5 58t-40.5 76.5t-15.5 98.5z" />
    <glyph glyph-name="t" unicode="t" horiz-adv-x="1097" 
d="M266 373v399h-225v252h225l109 410h170v-410h499v-252h-499v-371q0 -81 27 -126.5t98 -45.5q65 0 101 36.5t36 123.5h252q0 -117 -26.5 -199t-79.5 -130t-125 -69.5t-171 -21.5q-198 0 -294.5 98t-96.5 306z" />
    <glyph glyph-name="u" unicode="u" horiz-adv-x="1239" 
d="M82 1024h280v-539q0 -129 51 -192.5t185 -63.5q126 0 192 72t66 211v512h281v-1024h-281v139q-109 -170 -342 -170q-221 0 -326.5 112t-105.5 378v565z" />
    <glyph glyph-name="v" unicode="v" horiz-adv-x="1099" 
d="M395 0l-436 1024h307l285 -664l283 664h307l-436 -1024h-310z" />
    <glyph glyph-name="w" unicode="w" horiz-adv-x="1728" 
d="M334 0l-375 1024h307l223 -604l222 604h307l221 -604l221 604h309l-376 -1024h-308l-221 604l-221 -604h-309z" />
    <glyph glyph-name="x" unicode="x" horiz-adv-x="1163" 
d="M750 512l413 -512h-336l-245 305l-246 -305h-336l414 512l-414 512h336l246 -305l245 305h336z" />
    <glyph glyph-name="y" unicode="y" horiz-adv-x="1185" 
d="M844 39q-8 -23 -23 -66q-31 -89 -47 -130.5t-45.5 -105t-57.5 -92t-71.5 -61t-99 -44t-127.5 -11.5q-113 0 -190.5 52.5t-112.5 139.5t-35 203h239q0 -164 99 -164q22 0 41 11t32 25.5t28 46.5t24.5 57t27.5 75l15 41l-531 1008h318l340 -643l223 643h295z" />
    <glyph glyph-name="z" unicode="z" horiz-adv-x="1030" 
d="M61 772v252h908v-252l-512 -520h512v-252h-908v252l514 520h-514z" />
    <glyph glyph-name="braceleft" unicode="{" horiz-adv-x="827" 
d="M481 1001q0 -340 -174 -458q174 -118 174 -463q0 -96 14.5 -166t40.5 -114t68 -70t90 -35.5t113 -9.5v-144q-251 0 -373.5 127t-122.5 408q0 122 -18.5 201.5t-58.5 121t-90 57t-124 15.5v143q74 0 124 16t89.5 58t58.5 120.5t19 197.5q0 279 122.5 404.5t373.5 125.5
v-143q-81 0 -138 -17.5t-101 -60t-65.5 -120.5t-21.5 -194z" />
    <glyph glyph-name="bar" unicode="|" horiz-adv-x="292" 
d="M61 -410v1946h170v-1946h-170z" />
    <glyph glyph-name="braceright" unicode="}" horiz-adv-x="827" 
d="M346 1001q0 116 -21.5 194t-65.5 120.5t-101 60t-138 17.5v143q251 0 373.5 -125.5t122.5 -404.5q0 -119 19 -197.5t58.5 -120.5t89.5 -58t124 -16v-143q-74 0 -124 -15.5t-90 -57t-58.5 -121t-18.5 -201.5q0 -281 -122.5 -408t-373.5 -127v144q65 0 113 9.5t90 35.5
t68 70t40.5 114t14.5 166q0 345 174 463q-174 118 -174 458z" />
    <glyph glyph-name="exclamdown" unicode="&#xa1;" horiz-adv-x="464" 
d="M61 936q0 87 41 128.5t129 41.5q90 0 131 -41.5t41 -128.5t-41 -129.5t-131 -42.5q-88 0 -129 42.5t-41 129.5zM373 -358h-281l41 942h199z" />
    <glyph glyph-name="cent" unicode="&#xa2;" horiz-adv-x="1173" 
d="M526 -461v436q-228 23 -346.5 159.5t-118.5 377.5q0 251 112.5 384.5t352.5 154.5v434h170v-434q203 -20 314.5 -140.5t111.5 -296.5h-252q0 67 -45.5 114t-128.5 60v-557q91 12 138 59t47 120h252q0 -180 -111.5 -300.5t-325.5 -138.5v-432h-170zM526 244v540
q-174 -43 -174 -270q0 -222 174 -270z" />
    <glyph glyph-name="sterling" unicode="&#xa3;" horiz-adv-x="1447" 
d="M246 0v606h-226v170h226v45q0 311 144.5 477t434.5 166q278 0 421 -125.5t143 -402.5h-281q0 256 -291 256q-146 0 -212 -94t-66 -275v-47h233v-170h-233v-340h868v-266h-1161z" />
    <glyph glyph-name="currency" unicode="&#xa4;" horiz-adv-x="1044" 
d="M154 698q0 98 59 189l-152 151l121 121l152 -151q91 59 188 59q98 0 189 -59l151 151l121 -121l-152 -151q60 -92 60 -189q0 -96 -60 -188l152 -152l-121 -120l-151 151q-91 -59 -189 -59q-97 0 -188 59l-152 -151l-121 120l152 152q-59 91 -59 188zM532 885
q-73 0 -134.5 -61.5t-61.5 -135.5q0 -68 54 -122t122 -54q74 0 135.5 62t61.5 135q0 67 -54.5 121.5t-122.5 54.5z" />
    <glyph glyph-name="yen" unicode="&#xa5;" horiz-adv-x="1357" 
d="M532 0v254h-215v170h215v96h-215v170h207l-524 744h350l330 -465l328 465h350l-522 -744h192v-170h-203v-96h203v-170h-203v-254h-293z" />
    <glyph glyph-name="copyright" unicode="&#xa9;" horiz-adv-x="1617" 
d="M61 717q0 222 93 392t263 262.5t392 92.5q167 0 306 -54t236 -151t151 -236t54 -306q0 -222 -92.5 -392t-262.5 -263t-392 -93t-392 93t-263 263t-93 392zM242 717q0 -260 156 -419t411 -159t411 159t156 419q0 259 -156 418t-411 159t-411 -159t-156 -418zM838 342
q-195 0 -290 92t-95 281t88.5 282t269.5 93q173 0 262.5 -63.5t89.5 -201.5h-155q0 113 -197 113q-103 0 -146.5 -51.5t-43.5 -169.5q0 -117 53 -171t164 -54q36 0 63 3.5t54.5 13.5t42 32t14.5 55h155q0 -136 -85.5 -195t-243.5 -59z" />
    <glyph glyph-name="ordfeminine" unicode="&#xaa;" horiz-adv-x="669" 
d="M453 1266q0 75 -113 75q-22 0 -38 -1.5t-34.5 -7.5t-28.5 -19.5t-10 -34.5h-139q0 192 252 192q141 0 203.5 -49.5t62.5 -181.5v-297h-155v66q-33 -80 -172 -80q-220 0 -220 162q0 77 53.5 112t155.5 45l183 17v2zM453 1116v41l-150 -12q-41 -5 -61.5 -16.5t-20.5 -34.5
q0 -41 86 -41q64 0 102.5 18.5t43.5 44.5z" />
    <glyph glyph-name="registered" unicode="&#xae;" horiz-adv-x="1617" 
d="M61 717q0 222 93 392t263 262.5t392 92.5q167 0 306 -54t236 -151t151 -236t54 -306q0 -222 -92.5 -392t-262.5 -263t-392 -93t-392 93t-263 263t-93 392zM242 717q0 -260 156 -419t411 -159t411 159t156 419q0 259 -156 418t-411 159t-411 -159t-156 -418zM530 369v716
h324q166 0 236.5 -57t70.5 -178q0 -99 -46.5 -155t-151.5 -74l192 -252h-192l-189 245h-86v-245h-158zM688 758h164q85 0 114 21.5t29 70.5t-29 70.5t-114 21.5h-164v-184z" />
    <glyph glyph-name="plusminus" unicode="&#xb1;" horiz-adv-x="737" 
d="M61 555v172h222v221h172v-221h221v-172h-221v-221h-172v221h-222zM82 0v170h573v-170h-573z" />
    <glyph glyph-name="ordmasculine" unicode="&#xba;" horiz-adv-x="706" 
d="M61 1198q0 272 291 272q293 0 293 -272q0 -270 -293 -270q-291 0 -291 270zM221 1198q0 -129 131 -129t131 129t-131 129q-69 0 -100 -32t-31 -97z" />
    <glyph glyph-name="questiondown" unicode="&#xbf;" horiz-adv-x="1206" 
d="M903 936q0 -87 -41 -129.5t-129 -42.5q-90 0 -131 42.5t-41 129.5t41 128.5t131 41.5q88 0 129 -41.5t41 -128.5zM862 584q0 -81 -27.5 -143.5t-71 -100.5t-96.5 -67.5t-106.5 -52.5t-97 -46t-71 -57t-27.5 -78q0 -156 225 -156q61 0 104.5 7.5t85 28.5t63 66t21.5 113
h281q0 -260 -139 -373.5t-408 -113.5q-276 0 -406.5 99.5t-130.5 305.5q0 88 32 156t82.5 109t112 73t123 54.5t112 45.5t82.5 55.5t32 74.5h225z" />
    <glyph glyph-name="Agrave" unicode="&#xc0;" horiz-adv-x="1382" 
d="M895 1647l-88 -66l-318 377l138 102zM-41 0l573 1434h316l575 -1434h-315l-92 227h-651l-91 -227h-315zM473 494h436l-219 546z" />
    <glyph glyph-name="Aacute" unicode="&#xc1;" horiz-adv-x="1382" 
d="M489 1647l269 413l137 -102l-317 -377zM-41 0l573 1434h316l575 -1434h-315l-92 227h-651l-91 -227h-315zM473 494h436l-219 546z" />
    <glyph glyph-name="Acircumflex" unicode="&#xc2;" horiz-adv-x="1382" 
d="M764 2003l315 -416h-202l-187 299l-180 -299h-205l318 416h141zM-41 0l573 1434h316l575 -1434h-315l-92 227h-651l-91 -227h-315zM473 494h436l-219 546z" />
    <glyph glyph-name="Atilde" unicode="&#xc3;" horiz-adv-x="1382" 
d="M291 1587q0 64 11 116.5t35.5 97.5t69.5 70t107 25q53 0 106 -25t87.5 -54.5t75.5 -54.5t73 -25q28 0 44 20.5t21 48.5t5 70h170q0 -67 -9 -118.5t-31 -96.5t-64 -69.5t-103 -24.5q-63 0 -117 25t-85.5 54.5t-71 54.5t-76.5 25q-78 0 -78 -139h-170zM-41 0l573 1434h316
l575 -1434h-315l-92 227h-651l-91 -227h-315zM473 494h436l-219 546z" />
    <glyph glyph-name="Adieresis" unicode="&#xc4;" horiz-adv-x="1382" 
d="M358 1731q0 51 36 86.5t87 35.5q50 0 86.5 -35.5t36.5 -86.5t-36.5 -87t-86.5 -36q-51 0 -87 36t-36 87zM791 1731q0 51 35.5 86.5t86.5 35.5q50 0 86.5 -35.5t36.5 -86.5t-36.5 -87t-86.5 -36q-51 0 -86.5 36t-35.5 87zM-41 0l573 1434h316l575 -1434h-315l-92 227h-651
l-91 -227h-315zM473 494h436l-219 546z" />
    <glyph glyph-name="Aring" unicode="&#xc5;" horiz-adv-x="1382" 
d="M412 1802q0 97 77 156t203 59q127 0 205 -59t78 -156t-78 -156t-205 -59q-126 0 -203 59t-77 156zM592 1802q0 -32 27 -51.5t71 -19.5q46 0 74.5 19.5t28.5 51.5t-28.5 52t-74.5 20q-44 0 -71 -20t-27 -52zM-41 0l573 1434h316l575 -1434h-315l-92 227h-651l-91 -227
h-315zM473 494h436l-219 546z" />
    <glyph glyph-name="AE" unicode="&#xc6;" horiz-adv-x="1986" 
d="M-41 0l573 1434h1379v-267h-854v-317h772v-266h-772v-318h874v-266h-1167v227h-399l-91 -227h-315zM473 494h291v673h-23z" />
    <glyph glyph-name="Ccedilla" unicode="&#xc7;" horiz-adv-x="1521" 
d="M573 -315h132q0 -22 23 -33.5t52 -11.5q78 0 78 67q0 72 -125 72h-94l74 194q-329 26 -490.5 210.5t-161.5 533.5q0 378 176.5 562.5t538.5 184.5q170 0 297 -29t217.5 -91.5t136.5 -164.5t46 -243h-281q0 256 -420 256q-220 0 -313.5 -111.5t-93.5 -361.5
q0 -248 114 -362.5t352 -114.5q60 0 107.5 4.5t98.5 19t85 39.5t56 69.5t22 104.5h281q0 -139 -45 -238.5t-132.5 -158t-202.5 -85.5t-267 -28l-41 -90q206 0 206 -172q0 -100 -56 -148t-155 -48q-22 0 -50 5.5t-69 21t-68.5 54t-27.5 93.5z" />
    <glyph glyph-name="Egrave" unicode="&#xc8;" horiz-adv-x="1325" 
d="M889 1647l-88 -66l-318 377l138 102zM102 0v1434h1147v-267h-854v-317h772v-266h-772v-318h875v-266h-1168z" />
    <glyph glyph-name="Eacute" unicode="&#xc9;" horiz-adv-x="1325" 
d="M483 1647l269 413l137 -102l-318 -377zM102 0v1434h1147v-267h-854v-317h772v-266h-772v-318h875v-266h-1168z" />
    <glyph glyph-name="Ecircumflex" unicode="&#xca;" horiz-adv-x="1325" 
d="M758 2003l315 -416h-203l-186 299l-180 -299h-205l317 416h142zM102 0v1434h1147v-267h-854v-317h772v-266h-772v-318h875v-266h-1168z" />
    <glyph glyph-name="Edieresis" unicode="&#xcb;" horiz-adv-x="1325" 
d="M352 1731q0 51 36 86.5t87 35.5q50 0 86.5 -35.5t36.5 -86.5t-36.5 -87t-86.5 -36q-51 0 -87 36t-36 87zM784 1731q0 51 36 86.5t87 35.5q50 0 86.5 -35.5t36.5 -86.5t-36.5 -87t-86.5 -36q-51 0 -87 36t-36 87zM102 0v1434h1147v-267h-854v-317h772v-266h-772v-318h875
v-266h-1168z" />
    <glyph glyph-name="Igrave" unicode="&#xcc;" horiz-adv-x="497" 
d="M453 1647l-88 -66l-318 377l137 102zM102 0v1434h293v-1434h-293z" />
    <glyph glyph-name="Iacute" unicode="&#xcd;" horiz-adv-x="497" 
d="M47 1647l268 413l138 -102l-318 -377zM102 0v1434h293v-1434h-293z" />
    <glyph glyph-name="Icircumflex" unicode="&#xce;" horiz-adv-x="497" 
d="M322 2003l315 -416h-203l-186 299l-180 -299h-205l317 416h142zM102 0v1434h293v-1434h-293z" />
    <glyph glyph-name="Idieresis" unicode="&#xcf;" horiz-adv-x="497" 
d="M-84 1731q0 51 36 86.5t87 35.5q50 0 86.5 -35.5t36.5 -86.5t-36.5 -87t-86.5 -36q-51 0 -87 36t-36 87zM348 1731q0 51 36 86.5t87 35.5q50 0 86.5 -35.5t36.5 -86.5t-36.5 -87t-86.5 -36q-51 0 -87 36t-36 87zM102 0v1434h293v-1434h-293z" />
    <glyph glyph-name="Eth" unicode="&#xd0;" horiz-adv-x="1579" 
d="M205 0v610h-185v170h185v654h588q356 0 540.5 -181.5t184.5 -535.5t-184.5 -535.5t-540.5 -181.5h-588zM498 266h305q199 0 305 114.5t106 338.5q0 221 -106.5 334.5t-304.5 113.5h-305v-387h184v-170h-184v-344z" />
    <glyph glyph-name="Ntilde" unicode="&#xd1;" horiz-adv-x="1478" 
d="M338 1536q0 64 11 116.5t35.5 97.5t69.5 70t107 25q53 0 106 -25t88 -54.5t75.5 -54.5t72.5 -25q28 0 44 20.5t21 48.5t5 70h170q0 -67 -9 -118.5t-31 -96.5t-64 -69.5t-103 -24.5q-63 0 -117 25t-85.5 54.5t-71 54.5t-76.5 25q-78 0 -78 -139h-170zM102 0v1434h293
l688 -947v947h293v-1434h-293l-688 948v-948h-293z" />
    <glyph glyph-name="Ograve" unicode="&#xd2;" horiz-adv-x="1583" 
d="M995 1677l-88 -65l-317 377l137 102zM61 717q0 747 732 747q729 0 729 -747q0 -748 -729 -748q-732 0 -732 748zM365 717q0 -475 428 -475q426 0 426 475t-426 475q-223 0 -325.5 -118t-102.5 -357z" />
    <glyph glyph-name="Oacute" unicode="&#xd3;" horiz-adv-x="1583" 
d="M590 1677l268 414l137 -102l-317 -377zM61 717q0 747 732 747q729 0 729 -747q0 -748 -729 -748q-732 0 -732 748zM365 717q0 -475 428 -475q426 0 426 475t-426 475q-223 0 -325.5 -118t-102.5 -357z" />
    <glyph glyph-name="Ocircumflex" unicode="&#xd4;" horiz-adv-x="1583" 
d="M864 2034l316 -416h-203l-186 299l-181 -299h-204l317 416h141zM61 717q0 747 732 747q729 0 729 -747q0 -748 -729 -748q-732 0 -732 748zM365 717q0 -475 428 -475q426 0 426 475t-426 475q-223 0 -325.5 -118t-102.5 -357z" />
    <glyph glyph-name="Otilde" unicode="&#xd5;" horiz-adv-x="1583" 
d="M391 1618q0 64 11 116.5t35.5 97.5t69.5 70t107 25q44 0 86 -16.5t75 -40t63 -47t60.5 -40t57.5 -16.5q21 0 35.5 11t21.5 32t10 43.5t3 53.5h170q0 -67 -9 -118.5t-31 -97t-64 -70t-103 -24.5q-52 0 -96.5 16.5t-75.5 40t-59 47t-58 40t-61 16.5q-78 0 -78 -139h-170z
M61 717q0 747 732 747q729 0 729 -747q0 -748 -729 -748q-732 0 -732 748zM365 717q0 -475 428 -475q426 0 426 475t-426 475q-223 0 -325.5 -118t-102.5 -357z" />
    <glyph glyph-name="Odieresis" unicode="&#xd6;" horiz-adv-x="1583" 
d="M459 1761q0 51 36 87t87 36q50 0 86.5 -36t36.5 -87t-36.5 -87t-86.5 -36q-51 0 -87 36t-36 87zM891 1761q0 51 36 87t87 36q50 0 86.5 -36t36.5 -87t-36.5 -87t-86.5 -36q-51 0 -87 36t-36 87zM61 717q0 747 732 747q729 0 729 -747q0 -748 -729 -748q-732 0 -732 748z
M365 717q0 -475 428 -475q426 0 426 475t-426 475q-223 0 -325.5 -118t-102.5 -357z" />
    <glyph glyph-name="multiply" unicode="&#xd7;" horiz-adv-x="677" 
d="M61 715l121 121l156 -158l158 158l120 -121l-157 -158l157 -156l-120 -120l-158 157l-156 -157l-121 120l158 156z" />
    <glyph glyph-name="Oslash" unicode="&#xd8;" horiz-adv-x="1583" 
d="M61 717q0 747 732 747q255 0 419 -92l99 121l133 -107l-96 -118q174 -186 174 -551q0 -748 -729 -748q-255 0 -422 92l-99 -120l-133 106l97 119q-175 187 -175 551zM365 717q0 -193 69 -305l592 729q-97 51 -233 51q-223 0 -325.5 -118t-102.5 -357zM1149 1022
l-590 -729q94 -51 234 -51q426 0 426 475q0 192 -70 305z" />
    <glyph glyph-name="Ugrave" unicode="&#xd9;" horiz-adv-x="1447" 
d="M928 1647l-88 -66l-318 377l137 102zM725 242q348 0 348 319v873h293v-824q0 -182 -42 -308t-127.5 -198.5t-199 -103.5t-272.5 -31t-273 31t-199.5 103.5t-128 198.5t-42.5 308v824h293v-873q0 -319 350 -319z" />
    <glyph glyph-name="Uacute" unicode="&#xda;" horiz-adv-x="1447" 
d="M522 1647l269 413l137 -102l-318 -377zM725 242q348 0 348 319v873h293v-824q0 -182 -42 -308t-127.5 -198.5t-199 -103.5t-272.5 -31t-273 31t-199.5 103.5t-128 198.5t-42.5 308v824h293v-873q0 -319 350 -319z" />
    <glyph glyph-name="Ucircumflex" unicode="&#xdb;" horiz-adv-x="1447" 
d="M797 2003l315 -416h-203l-186 299l-180 -299h-205l317 416h142zM725 242q348 0 348 319v873h293v-824q0 -182 -42 -308t-127.5 -198.5t-199 -103.5t-272.5 -31t-273 31t-199.5 103.5t-128 198.5t-42.5 308v824h293v-873q0 -319 350 -319z" />
    <glyph glyph-name="Udieresis" unicode="&#xdc;" horiz-adv-x="1447" 
d="M391 1731q0 51 36 86.5t87 35.5q50 0 86.5 -35.5t36.5 -86.5t-36.5 -87t-86.5 -36q-51 0 -87 36t-36 87zM823 1731q0 51 36 86.5t87 35.5q50 0 86.5 -35.5t36.5 -86.5t-36.5 -87t-86.5 -36q-51 0 -87 36t-36 87zM725 242q348 0 348 319v873h293v-824q0 -182 -42 -308
t-127.5 -198.5t-199 -103.5t-272.5 -31t-273 31t-199.5 103.5t-128 198.5t-42.5 308v824h293v-873q0 -319 350 -319z" />
    <glyph glyph-name="Yacute" unicode="&#xdd;" horiz-adv-x="1357" 
d="M477 1647l268 413l138 -102l-318 -377zM532 0v678l-532 756h350l330 -465l328 465h350l-533 -756v-678h-293z" />
    <glyph glyph-name="Thorn" unicode="&#xde;" horiz-adv-x="1417" 
d="M102 0v1434h293v-222h355q220 0 355 -56.5t193 -163.5t58 -275q0 -126 -32 -216.5t-102.5 -154t-187.5 -94.5t-284 -31h-355v-221h-293zM395 487h350q92 0 152.5 14t94 44.5t46.5 71t13 100.5t-13 100.5t-46.5 70.5t-94 44t-152.5 14h-350v-459z" />
    <glyph glyph-name="germandbls" unicode="&#xdf;" horiz-adv-x="1359" 
d="M1130 1151q0 -61 -21 -110.5t-54 -80.5t-73.5 -55t-81 -39t-73.5 -27t-54 -23.5t-21 -24.5q0 -28 47.5 -43.5t150.5 -34.5q86 -17 145.5 -42t107.5 -67.5t71.5 -109t23.5 -158.5q0 -187 -102 -277t-305 -90q-236 0 -345.5 90.5t-109.5 288.5h252q0 -77 54.5 -112
t140.5 -35q90 0 135 37t45 92q0 38 -11 62t-36 38.5t-56 23.5t-79 19q-14 2 -21 4q-40 7 -68.5 13.5t-66.5 18.5t-65.5 25t-56.5 33.5t-46.5 45t-29 58.5t-11.5 74q0 50 19.5 89.5t51 65t69.5 47t76 40t69.5 38t51 47t19.5 61.5q0 60 -58.5 101.5t-170.5 41.5
q-87 0 -144.5 -20t-86.5 -59.5t-39.5 -85t-10.5 -110.5v-1001h-280v979q0 137 28 237t89.5 173.5t164.5 110t248 36.5q275 0 396.5 -91.5t121.5 -293.5z" />
    <glyph glyph-name="agrave" unicode="&#xe0;" 
d="M782 1268l-88 -66l-317 377l137 102zM836 649q0 38 -11 67.5t-31 48t-43 30.5t-53.5 18t-55 8t-54.5 2q-37 0 -64 -2t-62 -11t-57.5 -24.5t-38.5 -45t-16 -70.5h-252q0 203 127 294t367 91q137 0 230.5 -21t161 -72t99 -139t31.5 -219v-604h-278v137q-33 -81 -116 -124.5
t-237 -43.5q-78 0 -141.5 9t-121 31.5t-96 59t-61 94t-22.5 132.5q0 151 108.5 223t321.5 94l365 33v4zM836 451l-312 -31q-94 -8 -143 -35.5t-49 -85.5q0 -98 196 -98q141 0 221 44.5t87 102.5v103z" />
    <glyph glyph-name="aacute" unicode="&#xe1;" 
d="M377 1268l268 413l137 -102l-317 -377zM836 649q0 38 -11 67.5t-31 48t-43 30.5t-53.5 18t-55 8t-54.5 2q-37 0 -64 -2t-62 -11t-57.5 -24.5t-38.5 -45t-16 -70.5h-252q0 203 127 294t367 91q137 0 230.5 -21t161 -72t99 -139t31.5 -219v-604h-278v137
q-33 -81 -116 -124.5t-237 -43.5q-78 0 -141.5 9t-121 31.5t-96 59t-61 94t-22.5 132.5q0 151 108.5 223t321.5 94l365 33v4zM836 451l-312 -31q-94 -8 -143 -35.5t-49 -85.5q0 -98 196 -98q141 0 221 44.5t87 102.5v103z" />
    <glyph glyph-name="acircumflex" unicode="&#xe2;" 
d="M651 1624l316 -416h-203l-186 299l-181 -299h-204l317 416h141zM836 649q0 38 -11 67.5t-31 48t-43 30.5t-53.5 18t-55 8t-54.5 2q-37 0 -64 -2t-62 -11t-57.5 -24.5t-38.5 -45t-16 -70.5h-252q0 203 127 294t367 91q137 0 230.5 -21t161 -72t99 -139t31.5 -219v-604
h-278v137q-33 -81 -116 -124.5t-237 -43.5q-78 0 -141.5 9t-121 31.5t-96 59t-61 94t-22.5 132.5q0 151 108.5 223t321.5 94l365 33v4zM836 451l-312 -31q-94 -8 -143 -35.5t-49 -85.5q0 -98 196 -98q141 0 221 44.5t87 102.5v103z" />
    <glyph glyph-name="atilde" unicode="&#xe3;" 
d="M178 1208q0 64 11 116.5t35.5 97.5t69.5 70.5t107 25.5q53 0 106 -25t88 -55t75.5 -55t72.5 -25q28 0 44 20.5t21 48.5t5 70h170q0 -67 -9 -118.5t-31 -96.5t-64 -69.5t-103 -24.5q-52 0 -96.5 16.5t-75.5 40t-59 47t-58 40t-61 16.5q-78 0 -78 -140h-170zM836 649
q0 38 -11 67.5t-31 48t-43 30.5t-53.5 18t-55 8t-54.5 2q-37 0 -64 -2t-62 -11t-57.5 -24.5t-38.5 -45t-16 -70.5h-252q0 203 127 294t367 91q137 0 230.5 -21t161 -72t99 -139t31.5 -219v-604h-278v137q-33 -81 -116 -124.5t-237 -43.5q-78 0 -141.5 9t-121 31.5t-96 59
t-61 94t-22.5 132.5q0 151 108.5 223t321.5 94l365 33v4zM836 451l-312 -31q-94 -8 -143 -35.5t-49 -85.5q0 -98 196 -98q141 0 221 44.5t87 102.5v103z" />
    <glyph glyph-name="adieresis" unicode="&#xe4;" 
d="M246 1352q0 51 36 87t87 36q50 0 86.5 -36t36.5 -87t-36.5 -87t-86.5 -36q-51 0 -87 36t-36 87zM678 1352q0 51 36 87t87 36q50 0 86.5 -36t36.5 -87t-36.5 -87t-86.5 -36q-51 0 -87 36t-36 87zM836 649q0 38 -11 67.5t-31 48t-43 30.5t-53.5 18t-55 8t-54.5 2
q-37 0 -64 -2t-62 -11t-57.5 -24.5t-38.5 -45t-16 -70.5h-252q0 203 127 294t367 91q137 0 230.5 -21t161 -72t99 -139t31.5 -219v-604h-278v137q-33 -81 -116 -124.5t-237 -43.5q-78 0 -141.5 9t-121 31.5t-96 59t-61 94t-22.5 132.5q0 151 108.5 223t321.5 94l365 33v4z
M836 451l-312 -31q-94 -8 -143 -35.5t-49 -85.5q0 -98 196 -98q141 0 221 44.5t87 102.5v103z" />
    <glyph glyph-name="aring" unicode="&#xe5;" 
d="M299 1423q0 97 77.5 156t203.5 59q127 0 204.5 -59t77.5 -156t-77.5 -156t-204.5 -59q-126 0 -203.5 59t-77.5 156zM479 1423q0 -32 27.5 -51.5t71.5 -19.5q46 0 74 19.5t28 51.5t-28 52t-74 20q-44 0 -71.5 -20t-27.5 -52zM836 649q0 38 -11 67.5t-31 48t-43 30.5
t-53.5 18t-55 8t-54.5 2q-37 0 -64 -2t-62 -11t-57.5 -24.5t-38.5 -45t-16 -70.5h-252q0 203 127 294t367 91q137 0 230.5 -21t161 -72t99 -139t31.5 -219v-604h-278v137q-33 -81 -116 -124.5t-237 -43.5q-78 0 -141.5 9t-121 31.5t-96 59t-61 94t-22.5 132.5
q0 151 108.5 223t321.5 94l365 33v4zM836 451l-312 -31q-94 -8 -143 -35.5t-49 -85.5q0 -98 196 -98q141 0 221 44.5t87 102.5v103z" />
    <glyph glyph-name="ae" unicode="&#xe6;" horiz-adv-x="1974" 
d="M836 649q0 38 -11 67.5t-31 48t-43 30.5t-53.5 18t-55 8t-54.5 2q-37 0 -64 -2t-62 -11t-57.5 -24.5t-38.5 -45t-16 -70.5h-252q0 203 127 294t367 91q298 0 414 -111q139 111 366 111q285 0 413 -143.5t128 -440.5v-41h-783q17 -123 86.5 -176t192.5 -53q103 0 171.5 43
t68.5 104h252q0 -173 -129 -276t-363 -103q-322 0 -463 170q-67 -79 -184.5 -124.5t-278.5 -45.5q-78 0 -141.5 9t-121 31.5t-96 59t-61 94t-22.5 132.5q0 151 108.5 223t321.5 94l365 33v4zM1139 629h499q-17 97 -83 145.5t-169 48.5q-91 0 -156 -49.5t-91 -144.5zM836 451
l-312 -31q-94 -8 -143 -35.5t-49 -85.5q0 -98 196 -98q141 0 221 44.5t87 102.5v103z" />
    <glyph glyph-name="ccedilla" unicode="&#xe7;" horiz-adv-x="1173" 
d="M625 1055q235 0 366 -124.5t131 -316.5h-252q0 81 -65.5 131t-181.5 50q-271 0 -271 -281q0 -285 287 -285q119 0 180.5 49t61.5 132h252q0 -188 -121.5 -310t-354.5 -131l-41 -90q41 0 75 -7.5t65.5 -26t49 -53.5t17.5 -85q0 -100 -56 -148t-155 -48q-22 0 -50 5.5
t-69 21t-68.5 54t-27.5 93.5h131q0 -22 23 -33.5t53 -11.5q78 0 78 67q0 72 -125 72h-94l74 194q-233 22 -354.5 158.5t-121.5 380.5q0 274 136.5 408.5t427.5 134.5z" />
    <glyph glyph-name="egrave" unicode="&#xe8;" horiz-adv-x="1202" 
d="M803 1268l-88 -66l-318 377l138 102zM1141 471v-41h-785q17 -123 87 -176t194 -53q103 0 170 43t67 104h254q0 -172 -129 -275.5t-364 -103.5q-287 0 -430.5 137t-143.5 406q0 261 139 402t398 141q286 0 414.5 -143.5t128.5 -440.5zM367 629h497q-17 97 -83 145.5
t-169 48.5q-90 0 -154.5 -49.5t-90.5 -144.5z" />
    <glyph glyph-name="eacute" unicode="&#xe9;" horiz-adv-x="1202" 
d="M397 1268l269 413l137 -102l-318 -377zM1141 471v-41h-785q17 -123 87 -176t194 -53q103 0 170 43t67 104h254q0 -172 -129 -275.5t-364 -103.5q-287 0 -430.5 137t-143.5 406q0 261 139 402t398 141q286 0 414.5 -143.5t128.5 -440.5zM367 629h497q-17 97 -83 145.5
t-169 48.5q-90 0 -154.5 -49.5t-90.5 -144.5z" />
    <glyph glyph-name="ecircumflex" unicode="&#xea;" horiz-adv-x="1202" 
d="M672 1624l315 -416h-203l-186 299l-180 -299h-205l317 416h142zM1141 471v-41h-785q17 -123 87 -176t194 -53q103 0 170 43t67 104h254q0 -172 -129 -275.5t-364 -103.5q-287 0 -430.5 137t-143.5 406q0 261 139 402t398 141q286 0 414.5 -143.5t128.5 -440.5zM367 629
h497q-17 97 -83 145.5t-169 48.5q-90 0 -154.5 -49.5t-90.5 -144.5z" />
    <glyph glyph-name="edieresis" unicode="&#xeb;" horiz-adv-x="1202" 
d="M266 1352q0 51 36 87t87 36q50 0 86.5 -36t36.5 -87t-36.5 -87t-86.5 -36q-51 0 -87 36t-36 87zM698 1352q0 51 36 87t87 36q50 0 86.5 -36t36.5 -87t-36.5 -87t-86.5 -36q-51 0 -87 36t-36 87zM1141 471v-41h-785q17 -123 87 -176t194 -53q103 0 170 43t67 104h254
q0 -172 -129 -275.5t-364 -103.5q-287 0 -430.5 137t-143.5 406q0 261 139 402t398 141q286 0 414.5 -143.5t128.5 -440.5zM367 629h497q-17 97 -83 145.5t-169 48.5q-90 0 -154.5 -49.5t-90.5 -144.5z" />
    <glyph glyph-name="igrave" unicode="&#xec;" horiz-adv-x="485" 
d="M444 1237l-88 -66l-317 377l137 103zM102 0v1024h281v-1024h-281z" />
    <glyph glyph-name="iacute" unicode="&#xed;" horiz-adv-x="485" 
d="M39 1237l268 414l137 -103l-317 -377zM102 0v1024h281v-1024h-281z" />
    <glyph glyph-name="icircumflex" unicode="&#xee;" horiz-adv-x="485" 
d="M313 1593l316 -415h-203l-186 299l-181 -299h-204l317 415h141zM102 0v1024h281v-1024h-281z" />
    <glyph glyph-name="idieresis" unicode="&#xef;" horiz-adv-x="485" 
d="M-92 1321q0 51 36 87t87 36q50 0 86.5 -36t36.5 -87t-36.5 -87t-86.5 -36q-51 0 -87 36t-36 87zM340 1321q0 51 36 87t87 36q50 0 86.5 -36t36.5 -87t-36.5 -87t-86.5 -36q-51 0 -87 36t-36 87zM102 0v1024h281v-1024h-281z" />
    <glyph glyph-name="eth" unicode="&#xf0;" horiz-adv-x="1312" 
d="M475 1339l123 189q120 -36 236 -115l155 121l105 -135l-125 -96q130 -128 206 -306.5t76 -404.5q0 -138 -38.5 -252t-112 -197t-187 -128.5t-256.5 -45.5q-302 0 -449 125t-147 352q0 99 35.5 177.5t92.5 127t135.5 80t158 44t166.5 12.5q140 0 258 -43q-49 165 -157 289
l-162 -125l-105 135l140 108q-76 57 -148 88zM946 537q-127 77 -299 77q-58 0 -106.5 -9t-89 -28t-63.5 -54.5t-23 -84.5q0 -85 68 -140.5t210 -55.5q143 0 219 77t84 218z" />
    <glyph glyph-name="ntilde" unicode="&#xf1;" horiz-adv-x="1253" 
d="M229 1208q0 64 11 116.5t36 97.5t70 70.5t107 25.5q53 0 106 -25t88 -55t75.5 -55t72.5 -25q40 0 54.5 37t14.5 102h170q0 -67 -9 -118.5t-31 -96.5t-64 -69.5t-103 -24.5q-52 0 -96.5 16.5t-75.5 40t-59 47t-58 40t-61 16.5q-78 0 -78 -140h-170zM1157 0h-280v539
q0 129 -51 192.5t-185 63.5q-126 0 -192 -72t-66 -211v-512h-281v1024h281v-139q109 170 342 170q221 0 326.5 -112t105.5 -378v-565z" />
    <glyph glyph-name="ograve" unicode="&#xf2;" horiz-adv-x="1280" 
d="M844 1268l-88 -66l-318 377l137 102zM61 512q0 543 578 543q580 0 580 -543t-580 -543q-578 0 -578 543zM352 512q0 -283 287 -283q289 0 289 283t-289 283q-151 0 -219 -70t-68 -213z" />
    <glyph glyph-name="oacute" unicode="&#xf3;" horiz-adv-x="1280" 
d="M438 1268l269 413l137 -102l-318 -377zM61 512q0 543 578 543q580 0 580 -543t-580 -543q-578 0 -578 543zM352 512q0 -283 287 -283q289 0 289 283t-289 283q-151 0 -219 -70t-68 -213z" />
    <glyph glyph-name="ocircumflex" unicode="&#xf4;" horiz-adv-x="1280" 
d="M713 1624l315 -416h-203l-186 299l-180 -299h-205l317 416h142zM61 512q0 543 578 543q580 0 580 -543t-580 -543q-578 0 -578 543zM352 512q0 -283 287 -283q289 0 289 283t-289 283q-151 0 -219 -70t-68 -213z" />
    <glyph glyph-name="otilde" unicode="&#xf5;" horiz-adv-x="1280" 
d="M240 1208q0 64 11 116.5t35.5 97.5t69.5 70.5t107 25.5q53 0 106 -25t88 -55t75.5 -55t72.5 -25q40 0 54.5 37t14.5 102h170q0 -67 -9 -118.5t-30.5 -96.5t-63.5 -69.5t-103 -24.5q-52 0 -96.5 16.5t-75.5 40t-59 47t-58.5 40t-61.5 16.5q-77 0 -77 -140h-170zM61 512
q0 543 578 543q580 0 580 -543t-580 -543q-578 0 -578 543zM352 512q0 -283 287 -283q289 0 289 283t-289 283q-151 0 -219 -70t-68 -213z" />
    <glyph glyph-name="odieresis" unicode="&#xf6;" horiz-adv-x="1280" 
d="M307 1352q0 51 36 87t87 36q50 0 86.5 -36t36.5 -87t-36.5 -87t-86.5 -36q-51 0 -87 36t-36 87zM739 1352q0 51 36 87t87 36q50 0 86.5 -36t36.5 -87t-36.5 -87t-86.5 -36q-51 0 -87 36t-36 87zM61 512q0 543 578 543q580 0 580 -543t-580 -543q-578 0 -578 543zM352 512
q0 -283 287 -283q289 0 289 283t-289 283q-151 0 -219 -70t-68 -213z" />
    <glyph glyph-name="divide" unicode="&#xf7;" horiz-adv-x="696" 
d="M190 862q0 79 38 117.5t120 38.5t120 -38.5t38 -117.5t-38 -118t-120 -39t-120 39t-38 118zM61 412v170h574v-170h-574zM190 131q0 79 38 118.5t120 39.5t120 -39.5t38 -118.5t-38 -118.5t-120 -39.5t-120 39.5t-38 118.5z" />
    <glyph glyph-name="oslash" unicode="&#xf8;" horiz-adv-x="1280" 
d="M61 512q0 543 578 543q82 0 162 -13l90 187h190l-114 -238q252 -122 252 -479q0 -543 -580 -543q-80 0 -160 13l-88 -187h-190l114 236q-254 121 -254 481zM352 512q0 -154 86 -225l244 506q-14 2 -43 2q-151 0 -219 -70t-68 -213zM844 735l-244 -506h39q289 0 289 283
q0 154 -84 223z" />
    <glyph glyph-name="ugrave" unicode="&#xf9;" horiz-adv-x="1239" 
d="M813 1237l-88 -66l-317 377l137 103zM82 1024h280v-539q0 -129 51 -192.5t185 -63.5q126 0 192 72t66 211v512h281v-1024h-281v139q-109 -170 -342 -170q-221 0 -326.5 112t-105.5 378v565z" />
    <glyph glyph-name="uacute" unicode="&#xfa;" horiz-adv-x="1239" 
d="M408 1237l268 414l137 -103l-317 -377zM82 1024h280v-539q0 -129 51 -192.5t185 -63.5q126 0 192 72t66 211v512h281v-1024h-281v139q-109 -170 -342 -170q-221 0 -326.5 112t-105.5 378v565z" />
    <glyph glyph-name="ucircumflex" unicode="&#xfb;" horiz-adv-x="1239" 
d="M682 1593l315 -415h-202l-187 299l-180 -299h-205l318 415h141zM82 1024h280v-539q0 -129 51 -192.5t185 -63.5q126 0 192 72t66 211v512h281v-1024h-281v139q-109 -170 -342 -170q-221 0 -326.5 112t-105.5 378v565z" />
    <glyph glyph-name="udieresis" unicode="&#xfc;" horiz-adv-x="1239" 
d="M276 1321q0 51 36 87t87 36q50 0 86.5 -36t36.5 -87t-36.5 -87t-86.5 -36q-51 0 -87 36t-36 87zM709 1321q0 51 35.5 87t86.5 36q50 0 86.5 -36t36.5 -87t-36.5 -87t-86.5 -36q-51 0 -86.5 36t-35.5 87zM82 1024h280v-539q0 -129 51 -192.5t185 -63.5q126 0 192 72
t66 211v512h281v-1024h-281v139q-109 -170 -342 -170q-221 0 -326.5 112t-105.5 378v565z" />
    <glyph glyph-name="yacute" unicode="&#xfd;" 
d="M406 1237l268 414l137 -103l-317 -377zM854 39q-8 -23 -23 -66q-31 -89 -47 -130.5t-45.5 -105t-57.5 -92t-71.5 -61t-99 -44t-127.5 -11.5q-113 0 -190.5 52.5t-112.5 139.5t-35 203h240q0 -164 98 -164q52 0 82 48.5t72 166.5l14 41l-531 1008h318l340 -643l223 643
h295z" />
    <glyph glyph-name="thorn" unicode="&#xfe;" horiz-adv-x="1150" 
d="M313 -410h-278v1946h278v-651q86 170 318 170q211 0 335 -141t124 -402q0 -130 -37 -234.5t-101 -171t-148 -102t-181 -35.5q-223 0 -310 178v-557zM799 512q0 143 -57 213t-183 70q-120 0 -183 -72t-63 -211q0 -138 63 -210.5t183 -72.5q112 0 176 73.5t64 209.5z" />
    <glyph glyph-name="ydieresis" unicode="&#xff;" 
d="M274 1321q0 51 36 87t87 36q50 0 86.5 -36t36.5 -87t-36.5 -87t-86.5 -36q-51 0 -87 36t-36 87zM707 1321q0 51 35.5 87t86.5 36q50 0 86.5 -36t36.5 -87t-36.5 -87t-86.5 -36q-51 0 -86.5 36t-35.5 87zM854 39q-8 -23 -23 -66q-31 -89 -47 -130.5t-45.5 -105t-57.5 -92
t-71.5 -61t-99 -44t-127.5 -11.5q-113 0 -190.5 52.5t-112.5 139.5t-35 203h240q0 -164 98 -164q52 0 82 48.5t72 166.5l14 41l-531 1008h318l340 -643l223 643h295z" />
    <glyph glyph-name="Dcroat" unicode="&#x110;" horiz-adv-x="1579" 
d="M205 0v610h-185v170h185v654h588q356 0 540.5 -181.5t184.5 -535.5t-184.5 -535.5t-540.5 -181.5h-588zM498 266h305q199 0 305 114.5t106 338.5q0 221 -106.5 334.5t-304.5 113.5h-305v-387h184v-170h-184v-344z" />
    <glyph glyph-name="dcroat" unicode="&#x111;" horiz-adv-x="1335" 
d="M877 0v152q-91 -183 -326 -183q-218 0 -354 142t-136 401q0 264 127.5 403.5t354.5 139.5q248 0 334 -176v249h-195v170h195v238h280v-238h158v-170h-158v-1128h-280zM352 512q0 -139 66 -211t194 -72q131 0 198 72t67 211q0 283 -265 283q-143 0 -201.5 -69t-58.5 -214z
" />
    <glyph glyph-name="dotlessi" unicode="&#x131;" horiz-adv-x="485" 
d="M102 0v1024h281v-1024h-281z" />
    <glyph glyph-name="Lslash" unicode="&#x141;" horiz-adv-x="1462" 
d="M287 0v487l-178 -106l-89 145l267 160v748h295v-570l149 88l86 -147l-235 -141v-398h839v-266h-1134z" />
    <glyph glyph-name="lslash" unicode="&#x142;" horiz-adv-x="788" 
d="M535 0h-281v571l-152 -84l-82 150l234 131v768h281v-612l149 84l84 -152l-233 -129v-727z" />
    <glyph glyph-name="OE" unicode="&#x152;" horiz-adv-x="2166" 
d="M1239 266h875v-266h-1321q-369 0 -550.5 179.5t-181.5 539.5q0 359 181.5 537t550.5 178h1300v-267h-854v-317h772v-266h-772v-318zM946 266v901h-153q-224 0 -326 -110t-102 -338q0 -453 428 -453h153z" />
    <glyph glyph-name="oe" unicode="&#x153;" horiz-adv-x="2068" 
d="M61 512q0 543 578 543q290 0 434 -135q138 135 393 135q284 0 412.5 -143.5t128.5 -440.5v-41h-784q18 -123 87.5 -176t192.5 -53q103 0 171.5 43t68.5 104h252q0 -173 -129 -276t-363 -103q-286 0 -430 135q-144 -135 -434 -135q-578 0 -578 543zM1233 629h500
q-36 192 -254 192q-90 0 -155 -49t-91 -143zM352 512q0 -283 287 -283q289 0 289 283t-289 283q-151 0 -219 -70t-68 -213z" />
    <glyph glyph-name="Scaron" unicode="&#x160;" horiz-adv-x="1404" 
d="M633 1618l-318 416h205l185 -297l182 297h203l-316 -416h-141zM627 573q-107 19 -185 39.5t-152 55.5t-119.5 81t-73 114.5t-27.5 156.5q0 236 152.5 340t484.5 104q149 0 260 -26t193.5 -82.5t124.5 -151t42 -227.5h-280q0 55 -20 94t-51.5 61.5t-82 35.5t-98 16.5
t-113.5 3.5q-163 0 -235 -37t-72 -111q0 -72 80.5 -104.5t300.5 -65.5q117 -17 203.5 -39.5t162 -58.5t122 -85t73 -119.5t26.5 -161.5q0 -231 -155.5 -334t-495.5 -103q-120 0 -215.5 16t-174.5 52t-131.5 92.5t-81 139t-28.5 188.5h281q0 -55 21 -95t53.5 -63t85 -36
t102 -17t117.5 -4q164 0 241.5 35.5t77.5 113.5q0 30 -12 53.5t-38 40t-52.5 28t-70 20.5t-75.5 14.5t-84 13t-81 12.5z" />
    <glyph glyph-name="scaron" unicode="&#x161;" horiz-adv-x="1144" 
d="M504 1208l-318 416h205l184 -297l183 297h203l-316 -416h-141zM63 733q0 169 117 245.5t369 76.5q272 0 397 -90t125 -289h-254q0 82 -76.5 114.5t-244.5 32.5q-197 0 -197 -84q0 -35 68 -60t227 -52q208 -33 282 -57q139 -45 183 -143q24 -55 24 -132
q0 -171 -119.5 -248.5t-359.5 -77.5q-282 0 -412.5 90t-130.5 289h252q0 -80 84.5 -113.5t247.5 -33.5q102 0 152.5 23.5t50.5 62.5q0 24 -14 39t-44.5 25t-70.5 17t-100 15q-48 6 -74 10q-55 7 -97.5 14.5t-95 20.5t-91 29.5t-78 42.5t-64.5 58t-40.5 76.5t-15.5 98.5z" />
    <glyph glyph-name="Ydieresis" unicode="&#x178;" horiz-adv-x="1357" 
d="M346 1731q0 51 36 86.5t87 35.5q50 0 86.5 -35.5t36.5 -86.5t-36.5 -87t-86.5 -36q-51 0 -87 36t-36 87zM778 1731q0 51 36 86.5t87 35.5q50 0 86.5 -35.5t36.5 -86.5t-36.5 -87t-86.5 -36q-51 0 -87 36t-36 87zM532 0v678l-532 756h350l330 -465l328 465h350l-533 -756
v-678h-293z" />
    <glyph glyph-name="Zcaron" unicode="&#x17d;" horiz-adv-x="1290" 
d="M575 1587l-317 416h205l184 -297l182 297h203l-315 -416h-142zM61 1167v267h1168v-267l-774 -901h774v-266h-1168v266l775 901h-775z" />
    <glyph glyph-name="zcaron" unicode="&#x17e;" horiz-adv-x="1030" 
d="M446 1178l-317 415h205l184 -297l182 297h203l-315 -415h-142zM61 772v252h908v-252l-512 -520h512v-252h-908v252l514 520h-514z" />
    <glyph glyph-name="gravecomb" unicode="&#x300;" horiz-adv-x="0" 
d="M203 1083l-88 -65l-318 377l137 102z" />
    <glyph glyph-name="acutecomb" unicode="&#x301;" horiz-adv-x="0" 
d="M-203 1083l269 414l137 -102l-318 -377z" />
    <glyph glyph-name="uni0302" unicode="&#x302;" horiz-adv-x="0" 
d="M72 1440l315 -416h-203l-186 299l-180 -299h-205l317 416h142z" />
    <glyph glyph-name="tildecomb" unicode="&#x303;" horiz-adv-x="0" 
d="M-401 1024q0 64 11 116.5t35.5 97.5t69.5 70t107 25q53 0 106 -25t87.5 -54.5t75.5 -54.5t73 -25q40 0 54.5 37t14.5 102h170q0 -67 -9 -118.5t-30.5 -96.5t-63.5 -69.5t-103 -24.5q-52 0 -96.5 16.5t-75.5 40t-59 46.5t-58.5 39.5t-61.5 16.5q-77 0 -77 -139h-170z" />
    <glyph glyph-name="uni0308" unicode="&#x308;" horiz-adv-x="0" 
d="M-334 1167q0 51 36 87t87 36q50 0 86.5 -36t36.5 -87t-36.5 -87t-86.5 -36q-51 0 -87 36t-36 87zM98 1167q0 51 36 87t87 36q50 0 86.5 -36t36.5 -87t-36.5 -87t-86.5 -36q-51 0 -87 36t-36 87z" />
    <glyph glyph-name="uni030A" unicode="&#x30a;" horiz-adv-x="0" 
d="M-281 1239q0 97 77.5 156t203.5 59q127 0 205 -59t78 -156t-78 -156t-205 -59q-126 0 -203.5 59t-77.5 156zM-100 1239q0 -32 27 -52t71 -20q46 0 74 20t28 52t-28 52t-74 20q-44 0 -71 -20t-27 -52z" />
    <glyph glyph-name="uni030C" unicode="&#x30c;" horiz-adv-x="0" 
d="M-70 1024l-317 416h205l184 -297l182 297h203l-315 -416h-142z" />
    <glyph glyph-name="uni0327" unicode="&#x327;" horiz-adv-x="0" 
d="M-51 0h125l-56 -121q41 0 75 -7.5t65.5 -26t49 -53.5t17.5 -85q0 -100 -56 -148t-155 -48q-22 0 -50 5.5t-69 21t-68.5 54t-27.5 93.5h131q0 -22 23 -33.5t53 -11.5q78 0 78 67q0 72 -125 72h-94z" />
    <glyph glyph-name="endash" unicode="&#x2013;" horiz-adv-x="956" 
d="M61 397v170h697v-170h-697z" />
    <glyph glyph-name="emdash" unicode="&#x2014;" horiz-adv-x="1556" 
d="M61 397v170h1434v-170h-1434z" />
    <glyph glyph-name="quoteleft" unicode="&#x2018;" horiz-adv-x="382" 
d="M313 1100q0 -64 -30.5 -94.5t-96.5 -30.5q-125 0 -125 125q0 72 20.5 139.5t72 128.5t127.5 90l28 -41q-99 -89 -116 -192q63 -1 91.5 -31.5t28.5 -93.5z" />
    <glyph glyph-name="quoteright" unicode="&#x2019;" horiz-adv-x="382" 
d="M70 1333q0 125 127 125q125 0 125 -125q0 -72 -20.5 -139.5t-72 -128.5t-127.5 -90l-28 41q99 87 116 190q-63 3 -91.5 33.5t-28.5 93.5z" />
    <glyph glyph-name="quotesinglbase" unicode="&#x201a;" horiz-adv-x="382" 
d="M72 98q0 125 123 125q124 0 124 -125q0 -72 -20.5 -139.5t-71.5 -128.5t-127 -90l-26 41q103 93 119 194q-63 1 -92 31t-29 92z" />
    <glyph glyph-name="quotedblleft" unicode="&#x201c;" horiz-adv-x="731" 
d="M659 1100q0 -64 -29.5 -94.5t-94.5 -30.5t-95 30.5t-30 94.5q0 53 12 105t36.5 101.5t68.5 89.5t102 62l28 -41q-101 -91 -118 -192q63 -1 91.5 -31.5t28.5 -93.5zM313 1100q0 -64 -30.5 -94.5t-96.5 -30.5q-125 0 -125 125q0 72 20.5 139.5t72 128.5t127.5 90l28 -41
q-99 -89 -116 -192q63 -1 91.5 -31.5t28.5 -93.5z" />
    <glyph glyph-name="quotedblright" unicode="&#x201d;" horiz-adv-x="731" 
d="M70 1333q0 125 127 125q125 0 125 -125q0 -72 -20.5 -139.5t-72 -128.5t-127.5 -90l-28 41q99 87 116 190q-63 3 -91.5 33.5t-28.5 93.5zM418 1333q0 125 125 125q127 0 127 -125q0 -72 -20.5 -139.5t-72 -128.5t-128.5 -90l-27 41q101 90 117 190q-63 3 -92 33.5
t-29 93.5z" />
    <glyph glyph-name="quotedblbase" unicode="&#x201e;" horiz-adv-x="731" 
d="M70 100q0 127 127 127q125 0 125 -127q0 -72 -20.5 -139.5t-72 -128.5t-127.5 -90l-28 43q99 87 116 190q-62 1 -91 32t-29 93zM418 100q0 127 125 127q127 0 127 -127q0 -72 -20.5 -139.5t-72 -128.5t-128.5 -90l-27 43q101 90 117 190q-62 1 -91.5 32t-29.5 93z" />
    <glyph glyph-name="Euro" unicode="&#x20ac;" horiz-adv-x="1665" 
d="M969 -31q-322 0 -506.5 128t-237.5 388h-205v172h185v60v67h-185v172h205q51 256 223.5 382t471.5 126q343 0 519.5 -125.5t176.5 -402.5h-281q0 256 -422 256q-158 0 -248.5 -57t-127.5 -179h247v-172h-274q-2 -20 -2 -65q0 -42 2 -62h274v-172h-241q85 -243 432 -243
q60 0 107 4.5t98.5 19t85 39.5t55.5 69.5t22 104.5h281q0 -140 -46 -240t-134.5 -158.5t-205 -85t-269.5 -26.5z" />
    <glyph glyph-name="trademark" unicode="&#x2122;" horiz-adv-x="1941" 
d="M330 670v706h-269v154h707v-154h-268v-706h-170zM866 670v860h189l317 -596l318 596h188v-860h-188v483l-256 -483h-121l-258 483v-483h-189z" />
    <glyph glyph-name="minus" unicode="&#x2212;" horiz-adv-x="696" 
d="M61 397v170h574v-170h-574z" />
    <glyph glyph-name="s_t" unicode="&#xfb06;" horiz-adv-x="2162" 
d="M63 733q0 169 117 245.5t369 76.5q118 0 215 -19q-35 150 -35 219q0 98 31 173t78.5 119t113 72t125 38t123.5 10q95 0 169.5 -24.5t118.5 -61.5t72.5 -87t39 -96t10.5 -93v-281h499v-252h-499v-371q0 -81 26.5 -126.5t96.5 -45.5q67 0 103 36.5t36 123.5h252
q0 -117 -27 -199t-80 -130t-125 -69.5t-170 -21.5q-198 0 -295.5 98.5t-97.5 305.5v399h-223v252h223l29 96l-29 -2q36 198 1 278.5t-148 80.5q-97 0 -155 -68.5t-58 -167.5q0 -39 7.5 -92.5t15 -90.5t24 -109t22.5 -99q33 -70 33 -174h-254q0 82 -76.5 114.5t-244.5 32.5
q-197 0 -197 -84q0 -35 68 -60t227 -52q208 -33 282 -57q139 -45 183 -143q24 -55 24 -132q0 -171 -119.5 -248.5t-359.5 -77.5q-282 0 -412.5 90t-130.5 289h252q0 -80 84.5 -113.5t247.5 -33.5q102 0 152.5 23.5t50.5 62.5q0 24 -14 39t-44.5 25t-70.5 17t-100 15
q-48 6 -74 10q-55 7 -97.5 14.5t-95 20.5t-91 29.5t-78 42.5t-64.5 58t-40.5 76.5t-15.5 98.5z" />
    <glyph glyph-name="A.ss01" horiz-adv-x="1382" 
d="M-41 0l573 1434h316l575 -1434h-315l-418 1040l-416 -1040h-315z" />
    <glyph glyph-name="E.ss01" horiz-adv-x="1337" 
d="M61 1167v267h1215v-267h-1215zM61 584v266h1215v-266h-1215zM61 0v266h1215v-266h-1215z" />
    <glyph glyph-name="D.ss01" horiz-adv-x="1478" 
d="M690 0h-588v266h598q200 0 306 114.5t106 338.5q0 221 -106 334.5t-306 113.5h-598v267h588q357 0 542 -181.5t185 -535.5t-185 -535.5t-542 -181.5z" />
    <glyph glyph-name="K.ss01" horiz-adv-x="1464" 
d="M102 1434h293v-983l656 983h348l-776 -1168h800v-266h-1321v1434z" />
    <glyph glyph-name="R.ss01" horiz-adv-x="1464" 
d="M102 0v1434h1321v-267h-800l776 -1167h-348l-656 983v-983h-293z" />
    <glyph glyph-name="O.ss01" horiz-adv-x="1597" 
d="M61 717q0 747 738 747q737 0 737 -747q0 -748 -737 -748q-738 0 -738 748z" />
    <glyph glyph-name="M.ss01" horiz-adv-x="1806" 
d="M102 0v1434h293v-1434h-293zM1704 0h-293v1434h293v-1434zM756 256v922h295v-922h-295z" />
    <glyph glyph-name="W.ss01" horiz-adv-x="1806" 
d="M1704 1434v-1434h-293v1434h293zM102 1434h293v-1434h-293v1434zM1051 922v-922h-295v922h295z" />
    <glyph glyph-name="a.ss02" horiz-adv-x="1259" 
d="M877 0v152q-91 -183 -326 -183q-218 0 -354 142t-136 401q0 264 127.5 403.5t354.5 139.5q248 0 334 -176v145h280v-1024h-280zM352 512q0 -139 66 -211t194 -72q131 0 198 72t67 211q0 283 -265 283q-143 0 -201.5 -69t-58.5 -214z" />
    <glyph glyph-name="g.ss02" horiz-adv-x="1239" 
d="M61 547q0 241 127 367t355 126q248 0 334 -159v129h280v-932q0 -147 -36.5 -247t-111 -157t-173.5 -80.5t-240 -23.5q-260 0 -385 91t-125 288h252q0 -78 71.5 -113t188.5 -35q279 0 279 238v178q-91 -166 -326 -166q-218 0 -354 129.5t-136 366.5zM352 547
q0 -116 65.5 -176t194.5 -60q131 0 198 60t67 176q0 235 -265 235q-143 0 -201.5 -57t-58.5 -178z" />
    <glyph glyph-name="y.ss02" horiz-adv-x="1236" 
d="M98 1024h281v-483q0 -116 51 -173t184 -57q126 0 192 53t66 156v19h2v481h281v-932q0 -147 -36.5 -247.5t-111 -157.5t-174 -81t-239.5 -24q-260 0 -385 91t-125 288h252q0 -145 260 -145q278 0 278 235v152q-109 -148 -344 -148q-221 0 -326.5 103.5t-105.5 349.5v520z
" />
    <glyph glyph-name="r.ss01" horiz-adv-x="1009" 
d="M383 0h-281v1024h867v-252h-586v-772z" />
    <glyph glyph-name="a.ss01" horiz-adv-x="1198" 
d="M815 0v551l-448 -551h-361l631 772h-524v252h983v-1024h-281z" />
    <glyph glyph-name="k.ss01" horiz-adv-x="1191" 
d="M383 1024v-551l448 551h361l-631 -772h524v-252h-983v1024h281z" />
    <glyph glyph-name="o.ss01" horiz-adv-x="1280" 
d="M61 512q0 543 578 543q580 0 580 -543t-580 -543q-578 0 -578 543z" />
    <glyph glyph-name="t_t" horiz-adv-x="1959" 
d="M266 373v399h-225v252h225l109 410h170v-410h583l109 410h170v-410h500v-252h-500v-371q0 -81 27 -126.5t98 -45.5q65 0 101 36.5t36 123.5h252q0 -117 -26.5 -199t-79.5 -130t-124.5 -69.5t-170.5 -21.5q-198 0 -295 98t-97 306v399h-583v-371q0 -81 27 -126.5t98 -45.5
q65 0 101 36.5t36 123.5h252q0 -117 -26.5 -199t-79.5 -130t-125 -69.5t-171 -21.5q-198 0 -294.5 98t-96.5 306z" />
    <glyph glyph-name="o_o" horiz-adv-x="2146" 
d="M61 512q0 543 578 543q290 0 434 -135q144 135 432 135q580 0 580 -543t-580 -543q-288 0 -432 135q-144 -135 -434 -135q-578 0 -578 543zM352 512q0 -283 287 -283q289 0 289 283t-289 283q-151 0 -219 -70t-68 -213zM1219 512q0 -283 286 -283q291 0 291 283t-291 283
q-149 0 -217.5 -70.5t-68.5 -212.5z" />
    <glyph glyph-name="agrave.ss01" horiz-adv-x="1259" 
d="M813 1268l-88 -66l-317 377l137 102zM877 0v152q-91 -183 -326 -183q-218 0 -354 142t-136 401q0 264 127.5 403.5t354.5 139.5q248 0 334 -176v145h280v-1024h-280zM352 512q0 -139 66 -211t194 -72q131 0 198 72t67 211q0 283 -265 283q-143 0 -201.5 -69t-58.5 -214z
" />
    <glyph glyph-name="aacute.ss01" horiz-adv-x="1259" 
d="M408 1268l268 413l137 -102l-317 -377zM877 0v152q-91 -183 -326 -183q-218 0 -354 142t-136 401q0 264 127.5 403.5t354.5 139.5q248 0 334 -176v145h280v-1024h-280zM352 512q0 -139 66 -211t194 -72q131 0 198 72t67 211q0 283 -265 283q-143 0 -201.5 -69t-58.5 -214
z" />
    <glyph glyph-name="acircumflex.ss01" horiz-adv-x="1259" 
d="M682 1624l315 -416h-202l-187 299l-180 -299h-205l318 416h141zM877 0v152q-91 -183 -326 -183q-218 0 -354 142t-136 401q0 264 127.5 403.5t354.5 139.5q248 0 334 -176v145h280v-1024h-280zM352 512q0 -139 66 -211t194 -72q131 0 198 72t67 211q0 283 -265 283
q-143 0 -201.5 -69t-58.5 -214z" />
    <glyph glyph-name="atilde.ss01" horiz-adv-x="1259" 
d="M209 1208q0 64 11 116.5t35.5 97.5t69.5 70.5t107 25.5q44 0 86 -16.5t75 -40t63 -47t60.5 -40t57.5 -16.5q28 0 44 20.5t21 48.5t5 70h170q0 -67 -9 -118.5t-31 -96.5t-64 -69.5t-103 -24.5q-52 0 -96.5 16.5t-75.5 40t-59 47t-58 40t-61 16.5q-78 0 -78 -140h-170z
M877 0v152q-91 -183 -326 -183q-218 0 -354 142t-136 401q0 264 127.5 403.5t354.5 139.5q248 0 334 -176v145h280v-1024h-280zM352 512q0 -139 66 -211t194 -72q131 0 198 72t67 211q0 283 -265 283q-143 0 -201.5 -69t-58.5 -214z" />
    <glyph glyph-name="adieresis.ss01" horiz-adv-x="1259" 
d="M276 1352q0 51 36 87t87 36q50 0 86.5 -36t36.5 -87t-36.5 -87t-86.5 -36q-51 0 -87 36t-36 87zM709 1352q0 51 35.5 87t86.5 36q50 0 86.5 -36t36.5 -87t-36.5 -87t-86.5 -36q-51 0 -86.5 36t-35.5 87zM877 0v152q-91 -183 -326 -183q-218 0 -354 142t-136 401
q0 264 127.5 403.5t354.5 139.5q248 0 334 -176v145h280v-1024h-280zM352 512q0 -139 66 -211t194 -72q131 0 198 72t67 211q0 283 -265 283q-143 0 -201.5 -69t-58.5 -214z" />
    <glyph glyph-name="aring.ss01" horiz-adv-x="1259" 
d="M330 1423q0 97 77 156t203 59q127 0 205 -59t78 -156t-78 -156t-205 -59q-126 0 -203 59t-77 156zM510 1423q0 -32 27 -51.5t71 -19.5q46 0 74.5 19.5t28.5 51.5t-28.5 52t-74.5 20q-44 0 -71 -20t-27 -52zM877 0v152q-91 -183 -326 -183q-218 0 -354 142t-136 401
q0 264 127.5 403.5t354.5 139.5q248 0 334 -176v145h280v-1024h-280zM352 512q0 -139 66 -211t194 -72q131 0 198 72t67 211q0 283 -265 283q-143 0 -201.5 -69t-58.5 -214z" />
    <glyph glyph-name="yacute.ss02" horiz-adv-x="1236" 
d="M416 1237l268 414l137 -103l-317 -377zM98 1024h281v-483q0 -116 51 -173t184 -57q126 0 192 53t66 156v19h2v481h281v-932q0 -147 -36.5 -247.5t-111 -157.5t-174 -81t-239.5 -24q-260 0 -385 91t-125 288h252q0 -145 260 -145q278 0 278 235v152q-109 -148 -344 -148
q-221 0 -326.5 103.5t-105.5 349.5v520z" />
    <glyph glyph-name="ydieresis.ss02" horiz-adv-x="1236" 
d="M285 1321q0 51 36 87t87 36q50 0 86 -36t36 -87t-36 -87t-86 -36q-51 0 -87 36t-36 87zM717 1321q0 51 36 87t87 36q50 0 86.5 -36t36.5 -87t-36.5 -87t-86.5 -36q-51 0 -87 36t-36 87zM98 1024h281v-483q0 -116 51 -173t184 -57q126 0 192 53t66 156v19h2v481h281v-932
q0 -147 -36.5 -247.5t-111 -157.5t-174 -81t-239.5 -24q-260 0 -385 91t-125 288h252q0 -145 260 -145q278 0 278 235v152q-109 -148 -344 -148q-221 0 -326.5 103.5t-105.5 349.5v520z" />
    </font>
</defs>
</svg>
