<?xml version="1.0" standalone="no"?>
<!DOCTYPE svg PUBLIC "-//W3C//DTD SVG 1.1//EN" "http://www.w3.org/Graphics/SVG/1.1/DTD/svg11.dtd" >
<svg xmlns="http://www.w3.org/2000/svg" xmlns:xlink="http://www.w3.org/1999/xlink" version="1.1">
<metadata>
Created by FontForge 20201107 at Mon Mar 11 11:02:10 2024
 By 
Glancyr (c) Drizy Studio 2022
</metadata>
<defs>
<font id="Glancyr-ExtraLight" horiz-adv-x="1214" >
  <font-face 
    font-family="Glancyr ExtLt"
    font-weight="200"
    font-stretch="normal"
    units-per-em="2048"
    panose-1="0 0 0 0 0 0 0 0 0 0"
    ascent="1536"
    descent="-512"
    x-height="1024"
    cap-height="1434"
    bbox="-389 -489 2157 2064"
    underline-thickness="102"
    underline-position="-255"
    unicode-range="U+000D-FB06"
  />
<missing-glyph horiz-adv-x="512" 
 />
    <glyph glyph-name="f_f" unicode="ff" horiz-adv-x="1708" 
d="M276 1130q0 206 81.5 306t258.5 100q171 0 255.5 -95.5t84.5 -324.5h-139q0 152 -51 215.5t-156 63.5q-97 0 -141.5 -58t-44.5 -209v-104h584v106q0 206 81.5 306t258.5 100q171 0 255.5 -95.5t84.5 -324.5h-140q0 152 -51 215.5t-156 63.5q-97 0 -142.5 -58.5
t-45.5 -208.5v-104h522v-139h-522v-885h-145v885h-584v-885h-148v885h-235v139h235v106z" />
    <glyph glyph-name="fi" unicode="fi" horiz-adv-x="1183" 
d="M276 1130q0 206 102 306t324 100q213 0 318.5 -95.5t105.5 -324.5h-139q0 152 -72.5 215.5t-222.5 63.5q-139 0 -203.5 -58.5t-64.5 -208.5v-104h702v-1024h-147v885h-555v-885h-148v885h-235v139h235v106z" />
    <glyph glyph-name="fl" unicode="fl" horiz-adv-x="1294" 
d="M276 1130q0 206 109 306t346 100q230 0 345.5 -78t115.5 -264v-1194h-148v1176q0 121 -78.5 170t-244.5 49q-154 0 -225.5 -58.5t-71.5 -208.5v-104h522v-139h-522v-885h-148v885h-235v139h235v106z" />
    <glyph glyph-name="f_f_i" unicode="ffi" horiz-adv-x="1912" 
d="M276 1130q0 206 81.5 306t258.5 100q171 0 255.5 -95.5t84.5 -324.5h-139q0 152 -51 215.5t-156 63.5q-97 0 -141.5 -58t-44.5 -209v-104h584v106q0 206 102 306t322 100q214 0 320 -95.5t106 -324.5h-142q0 152 -72.5 215.5t-220.5 63.5q-139 0 -204.5 -58.5
t-65.5 -208.5v-104h705v-1024h-148v885h-557v-885h-145v885h-584v-885h-148v885h-235v139h235v106z" />
    <glyph glyph-name="f_t" unicode="ft" horiz-adv-x="1767" 
d="M276 1130q0 206 81.5 306t258.5 100q171 0 255.5 -95.5t84.5 -324.5h-139q0 152 -51 215.5t-156 63.5q-97 0 -141.5 -58t-44.5 -209v-104h596l29 410h118v-410h541v-139h-541v-500q0 -46 3 -79t13.5 -72.5t30 -64t55 -41.5t85.5 -17q209 0 209 278h141q0 -116 -24.5 -199
t-72 -130.5t-110 -69t-145.5 -21.5q-160 0 -246 87.5t-86 287.5v541h-596v-885h-148v885h-235v139h235v106z" />
    <glyph glyph-name=".notdef" horiz-adv-x="512" 
 />
    <glyph glyph-name="uni0000" horiz-adv-x="0" 
 />
    <glyph glyph-name="uni0000" horiz-adv-x="0" 
 />
    <glyph glyph-name="uni000D" unicode="&#xd;" horiz-adv-x="512" 
 />
    <glyph glyph-name="space" unicode=" " horiz-adv-x="532" 
 />
    <glyph glyph-name="exclam" unicode="!" horiz-adv-x="362" 
d="M109 1434h145l-10 -942h-125zM61 88q0 121 119 121q121 0 121 -121q0 -60 -29.5 -89.5t-91.5 -29.5q-119 0 -119 119z" />
    <glyph glyph-name="quotedbl" unicode="&#x22;" horiz-adv-x="575" 
d="M78 928l-17 506h119l-14 -506h-88zM379 928l-17 506h119l-14 -506h-88z" />
    <glyph glyph-name="numbersign" unicode="#" horiz-adv-x="1253" 
d="M61 905v119h394l137 410h127l-137 -410h282l140 410h126l-139 -410h201v-119h-242l-139 -413h381v-121h-422l-125 -371h-127l125 371h-283l-124 -371h-127l124 371h-172v121h213l140 413h-353zM401 492h283l139 413h-282z" />
    <glyph glyph-name="dollar" unicode="$" horiz-adv-x="1335" 
d="M608 -328v297q-267 9 -407 124.5t-140 363.5h148q0 -81 21.5 -141.5t56 -97t88 -59.5t108 -32t125.5 -12v540q-79 18 -128.5 31t-111.5 33.5t-99.5 41t-77.5 51.5t-61.5 67t-35.5 85t-14 109q0 194 127.5 287t400.5 102v156h119v-154q260 -9 395 -123.5t135 -363.5h-145
q0 79 -20.5 138t-53.5 95t-85 58.5t-104.5 31t-121.5 11.5v-512q115 -21 197 -44t151.5 -57t111 -78.5t64.5 -106.5t23 -142q0 -200 -131.5 -295.5t-415.5 -104.5v-299h-119zM608 821v488q-104 -3 -176 -19.5t-113.5 -47t-59 -70.5t-17.5 -95q0 -104 90.5 -162t275.5 -94z
M727 633v-518q196 8 290.5 68t94.5 179q0 58 -24 102.5t-58.5 71t-89 46t-100 29.5t-105.5 21q-5 1 -8 1z" />
    <glyph glyph-name="percent" unicode="%" horiz-adv-x="1656" 
d="M61 1087q0 377 316 377q313 0 313 -377q0 -380 -313 -380q-316 0 -316 380zM319 0l814 1434h137l-813 -1434h-138zM190 1087q0 -262 187 -262q184 0 184 262q0 259 -184 259q-100 0 -143.5 -64t-43.5 -195zM967 350q0 377 315 377q313 0 313 -377q0 -381 -313 -381
q-315 0 -315 381zM1096 350q0 -262 186 -262q184 0 184 262q0 258 -184 258q-100 0 -143 -63.5t-43 -194.5z" />
    <glyph glyph-name="ampersand" unicode="&#x26;" horiz-adv-x="1591" 
d="M700 690l512 -397q150 153 150 409v37h143v-24q0 -136 -41.5 -271t-132.5 -243l260 -201h-219l-141 109q-195 -140 -492 -140q-152 0 -267 17t-193 49.5t-126.5 83t-70 113.5t-21.5 145q0 80 23.5 143t68.5 106.5t99 72.5t125 51q-176 148 -176 333q0 174 107.5 277.5
t338.5 103.5q239 0 358 -101.5t119 -295.5q0 -74 -24 -132t-60 -95t-96 -67.5t-113 -47.5t-131 -35zM557 795q57 12 95.5 21.5t81.5 21.5t70.5 23.5t56 26t45.5 31.5t31 38t20 46t6 56q0 126 -79.5 193t-236.5 67q-70 0 -121.5 -13.5t-82.5 -35.5t-49.5 -54.5t-25 -66
t-6.5 -74.5q0 -49 15 -90.5t46.5 -76.5t59.5 -58t74 -55zM532 639q-6 6 -12 8q-162 -41 -230.5 -96t-68.5 -168q0 -68 25 -115.5t84.5 -83t164 -52.5t259.5 -17q77 0 170.5 21t177.5 71z" />
    <glyph glyph-name="quotesingle" unicode="'" horiz-adv-x="241" 
d="M78 928l-17 506h119l-14 -506h-88z" />
    <glyph glyph-name="parenleft" unicode="(" horiz-adv-x="657" 
d="M180 543q0 -146 28.5 -295.5t79 -276.5t132 -207.5t176.5 -80.5v-113q-87 0 -161.5 36t-128.5 96.5t-97 143t-70 171.5t-45 186.5t-25.5 183.5t-7.5 166t7.5 166t25.5 183.5t45 186.5t70 171.5t97 143t128.5 96.5t161.5 36v-113q-96 0 -176.5 -80.5t-131.5 -209
t-79.5 -282.5t-28.5 -308z" />
    <glyph glyph-name="parenright" unicode=")" horiz-adv-x="657" 
d="M477 543q0 154 -28.5 308t-79.5 282.5t-131.5 209t-176.5 80.5v113q87 0 161.5 -36t128.5 -96.5t97 -143t70 -171.5t45 -186.5t25.5 -183.5t7.5 -166t-7.5 -166t-25.5 -183.5t-45 -186.5t-70 -171.5t-97 -143t-128.5 -96.5t-161.5 -36v113q95 0 176.5 80.5t132 207.5
t79 276.5t28.5 295.5z" />
    <glyph glyph-name="asterisk" unicode="*" horiz-adv-x="1052" 
d="M469 1536h119l-10 -410l395 84l18 -118l-381 -62l238 -319l-103 -64l-219 328l-217 -328l-102 64l235 319l-381 62l21 118l397 -84z" />
    <glyph glyph-name="plus" unicode="+" horiz-adv-x="737" 
d="M61 524v119h248v248h119v-248h248v-119h-248v-248h-119v248h-248z" />
    <glyph glyph-name="comma" unicode="," horiz-adv-x="382" 
d="M88 86q0 115 117 115t117 -115q0 -133 -58.5 -241t-173.5 -158l-24 39q74 64 105 121t38 122q-62 0 -91.5 27t-29.5 90z" />
    <glyph glyph-name="hyphen" unicode="-" horiz-adv-x="655" 
d="M61 428v119h533v-119h-533z" />
    <glyph glyph-name="period" unicode="." horiz-adv-x="354" 
d="M61 86q0 115 117 115q115 0 115 -115q0 -117 -115 -117q-61 0 -89 29t-28 88z" />
    <glyph glyph-name="slash" unicode="/" horiz-adv-x="823" 
d="M0 0l690 1434h133l-690 -1434h-133z" />
    <glyph glyph-name="zero" unicode="0" horiz-adv-x="1273" 
d="M61 717q0 747 576 747q575 0 575 -747q0 -748 -575 -748q-576 0 -576 748zM221 719q0 -604 416 -604q210 0 312 151t102 453q0 600 -414 600q-225 0 -320.5 -146.5t-95.5 -453.5z" />
    <glyph glyph-name="one" unicode="1" horiz-adv-x="600" 
d="M348 0v1290h-307v144h457v-1434h-150z" />
    <glyph glyph-name="two" unicode="2" horiz-adv-x="1230" 
d="M63 0v164q0 92 20 163.5t56.5 125.5t100.5 100t138 81.5t183 76.5q69 26 112 42.5t96 40t84 42.5t64.5 45t50.5 52t28.5 58.5t11.5 69.5q0 258 -363 258q-76 0 -132 -6t-116 -27t-98.5 -57t-63 -100t-24.5 -152h-145q0 261 145 374t432 113q262 0 394 -105.5t132 -297.5
q0 -56 -14.5 -103.5t-34 -84t-63 -73t-78.5 -60.5t-105.5 -57t-118 -53t-139.5 -57q-17 -7 -50 -20q-39 -15 -59 -23t-56 -24.5t-56 -28.5t-49.5 -32t-46 -39t-36.5 -46t-30 -55.5t-17 -65t-7 -77.5v-19h954v-143h-1100z" />
    <glyph glyph-name="three" unicode="3" horiz-adv-x="1230" 
d="M434 788h182q78 0 139 11t100 31.5t65 45t38.5 57.5t17.5 62.5t5 65.5q0 129 -93.5 193.5t-262.5 64.5q-81 0 -136 -6t-108.5 -26.5t-84.5 -57.5t-50 -99.5t-19 -152.5h-147q0 262 133.5 374.5t404.5 112.5q261 0 393 -103t132 -296q0 -244 -193 -348q219 -102 219 -332
q0 -215 -134.5 -315.5t-428.5 -100.5q-133 0 -234 26t-177 82.5t-115 152t-39 227.5h147q0 -64 11 -115t30 -86.5t49.5 -61t63.5 -41t79 -24t89 -11.5t100 -3q101 0 169.5 11t123 40t80 82.5t25.5 134.5q0 49 -17.5 92t-57.5 83t-119.5 63.5t-190.5 23.5h-189v143z" />
    <glyph glyph-name="four" unicode="4" horiz-adv-x="1224" 
d="M870 0v383h-829v143l829 908h150v-908h164v-143h-164v-383h-150zM233 526h637v697z" />
    <glyph glyph-name="five" unicode="5" horiz-adv-x="1169" 
d="M156 1434h866v-144h-733l-43 -461h323q254 0 396.5 -100.5t142.5 -312.5q0 -232 -124.5 -339.5t-387.5 -107.5q-285 0 -420 112.5t-135 375.5h147q0 -88 22 -151.5t56.5 -100t90 -57.5t108.5 -27t125 -6q108 0 178.5 18t109 58t53.5 91.5t15 129.5q0 274 -389 274h-471z
" />
    <glyph glyph-name="six" unicode="6" horiz-adv-x="1306" 
d="M649 1464q279 0 418 -113.5t139 -375.5h-145q0 68 -15.5 122t-39.5 89.5t-60.5 61.5t-70.5 39t-78.5 21t-74.5 9.5t-69 1.5q-225 0 -327 -138t-105 -448q182 119 426 119q89 0 170.5 -12.5t161 -43.5t137.5 -77t93.5 -119t35.5 -164q0 -223 -141.5 -345t-429.5 -122
q-321 0 -467 185.5t-146 562.5q0 378 146 562.5t442 184.5zM229 555q25 -232 131.5 -336t313.5 -104q97 0 171.5 19t119 49.5t72.5 73.5t38 85.5t10 91.5q0 128 -116.5 200.5t-315.5 72.5q-82 0 -151 -13.5t-121 -38.5t-84.5 -47t-67.5 -53z" />
    <glyph glyph-name="seven" unicode="7" horiz-adv-x="1099" 
d="M61 1290v144h977v-144l-667 -1290h-168l665 1290h-807z" />
    <glyph glyph-name="eight" unicode="8" horiz-adv-x="1304" 
d="M111 1057q0 407 544 407q539 0 539 -407q0 -216 -182 -326q231 -94 231 -352q0 -410 -588 -410q-594 0 -594 410q0 256 224 352q-174 102 -174 326zM270 1057q0 -134 94.5 -200t292.5 -66q377 0 377 266q0 262 -377 262q-144 0 -230.5 -30t-121.5 -86t-35 -146zM221 379
q0 -264 436 -264q426 0 426 264q0 268 -426 268q-161 0 -258.5 -31t-137.5 -88.5t-40 -148.5z" />
    <glyph glyph-name="nine" unicode="9" horiz-adv-x="1306" 
d="M657 -31q-279 0 -418 114t-139 376h148q0 -68 15.5 -122t39 -89.5t60.5 -61.5t70.5 -39t78 -21t74.5 -9.5t69 -1.5q223 0 325 137.5t105 447.5q-180 -118 -423 -118q-89 0 -171 12.5t-161.5 43t-138 77t-94.5 119t-36 163.5q0 223 143 345t431 122q319 0 464.5 -185
t145.5 -562q0 -379 -145.5 -563.5t-442.5 -184.5zM1077 879q-25 232 -131 336t-311 104q-98 0 -172.5 -19t-119.5 -50t-73.5 -74t-38.5 -85.5t-10 -91.5q0 -128 116 -200t316 -72q82 0 151 13.5t121 38.5t84.5 47t67.5 53z" />
    <glyph glyph-name="colon" unicode=":" horiz-adv-x="354" 
d="M61 803q0 115 117 115q115 0 115 -115q0 -117 -115 -117q-61 0 -89 29t-28 88zM61 86q0 115 117 115q115 0 115 -115q0 -117 -115 -117q-61 0 -89 29t-28 88z" />
    <glyph glyph-name="semicolon" unicode=";" horiz-adv-x="382" 
d="M76 803q0 115 114 115q117 0 117 -115q0 -59 -28 -88t-89 -29q-59 0 -86.5 29t-27.5 88zM88 86q0 115 117 115t117 -115q0 -133 -58.5 -241t-173.5 -158l-24 39q74 64 105 121t38 122q-62 0 -91.5 27t-29.5 90z" />
    <glyph glyph-name="less" unicode="&#x3c;" horiz-adv-x="890" 
d="M61 569v129l768 318v-129l-612 -254l612 -252v-129z" />
    <glyph glyph-name="equal" unicode="=" horiz-adv-x="737" 
d="M61 676v119h615v-119h-615zM61 295v119h615v-119h-615z" />
    <glyph glyph-name="greater" unicode="&#x3e;" horiz-adv-x="890" 
d="M829 698v-129l-768 -317v129l613 252l-613 254v129z" />
    <glyph glyph-name="question" unicode="?" horiz-adv-x="1099" 
d="M352 492q0 88 29 154.5t75.5 106.5t102 71t111.5 56.5t102.5 53t75.5 69.5t29 99q0 105 -71 161t-235 56q-63 0 -110 -6t-97 -27t-82 -57t-52.5 -100t-20.5 -152h-148q0 261 129 374t383 113q233 0 349 -90.5t116 -263.5q0 -71 -24 -127.5t-62.5 -91.5t-88.5 -65.5
t-101.5 -51t-101.5 -48t-88.5 -56t-62.5 -74.5t-24 -104h-133zM309 88q0 121 119 121q121 0 121 -121q0 -60 -29.5 -89.5t-91.5 -29.5q-119 0 -119 119z" />
    <glyph glyph-name="at" unicode="@" horiz-adv-x="1861" 
d="M526 596q0 202 107 309t299 107q200 0 270 -144v119h133v-440q0 -103 42 -151t110 -48q46 0 77.5 15t49.5 38.5t28 66.5t12.5 85.5t2.5 108.5q0 675 -725 675q-216 0 -381 -90.5t-255.5 -255t-90.5 -379.5q0 -163 51 -307t144.5 -253.5t236 -173.5t315.5 -64
q205 0 331 72.5t126 193.5h125q0 -71 -22.5 -129.5t-59 -98t-88 -70.5t-104 -48.5t-112 -28.5t-107.5 -14.5t-95 -3.5q-201 0 -368.5 71.5t-280 195.5t-174.5 292t-62 360q0 254 108.5 449t306.5 302t456 107q196 0 355 -50.5t273.5 -147t177 -245t62.5 -337.5
q0 -130 -20 -219.5t-61 -142.5t-98 -76t-136 -23q-101 0 -165.5 47t-92.5 125q-63 -213 -291 -213q-186 0 -298 108t-112 306zM670 600q0 -140 71.5 -214.5t202.5 -74.5q258 0 258 283q0 289 -264 289q-144 0 -206 -69t-62 -214z" />
    <glyph glyph-name="A" unicode="A" horiz-adv-x="1312" 
d="M-41 0l614 1434h166l615 -1434h-164l-125 289h-817l-123 -289h-166zM309 432h695l-347 809z" />
    <glyph glyph-name="B" unicode="B" horiz-adv-x="1433" 
d="M102 0v1434h703q270 0 398 -98t128 -294q0 -229 -172 -321q234 -103 234 -326q0 -134 -51.5 -219t-175.5 -130.5t-330 -45.5h-734zM252 788h567q79 0 137.5 11t109.5 37.5t78 78t27 127.5q0 82 -47 139t-122.5 83t-172.5 26h-577v-502zM252 143h588q94 0 162.5 12
t122.5 40t81 78t27 122q0 79 -60.5 137.5t-149.5 85.5t-189 27h-582v-502z" />
    <glyph glyph-name="C" unicode="C" horiz-adv-x="1490" 
d="M811 -31q-379 0 -564.5 186t-185.5 564t173 561.5t528 183.5q335 0 507.5 -125.5t172.5 -402.5h-148q0 68 -16.5 124t-44.5 95.5t-70 69t-87.5 47t-102.5 28.5t-109.5 15t-113.5 4q-286 0 -407.5 -140.5t-121.5 -457.5q0 -316 147 -461t457 -145q78 0 139.5 7t127.5 30
t110 61.5t72.5 106t28.5 159.5h147q0 -140 -45 -240t-131 -158.5t-200 -85t-263 -26.5z" />
    <glyph glyph-name="D" unicode="D" horiz-adv-x="1437" 
d="M102 0v1434h566q334 0 521 -184t187 -533t-187 -533t-521 -184h-566zM252 143h440q241 0 381.5 147.5t140.5 428.5q0 278 -140.5 424.5t-381.5 146.5h-440v-1147z" />
    <glyph glyph-name="E" unicode="E" horiz-adv-x="1253" 
d="M102 0v1434h1086v-144h-936v-502h854v-143h-854v-502h956v-143h-1106z" />
    <glyph glyph-name="F" unicode="F" horiz-adv-x="1224" 
d="M102 0v1434h1082v-144h-932v-502h850v-143h-850v-645h-150z" />
    <glyph glyph-name="G" unicode="G" horiz-adv-x="1533" 
d="M731 -31q-325 0 -497.5 188.5t-172.5 561.5q0 378 173 561.5t528 183.5q335 0 507.5 -125.5t172.5 -402.5h-148q0 68 -16.5 124t-44.5 95.5t-70 69t-87.5 47t-102.5 28.5t-109.5 15t-113.5 4q-286 0 -407.5 -140.5t-121.5 -457.5q0 -606 527 -606q73 0 139.5 26t117 67.5
t99 103.5t83 123t70.5 138h-477v140h672v-713h-147v424q-224 -455 -574 -455z" />
    <glyph glyph-name="H" unicode="H" horiz-adv-x="1449" 
d="M102 0v1434h150v-646h946v646h150v-1434h-150v645h-946v-645h-150z" />
    <glyph glyph-name="I" unicode="I" horiz-adv-x="354" 
d="M102 0v1434h150v-1434h-150z" />
    <glyph glyph-name="J" unicode="J" horiz-adv-x="1146" 
d="M1065 481q0 -142 -32.5 -242t-96.5 -159t-151.5 -85t-206.5 -26q-134 0 -231 26.5t-167 85.5t-104.5 158t-34.5 240h147q0 -92 20.5 -159t54 -106t86.5 -62t106 -30t125 -7q83 0 142 16.5t103 56t66 107.5t22 168v971h152v-953z" />
    <glyph glyph-name="K" unicode="K" horiz-adv-x="1193" 
d="M102 0v1434h150v-1434h-150zM457 717l737 -717h-205l-737 717l737 717h205z" />
    <glyph glyph-name="L" unicode="L" horiz-adv-x="1224" 
d="M102 0v1434h150v-1291h932v-143h-1082z" />
    <glyph glyph-name="M" unicode="M" horiz-adv-x="1812" 
d="M102 0v1434h150l655 -1221l654 1221h149v-1434h-149v1124l-603 -1124h-102l-604 1124v-1124h-150z" />
    <glyph glyph-name="N" unicode="N" horiz-adv-x="1394" 
d="M102 0v1434h150l891 -1186v1186h149v-1434h-149l-891 1188v-1188h-150z" />
    <glyph glyph-name="O" unicode="O" horiz-adv-x="1562" 
d="M61 717q0 747 721 747q719 0 719 -747q0 -748 -719 -748q-721 0 -721 748zM221 717q0 -602 561 -602q559 0 559 602t-559 602q-561 0 -561 -602z" />
    <glyph glyph-name="P" unicode="P" horiz-adv-x="1376" 
d="M102 0v1434h637q296 0 436 -116.5t140 -352.5q0 -237 -138 -353t-438 -116h-487v-496h-150zM252 639h496q219 0 312 79.5t93 246.5t-93 246t-312 79h-496v-651z" />
    <glyph glyph-name="Q" unicode="Q" horiz-adv-x="1562" 
d="M61 717q0 747 721 747q719 0 719 -747q0 -523 -352 -680l123 -258l-129 -55l-127 270q-109 -25 -234 -25q-721 0 -721 748zM221 717q0 -602 561 -602q85 0 170 16l-215 453l129 55l217 -463q258 130 258 541q0 602 -559 602q-561 0 -561 -602z" />
    <glyph glyph-name="R" unicode="R" horiz-adv-x="1376" 
d="M102 0v1434h637q296 0 436 -105.5t140 -318.5q0 -204 -126 -310t-386 -112l479 -588h-188l-478 588h-364v-588h-150zM252 731h496q219 0 312 68t93 211q0 144 -93 212t-312 68h-496v-559z" />
    <glyph glyph-name="S" unicode="S" horiz-adv-x="1335" 
d="M641 649q-103 23 -157.5 37.5t-131.5 40t-116.5 53t-81 69t-58 97t-16.5 127.5q0 206 143.5 298.5t454.5 92.5q140 0 244 -26t180.5 -82.5t115.5 -151t39 -227.5h-145q0 86 -24.5 148.5t-62.5 97.5t-98.5 55.5t-118.5 26.5t-138 6q-162 0 -258 -28t-133 -77.5t-37 -128.5
q0 -48 20.5 -86t55.5 -65.5t92 -50t121 -38t151 -30.5q125 -21 212.5 -44t163.5 -57t121 -79t70 -108.5t25 -147.5q0 -212 -147.5 -307t-469.5 -95q-142 0 -249.5 26t-186.5 82.5t-119.5 151.5t-40.5 228h148q0 -88 25.5 -151.5t65.5 -100t103.5 -57.5t124 -27t142.5 -6
q225 0 333.5 60t108.5 187q0 44 -13.5 80t-34.5 61t-54.5 45.5t-65.5 33t-76 23.5t-77.5 17t-78.5 13.5t-71 13.5z" />
    <glyph glyph-name="T" unicode="T" 
d="M532 0v1290h-495v144h1141v-144h-496v-1290h-150z" />
    <glyph glyph-name="U" unicode="U" horiz-adv-x="1396" 
d="M698 115q229 0 348 104.5t119 333.5v881h150v-861q0 -136 -31 -241t-85.5 -173t-133.5 -111t-168.5 -61t-198.5 -18q-108 0 -197.5 18t-168.5 61t-133 111t-85.5 173t-31.5 241v861h149v-881q0 -229 119 -333.5t348 -104.5z" />
    <glyph glyph-name="V" unicode="V" horiz-adv-x="1300" 
d="M1341 1434l-608 -1434h-166l-608 1434h166l524 -1239l527 1239h165z" />
    <glyph glyph-name="W" unicode="W" horiz-adv-x="2052" 
d="M1108 1434l410 -1194l409 1194h166l-491 -1434h-166l-410 1194l-410 -1194h-165l-492 1434h166l410 -1194l409 1194h164z" />
    <glyph glyph-name="X" unicode="X" horiz-adv-x="1374" 
d="M784 717l590 -717h-196l-490 594l-491 -594h-197l590 717l-590 717h197l491 -594l490 594h196z" />
    <glyph glyph-name="Y" unicode="Y" horiz-adv-x="1275" 
d="M563 0v715l-563 719h186l453 -578l453 578h184l-563 -719v-715h-150z" />
    <glyph glyph-name="Z" unicode="Z" horiz-adv-x="1259" 
d="M61 1290v144h1137v-144l-936 -1147h936v-143h-1137v143l934 1147h-934z" />
    <glyph glyph-name="bracketleft" unicode="[" horiz-adv-x="430" 
d="M61 -410v1946h308v-119h-189v-1708h189v-119h-308z" />
    <glyph glyph-name="backslash" unicode="\" horiz-adv-x="823" 
d="M823 0h-133l-690 1434h133z" />
    <glyph glyph-name="bracketright" unicode="]" horiz-adv-x="430" 
d="M369 -410h-308v119h189v1708h-189v119h308v-1946z" />
    <glyph glyph-name="asciicircum" unicode="^" horiz-adv-x="886" 
d="M379 1434h129l317 -768h-129l-252 612l-254 -612h-129z" />
    <glyph glyph-name="underscore" unicode="_" horiz-adv-x="798" 
d="M-61 -373v121h921v-121h-921z" />
    <glyph glyph-name="a" unicode="a" horiz-adv-x="1120" 
d="M893 659q0 59 -14.5 104t-42.5 72.5t-58.5 45.5t-72.5 26t-73.5 10.5t-72.5 2.5q-37 0 -64.5 -1.5t-63 -7.5t-61 -16t-52 -29t-43 -44.5t-27 -64t-10.5 -87.5h-142q0 197 119.5 291t339.5 94q245 0 364 -99.5t119 -308.5v-647h-145v145q-74 -176 -389 -176
q-110 0 -191 15t-144 50t-95.5 96.5t-32.5 150.5q0 146 117.5 224.5t371.5 108.5l363 39v6zM893 537l-365 -41q-329 -39 -329 -213q0 -41 13.5 -71.5t47 -56t97 -38.5t157.5 -13q101 0 176.5 22.5t116.5 59.5t61 74t25 76v201z" />
    <glyph glyph-name="b" unicode="b" horiz-adv-x="1173" 
d="M250 0h-148v1536h148v-664q97 183 379 183q221 0 352 -141t131 -402q0 -129 -40.5 -234t-109 -171.5t-156.5 -102t-185 -35.5q-271 0 -371 191v-160zM954 514q0 199 -84.5 299t-263.5 100q-174 0 -265 -101.5t-91 -297.5t91.5 -299.5t264.5 -103.5q158 0 253 105.5
t95 297.5z" />
    <glyph glyph-name="c" unicode="c" horiz-adv-x="1146" 
d="M604 1055q237 0 367.5 -124t130.5 -317h-139q0 135 -90.5 217t-270.5 82q-383 0 -383 -397q0 -111 29.5 -191.5t84 -126t122 -66.5t151.5 -21q182 0 270.5 81.5t88.5 217.5h141q0 -94 -29.5 -173t-89 -139.5t-156.5 -94.5t-223 -34q-265 0 -406 138.5t-141 404.5
q0 273 132.5 408t410.5 135z" />
    <glyph glyph-name="d" unicode="d" 
d="M965 0v164q-103 -195 -392 -195q-111 0 -204 35.5t-162 102t-107.5 170.5t-38.5 235q0 266 130 404.5t374 138.5q296 0 400 -187v668h147v-1536h-147zM219 514q0 -197 94 -300t275 -103q187 0 282 103t95 300t-95 298t-282 101q-202 0 -285.5 -97.5t-83.5 -301.5z" />
    <glyph glyph-name="e" unicode="e" horiz-adv-x="1191" 
d="M1130 504v-41h-911q12 -193 115.5 -276t298.5 -83q148 0 246 72t98 174l141 -2q0 -172 -127.5 -275.5t-359.5 -103.5q-285 0 -427.5 138t-142.5 407q0 261 137.5 401t395.5 140q280 0 408 -138.5t128 -412.5zM223 590h752q-25 330 -375 330q-151 0 -253.5 -85
t-123.5 -245z" />
    <glyph glyph-name="f" unicode="f" horiz-adv-x="976" 
d="M276 1130q0 206 81.5 306t258.5 100q171 0 255.5 -95.5t84.5 -324.5h-139q0 152 -51 215.5t-156 63.5q-97 0 -141.5 -58t-44.5 -209v-104h522v-139h-522v-885h-148v885h-235v139h235v106z" />
    <glyph glyph-name="g" unicode="g" horiz-adv-x="1187" 
d="M1114 1268v-131q-96 57 -223 57q-61 0 -113.5 -34.5t-66.5 -112.5q362 -46 362 -351q0 -180 -117.5 -269t-365.5 -89q-221 0 -305 -13.5t-84 -64.5q0 -45 82 -65t325 -43q220 -22 246 -27q158 -24 218 -89q54 -59 54 -169q0 -153 -123.5 -225t-381.5 -72q-302 0 -431 89
t-129 290h140q0 -134 98 -189t307 -55q89 0 154.5 7t120 24t82.5 50t28 81q0 31 -8.5 52.5t-28 34.5t-42.5 20t-62 11.5t-75.5 6.5t-94 7t-107.5 11q-29 3 -89 9.5t-91.5 10.5t-83.5 13t-80 18.5t-64 26.5t-54.5 38t-31.5 51.5t-13 68.5q0 133 149 178q-139 91 -139 272
q0 68 17.5 122t46 91t72.5 64t89 42.5t104 24.5t108.5 12t111.5 3q13 118 82.5 192t185.5 74q106 0 221 -53zM233 698q0 -225 355 -225q169 0 248 53t79 172q0 115 -87 168.5t-259 53.5q-186 0 -261 -51.5t-75 -170.5z" />
    <glyph glyph-name="h" unicode="h" horiz-adv-x="1193" 
d="M250 0h-148v1536h148v-664q108 183 399 183q239 0 351 -116.5t112 -356.5v-582h-147v578q0 80 -15 137.5t-51.5 104t-104.5 70t-169 23.5q-186 0 -280.5 -101t-94.5 -298v-514z" />
    <glyph glyph-name="i" unicode="i" horiz-adv-x="352" 
d="M57 1335q0 62 28 90.5t91 28.5t91 -28.5t28 -90.5q0 -61 -28.5 -89.5t-90.5 -28.5t-90.5 28.5t-28.5 89.5zM102 0v1024h148v-1024h-148z" />
    <glyph glyph-name="j" unicode="j" horiz-adv-x="688" 
d="M393 1335q0 62 28 90.5t91 28.5t92 -28.5t29 -90.5q0 -60 -29 -89t-92 -29q-62 0 -90.5 28.5t-28.5 89.5zM586 23q0 -248 -89 -371t-259 -123q-86 0 -150 29.5t-102 84t-56 124.5t-18 157h135q0 -260 203 -260q95 0 141.5 82.5t46.5 235.5v1042h148v-1001z" />
    <glyph glyph-name="k" unicode="k" horiz-adv-x="1097" 
d="M250 0h-148v1536h148v-1536zM463 512l635 -512h-213l-635 512l635 512h213z" />
    <glyph glyph-name="l" unicode="l" horiz-adv-x="352" 
d="M250 0h-148v1536h148v-1536z" />
    <glyph glyph-name="m" unicode="m" horiz-adv-x="1828" 
d="M999 0h-147v643q0 270 -287 270q-156 0 -235.5 -101t-79.5 -298v-514h-148v1024h148v-150q99 181 348 181q259 0 352 -178q52 79 145 128.5t226 49.5q222 0 324 -116t102 -357v-582h-145v578q0 80 -12.5 137.5t-43.5 104t-88.5 70t-142.5 23.5q-149 0 -232.5 -81
t-83.5 -191v-641z" />
    <glyph glyph-name="n" unicode="n" horiz-adv-x="1193" 
d="M1112 0h-147v578q0 80 -15 137.5t-51.5 104t-104.5 70t-169 23.5q-186 0 -280.5 -101t-94.5 -298v-514h-148v1024h148v-152q108 183 399 183q239 0 351 -116.5t112 -356.5v-582z" />
    <glyph glyph-name="o" unicode="o" horiz-adv-x="1249" 
d="M61 512q0 543 564 543q563 0 563 -543t-563 -543q-564 0 -564 543zM219 512q0 -401 406 -401q405 0 405 401t-405 401q-207 0 -306.5 -100.5t-99.5 -300.5z" />
    <glyph glyph-name="p" unicode="p" horiz-adv-x="1173" 
d="M250 -410h-148v1434h148v-152q97 183 379 183q221 0 352 -141t131 -402q0 -129 -40.5 -234t-109 -171.5t-156.5 -102t-185 -35.5q-271 0 -371 191v-570zM954 514q0 199 -84.5 299t-263.5 100q-174 0 -265 -101.5t-91 -297.5t91.5 -299.5t264.5 -103.5q158 0 253 105.5
t95 297.5z" />
    <glyph glyph-name="q" unicode="q" 
d="M965 -410v574q-103 -195 -392 -195q-111 0 -204 35.5t-162 102t-107.5 170.5t-38.5 235q0 266 130 404.5t374 138.5q296 0 400 -187v156h147v-1434h-147zM219 514q0 -197 94 -300t275 -103q187 0 282 103t95 300t-95 298t-282 101q-202 0 -285.5 -97.5t-83.5 -301.5z" />
    <glyph glyph-name="r" unicode="r" horiz-adv-x="1013" 
d="M250 0h-148v1024h148v-147q99 178 338 178q385 0 385 -445h-142q0 147 -58.5 225t-203.5 78q-152 0 -235.5 -102t-83.5 -297v-514z" />
    <glyph glyph-name="s" unicode="s" horiz-adv-x="1105" 
d="M68 774q0 143 121 212t339 69q260 0 384 -90.5t124 -288.5h-141q0 134 -95.5 189t-283.5 55q-305 0 -305 -146q0 -61 79 -106t277 -86q114 -24 168 -37t127 -39.5t104 -55.5t54.5 -77t23.5 -113q0 -156 -113.5 -223.5t-346.5 -67.5q-272 0 -397.5 90t-125.5 289h140
q0 -244 393 -244q307 0 307 150q0 22 -4.5 39.5t-16 31.5t-23 24.5t-35 20t-41.5 16t-53 14.5t-59.5 13t-70 13.5t-76.5 15.5q-53 11 -95.5 21.5t-91.5 26.5t-86 34t-72.5 43.5t-58 54.5t-36.5 68t-14 84z" />
    <glyph glyph-name="t" unicode="t" horiz-adv-x="1073" 
d="M326 344v541h-285v139h285l28 410h119v-410h541v-139h-541v-500q0 -47 2.5 -79t13 -72t29.5 -64.5t55 -41.5t86 -17q209 0 209 278h140q0 -227 -90.5 -323.5t-262.5 -96.5q-159 0 -244 87.5t-85 287.5z" />
    <glyph glyph-name="u" unicode="u" horiz-adv-x="1193" 
d="M82 1024h147v-578q0 -63 8.5 -111t31 -91.5t60 -71.5t98 -44.5t142.5 -16.5q185 0 280 101.5t95 297.5v514h148v-1024h-148v152q-111 -183 -401 -183q-237 0 -349 116.5t-112 356.5v582z" />
    <glyph glyph-name="v" unicode="v" horiz-adv-x="974" 
d="M406 0l-447 1024h162l366 -840l367 840h162l-449 -1024h-161z" />
    <glyph glyph-name="w" unicode="w" horiz-adv-x="1622" 
d="M344 0l-385 1024h162l305 -809l305 809h162l303 -809l305 809h162l-385 -1024h-162l-305 809l-305 -809h-162z" />
    <glyph glyph-name="x" unicode="x" horiz-adv-x="1155" 
d="M674 512l481 -512h-192l-385 410l-385 -410h-193l481 512l-481 512h193l385 -410l385 410h192z" />
    <glyph glyph-name="y" unicode="y" horiz-adv-x="1058" 
d="M707 25q-77 -217 -99 -266q-62 -139 -144 -189q-67 -41 -167 -41q-72 0 -126 29.5t-86.5 84t-48.5 124.5t-16 157h136q0 -77 11.5 -130.5t33 -80.5t45.5 -38t55 -11q42 0 75.5 18.5t59.5 57t43.5 77t38.5 99.5l33 94l-549 1014h168l446 -825l289 825h154z" />
    <glyph glyph-name="z" unicode="z" horiz-adv-x="1009" 
d="M61 885v139h887v-139l-686 -746h686v-139h-887v139l689 746h-689z" />
    <glyph glyph-name="braceleft" unicode="{" horiz-adv-x="827" 
d="M430 1028q0 -192 -42 -308t-128 -171q86 -55 128 -173t42 -319q0 -119 24.5 -198.5t75.5 -124t117 -62.5t160 -18v-113q-126 0 -216 28t-154 91.5t-95 169.5t-31 258q0 124 -18.5 205t-58.5 124t-90 59t-124 16v112q73 0 124 17.5t90 61t58 122.5t19 196q0 198 57 317
t163.5 168.5t275.5 49.5v-113q-188 0 -282.5 -90t-94.5 -305z" />
    <glyph glyph-name="bar" unicode="|" horiz-adv-x="241" 
d="M61 -410v1946h119v-1946h-119z" />
    <glyph glyph-name="braceright" unicode="}" horiz-adv-x="827" 
d="M397 1028q0 215 -94.5 305t-282.5 90v113q169 0 275.5 -49.5t163.5 -168.5t57 -317q0 -117 19 -196t58 -122.5t90 -61t124 -17.5v-112q-74 0 -124 -16t-90 -59t-58.5 -124t-18.5 -205q0 -152 -31 -258t-95 -169.5t-154 -91.5t-216 -28v113q94 0 160 18t117 62.5t75.5 124
t24.5 198.5q0 201 42 319t128 173q-86 55 -128 171t-42 308z" />
    <glyph glyph-name="exclamdown" unicode="&#xa1;" horiz-adv-x="362" 
d="M61 987q0 119 119 119q62 0 91.5 -29t29.5 -90q0 -121 -121 -121q-119 0 -119 121zM254 -358h-145l10 942h125z" />
    <glyph glyph-name="cent" unicode="&#xa2;" horiz-adv-x="1146" 
d="M528 -461v434q-228 20 -347.5 157t-119.5 382q0 255 113 388.5t354 152.5v432h119v-432q217 -10 336 -132.5t119 -306.5h-139q0 126 -79.5 206.5t-236.5 90.5v-798q160 9 239 89.5t79 207.5h141q0 -187 -116 -309t-343 -132v-430h-119zM528 117v792q-309 -38 -309 -393
q0 -359 309 -399z" />
    <glyph glyph-name="sterling" unicode="&#xa3;" horiz-adv-x="1347" 
d="M246 0v635h-226v119h226v82q0 309 132.5 468.5t399.5 159.5q255 0 385.5 -125.5t130.5 -402.5h-147q0 95 -22.5 165.5t-58 111.5t-88 65.5t-102.5 32.5t-112 8q-196 0 -282.5 -120t-86.5 -372v-73h244v-119h-244v-492h912v-143h-1061z" />
    <glyph glyph-name="currency" unicode="&#xa4;" horiz-adv-x="1007" 
d="M135 698q0 110 76 209l-150 148l86 86l148 -150q99 76 209 76t209 -76l147 150l86 -86l-149 -148q75 -97 75 -209t-75 -209l149 -147l-86 -86l-147 150q-99 -76 -209 -76t-209 76l-148 -150l-86 86l150 147q-76 99 -76 209zM512 938q-93 0 -170.5 -77.5t-77.5 -170.5
q0 -89 71.5 -160t160.5 -71q93 0 170 77.5t77 170.5q0 89 -71 160t-160 71z" />
    <glyph glyph-name="yen" unicode="&#xa5;" horiz-adv-x="1275" 
d="M563 0v285h-246v118h246v117h-246v119h246v76l-563 719h186l453 -578l453 578h184l-563 -719v-76h243v-119h-243v-117h243v-118h-243v-285h-150z" />
    <glyph glyph-name="copyright" unicode="&#xa9;" horiz-adv-x="1617" 
d="M61 717q0 222 93 392t263 262.5t392 92.5q167 0 306 -54t236 -151t151 -236t54 -306q0 -222 -92.5 -392t-262.5 -263t-392 -93t-392 93t-263 263t-93 392zM190 717q0 -283 170.5 -456t448.5 -173t448 173t170 456t-170 456t-448 173t-448.5 -173t-170.5 -456zM831 342
q-192 0 -285 93t-93 282t87 281t267 92q170 0 258 -63.5t88 -201.5h-111q0 156 -239 156q-125 0 -177.5 -62t-52.5 -202q0 -138 64 -202t199 -64q44 0 77 5t66 19.5t50.5 45t17.5 75.5h110q0 -136 -85 -195t-241 -59z" />
    <glyph glyph-name="ordfeminine" unicode="&#xaa;" horiz-adv-x="643" 
d="M471 1268q0 35 -13 57.5t-37 32.5t-44 13t-47 3q-28 0 -48.5 -3t-43.5 -12t-35.5 -30t-12.5 -53h-100q0 192 240 192q131 0 191.5 -49t60.5 -166v-313h-111v70q-34 -84 -182 -84q-109 0 -168.5 35t-59.5 124q0 74 57.5 111.5t172.5 50.5l180 19v2zM471 1106v80l-166 -19
q-129 -11 -129 -80q0 -67 127 -67q78 0 119.5 26t48.5 60z" />
    <glyph glyph-name="registered" unicode="&#xae;" horiz-adv-x="1617" 
d="M61 717q0 222 93 392t263 262.5t392 92.5q167 0 306 -54t236 -151t151 -236t54 -306q0 -222 -92.5 -392t-262.5 -263t-392 -93t-392 93t-263 263t-93 392zM190 717q0 -283 170.5 -456t448.5 -173t448 173t170 456t-170 456t-448 173t-448.5 -173t-170.5 -456zM535 369
v716h321q155 0 225 -54t70 -165q0 -102 -57 -157t-179 -62l224 -278h-129l-222 276h-147v-276h-106zM641 743h217q100 0 141 29.5t41 93.5t-41 93.5t-141 29.5h-217v-246z" />
    <glyph glyph-name="plusminus" unicode="&#xb1;" horiz-adv-x="737" 
d="M61 582v118h248v248h119v-248h248v-118h-248v-248h-119v248h-248zM82 0v119h573v-119h-573z" />
    <glyph glyph-name="ordmasculine" unicode="&#xba;" horiz-adv-x="696" 
d="M61 1196q0 272 287 272t287 -272q0 -270 -287 -270t-287 270zM176 1196q0 -166 172 -166q170 0 170 166q0 170 -170 170q-172 0 -172 -170z" />
    <glyph glyph-name="questiondown" unicode="&#xbf;" horiz-adv-x="1099" 
d="M791 987q0 -61 -28.5 -91t-90.5 -30q-121 0 -121 121q0 61 29.5 90t91.5 29t90.5 -29t28.5 -90zM748 584q0 -87 -29 -153.5t-75.5 -106.5t-102 -71t-111.5 -56.5t-102.5 -53t-75.5 -70.5t-29 -100q0 -105 70.5 -161t234.5 -56q64 0 111 6t97.5 27t82 57t52 100t20.5 152
h147q0 -261 -129 -374t-383 -113q-233 0 -348 90.5t-115 263.5q0 81 30.5 142t79 98.5t107 67t117.5 56.5t107.5 58t79 81t30.5 116h134z" />
    <glyph glyph-name="Agrave" unicode="&#xc0;" horiz-adv-x="1312" 
d="M838 1638l-74 -51l-287 375l98 72zM-41 0l614 1434h166l615 -1434h-164l-125 289h-817l-123 -289h-166zM309 432h695l-347 809z" />
    <glyph glyph-name="Aacute" unicode="&#xc1;" horiz-adv-x="1312" 
d="M477 1638l262 396l99 -72l-287 -375zM-41 0l614 1434h166l615 -1434h-164l-125 289h-817l-123 -289h-166zM309 432h695l-347 809z" />
    <glyph glyph-name="Acircumflex" unicode="&#xc2;" horiz-adv-x="1312" 
d="M713 1999l297 -412h-133l-220 328l-217 -328h-133l297 412h109zM-41 0l614 1434h166l615 -1434h-164l-125 289h-817l-123 -289h-166zM309 432h695l-347 809z" />
    <glyph glyph-name="Atilde" unicode="&#xc3;" horiz-adv-x="1312" 
d="M268 1587q0 63 11.5 116t36.5 98t70.5 70t107.5 25q48 0 92 -21.5t77 -52.5t63.5 -62t62 -52.5t61.5 -21.5q25 0 41.5 13t24.5 40.5t11 58.5t3 78h119q0 -309 -185 -309q-46 0 -84.5 15.5t-64 39t-52 51t-48.5 51t-53 39t-66 15.5q-44 0 -76.5 -42t-32.5 -149h-119z
M-41 0l614 1434h166l615 -1434h-164l-125 289h-817l-123 -289h-166zM309 432h695l-347 809z" />
    <glyph glyph-name="Adieresis" unicode="&#xc4;" horiz-adv-x="1312" 
d="M383 1731q0 38 27.5 65t64.5 27q38 0 65 -27t27 -65t-27 -65.5t-65 -27.5q-37 0 -64.5 27.5t-27.5 65.5zM754 1731q0 38 27.5 65t64.5 27q38 0 65 -27t27 -65t-27 -65.5t-65 -27.5q-37 0 -64.5 27.5t-27.5 65.5zM-41 0l614 1434h166l615 -1434h-164l-125 289h-817
l-123 -289h-166zM309 432h695l-347 809z" />
    <glyph glyph-name="Aring" unicode="&#xc5;" horiz-adv-x="1312" 
d="M387 1802q0 97 74.5 156t195.5 59q123 0 198 -59t75 -156t-75 -156t-198 -59q-121 0 -195.5 59t-74.5 156zM518 1802q0 -46 38 -74t101 -28q64 0 103 28t39 74t-39 74.5t-103 28.5q-63 0 -101 -28.5t-38 -74.5zM-41 0l614 1434h166l615 -1434h-164l-125 289h-817
l-123 -289h-166zM309 432h695l-347 809z" />
    <glyph glyph-name="AE" unicode="&#xc6;" horiz-adv-x="1859" 
d="M-41 0l614 1434h1221v-144h-936v-502h854v-143h-854v-502h957v-143h-1106v289h-461l-123 -289h-166zM309 432h400v858h-31z" />
    <glyph glyph-name="Ccedilla" unicode="&#xc7;" horiz-adv-x="1490" 
d="M1450 479q0 -140 -45 -240t-131.5 -158.5t-200.5 -85t-264 -26.5l-41 -90q39 0 71 -7.5t61.5 -26t46 -53.5t16.5 -85q0 -100 -52.5 -148t-146.5 -48q-18 0 -35.5 1.5t-51 10.5t-57 24.5t-42.5 48.5t-19 78h109q0 -26 27 -40.5t61 -14.5q88 0 88 84q0 86 -148 86h-63
l65 184q-322 26 -479.5 211.5t-157.5 534.5q0 378 173 561.5t528 183.5q335 0 507.5 -125.5t172.5 -402.5h-148q0 68 -16.5 124t-44.5 95.5t-70 69t-87.5 47t-102.5 28.5t-109.5 15t-113.5 4q-286 0 -407.5 -140.5t-121.5 -457.5q0 -316 147 -461t457 -145q78 0 139.5 7
t127.5 30t110 61.5t72.5 106t28.5 159.5h147z" />
    <glyph glyph-name="Egrave" unicode="&#xc8;" horiz-adv-x="1253" 
d="M836 1638l-74 -51l-287 375l98 72zM102 0v1434h1086v-144h-936v-502h854v-143h-854v-502h956v-143h-1106z" />
    <glyph glyph-name="Eacute" unicode="&#xc9;" horiz-adv-x="1253" 
d="M475 1638l262 396l99 -72l-287 -375zM102 0v1434h1086v-144h-936v-502h854v-143h-854v-502h956v-143h-1106z" />
    <glyph glyph-name="Ecircumflex" unicode="&#xca;" horiz-adv-x="1253" 
d="M711 1999l297 -412h-134l-219 328l-217 -328h-133l297 412h109zM102 0v1434h1086v-144h-936v-502h854v-143h-854v-502h956v-143h-1106z" />
    <glyph glyph-name="Edieresis" unicode="&#xcb;" horiz-adv-x="1253" 
d="M381 1731q0 38 27.5 65t64.5 27q38 0 65 -27t27 -65t-27 -65.5t-65 -27.5q-37 0 -64.5 27.5t-27.5 65.5zM752 1731q0 38 27.5 65t64.5 27q38 0 65 -27t27 -65t-27 -65.5t-65 -27.5q-37 0 -64.5 27.5t-27.5 65.5zM102 0v1434h1086v-144h-936v-502h854v-143h-854v-502h956
v-143h-1106z" />
    <glyph glyph-name="Igrave" unicode="&#xcc;" horiz-adv-x="354" 
d="M358 1638l-73 -51l-287 375l98 72zM102 0v1434h150v-1434h-150z" />
    <glyph glyph-name="Iacute" unicode="&#xcd;" horiz-adv-x="354" 
d="M-2 1638l262 396l98 -72l-286 -375zM102 0v1434h150v-1434h-150z" />
    <glyph glyph-name="Icircumflex" unicode="&#xce;" horiz-adv-x="354" 
d="M233 1999l297 -412h-133l-219 328l-217 -328h-133l297 412h108zM102 0v1434h150v-1434h-150z" />
    <glyph glyph-name="Idieresis" unicode="&#xcf;" horiz-adv-x="354" 
d="M-96 1731q0 38 27 65t65 27t65 -27t27 -65t-27 -65.5t-65 -27.5t-65 27.5t-27 65.5zM274 1731q0 38 28 65t65 27q38 0 65 -27t27 -65t-27 -65.5t-65 -27.5q-37 0 -65 27.5t-28 65.5zM102 0v1434h150v-1434h-150z" />
    <glyph glyph-name="Eth" unicode="&#xd0;" horiz-adv-x="1568" 
d="M233 0v633h-213v119h213v682h566q334 0 521 -184t187 -533t-187 -533t-521 -184h-566zM385 143h440q240 0 381.5 148t141.5 428q0 277 -141.5 424t-381.5 147h-440v-538h229v-119h-229v-490z" />
    <glyph glyph-name="Ntilde" unicode="&#xd1;" horiz-adv-x="1394" 
d="M307 1460q0 50 6.5 93.5t23 84t41.5 69t64.5 45.5t89.5 17q48 0 92 -21.5t77.5 -52.5t63.5 -62t62 -52.5t62 -21.5q25 0 41.5 13t24.5 40.5t11 58.5t3 78h118q0 -309 -184 -309q-54 0 -98 21.5t-73.5 53t-57.5 62.5t-63 52.5t-76 21.5q-44 0 -76.5 -42t-32.5 -149h-119z
M102 0v1434h150l891 -1186v1186h149v-1434h-149l-891 1188v-1188h-150z" />
    <glyph glyph-name="Ograve" unicode="&#xd2;" horiz-adv-x="1562" 
d="M963 1669l-74 -51l-287 375l98 71zM61 717q0 747 721 747q719 0 719 -747q0 -748 -719 -748q-721 0 -721 748zM221 717q0 -602 561 -602q559 0 559 602t-559 602q-561 0 -561 -602z" />
    <glyph glyph-name="Oacute" unicode="&#xd3;" horiz-adv-x="1562" 
d="M602 1669l262 395l99 -71l-287 -375zM61 717q0 747 721 747q719 0 719 -747q0 -748 -719 -748q-721 0 -721 748zM221 717q0 -602 561 -602q559 0 559 602t-559 602q-561 0 -561 -602z" />
    <glyph glyph-name="Ocircumflex" unicode="&#xd4;" horiz-adv-x="1562" 
d="M838 2030l297 -412h-134l-219 328l-217 -328h-133l297 412h109zM61 717q0 747 721 747q719 0 719 -747q0 -748 -719 -748q-721 0 -721 748zM221 717q0 -602 561 -602q559 0 559 602t-559 602q-561 0 -561 -602z" />
    <glyph glyph-name="Otilde" unicode="&#xd5;" horiz-adv-x="1562" 
d="M393 1618q0 50 6.5 93.5t23 84t41.5 69t64.5 45.5t89.5 17q48 0 92 -21.5t77.5 -52.5t63.5 -62.5t62 -53t62 -21.5q48 0 64 47t16 144h119q0 -310 -185 -310q-46 0 -84.5 15.5t-64 39t-52 51t-48.5 51t-53 39t-66 15.5q-44 0 -76.5 -41.5t-32.5 -148.5h-119zM61 717
q0 747 721 747q719 0 719 -747q0 -748 -719 -748q-721 0 -721 748zM221 717q0 -602 561 -602q559 0 559 602t-559 602q-561 0 -561 -602z" />
    <glyph glyph-name="Odieresis" unicode="&#xd6;" horiz-adv-x="1562" 
d="M508 1761q0 38 27.5 65t64.5 27q38 0 65 -27t27 -65t-27 -65t-65 -27q-37 0 -64.5 27t-27.5 65zM879 1761q0 38 27.5 65t64.5 27q38 0 65 -27t27 -65t-27 -65t-65 -27q-37 0 -64.5 27t-27.5 65zM61 717q0 747 721 747q719 0 719 -747q0 -748 -719 -748q-721 0 -721 748z
M221 717q0 -602 561 -602q559 0 559 602t-559 602q-561 0 -561 -602z" />
    <glyph glyph-name="multiply" unicode="&#xd7;" horiz-adv-x="643" 
d="M61 758l86 86l175 -174l174 174l86 -86l-174 -174l174 -174l-86 -86l-174 174l-175 -174l-86 86l175 174z" />
    <glyph glyph-name="Oslash" unicode="&#xd8;" horiz-adv-x="1562" 
d="M61 717q0 747 721 747q276 0 445 -108l96 119l94 -74l-98 -121q182 -185 182 -563q0 -748 -719 -748q-273 0 -444 109l-98 -119l-93 74l99 121q-185 188 -185 563zM221 717q0 -285 127 -436l778 952q-133 86 -344 86q-561 0 -561 -602zM1214 1153l-776 -952
q130 -86 344 -86q559 0 559 602q0 288 -127 436z" />
    <glyph glyph-name="Ugrave" unicode="&#xd9;" horiz-adv-x="1396" 
d="M879 1638l-74 -51l-287 375l98 72zM698 115q229 0 348 104.5t119 333.5v881h150v-861q0 -136 -31 -241t-85.5 -173t-133.5 -111t-168.5 -61t-198.5 -18q-108 0 -197.5 18t-168.5 61t-133 111t-85.5 173t-31.5 241v861h149v-881q0 -229 119 -333.5t348 -104.5z" />
    <glyph glyph-name="Uacute" unicode="&#xda;" horiz-adv-x="1396" 
d="M518 1638l262 396l99 -72l-287 -375zM698 115q229 0 348 104.5t119 333.5v881h150v-861q0 -136 -31 -241t-85.5 -173t-133.5 -111t-168.5 -61t-198.5 -18q-108 0 -197.5 18t-168.5 61t-133 111t-85.5 173t-31.5 241v861h149v-881q0 -229 119 -333.5t348 -104.5z" />
    <glyph glyph-name="Ucircumflex" unicode="&#xdb;" horiz-adv-x="1396" 
d="M754 1999l297 -412h-133l-220 328l-217 -328h-133l297 412h109zM698 115q229 0 348 104.5t119 333.5v881h150v-861q0 -136 -31 -241t-85.5 -173t-133.5 -111t-168.5 -61t-198.5 -18q-108 0 -197.5 18t-168.5 61t-133 111t-85.5 173t-31.5 241v861h149v-881
q0 -229 119 -333.5t348 -104.5z" />
    <glyph glyph-name="Udieresis" unicode="&#xdc;" horiz-adv-x="1396" 
d="M424 1731q0 38 27.5 65t64.5 27q38 0 65 -27t27 -65t-27 -65.5t-65 -27.5q-37 0 -64.5 27.5t-27.5 65.5zM795 1731q0 38 27.5 65t64.5 27q38 0 65 -27t27 -65t-27 -65.5t-65 -27.5q-37 0 -64.5 27.5t-27.5 65.5zM698 115q229 0 348 104.5t119 333.5v881h150v-861
q0 -136 -31 -241t-85.5 -173t-133.5 -111t-168.5 -61t-198.5 -18q-108 0 -197.5 18t-168.5 61t-133 111t-85.5 173t-31.5 241v861h149v-881q0 -229 119 -333.5t348 -104.5z" />
    <glyph glyph-name="Yacute" unicode="&#xdd;" horiz-adv-x="1275" 
d="M459 1638l262 396l98 -72l-287 -375zM563 0v715l-563 719h186l453 -578l453 578h184l-563 -719v-715h-150z" />
    <glyph glyph-name="Thorn" unicode="&#xde;" horiz-adv-x="1376" 
d="M102 0v1434h150v-248h487q296 0 436 -116.5t140 -352.5q0 -237 -138 -353t-438 -116h-487v-248h-150zM252 391h496q219 0 312 79.5t93 246.5t-93 246t-312 79h-496v-651z" />
    <glyph glyph-name="germandbls" unicode="&#xdf;" horiz-adv-x="1265" 
d="M1036 1151q0 -81 -41.5 -142.5t-100 -95.5t-117.5 -58t-100.5 -43.5t-41.5 -37.5t18.5 -33.5t58 -28.5t69 -21t81.5 -19q185 -42 263.5 -124t78.5 -249q0 -162 -99 -246t-292 -84q-228 0 -334 90t-106 289h141q0 -66 22.5 -114.5t63 -76t90 -40.5t109.5 -13
q129 0 195.5 56.5t66.5 136.5q0 57 -12 94t-49 62.5t-63.5 36.5t-96.5 33q-14 5 -21 7q-16 4 -54.5 14.5t-57.5 16t-53.5 18t-52.5 22.5t-42.5 27t-36.5 35.5t-21 43.5t-9 55q0 43 22 75t57 52t77 37t84.5 36t77.5 43.5t57 65t22 94.5q0 97 -76 163.5t-221 66.5
q-90 0 -156 -21t-105.5 -55.5t-62.5 -89t-31 -111t-8 -131.5v-987h-147v979q0 275 115 416t368 141q250 0 360.5 -91.5t110.5 -293.5z" />
    <glyph glyph-name="agrave" unicode="&#xe0;" horiz-adv-x="1120" 
d="M721 1260l-74 -52l-287 375l99 72zM893 659q0 59 -14.5 104t-42.5 72.5t-58.5 45.5t-72.5 26t-73.5 10.5t-72.5 2.5q-37 0 -64.5 -1.5t-63 -7.5t-61 -16t-52 -29t-43 -44.5t-27 -64t-10.5 -87.5h-142q0 197 119.5 291t339.5 94q245 0 364 -99.5t119 -308.5v-647h-145v145
q-74 -176 -389 -176q-110 0 -191 15t-144 50t-95.5 96.5t-32.5 150.5q0 146 117.5 224.5t371.5 108.5l363 39v6zM893 537l-365 -41q-329 -39 -329 -213q0 -41 13.5 -71.5t47 -56t97 -38.5t157.5 -13q101 0 176.5 22.5t116.5 59.5t61 74t25 76v201z" />
    <glyph glyph-name="aacute" unicode="&#xe1;" horiz-adv-x="1120" 
d="M360 1260l263 395l98 -72l-287 -375zM893 659q0 59 -14.5 104t-42.5 72.5t-58.5 45.5t-72.5 26t-73.5 10.5t-72.5 2.5q-37 0 -64.5 -1.5t-63 -7.5t-61 -16t-52 -29t-43 -44.5t-27 -64t-10.5 -87.5h-142q0 197 119.5 291t339.5 94q245 0 364 -99.5t119 -308.5v-647h-145
v145q-74 -176 -389 -176q-110 0 -191 15t-144 50t-95.5 96.5t-32.5 150.5q0 146 117.5 224.5t371.5 108.5l363 39v6zM893 537l-365 -41q-329 -39 -329 -213q0 -41 13.5 -71.5t47 -56t97 -38.5t157.5 -13q101 0 176.5 22.5t116.5 59.5t61 74t25 76v201z" />
    <glyph glyph-name="acircumflex" unicode="&#xe2;" horiz-adv-x="1120" 
d="M596 1620l297 -412h-133l-219 328l-217 -328h-134l297 412h109zM893 659q0 59 -14.5 104t-42.5 72.5t-58.5 45.5t-72.5 26t-73.5 10.5t-72.5 2.5q-37 0 -64.5 -1.5t-63 -7.5t-61 -16t-52 -29t-43 -44.5t-27 -64t-10.5 -87.5h-142q0 197 119.5 291t339.5 94
q245 0 364 -99.5t119 -308.5v-647h-145v145q-74 -176 -389 -176q-110 0 -191 15t-144 50t-95.5 96.5t-32.5 150.5q0 146 117.5 224.5t371.5 108.5l363 39v6zM893 537l-365 -41q-329 -39 -329 -213q0 -41 13.5 -71.5t47 -56t97 -38.5t157.5 -13q101 0 176.5 22.5t116.5 59.5
t61 74t25 76v201z" />
    <glyph glyph-name="atilde" unicode="&#xe3;" horiz-adv-x="1120" 
d="M152 1208q0 64 11.5 117t36 97.5t70 70t107.5 25.5q48 0 92 -21.5t77 -53t63.5 -62.5t62 -52.5t61.5 -21.5q25 0 41.5 13t24.5 40.5t11 58.5t3 78h119q0 -309 -184 -309q-46 0 -85 15.5t-64.5 39t-52 51t-48.5 51t-53 39t-66 15.5q-44 0 -76.5 -42t-32.5 -149h-118z
M893 659q0 59 -14.5 104t-42.5 72.5t-58.5 45.5t-72.5 26t-73.5 10.5t-72.5 2.5q-37 0 -64.5 -1.5t-63 -7.5t-61 -16t-52 -29t-43 -44.5t-27 -64t-10.5 -87.5h-142q0 197 119.5 291t339.5 94q245 0 364 -99.5t119 -308.5v-647h-145v145q-74 -176 -389 -176q-110 0 -191 15
t-144 50t-95.5 96.5t-32.5 150.5q0 146 117.5 224.5t371.5 108.5l363 39v6zM893 537l-365 -41q-329 -39 -329 -213q0 -41 13.5 -71.5t47 -56t97 -38.5t157.5 -13q101 0 176.5 22.5t116.5 59.5t61 74t25 76v201z" />
    <glyph glyph-name="adieresis" unicode="&#xe4;" horiz-adv-x="1120" 
d="M266 1352q0 38 27.5 65t64.5 27q38 0 65.5 -27t27.5 -65t-27.5 -65t-65.5 -27q-37 0 -64.5 27t-27.5 65zM637 1352q0 38 27.5 65t64.5 27q38 0 65 -27t27 -65t-27 -65t-65 -27q-37 0 -64.5 27t-27.5 65zM893 659q0 59 -14.5 104t-42.5 72.5t-58.5 45.5t-72.5 26
t-73.5 10.5t-72.5 2.5q-37 0 -64.5 -1.5t-63 -7.5t-61 -16t-52 -29t-43 -44.5t-27 -64t-10.5 -87.5h-142q0 197 119.5 291t339.5 94q245 0 364 -99.5t119 -308.5v-647h-145v145q-74 -176 -389 -176q-110 0 -191 15t-144 50t-95.5 96.5t-32.5 150.5q0 146 117.5 224.5
t371.5 108.5l363 39v6zM893 537l-365 -41q-329 -39 -329 -213q0 -41 13.5 -71.5t47 -56t97 -38.5t157.5 -13q101 0 176.5 22.5t116.5 59.5t61 74t25 76v201z" />
    <glyph glyph-name="aring" unicode="&#xe5;" horiz-adv-x="1120" 
d="M270 1423q0 97 74.5 156t196.5 59q123 0 197.5 -59t74.5 -156t-74.5 -156t-197.5 -59q-122 0 -196.5 59t-74.5 156zM401 1423q0 -46 38.5 -74t101.5 -28q64 0 102.5 28t38.5 74t-38.5 74.5t-102.5 28.5q-63 0 -101.5 -28.5t-38.5 -74.5zM893 659q0 59 -14.5 104
t-42.5 72.5t-58.5 45.5t-72.5 26t-73.5 10.5t-72.5 2.5q-37 0 -64.5 -1.5t-63 -7.5t-61 -16t-52 -29t-43 -44.5t-27 -64t-10.5 -87.5h-142q0 197 119.5 291t339.5 94q245 0 364 -99.5t119 -308.5v-647h-145v145q-74 -176 -389 -176q-110 0 -191 15t-144 50t-95.5 96.5
t-32.5 150.5q0 146 117.5 224.5t371.5 108.5l363 39v6zM893 537l-365 -41q-329 -39 -329 -213q0 -41 13.5 -71.5t47 -56t97 -38.5t157.5 -13q101 0 176.5 22.5t116.5 59.5t61 74t25 76v201z" />
    <glyph glyph-name="ae" unicode="&#xe6;" horiz-adv-x="2021" 
d="M893 659q0 59 -14.5 104t-42.5 72.5t-58.5 45.5t-72.5 26t-73.5 10.5t-72.5 2.5q-37 0 -64.5 -1.5t-63 -7.5t-61 -16t-52 -29t-43 -44.5t-27 -64t-10.5 -87.5h-142q0 197 119.5 291t339.5 94q333 0 436 -187q134 187 434 187q279 0 407 -138.5t128 -412.5v-41h-909
q12 -193 115 -276t296 -83q148 0 247 72.5t99 173.5l140 -2q0 -173 -127 -276t-359 -103q-351 0 -485 209q-109 -209 -473 -209q-110 0 -191 15t-144 50t-95.5 96.5t-32.5 150.5q0 146 117.5 224.5t371.5 108.5l363 39v6zM1055 590h751q-25 330 -374 330q-153 0 -255 -85
t-122 -245zM893 537l-365 -41q-329 -39 -329 -213q0 -41 13.5 -71.5t47 -56t97 -38.5t157.5 -13q101 0 176.5 22.5t116.5 59.5t61 74t25 76v201z" />
    <glyph glyph-name="ccedilla" unicode="&#xe7;" horiz-adv-x="1146" 
d="M604 1055q237 0 367.5 -124t130.5 -317h-139q0 135 -90.5 217t-270.5 82q-383 0 -383 -397q0 -111 29.5 -191.5t84 -126t122 -66.5t151.5 -21q182 0 270.5 81.5t88.5 217.5h141q0 -92 -28.5 -169t-84.5 -137.5t-147.5 -95.5t-210.5 -39l-41 -90q194 0 194 -172
q0 -100 -52.5 -148t-145.5 -48q-18 0 -35.5 1.5t-51 10.5t-57 24.5t-42.5 48.5t-19 78h109q0 -26 27 -40.5t61 -14.5q88 0 88 84q0 86 -148 86h-63l65 184q-226 22 -344.5 158.5t-118.5 380.5q0 273 132.5 408t410.5 135z" />
    <glyph glyph-name="egrave" unicode="&#xe8;" horiz-adv-x="1191" 
d="M776 1260l-74 -52l-286 375l98 72zM1130 504v-41h-911q12 -193 115.5 -276t298.5 -83q148 0 246 72t98 174l141 -2q0 -172 -127.5 -275.5t-359.5 -103.5q-285 0 -427.5 138t-142.5 407q0 261 137.5 401t395.5 140q280 0 408 -138.5t128 -412.5zM223 590h752
q-25 330 -375 330q-151 0 -253.5 -85t-123.5 -245z" />
    <glyph glyph-name="eacute" unicode="&#xe9;" horiz-adv-x="1191" 
d="M416 1260l262 395l98 -72l-287 -375zM1130 504v-41h-911q12 -193 115.5 -276t298.5 -83q148 0 246 72t98 174l141 -2q0 -172 -127.5 -275.5t-359.5 -103.5q-285 0 -427.5 138t-142.5 407q0 261 137.5 401t395.5 140q280 0 408 -138.5t128 -412.5zM223 590h752
q-25 330 -375 330q-151 0 -253.5 -85t-123.5 -245z" />
    <glyph glyph-name="ecircumflex" unicode="&#xea;" horiz-adv-x="1191" 
d="M651 1620l297 -412h-133l-219 328l-217 -328h-133l297 412h108zM1130 504v-41h-911q12 -193 115.5 -276t298.5 -83q148 0 246 72t98 174l141 -2q0 -172 -127.5 -275.5t-359.5 -103.5q-285 0 -427.5 138t-142.5 407q0 261 137.5 401t395.5 140q280 0 408 -138.5
t128 -412.5zM223 590h752q-25 330 -375 330q-151 0 -253.5 -85t-123.5 -245z" />
    <glyph glyph-name="edieresis" unicode="&#xeb;" horiz-adv-x="1191" 
d="M322 1352q0 38 27.5 65t64.5 27q38 0 65 -27t27 -65t-27 -65t-65 -27q-37 0 -64.5 27t-27.5 65zM692 1352q0 38 27.5 65t64.5 27q38 0 65.5 -27t27.5 -65t-27.5 -65t-65.5 -27q-37 0 -64.5 27t-27.5 65zM1130 504v-41h-911q12 -193 115.5 -276t298.5 -83q148 0 246 72
t98 174l141 -2q0 -172 -127.5 -275.5t-359.5 -103.5q-285 0 -427.5 138t-142.5 407q0 261 137.5 401t395.5 140q280 0 408 -138.5t128 -412.5zM223 590h752q-25 330 -375 330q-151 0 -253.5 -85t-123.5 -245z" />
    <glyph glyph-name="igrave" unicode="&#xec;" horiz-adv-x="352" 
d="M356 1229l-73 -51l-287 374l98 72zM102 0v1024h148v-1024h-148z" />
    <glyph glyph-name="iacute" unicode="&#xed;" horiz-adv-x="352" 
d="M-4 1229l262 395l98 -72l-286 -374zM102 0v1024h148v-1024h-148z" />
    <glyph glyph-name="icircumflex" unicode="&#xee;" horiz-adv-x="352" 
d="M231 1589l297 -411h-133l-219 327l-217 -327h-133l297 411h108zM102 0v1024h148v-1024h-148z" />
    <glyph glyph-name="idieresis" unicode="&#xef;" horiz-adv-x="352" 
d="M-98 1321q0 38 27 65t65 27t65 -27t27 -65t-27 -65t-65 -27t-65 27t-27 65zM272 1321q0 38 28 65t65 27q38 0 65 -27t27 -65t-27 -65t-65 -27q-37 0 -65 27t-28 65zM102 0v1024h148v-1024h-148z" />
    <glyph glyph-name="eth" unicode="&#xf0;" horiz-adv-x="1267" 
d="M500 1399l63 119q142 -64 246 -136l149 113l72 -94l-125 -96q301 -269 301 -709q0 -142 -33.5 -255t-102.5 -197t-182 -129.5t-265 -45.5q-283 0 -422.5 122t-139.5 345q0 91 32.5 164t85.5 119t125 77t146.5 43.5t153.5 12.5q244 0 434 -117q-38 288 -250 482l-202 -154
l-74 96l178 133q-80 55 -190 107zM1044 557q-146 150 -444 150q-175 0 -277 -72.5t-102 -200.5q0 -49 9.5 -91t36.5 -85.5t70 -74t115 -49.5t166 -19q211 0 314 110t112 332z" />
    <glyph glyph-name="ntilde" unicode="&#xf1;" horiz-adv-x="1226" 
d="M219 1208q0 64 11.5 117t36 97.5t70 70t107.5 25.5q48 0 92 -21.5t77.5 -53t63.5 -62.5t62 -52.5t62 -21.5q25 0 41.5 13t24.5 40.5t11 58.5t3 78h118q0 -309 -184 -309q-46 0 -85 15.5t-64.5 39t-52 51t-48.5 51t-53 39t-66 15.5q-44 0 -76 -42t-32 -149h-119zM1112 0
h-147v578q0 80 -15 137.5t-51.5 104t-104.5 70t-169 23.5q-186 0 -280.5 -101t-94.5 -298v-514h-148v1024h148v-152q108 183 399 183q239 0 351 -116.5t112 -356.5v-582z" />
    <glyph glyph-name="ograve" unicode="&#xf2;" horiz-adv-x="1249" 
d="M807 1260l-74 -52l-287 375l99 72zM61 512q0 543 564 543q563 0 563 -543t-563 -543q-564 0 -564 543zM219 512q0 -401 406 -401q405 0 405 401t-405 401q-207 0 -306.5 -100.5t-99.5 -300.5z" />
    <glyph glyph-name="oacute" unicode="&#xf3;" horiz-adv-x="1249" 
d="M446 1260l263 395l98 -72l-287 -375zM61 512q0 543 564 543q563 0 563 -543t-563 -543q-564 0 -564 543zM219 512q0 -401 406 -401q405 0 405 401t-405 401q-207 0 -306.5 -100.5t-99.5 -300.5z" />
    <glyph glyph-name="ocircumflex" unicode="&#xf4;" horiz-adv-x="1249" 
d="M682 1620l297 -412h-133l-219 328l-217 -328h-134l297 412h109zM61 512q0 543 564 543q563 0 563 -543t-563 -543q-564 0 -564 543zM219 512q0 -401 406 -401q405 0 405 401t-405 401q-207 0 -306.5 -100.5t-99.5 -300.5z" />
    <glyph glyph-name="otilde" unicode="&#xf5;" horiz-adv-x="1249" 
d="M238 1208q0 64 11.5 117t36 97.5t70 70t107.5 25.5q48 0 92 -21.5t77 -53t63.5 -62.5t62 -52.5t61.5 -21.5q25 0 41.5 13t24.5 40.5t11 58.5t3 78h119q0 -309 -184 -309q-46 0 -85 15.5t-64.5 39t-52 51t-48.5 51t-53 39t-66 15.5q-44 0 -76.5 -42t-32.5 -149h-118z
M61 512q0 543 564 543q563 0 563 -543t-563 -543q-564 0 -564 543zM219 512q0 -401 406 -401q405 0 405 401t-405 401q-207 0 -306.5 -100.5t-99.5 -300.5z" />
    <glyph glyph-name="odieresis" unicode="&#xf6;" horiz-adv-x="1249" 
d="M352 1352q0 38 27.5 65t64.5 27q38 0 65.5 -27t27.5 -65t-27.5 -65t-65.5 -27q-37 0 -64.5 27t-27.5 65zM723 1352q0 38 27.5 65t64.5 27q38 0 65 -27t27 -65t-27 -65t-65 -27q-37 0 -64.5 27t-27.5 65zM61 512q0 543 564 543q563 0 563 -543t-563 -543q-564 0 -564 543z
M219 512q0 -401 406 -401q405 0 405 401t-405 401q-207 0 -306.5 -100.5t-99.5 -300.5z" />
    <glyph glyph-name="divide" unicode="&#xf7;" horiz-adv-x="696" 
d="M231 852q0 115 117 115t117 -115q0 -59 -28 -88t-89 -29t-89 29t-28 88zM61 432v119h574v-119h-574zM231 131q0 59 28 88t89 29t89 -29t28 -88q0 -117 -117 -117t-117 117z" />
    <glyph glyph-name="oslash" unicode="&#xf8;" horiz-adv-x="1249" 
d="M61 512q0 543 564 543q96 0 186 -19l92 193h133l-110 -230q262 -119 262 -487q0 -543 -563 -543q-100 0 -187 19l-92 -193h-133l111 230q-263 117 -263 487zM219 512q0 -262 170 -352l356 743q-62 10 -120 10q-207 0 -306.5 -100.5t-99.5 -300.5zM860 862l-356 -741
q62 -10 121 -10q405 0 405 401q0 260 -170 350z" />
    <glyph glyph-name="ugrave" unicode="&#xf9;" horiz-adv-x="1193" 
d="M768 1229l-74 -51l-286 374l98 72zM82 1024h147v-578q0 -63 8.5 -111t31 -91.5t60 -71.5t98 -44.5t142.5 -16.5q185 0 280 101.5t95 297.5v514h148v-1024h-148v152q-111 -183 -401 -183q-237 0 -349 116.5t-112 356.5v582z" />
    <glyph glyph-name="uacute" unicode="&#xfa;" horiz-adv-x="1193" 
d="M408 1229l262 395l98 -72l-287 -374zM82 1024h147v-578q0 -63 8.5 -111t31 -91.5t60 -71.5t98 -44.5t142.5 -16.5q185 0 280 101.5t95 297.5v514h148v-1024h-148v152q-111 -183 -401 -183q-237 0 -349 116.5t-112 356.5v582z" />
    <glyph glyph-name="ucircumflex" unicode="&#xfb;" horiz-adv-x="1193" 
d="M643 1589l297 -411h-133l-219 327l-217 -327h-133l297 411h108zM82 1024h147v-578q0 -63 8.5 -111t31 -91.5t60 -71.5t98 -44.5t142.5 -16.5q185 0 280 101.5t95 297.5v514h148v-1024h-148v152q-111 -183 -401 -183q-237 0 -349 116.5t-112 356.5v582z" />
    <glyph glyph-name="udieresis" unicode="&#xfc;" horiz-adv-x="1193" 
d="M313 1321q0 38 28 65t65 27q38 0 65 -27t27 -65t-27 -65t-65 -27q-37 0 -65 27t-28 65zM684 1321q0 38 27.5 65t64.5 27q38 0 65 -27t27 -65t-27 -65t-65 -27q-37 0 -64.5 27t-27.5 65zM82 1024h147v-578q0 -63 8.5 -111t31 -91.5t60 -71.5t98 -44.5t142.5 -16.5
q185 0 280 101.5t95 297.5v514h148v-1024h-148v152q-111 -183 -401 -183q-237 0 -349 116.5t-112 356.5v582z" />
    <glyph glyph-name="yacute" unicode="&#xfd;" horiz-adv-x="1060" 
d="M352 1229l262 395l99 -72l-287 -374zM709 25q-77 -217 -99 -266q-62 -139 -144 -189q-67 -41 -167 -41q-95 0 -158.5 53t-90.5 139t-27 203h135q0 -77 11.5 -130.5t33 -80.5t45.5 -38t55 -11q42 0 75.5 18.5t59.5 57t43.5 77t38.5 99.5l33 94l-549 1014h168l446 -825
l289 825h154z" />
    <glyph glyph-name="thorn" unicode="&#xfe;" horiz-adv-x="1001" 
d="M78 -410h-146v1946h146v-666q100 185 379 185q221 0 352 -141t131 -402q0 -129 -40.5 -234t-109 -171.5t-156.5 -102t-185 -35.5q-271 0 -371 191v-570zM784 514q0 200 -85 299.5t-265 99.5q-173 0 -264.5 -101.5t-91.5 -297.5t92 -299.5t264 -103.5q159 0 254.5 105.5
t95.5 297.5z" />
    <glyph glyph-name="ydieresis" unicode="&#xff;" horiz-adv-x="1060" 
d="M258 1321q0 38 27.5 65t64.5 27q38 0 65 -27t27 -65t-27 -65t-65 -27q-37 0 -64.5 27t-27.5 65zM629 1321q0 38 27.5 65t64.5 27q38 0 65 -27t27 -65t-27 -65t-65 -27q-37 0 -64.5 27t-27.5 65zM709 25q-77 -217 -99 -266q-62 -139 -144 -189q-67 -41 -167 -41
q-95 0 -158.5 53t-90.5 139t-27 203h135q0 -77 11.5 -130.5t33 -80.5t45.5 -38t55 -11q42 0 75.5 18.5t59.5 57t43.5 77t38.5 99.5l33 94l-549 1014h168l446 -825l289 825h154z" />
    <glyph glyph-name="Dcroat" unicode="&#x110;" horiz-adv-x="1568" 
d="M233 0v633h-213v119h213v682h566q334 0 521 -184t187 -533t-187 -533t-521 -184h-566zM385 143h440q240 0 381.5 148t141.5 428q0 277 -141.5 424t-381.5 147h-440v-538h229v-119h-229v-490z" />
    <glyph glyph-name="dcroat" unicode="&#x111;" horiz-adv-x="1314" 
d="M965 0v164q-103 -195 -392 -195q-111 0 -204 35.5t-162 102t-107.5 170.5t-38.5 235q0 266 130 404.5t374 138.5q296 0 400 -187v281h-230v119h230v268h147v-268h182v-119h-182v-1149h-147zM219 514q0 -197 94 -300t275 -103q187 0 282 103t95 300t-95 298t-282 101
q-202 0 -285.5 -97.5t-83.5 -301.5z" />
    <glyph glyph-name="dotlessi" unicode="&#x131;" horiz-adv-x="352" 
d="M102 0v1024h148v-1024h-148z" />
    <glyph glyph-name="Lslash" unicode="&#x141;" horiz-adv-x="1417" 
d="M295 0v500l-211 -127l-64 102l275 166v793h149v-701l199 119l64 -102l-263 -158v-449h932v-143h-1081z" />
    <glyph glyph-name="lslash" unicode="&#x142;" horiz-adv-x="722" 
d="M434 0h-145v653l-211 -114l-58 104l269 148v745h145v-664l209 115l59 -104l-268 -148v-735z" />
    <glyph glyph-name="OE" unicode="&#x152;" horiz-adv-x="2088" 
d="M1090 143h954v-143h-1262q-365 0 -543 176.5t-178 540.5q0 365 178 541t543 176h1241v-144h-933v-502h852v-143h-852v-502zM938 143v1147h-156q-286 0 -423.5 -139.5t-137.5 -433.5t138 -434t423 -140h156z" />
    <glyph glyph-name="oe" unicode="&#x153;" horiz-adv-x="2160" 
d="M61 512q0 543 564 543q354 0 485 -215q132 213 453 213q280 0 408 -138.5t128 -412.5v-41h-909q12 -193 115 -276t297 -83q148 0 247 72.5t99 173.5l139 -2q0 -173 -127.5 -276t-360.5 -103q-355 0 -489 217q-134 -215 -485 -215q-564 0 -564 543zM1192 588h754
q-27 330 -377 330q-151 0 -253.5 -85t-123.5 -245zM219 512q0 -401 406 -401q405 0 405 401t-405 401q-207 0 -306.5 -100.5t-99.5 -300.5z" />
    <glyph glyph-name="Scaron" unicode="&#x160;" horiz-adv-x="1335" 
d="M614 1618l-297 412h134l219 -328l217 328h133l-297 -412h-109zM641 649q-103 23 -157.5 37.5t-131.5 40t-116.5 53t-81 69t-58 97t-16.5 127.5q0 206 143.5 298.5t454.5 92.5q140 0 244 -26t180.5 -82.5t115.5 -151t39 -227.5h-145q0 86 -24.5 148.5t-62.5 97.5
t-98.5 55.5t-118.5 26.5t-138 6q-162 0 -258 -28t-133 -77.5t-37 -128.5q0 -48 20.5 -86t55.5 -65.5t92 -50t121 -38t151 -30.5q125 -21 212.5 -44t163.5 -57t121 -79t70 -108.5t25 -147.5q0 -212 -147.5 -307t-469.5 -95q-142 0 -249.5 26t-186.5 82.5t-119.5 151.5
t-40.5 228h148q0 -88 25.5 -151.5t65.5 -100t103.5 -57.5t124 -27t142.5 -6q225 0 333.5 60t108.5 187q0 44 -13.5 80t-34.5 61t-54.5 45.5t-65.5 33t-76 23.5t-77.5 17t-78.5 13.5t-71 13.5z" />
    <glyph glyph-name="scaron" unicode="&#x161;" horiz-adv-x="1105" 
d="M500 1208l-297 412h133l219 -328l217 328h133l-297 -412h-108zM68 774q0 143 121 212t339 69q260 0 384 -90.5t124 -288.5h-141q0 134 -95.5 189t-283.5 55q-305 0 -305 -146q0 -61 79 -106t277 -86q114 -24 168 -37t127 -39.5t104 -55.5t54.5 -77t23.5 -113
q0 -156 -113.5 -223.5t-346.5 -67.5q-272 0 -397.5 90t-125.5 289h140q0 -244 393 -244q307 0 307 150q0 22 -4.5 39.5t-16 31.5t-23 24.5t-35 20t-41.5 16t-53 14.5t-59.5 13t-70 13.5t-76.5 15.5q-53 11 -95.5 21.5t-91.5 26.5t-86 34t-72.5 43.5t-58 54.5t-36.5 68
t-14 84z" />
    <glyph glyph-name="Ydieresis" unicode="&#x178;" horiz-adv-x="1275" 
d="M365 1731q0 38 27.5 65t64.5 27q38 0 65 -27t27 -65t-27 -65.5t-65 -27.5q-37 0 -64.5 27.5t-27.5 65.5zM735 1731q0 38 27.5 65t64.5 27q38 0 65.5 -27t27.5 -65t-27.5 -65.5t-65.5 -27.5q-37 0 -64.5 27.5t-27.5 65.5zM563 0v715l-563 719h186l453 -578l453 578h184
l-563 -719v-715h-150z" />
    <glyph glyph-name="Zcaron" unicode="&#x17d;" horiz-adv-x="1259" 
d="M578 1587l-297 412h133l219 -328l217 328h133l-297 -412h-108zM61 1290v144h1137v-144l-936 -1147h936v-143h-1137v143l934 1147h-934z" />
    <glyph glyph-name="zcaron" unicode="&#x17e;" horiz-adv-x="1009" 
d="M453 1178l-297 411h133l219 -327l217 327h133l-297 -411h-108zM61 885v139h887v-139l-686 -746h686v-139h-887v139l689 746h-689z" />
    <glyph glyph-name="gravecomb" unicode="&#x300;" horiz-adv-x="0" 
d="M180 1075l-74 -51l-286 375l98 71z" />
    <glyph glyph-name="acutecomb" unicode="&#x301;" horiz-adv-x="0" 
d="M-180 1075l262 395l98 -71l-286 -375z" />
    <glyph glyph-name="uni0302" unicode="&#x302;" horiz-adv-x="0" 
d="M55 1436l297 -412h-133l-219 328l-217 -328h-133l297 412h108z" />
    <glyph glyph-name="tildecomb" unicode="&#x303;" horiz-adv-x="0" 
d="M-389 1024q0 50 6.5 93.5t23 84t41.5 69t64.5 45.5t89.5 17q48 0 92 -21.5t77.5 -52.5t63.5 -62.5t62 -53t62 -21.5q48 0 63.5 47t15.5 144h119q0 -309 -184 -309q-46 0 -85 15.5t-65 39t-52.5 50.5t-48.5 50.5t-53 39t-65 15.5q-44 0 -76 -41.5t-32 -148.5h-119z" />
    <glyph glyph-name="uni0308" unicode="&#x308;" horiz-adv-x="0" 
d="M-274 1167q0 38 27 65.5t65 27.5t65 -27.5t27 -65.5t-27 -65t-65 -27t-65 27t-27 65zM96 1167q0 38 27.5 65.5t64.5 27.5q38 0 65.5 -27.5t27.5 -65.5t-27.5 -65t-65.5 -27q-37 0 -64.5 27t-27.5 65z" />
    <glyph glyph-name="uni030A" unicode="&#x30a;" horiz-adv-x="0" 
d="M-270 1239q0 97 74 156t196 59q123 0 197.5 -59t74.5 -156t-74.5 -156t-197.5 -59q-122 0 -196 59t-74 156zM-141 1239q0 -46 39 -74t102 -28q64 0 102.5 28t38.5 74t-38.5 74t-102.5 28q-63 0 -102 -28t-39 -74z" />
    <glyph glyph-name="uni030C" unicode="&#x30c;" horiz-adv-x="0" 
d="M-53 1024l-297 412h133l219 -328l217 328h133l-297 -412h-108z" />
    <glyph glyph-name="uni0327" unicode="&#x327;" horiz-adv-x="0" 
d="M-49 0h115l-56 -121q39 0 71 -7.5t61.5 -26t46 -53.5t16.5 -85q0 -100 -52.5 -148t-146.5 -48q-18 0 -35.5 1.5t-51 10.5t-57 24.5t-42.5 48.5t-19 78h109q0 -26 26.5 -40.5t59.5 -14.5q90 0 90 84q0 86 -147 86h-64z" />
    <glyph glyph-name="endash" unicode="&#x2013;" horiz-adv-x="854" 
d="M61 428v119h697v-119h-697z" />
    <glyph glyph-name="emdash" unicode="&#x2014;" horiz-adv-x="1556" 
d="M61 428v119h1434v-119h-1434z" />
    <glyph glyph-name="quoteleft" unicode="&#x2018;" horiz-adv-x="331" 
d="M248 1147q0 -94 -94 -94q-93 0 -93 94q0 107 47 192t138 125l20 -30q-104 -89 -114 -195q50 0 73 -21.5t23 -70.5z" />
    <glyph glyph-name="quoteright" unicode="&#x2019;" horiz-adv-x="331" 
d="M84 1372q0 92 92 92q94 0 94 -92q0 -106 -47 -192.5t-137 -126.5l-20 30q58 50 82.5 96t31.5 99q-51 2 -73.5 23t-22.5 71z" />
    <glyph glyph-name="quotesinglbase" unicode="&#x201a;" horiz-adv-x="331" 
d="M84 68q0 90 92 90t92 -90q0 -108 -47 -194t-137 -126l-21 31q60 51 85 96t32 100q-50 0 -73 21.5t-23 71.5z" />
    <glyph glyph-name="quotedblleft" unicode="&#x201c;" horiz-adv-x="630" 
d="M547 1147q0 -94 -92 -94q-93 0 -93 94q0 107 47 192t138 125l20 -30q-59 -50 -84 -96t-32 -99q50 0 73 -21.5t23 -70.5zM248 1147q0 -94 -94 -94q-93 0 -93 94q0 107 47 192t138 125l20 -30q-104 -89 -114 -195q50 0 73 -21.5t23 -70.5z" />
    <glyph glyph-name="quotedblright" unicode="&#x201d;" horiz-adv-x="630" 
d="M84 1372q0 92 92 92q94 0 94 -92q0 -106 -47 -192.5t-137 -126.5l-20 30q58 50 82.5 96t31.5 99q-51 2 -73.5 23t-22.5 71zM385 1372q0 92 92 92t92 -92q0 -107 -46.5 -193t-137.5 -126l-20 30q59 50 84 96t32 99q-51 2 -73.5 23t-22.5 71z" />
    <glyph glyph-name="quotedblbase" unicode="&#x201e;" horiz-adv-x="630" 
d="M84 68q0 94 92 94q94 0 94 -94q0 -106 -47 -192t-137 -126l-20 31q59 49 83 94t31 100q-50 0 -73 22t-23 71zM385 68q0 94 92 94t92 -94q0 -107 -46.5 -192.5t-137.5 -125.5l-20 31q59 49 84 94.5t32 99.5q-50 0 -73 22t-23 71z" />
    <glyph glyph-name="Euro" unicode="&#x20ac;" horiz-adv-x="1675" 
d="M995 -31q-322 0 -504 133.5t-229 405.5h-242v121h230q-4 58 -4 90q0 16 1 45t1 43h-228v121h242q43 271 213 403.5t471 132.5q335 0 507.5 -125.5t172.5 -402.5h-145q0 80 -21.5 142.5t-62 103t-90 68.5t-115 42.5t-126 20.5t-132.5 6q-234 0 -356 -94t-156 -297h250
v-121h-262q-4 -54 -2 -86q0 -63 2 -92h262v-121h-246q44 -202 187.5 -297.5t396.5 -95.5q54 0 99.5 3.5t96 13.5t90.5 26.5t77 44.5t61.5 65t39.5 91t15 120h145q0 -140 -45 -240t-131 -158.5t-200 -85t-263 -26.5z" />
    <glyph glyph-name="trademark" unicode="&#x2122;" horiz-adv-x="1892" 
d="M350 668v751h-287v109h691v-109h-287v-751h-117zM850 668v860h123l366 -688l369 688h121v-860h-121v614l-328 -614h-82l-325 610v-610h-123z" />
    <glyph glyph-name="minus" unicode="&#x2212;" horiz-adv-x="696" 
d="M61 428v119h574v-119h-574z" />
    <glyph glyph-name="s_t" unicode="&#xfb06;" horiz-adv-x="2099" 
d="M68 774q0 143 121 212t339 69q148 0 256 -31q-45 127 -45 246q0 94 29.5 167t74 115t102.5 69t108.5 36.5t99.5 9.5q84 0 147.5 -20t100.5 -50.5t60 -74.5t30.5 -84.5t7.5 -87.5v-326h541v-139h-541v-500q0 -46 3 -79t13.5 -72.5t30 -64t55 -41.5t85.5 -17q208 0 208 278
h142q0 -116 -24.5 -199t-72.5 -130.5t-110.5 -69t-145.5 -21.5q-160 0 -245.5 87.5t-85.5 287.5v541h-285v139h285l18 221l-18 17q5 78 -1 127.5t-27.5 85.5t-62.5 51.5t-106 15.5q-121 0 -201 -85.5t-80 -199.5q0 -61 17 -130t32.5 -108.5t49.5 -117.5q63 -84 63 -225h-141
q0 134 -95.5 189t-283.5 55q-305 0 -305 -146q0 -61 79 -106t277 -86q114 -24 168 -37t127 -39.5t104 -55.5t54.5 -77t23.5 -113q0 -156 -113.5 -223.5t-346.5 -67.5q-272 0 -397.5 90t-125.5 289h140q0 -244 393 -244q307 0 307 150q0 22 -4.5 39.5t-16 31.5t-23 24.5
t-35 20t-41.5 16t-53 14.5t-59.5 13t-70 13.5t-76.5 15.5q-53 11 -95.5 21.5t-91.5 26.5t-86 34t-72.5 43.5t-58 54.5t-36.5 68t-14 84z" />
    <glyph glyph-name="A.ss01" horiz-adv-x="1312" 
d="M-41 0l614 1434h166l615 -1434h-164l-533 1241l-532 -1241h-166z" />
    <glyph glyph-name="E.ss01" horiz-adv-x="1316" 
d="M61 1290v144h1194v-144h-1194zM61 645v143h1194v-143h-1194zM61 0v143h1194v-143h-1194z" />
    <glyph glyph-name="D.ss01" horiz-adv-x="1437" 
d="M668 0h-566v143h590q241 0 381.5 147.5t140.5 428.5q0 278 -140.5 424.5t-381.5 146.5h-590v144h566q334 0 521 -184t187 -533t-187 -533t-521 -184z" />
    <glyph glyph-name="K.ss01" horiz-adv-x="1382" 
d="M102 1434h150v-1221l862 1221h180l-909 -1291h956v-143h-1239v1434z" />
    <glyph glyph-name="R.ss01" horiz-adv-x="1382" 
d="M102 0v1434h1239v-144h-956l909 -1290h-180l-862 1221v-1221h-150z" />
    <glyph glyph-name="O.ss01" horiz-adv-x="1597" 
d="M61 717q0 747 738 747q737 0 737 -747q0 -748 -737 -748q-738 0 -738 748z" />
    <glyph glyph-name="M.ss01" horiz-adv-x="1622" 
d="M102 0v1434h150v-1434h-150zM1520 0h-150v1434h150v-1434zM735 256v922h152v-922h-152z" />
    <glyph glyph-name="W.ss01" horiz-adv-x="1622" 
d="M1520 1434v-1434h-150v1434h150zM102 1434h150v-1434h-150v1434zM887 922v-922h-152v922h152z" />
    <glyph glyph-name="a.ss02" 
d="M965 0v164q-103 -195 -392 -195q-111 0 -204 35.5t-162 102t-107.5 170.5t-38.5 235q0 266 130 404.5t374 138.5q296 0 400 -187v156h147v-1024h-147zM219 514q0 -197 94 -300t275 -103q187 0 282 103t95 300t-95 298t-282 101q-202 0 -285.5 -97.5t-83.5 -301.5z" />
    <glyph glyph-name="g.ss02" horiz-adv-x="1193" 
d="M61 551q0 246 129.5 373t374.5 127q298 0 400 -172v141h147v-983q0 -254 -120.5 -360.5t-375.5 -106.5q-278 0 -399 89t-121 290h142q0 -133 89 -188.5t275 -55.5q83 0 144 13.5t113 47t79 98.5t27 161v204q-103 -178 -392 -178q-149 0 -263 55.5t-181.5 170t-67.5 274.5
zM219 553q0 -175 94 -267.5t275 -92.5q186 0 281.5 92t95.5 268q0 175 -95 265.5t-282 90.5q-202 0 -285.5 -87t-83.5 -269z" />
    <glyph glyph-name="y.ss02" horiz-adv-x="1181" 
d="M86 1024h147v-524q0 -73 14.5 -125t50.5 -95t104.5 -65t170.5 -22q185 0 280 82t95 241v14h4v482h148v-983q0 -130 -30.5 -220t-93.5 -144.5t-153.5 -78.5t-218.5 -24q-278 0 -398 89t-120 290h139q0 -133 90 -188.5t275 -55.5q66 0 117.5 7.5t99 29t78 56t49 92
t18.5 134.5v197q-108 -162 -405 -162q-238 0 -349.5 107.5t-111.5 328.5v537z" />
    <glyph glyph-name="r.ss01" horiz-adv-x="897" 
d="M250 0h-148v1024h754v-139h-606v-885z" />
    <glyph glyph-name="a.ss01" horiz-adv-x="1099" 
d="M850 0v780l-643 -780h-191l732 885h-672v139h921v-1024h-147z" />
    <glyph glyph-name="k.ss01" horiz-adv-x="1083" 
d="M250 1024v-780l643 780h190l-731 -885h672v-139h-922v1024h148z" />
    <glyph glyph-name="o.ss01" horiz-adv-x="1249" 
d="M61 512q0 543 564 543q563 0 563 -543t-563 -543q-564 0 -564 543z" />
    <glyph glyph-name="t_t" horiz-adv-x="1835" 
d="M326 344v541h-285v139h285l28 410h119v-410h614l27 410h119v-410h543v-139h-543v-500q0 -46 2.5 -79t13.5 -72.5t30 -64t54.5 -41.5t85.5 -17q211 0 211 278h139q0 -116 -24.5 -199t-72 -130.5t-110 -69t-145.5 -21.5q-160 0 -245 87.5t-85 287.5v541h-614v-500
q0 -47 2.5 -79t13 -72t29.5 -64.5t55 -41.5t86 -17q209 0 209 278h140q0 -227 -90.5 -323.5t-262.5 -96.5q-159 0 -244 87.5t-85 287.5z" />
    <glyph glyph-name="o_o" horiz-adv-x="2217" 
d="M61 512q0 543 564 543q352 0 485 -213q130 213 483 213q564 0 564 -543t-564 -543q-352 0 -485 213q-130 -213 -483 -213q-564 0 -564 543zM219 512q0 -401 406 -401q405 0 405 401t-405 401q-207 0 -306.5 -100.5t-99.5 -300.5zM1188 512q0 -401 405 -401q408 0 408 401
t-408 401q-405 0 -405 -401z" />
    <glyph glyph-name="agrave.ss01" 
d="M768 1260l-74 -52l-286 375l98 72zM965 0v164q-103 -195 -392 -195q-111 0 -204 35.5t-162 102t-107.5 170.5t-38.5 235q0 266 130 404.5t374 138.5q296 0 400 -187v156h147v-1024h-147zM219 514q0 -197 94 -300t275 -103q187 0 282 103t95 300t-95 298t-282 101
q-202 0 -285.5 -97.5t-83.5 -301.5z" />
    <glyph glyph-name="aacute.ss01" 
d="M408 1260l262 395l98 -72l-287 -375zM965 0v164q-103 -195 -392 -195q-111 0 -204 35.5t-162 102t-107.5 170.5t-38.5 235q0 266 130 404.5t374 138.5q296 0 400 -187v156h147v-1024h-147zM219 514q0 -197 94 -300t275 -103q187 0 282 103t95 300t-95 298t-282 101
q-202 0 -285.5 -97.5t-83.5 -301.5z" />
    <glyph glyph-name="acircumflex.ss01" 
d="M643 1620l297 -412h-133l-219 328l-217 -328h-133l297 412h108zM965 0v164q-103 -195 -392 -195q-111 0 -204 35.5t-162 102t-107.5 170.5t-38.5 235q0 266 130 404.5t374 138.5q296 0 400 -187v156h147v-1024h-147zM219 514q0 -197 94 -300t275 -103q187 0 282 103
t95 300t-95 298t-282 101q-202 0 -285.5 -97.5t-83.5 -301.5z" />
    <glyph glyph-name="atilde.ss01" 
d="M199 1208q0 64 11.5 117t36 97.5t70 70t107.5 25.5q48 0 92 -21.5t77 -53t63.5 -62.5t62 -52.5t61.5 -21.5q25 0 41.5 13t24.5 40.5t11 58.5t3 78h119q0 -309 -184 -309q-46 0 -85 15.5t-64.5 39t-52 51t-48.5 51t-53 39t-66 15.5q-44 0 -76.5 -42t-32.5 -149h-118z
M965 0v164q-103 -195 -392 -195q-111 0 -204 35.5t-162 102t-107.5 170.5t-38.5 235q0 266 130 404.5t374 138.5q296 0 400 -187v156h147v-1024h-147zM219 514q0 -197 94 -300t275 -103q187 0 282 103t95 300t-95 298t-282 101q-202 0 -285.5 -97.5t-83.5 -301.5z" />
    <glyph glyph-name="adieresis.ss01" 
d="M313 1352q0 38 28 65t65 27q38 0 65 -27t27 -65t-27 -65t-65 -27q-37 0 -65 27t-28 65zM684 1352q0 38 27.5 65t64.5 27q38 0 65 -27t27 -65t-27 -65t-65 -27q-37 0 -64.5 27t-27.5 65zM965 0v164q-103 -195 -392 -195q-111 0 -204 35.5t-162 102t-107.5 170.5t-38.5 235
q0 266 130 404.5t374 138.5q296 0 400 -187v156h147v-1024h-147zM219 514q0 -197 94 -300t275 -103q187 0 282 103t95 300t-95 298t-282 101q-202 0 -285.5 -97.5t-83.5 -301.5z" />
    <glyph glyph-name="aring.ss01" 
d="M317 1423q0 97 74.5 156t196.5 59q123 0 197.5 -59t74.5 -156t-74.5 -156t-197.5 -59q-122 0 -196.5 59t-74.5 156zM449 1423q0 -46 38 -74t101 -28q64 0 102.5 28t38.5 74t-38.5 74.5t-102.5 28.5q-63 0 -101 -28.5t-38 -74.5zM965 0v164q-103 -195 -392 -195
q-111 0 -204 35.5t-162 102t-107.5 170.5t-38.5 235q0 266 130 404.5t374 138.5q296 0 400 -187v156h147v-1024h-147zM219 514q0 -197 94 -300t275 -103q187 0 282 103t95 300t-95 298t-282 101q-202 0 -285.5 -97.5t-83.5 -301.5z" />
    <glyph glyph-name="yacute.ss02" horiz-adv-x="1181" 
d="M412 1229l262 395l98 -72l-287 -374zM86 1024h147v-524q0 -73 14.5 -125t50.5 -95t104.5 -65t170.5 -22q185 0 280 82t95 241v14h4v482h148v-983q0 -130 -30.5 -220t-93.5 -144.5t-153.5 -78.5t-218.5 -24q-278 0 -398 89t-120 290h139q0 -133 90 -188.5t275 -55.5
q66 0 117.5 7.5t99 29t78 56t49 92t18.5 134.5v197q-108 -162 -405 -162q-238 0 -349.5 107.5t-111.5 328.5v537z" />
    <glyph glyph-name="ydieresis.ss02" horiz-adv-x="1181" 
d="M317 1321q0 38 28 65t65 27q38 0 65 -27t27 -65t-27 -65t-65 -27q-37 0 -65 27t-28 65zM688 1321q0 38 27.5 65t64.5 27q38 0 65 -27t27 -65t-27 -65t-65 -27q-37 0 -64.5 27t-27.5 65zM86 1024h147v-524q0 -73 14.5 -125t50.5 -95t104.5 -65t170.5 -22q185 0 280 82
t95 241v14h4v482h148v-983q0 -130 -30.5 -220t-93.5 -144.5t-153.5 -78.5t-218.5 -24q-278 0 -398 89t-120 290h139q0 -133 90 -188.5t275 -55.5q66 0 117.5 7.5t99 29t78 56t49 92t18.5 134.5v197q-108 -162 -405 -162q-238 0 -349.5 107.5t-111.5 328.5v537z" />
    </font>
</defs>
</svg>
