<?xml version="1.0" encoding="utf-8"?>
<!-- Generator: Adobe Illustrator 25.4.1, SVG Export Plug-In . SVG Version: 6.00 Build 0)  -->
<svg version="1.1" id="Layer_1" xmlns="http://www.w3.org/2000/svg" xmlns:xlink="http://www.w3.org/1999/xlink" x="0px" y="0px"
	 viewBox="0 0 111 90" style="enable-background:new 0 0 111 90;" xml:space="preserve">
<style type="text/css">
	.st0{fill:#3C3C3C;}
	.st1{fill:#FE7920;}
</style>
<path class="st0" d="M110.2,74.5l-5.1-9.1c-1.1-2-2.9-3.4-5.1-4c1.9-1.6,3.1-4,3.1-6.6V8.6c0-4.7-3.8-8.6-8.5-8.6H42.1
	c-1.4,0-2.8,0.3-4,1c-0.6,0.3-0.8,1-0.5,1.6c0.3,0.6,1,0.8,1.6,0.5c0.9-0.5,1.9-0.7,2.9-0.7h52.5c3.4,0,6.2,2.8,6.2,6.3v46.2
	c0,3.5-2.8,6.3-6.2,6.3H75.2c-0.6,0-1.2,0.5-1.2,1.2s0.5,1.2,1.2,1.2h22.6c2.2,0,4.3,1.2,5.4,3.2l5.1,9.1c0.7,1.2,0.6,2.6,0,3.7
	c-0.7,1.2-1.9,1.9-3.2,1.9H70.6l-1.8-18.9c0-0.1,0-0.1,0-0.2c-0.7-7.4-6.8-12.9-14.1-12.9h-0.8c-4,0-7.9,1.9-10.3,5.1L40.8,58
	c-1.2,1.6-3.1,2.5-5.1,2.5h0c-2,0-3.9-0.9-5.1-2.5l-2.8-3.6c-2.5-3.2-6.3-5.1-10.3-5.1h-0.8c-7.4,0-13.4,5.6-14.1,12.9L0,88.7
	c-0.1,0.6,0.4,1.2,1,1.3c0.6,0.1,1.2-0.4,1.3-1l2.5-26.5c0.6-6.2,5.7-10.8,11.8-10.8h0.8c3.4,0,6.5,1.5,8.5,4.2l2.8,3.6
	c1.7,2.2,4.2,3.4,6.9,3.4h0c2.7,0,5.2-1.2,6.9-3.4l2.7-3.6c2-2.6,5.2-4.2,8.5-4.2h0.8c6.1,0,11.2,4.6,11.8,10.7c0,0.1,0,0.1,0,0.2
	L69,89c0.1,0.6,0.6,1,1.1,1c0,0,0.1,0,0.1,0c0.6-0.1,1.1-0.6,1-1.3l-0.5-5.2h34.1c2.2,0,4.1-1.1,5.2-3
	C111.3,78.7,111.3,76.4,110.2,74.5z"/>
<path class="st0" d="M83.2,12.3c-0.4-0.5-1.2-0.5-1.6,0c-0.4,0.5-0.4,1.2,0,1.6l2.9,2.9c0.2,0.2,0.5,0.3,0.8,0.3
	c0.3,0,0.6-0.1,0.8-0.3c0.4-0.5,0.4-1.2,0-1.6L83.2,12.3z"/>
<path class="st0" d="M85.9,29.8l3.2,3.2c0.2,0.2,0.5,0.3,0.8,0.3c0.3,0,0.6-0.1,0.8-0.3c0.4-0.5,0.4-1.2,0-1.6l-3.2-3.2
	c-0.4-0.5-1.2-0.5-1.6,0C85.5,28.6,85.5,29.3,85.9,29.8z"/>
<path class="st0" d="M71.6,13.8c-0.4,0.5-0.4,1.2,0,1.6l8.7,8.8c0.2,0.2,0.5,0.3,0.8,0.3s0.6-0.1,0.8-0.3c0.4-0.5,0.4-1.2,0-1.6
	l-8.7-8.8C72.8,13.3,72.1,13.3,71.6,13.8z"/>
<path class="st0" d="M24.8,71.5h-9.1c-2.1,0-3.8,1.7-3.8,3.8v1c0,0.6,0.5,1.2,1.2,1.2s1.2-0.5,1.2-1.2v-1c0-0.8,0.7-1.5,1.5-1.5h9.1
	c0.8,0,1.5,0.7,1.5,1.5v1c0,0.6,0.5,1.2,1.2,1.2c0.6,0,1.2-0.5,1.2-1.2v-1C28.6,73.2,26.9,71.5,24.8,71.5z"/>
<path class="st1" d="M17.6,30.1h2.7c0,0,0,0,0,0s0,0,0,0h0.4c-0.1,0.6-0.1,1.2-0.1,1.8c0,1.7,0.3,3.4,0.7,5
	c2,6.6,7.7,11.1,14.3,11.1c6.5,0,12.3-4.5,14.3-11.1c0.2-0.6-0.2-1.3-0.8-1.4c-0.6-0.2-1.3,0.2-1.4,0.8c-1.7,5.6-6.6,9.4-12.1,9.4
	c-5.5,0-10.4-3.8-12.1-9.4C23.2,34.9,23,33.4,23,32c0-0.6,0.1-1.2,0.1-1.8H51c0,0,0,0,0,0s0,0,0,0h2.7c0.6,0,1.2-0.5,1.2-1.2
	c0-0.6-0.5-1.2-1.2-1.2h-1.6c-0.2-3.5-1.6-6.8-3.8-9.5c-0.4-0.5-1.1-0.6-1.6-0.1c-0.5,0.4-0.6,1.1-0.1,1.6c1.9,2.3,3,5.1,3.3,8H21.5
	c0.4-5.4,3.9-10.1,8.9-12.1v3.3c0,0.6,0.5,1.2,1.2,1.2c0.6,0,1.2-0.5,1.2-1.2v-6.9c0-0.9,0.7-1.6,1.6-1.6H37c0.9,0,1.6,0.7,1.6,1.6
	v6.9c0,0.6,0.5,1.2,1.2,1.2s1.2-0.5,1.2-1.2v-6.9c0-2.2-1.8-3.9-3.9-3.9h-2.7c-2.2,0-3.9,1.8-3.9,3.9v1.1
	c-6.3,2.1-10.7,7.9-11.2,14.5h-1.6c-0.6,0-1.2,0.5-1.2,1.2C16.5,29.6,17,30.1,17.6,30.1z"/>
</svg>
