<?xml version="1.0" encoding="utf-8"?>
<!-- Generator: Adobe Illustrator 25.4.1, SVG Export Plug-In . SVG Version: 6.00 Build 0)  -->
<svg version="1.1" id="Layer_1" xmlns="http://www.w3.org/2000/svg" xmlns:xlink="http://www.w3.org/1999/xlink" x="0px" y="0px"
	 viewBox="0 0 99 90" style="enable-background:new 0 0 99 90;" xml:space="preserve">
<style type="text/css">
	.st0{fill:#3C3C3C;}
	.st1{fill:#FE7920;}
</style>
<path class="st0" d="M58.2,65.4c-0.6-0.8-1.5-1.3-2.4-1.3H32.3c-1,0-1.8,0.5-2.2,1.4l-9.5,22.4H9.4c-0.6,0-1.1,0.5-1.1,1.1
	c0,0.6,0.5,1.1,1.1,1.1h39c0.4,0,0.8-0.3,1-0.6l9.1-21.5C58.8,67.1,58.7,66.2,58.2,65.4z M56.6,67.1l-8.8,20.8H22.8L32,66.3
	c0-0.1,0.2-0.1,0.3-0.1h23.6c0.2,0,0.5,0.2,0.7,0.4C56.5,66.6,56.7,66.9,56.6,67.1z"/>
<path class="st0" d="M19,79.4c0-0.6-0.5-1.1-1.1-1.1H8.1c-3.3,0-6-2.7-6-6V59.6c0-5.3,4.3-9.6,9.6-9.6h23c2.5,0,4.9,1,6.8,2.8
	c1.5,1.5,2.5,3.5,2.7,5.6c0,0.5,0.5,1,1,1c0.6,0,1.1-0.5,1.1-1.1c0,0,0-0.1,0-0.1c-0.3-2.6-1.5-5-3.3-6.9c-2.2-2.2-5.1-3.4-8.3-3.4
	h-23C5.2,47.9,0,53.2,0,59.6v12.8c0,4.4,3.6,8.1,8.1,8.1h9.9C18.5,80.4,19,80,19,79.4z"/>
<path class="st0" d="M12.7,62.6c-0.6,0-1.1,0.5-1.1,1.1v5.8c0,0.6,0.5,1.1,1.1,1.1h9.4c0.6,0,1.1-0.5,1.1-1.1c0-0.6-0.5-1.1-1.1-1.1
	h-8.4v-4.8C13.8,63.1,13.3,62.6,12.7,62.6z"/>
<path class="st0" d="M9.9,30.4h2.2c0,0.4-0.1,0.7-0.1,1.1c0,1.5,0.3,3,0.9,4.4c1.7,4.1,5.8,6.8,10.3,6.8c4.5,0,8.5-2.7,10.2-6.8
	c0.2-0.5,0-1.2-0.6-1.4c-0.5-0.2-1.2,0-1.4,0.6c-1.4,3.3-4.7,5.5-8.3,5.5c-3.6,0-6.9-2.2-8.3-5.5c-0.5-1.1-0.7-2.3-0.7-3.5
	c0-0.4,0-0.7,0.1-1.1h22.2c0.6,0,1.1-0.5,1.1-1.1c0-0.6-0.5-1.1-1.1-1.1h-1.7c-0.3-3.4-1.9-6.5-4.5-8.6c-0.5-0.4-1.1-0.3-1.5,0.2
	c-0.4,0.5-0.3,1.1,0.2,1.5c2.1,1.7,3.5,4.2,3.7,6.9H13.7c0.5-4.6,4-8.3,8.4-8.8v0.2c0,0.6,0.5,1.1,1.1,1.1c0.6,0,1.1-0.5,1.1-1.1v-4
	c0-0.6-0.5-1.1-1.1-1.1c-0.6,0-1.1,0.5-1.1,1.1v1.7c-5.6,0.5-10,5.2-10.5,11H9.9c-0.6,0-1.1,0.5-1.1,1.1C8.8,29.9,9.3,30.4,9.9,30.4
	z"/>
<path class="st1" d="M76.3,0H42.7c-5.1,0-9.2,4.1-9.2,9.2v6.7c0,0.6,0.5,1.1,1.1,1.1s1.1-0.5,1.1-1.1V9.2c0-3.9,3.2-7.1,7.1-7.1
	h33.6c3.9,0,7.1,3.2,7.1,7.1v22.7c0,3.9-3.2,7.1-7.1,7.1h-5.5c-0.4,0-0.8,0.2-1,0.6l-2.6,5.7c-0.1,0.3-0.4,0.3-0.5,0.4
	c-0.1,0-0.4,0-0.6-0.2l-6-6.1c-0.2-0.2-0.5-0.3-0.8-0.3H42.7c-1.3,0-2.6-0.4-3.7-1.1c-0.5-0.3-1.1-0.2-1.5,0.3
	c-0.3,0.5-0.2,1.1,0.3,1.5c1.4,0.9,3.1,1.4,4.8,1.4H59l5.7,5.8c0.5,0.5,1.2,0.8,2,0.8c0.2,0,0.3,0,0.5,0c0.9-0.2,1.6-0.7,2-1.6
	l2.3-5.1h4.8c5.1,0,9.2-4.1,9.2-9.2V9.2C85.4,4.1,81.3,0,76.3,0z"/>
<path class="st0" d="M83,78.6c-7.1,6-16.1,9.3-25.4,9.3c-0.6,0-1.1,0.5-1.1,1.1c0,0.6,0.5,1.1,1.1,1.1c9.8,0,19.3-3.5,26.7-9.8
	c0.4-0.4,0.5-1,0.1-1.5C84.1,78.3,83.5,78.2,83,78.6z"/>
<path class="st0" d="M98,48.8C98,48.8,98,48.8,98,48.8c-0.6,0-1.1,0.4-1.1,1c-0.1,2.4-0.4,4.8-0.9,7.1c-0.1,0.6,0.2,1.1,0.8,1.3
	c0.1,0,0.1,0,0.2,0c0.5,0,0.9-0.3,1-0.8c0.5-2.5,0.8-5,0.9-7.5C99,49.3,98.6,48.8,98,48.8z"/>
<path class="st0" d="M97.5,43.4c0.1,0,0.1,0,0.2,0c0.6-0.1,1-0.6,0.9-1.2c-0.4-2.7-1.1-5.3-2-7.8c-0.2-0.5-0.8-0.8-1.3-0.6
	c-0.5,0.2-0.8,0.8-0.6,1.4c0.9,2.4,1.5,4.9,1.9,7.4C96.5,43,97,43.4,97.5,43.4z"/>
</svg>
