<?xml version="1.0" encoding="utf-8"?>
<!-- Generator: Adobe Illustrator 25.4.1, SVG Export Plug-In . SVG Version: 6.00 Build 0)  -->
<svg version="1.1" id="Layer_1" xmlns="http://www.w3.org/2000/svg" xmlns:xlink="http://www.w3.org/1999/xlink" x="0px" y="0px"
	 viewBox="0 0 108 90" style="enable-background:new 0 0 108 90;" xml:space="preserve">
<style type="text/css">
	.st0{fill:#3C3C3C;}
	.st1{fill:#FE7921;}
</style>
<path class="st0" d="M87.3,55.5c-0.7-7.3-6.8-12.8-14.1-12.8h-0.8c-4.1,0-7.8,1.8-10.3,5.1l-2.8,3.6C57.9,53,56,53.9,54,53.9h0
	c-2,0-3.9-0.9-5.2-2.5l-2.8-3.6c-2.5-3.2-6.2-5.1-10.3-5.1h-0.8c-7.4,0-13.4,5.5-14.1,12.8l-1.5,15.7c-0.1,0.6,0.4,1.1,1,1.2
	c0.6,0.1,1.1-0.4,1.2-1l1.5-15.7c0.6-6.2,5.7-10.9,12-10.9h0.8c3.4,0,6.5,1.5,8.6,4.2l2.8,3.6c1.7,2.1,4.2,3.4,6.9,3.4h0
	c2.7,0,5.2-1.2,6.9-3.4l2.8-3.6c2.1-2.7,5.2-4.2,8.6-4.2h0.8c6.2,0,11.3,4.6,12,10.7c0,0.1,0,0.1,0,0.2l1.5,15.7
	c0.1,0.6,0.5,1,1.1,1c0,0,0.1,0,0.1,0c0.6-0.1,1-0.6,1-1.2l-1.5-15.5C87.3,55.6,87.3,55.6,87.3,55.5z"/>
<path class="st0" d="M34.8,22.4c0,0.6,0.5,1.1,1.1,1.1h2.7c0,0,0,0,0,0s0,0,0,0h0.5c-0.1,0.6-0.1,1.3-0.1,1.9c0,1.7,0.3,3.4,0.7,4.9
	c2,6.6,7.7,11,14.3,11c6.5,0,12.3-4.4,14.3-11c0.2-0.6-0.1-1.2-0.7-1.3c-0.6-0.2-1.2,0.1-1.3,0.7c-1.7,5.7-6.6,9.5-12.2,9.5
	c-5.6,0-10.5-3.8-12.2-9.5c-0.4-1.4-0.6-2.8-0.6-4.3c0-0.7,0.1-1.3,0.1-1.9h28.1c0,0,0,0,0,0s0,0,0,0h2.7c0.6,0,1.1-0.5,1.1-1.1
	c0-0.6-0.5-1.1-1.1-1.1h-1.7c-0.2-3.5-1.6-6.8-3.8-9.5c-0.4-0.5-1.1-0.5-1.5-0.1c-0.5,0.4-0.5,1.1-0.1,1.5c1.9,2.3,3.1,5.1,3.3,8.1
	H39.7c0.4-5.5,4-10.3,9.1-12.3v3.4c0,0.6,0.5,1.1,1.1,1.1s1.1-0.5,1.1-1.1V5.6c0-0.9,0.8-1.7,1.7-1.7h2.7c0.9,0,1.7,0.8,1.7,1.7v6.9
	c0,0.6,0.5,1.1,1.1,1.1s1.1-0.5,1.1-1.1V5.6c0-2.1-1.7-3.8-3.8-3.8h-2.7c-2.1,0-3.8,1.7-3.8,3.8v1.2C42.5,8.9,38,14.7,37.5,21.3
	h-1.7C35.3,21.3,34.8,21.8,34.8,22.4z"/>
<path class="st1" d="M13.7,34h20.1c0.6,0,1.1-0.5,1.1-1.1c0-0.6-0.5-1.1-1.1-1.1H13.7c-6.8,0-12.5,5.3-12.9,12.1L0,56.4
	c0,0.6,0.4,1.1,1,1.1c0,0,0,0,0.1,0c0.6,0,1-0.4,1.1-1l0.8-12.5C3.3,38.4,8,34,13.7,34z"/>
<path class="st1" d="M25.4,25c1.2,0,2.4-0.2,3.5-0.5c0.6-0.2,0.9-0.8,0.7-1.3c-0.2-0.6-0.8-0.9-1.3-0.7c-1,0.3-1.9,0.4-2.9,0.4
	c-5.7,0-10.4-4.7-10.4-10.4c0-5.7,4.7-10.4,10.4-10.4c4.3,0,8,2.5,9.6,6.5c0.2,0.5,0.8,0.8,1.4,0.6C37,9,37.3,8.3,37,7.8
	C35.1,3.1,30.5,0,25.4,0c-6.9,0-12.5,5.6-12.5,12.5C12.9,19.4,18.5,25,25.4,25z"/>
<path class="st1" d="M107.2,43.9c-0.4-6.8-6.1-12.1-12.9-12.1H74.2c-0.6,0-1.1,0.5-1.1,1.1c0,0.6,0.5,1.1,1.1,1.1h20.1
	c5.7,0,10.4,4.4,10.8,10.1l0.8,12.5c0,0.6,0.5,1,1.1,1c0,0,0,0,0.1,0c0.6,0,1-0.5,1-1.1L107.2,43.9z"/>
<path class="st1" d="M71.6,9.2c0.5,0.2,1.2,0,1.4-0.6c1.6-3.9,5.4-6.5,9.6-6.5C88.3,2.1,93,6.8,93,12.5c0,5.7-4.7,10.4-10.4,10.4
	c-1,0-2-0.1-2.9-0.4c-0.6-0.2-1.2,0.2-1.3,0.7c-0.2,0.6,0.2,1.2,0.7,1.3c1.1,0.3,2.3,0.5,3.5,0.5c6.9,0,12.5-5.6,12.5-12.5
	C95.1,5.6,89.5,0,82.6,0C77.5,0,72.9,3.1,71,7.8C70.7,8.3,71,9,71.6,9.2z"/>
<path class="st0" d="M86.2,77.5H21.8c-0.6,0-1.1,0.5-1.1,1.1c0,0.6,0.5,1.1,1.1,1.1h64.4c0.6,0,1.1-0.5,1.1-1.1
	C87.3,78,86.8,77.5,86.2,77.5z"/>
<path class="st0" d="M102.3,77.5h-8.2c-0.6,0-1.1,0.5-1.1,1.1c0,0.6,0.5,1.1,1.1,1.1h8.2c0.6,0,1.1-0.5,1.1-1.1
	C103.3,78,102.9,77.5,102.3,77.5z"/>
<path class="st0" d="M13.9,77.5H5.7c-0.6,0-1.1,0.5-1.1,1.1c0,0.6,0.5,1.1,1.1,1.1h8.2c0.6,0,1.1-0.5,1.1-1.1
	C15,78,14.5,77.5,13.9,77.5z"/>
<path class="st0" d="M67.6,87.9H39.7c-0.6,0-1.1,0.5-1.1,1.1c0,0.6,0.5,1.1,1.1,1.1h27.9c0.6,0,1.1-0.5,1.1-1.1
	C68.7,88.3,68.2,87.9,67.6,87.9z"/>
</svg>
