<?xml version="1.0" encoding="utf-8"?>
<!-- Generator: Adobe Illustrator 25.4.1, SVG Export Plug-In . SVG Version: 6.00 Build 0)  -->
<svg version="1.1" id="Layer_1" xmlns="http://www.w3.org/2000/svg" xmlns:xlink="http://www.w3.org/1999/xlink" x="0px" y="0px"
	 viewBox="0 0 74.9 90" style="enable-background:new 0 0 74.9 90;" xml:space="preserve">
<style type="text/css">
	.st0{fill:#FE7920;}
	.st1{fill:#3C3C3C;}
</style>
<path class="st0" d="M44.4,78.7l-22-34.5c-0.5-0.8-1.3-1.4-2.3-1.6c-0.9-0.2-1.9,0-2.7,0.5l-8.9,5.7c-1.7,1.1-2.2,3.3-1.1,5l22,34.5
	c0.7,1.1,1.8,1.7,3,1.7c0.7,0,1.3-0.2,1.9-0.6l8.9-5.7c0.8-0.5,1.4-1.3,1.6-2.3C45.1,80.5,44.9,79.6,44.4,78.7z M43.2,81.1
	c-0.1,0.5-0.4,0.9-0.8,1.2l-8.9,5.7c-0.9,0.5-2,0.3-2.5-0.6l-22-34.5c-0.5-0.9-0.3-2,0.6-2.5l8.9-5.7c0.3-0.2,0.6-0.3,1-0.3
	c0.1,0,0.3,0,0.4,0c0.5,0.1,0.9,0.4,1.2,0.8l1.9,3l-2.7,1.7c-0.4,0.3-0.5,0.8-0.3,1.2c0.2,0.3,0.4,0.4,0.7,0.4c0.2,0,0.3,0,0.5-0.1
	l2.6-1.7l4.8,7.5l-2.7,1.7c-0.4,0.3-0.5,0.8-0.3,1.2c0.2,0.3,0.4,0.4,0.7,0.4c0.2,0,0.3,0,0.5-0.1l2.7-1.7l4.8,7.5l-2.7,1.7
	c-0.4,0.3-0.5,0.8-0.3,1.2c0.2,0.3,0.4,0.4,0.7,0.4c0.2,0,0.3,0,0.5-0.1l2.7-1.7l4.8,7.5l-2.7,1.7c-0.4,0.3-0.5,0.8-0.3,1.2
	c0.2,0.3,0.4,0.4,0.7,0.4c0.2,0,0.3,0,0.5-0.1l2.7-1.7l1.9,3C43.2,80.1,43.3,80.6,43.2,81.1z"/>
<path class="st1" d="M74.8,19.5l-2.2-5.4c-0.2-0.6-0.7-1.1-1.3-1.4c-0.6-0.3-1.3-0.3-1.9,0l-1.6,0.7c-1.5-3.3-3.7-6.2-6.4-8.5
	c-0.4-0.3-0.9-0.3-1.2,0.1c-0.3,0.4-0.3,0.9,0.1,1.2c2.7,2.3,4.9,5.2,6.2,8.6c0.1,0.2,0.3,0.4,0.5,0.5c0.2,0.1,0.5,0.1,0.7,0l2.4-1
	c0.2-0.1,0.4-0.1,0.6,0c0.2,0.1,0.3,0.2,0.4,0.4l2.2,5.4c0.1,0.2,0.1,0.4,0,0.6c-0.1,0.2-0.2,0.3-0.4,0.4l-41.9,17
	c-0.2,0.1-0.4,0.1-0.6,0C30.2,38,30,37.9,30,37.7l-2.2-5.4c-0.1-0.2-0.1-0.4,0-0.6c0.1-0.2,0.2-0.3,0.4-0.4l2.4-1
	c0.4-0.2,0.7-0.7,0.5-1.1c-2-5.1-2.1-10.6-0.2-15.6C32.8,8.8,36.5,5,41.2,3.1c4.9-2,10.2-1.7,15.1,0.6c0.4,0.2,1,0,1.2-0.4
	c0.2-0.4,0-1-0.4-1.2c-5.3-2.6-11.2-2.8-16.5-0.7c-5.2,2.1-9.2,6.2-11.3,11.6c-2,5.1-2,10.8-0.1,16l-1.6,0.7
	c-0.6,0.2-1.1,0.7-1.3,1.3c-0.3,0.6-0.3,1.3,0,1.9l2.2,5.4c0.2,0.6,0.7,1.1,1.3,1.4c0.3,0.1,0.6,0.2,1,0.2c0.3,0,0.6-0.1,0.9-0.2
	l41.9-17c0.6-0.2,1.1-0.7,1.3-1.3C75.1,20.8,75.1,20.1,74.8,19.5z"/>
<path class="st1" d="M44.5,11.3c2.7-1.1,5.7-1,8.4,0.3c2.7,1.3,4.9,3.6,6,6.5c0.2,0.5,0.7,0.7,1.1,0.5c0.4-0.2,0.7-0.7,0.5-1.1
	c-1.3-3.3-3.8-5.9-6.9-7.4c-3.2-1.5-6.6-1.6-9.8-0.3c-3.1,1.3-5.6,3.8-6.8,7c-1.3,3.2-1.2,6.9,0.1,10.2c0.1,0.2,0.3,0.4,0.5,0.5
	c0.1,0,0.2,0.1,0.3,0.1c0.1,0,0.2,0,0.3-0.1l14.6-5.9c0.4-0.2,0.7-0.7,0.5-1.1c-0.2-0.5-0.7-0.7-1.1-0.5l-13.8,5.6
	c-0.9-2.7-0.8-5.5,0.2-8C39.7,14.5,41.8,12.3,44.5,11.3z"/>
<path class="st1" d="M1.8,28.3c-0.1-0.5-0.1-1,0.2-1.5c0.3-0.4,0.7-0.8,1.2-0.9l20.1-5.1c0.5-0.1,0.8-0.6,0.6-1.1
	c-0.1-0.5-0.6-0.8-1.1-0.6l-12.7,3.2v-5.6c0-1.1,0.9-1.9,1.9-1.9h12.1c0.5,0,0.9-0.4,0.9-0.9c0-0.5-0.4-0.9-0.9-0.9H12.2
	c-2,0-3.7,1.7-3.7,3.7v6l-5.7,1.5c-1,0.2-1.8,0.8-2.3,1.7c-0.5,0.8-0.6,1.8-0.4,2.8l4.3,17c0.1,0.4,0.5,0.7,0.8,0.7
	c0.1,0,0.1,0,0.2,0c0.5-0.1,0.8-0.6,0.6-1.1L1.8,28.3z"/>
<path class="st1" d="M63.8,31.8c-0.1-0.5-0.6-0.8-1.1-0.6c-0.5,0.1-0.8,0.6-0.6,1.1l8,31.8c0.3,1-0.4,2.1-1.4,2.4l-22.7,5.8
	c-0.5,0.1-0.8,0.6-0.6,1.1c0.1,0.4,0.5,0.7,0.8,0.7c0.1,0,0.1,0,0.2,0l22.7-5.8c2-0.5,3.2-2.5,2.7-4.5L63.8,31.8z"/>
<path class="st1" d="M18.4,79.2l-1.6,0.4c-1,0.3-2.1-0.4-2.3-1.4l-2.6-10.4c-0.1-0.4-0.4-0.7-0.9-0.7c-0.5,0-0.9,0.4-0.9,0.9
	c0,0.1,0,0.1,0,0.2l2.6,10.4c0.4,1.7,1.9,2.8,3.6,2.8c0.3,0,0.6,0,0.9-0.1l1.6-0.4c0.5-0.1,0.8-0.6,0.6-1.1
	C19.4,79.4,18.9,79.1,18.4,79.2z"/>
</svg>
