<?xml version="1.0" encoding="UTF-8"?> <svg xmlns="http://www.w3.org/2000/svg" xmlns:xlink="http://www.w3.org/1999/xlink" version="1.1" id="Layer_1" x="0px" y="0px" viewBox="0 0 38.4 37.8" style="enable-background:new 0 0 38.4 37.8;" xml:space="preserve"> <style type="text/css"> .st0{fill:#FFFFFF;} </style> <g> <g> <path class="st0" d="M30.7,23.6c1.7-1.1,3.4-2.3,5.1-3.4c0.4-0.2,0.7-0.5,0.8-0.9v-0.6c-0.2-0.5-0.6-0.8-1.2-0.9 C28,15.5,20.4,13.2,12.9,11c-0.5-0.1-0.9-0.1-1.3,0.2c-0.4,0.4-0.4,0.8-0.3,1.3c2.3,7.6,4.6,15.2,6.8,22.8c0.2,0.5,0.4,0.9,1,1 c0.6,0.1,1-0.2,1.3-0.7c1.2-1.8,2.4-3.5,3.5-5.3c0.2-0.3,0.3-0.3,0.5,0c1.8,1.8,3.6,3.6,5.4,5.4c0.8,0.8,1.3,0.8,2.2,0 c1.3-1.3,2.7-2.7,4-4c0.3-0.3,0.5-0.5,0.7-0.8v-0.6c-0.2-0.3-0.4-0.6-0.7-0.8c-1.8-1.8-3.6-3.6-5.4-5.4 C30.5,23.9,30.4,23.8,30.7,23.6z M27.9,24.6c1.9,1.9,3.8,3.8,5.7,5.7c0.2,0.2,0.2,0.3,0,0.5c-0.9,0.8-1.7,1.7-2.5,2.5 c-0.2,0.2-0.3,0.2-0.5,0c-1.9-1.9-3.8-3.8-5.8-5.8c-0.7-0.7-1.5-0.7-2,0.2c-1,1.5-1.9,2.9-2.9,4.4c-0.1,0.1-0.1,0.2-0.3,0.4 C17.8,26.2,16,20,14.1,13.8c6.3,1.9,12.5,3.7,18.7,5.6c-0.2,0.1-0.3,0.2-0.4,0.3c-1.4,1-2.9,1.9-4.3,2.9 C27.3,23.1,27.2,23.9,27.9,24.6z M12.4,7.4c0.7,0,1.2-0.5,1.2-1.3c0-1,0-2,0-3c0-0.7-0.2-1.2-0.9-1.5h-0.6 c-0.7,0.3-0.9,0.8-0.9,1.5c0,1,0,2,0,3C11.2,6.9,11.7,7.4,12.4,7.4z M7.7,12.1c0-0.7-0.5-1.2-1.2-1.2c-0.6,0-1.1,0-1.7,0 c-0.6,0-1.1,0-1.7,0c-0.7,0-1.2,0.5-1.2,1.2c0,0.6,0.5,1.1,1.2,1.1c1.1,0,2.3,0,3.4,0C7.2,13.2,7.7,12.7,7.7,12.1z M6.9,8.2 c0.5,0.5,1.2,0.5,1.6,0C9,7.8,9,7.1,8.5,6.6C7.8,5.8,7,5,6.2,4.3C6,4.1,5.7,3.9,5.5,3.9c-0.5,0-1,0.3-1.1,0.7 C4.2,5.1,4.2,5.5,4.6,5.9C5.4,6.7,6.1,7.5,6.9,8.2z M17.8,8.2c0.8-0.8,1.5-1.5,2.3-2.3c0.2-0.2,0.4-0.5,0.4-0.9 c0-0.5-0.2-0.8-0.7-1c-0.5-0.2-0.9-0.1-1.3,0.2C17.7,5,17,5.8,16.2,6.6c-0.5,0.5-0.5,1.2,0,1.7C16.6,8.7,17.3,8.7,17.8,8.2z M7,15.8c-0.9,0.8-1.7,1.7-2.5,2.5c-0.3,0.3-0.3,0.8-0.1,1.2c0.2,0.4,0.6,0.6,1,0.7c0.3,0,0.6-0.1,0.8-0.2 c0.8-0.8,1.7-1.7,2.5-2.5C9,17,9,16.3,8.6,15.9C8.1,15.4,7.5,15.4,7,15.8z"></path> </g> </g> </svg> 