<?xml version="1.0" encoding="UTF-8"?> <svg xmlns="http://www.w3.org/2000/svg" xmlns:xlink="http://www.w3.org/1999/xlink" version="1.1" id="Layer_1" x="0px" y="0px" viewBox="0 0 86 93" style="enable-background:new 0 0 86 93;" xml:space="preserve"> <style type="text/css"> .st0{fill:none;} </style> <g> <path class="st0" d="M85.02,11.26C85,6.91,81.91,3,77.64,2.09c-1.12-0.24-2.28-0.3-3.45-0.33C74,1.72,73.79,1.7,73.54,1.7 c-5.93,0-22.85,0-28.78,0c-6.14,0-10.38,4.21-10.39,10.32c-0.01,4.19,0,8.37,0,12.56v1c-0.59-0.06-1.08-0.15-1.58-0.15 c-8.31-0.01-16.63-0.04-24.94,0.02c-3.68,0.03-6.9,2.73-7.58,6.33c-0.22,1.15-0.2,8.69-0.2,12.46c-0.01,0.08-0.02,0.15-0.02,0.24 c0.01,4.36,0,8.73,0.01,13.09c0,0.47,0.03,0.94,0.12,1.4c0.78,3.99,4,6.57,8.28,6.61c3.54,0.03,7.08,0.01,10.61,0.01h1.12 c0,1.56,0.01,2.99,0,4.42c-0.01,0.65,0.06,1.24,0.71,1.58c0.68,0.35,1.23,0.07,1.78-0.35c1.81-1.41,3.64-2.79,5.46-4.19 c0.24-0.18,0.49-0.35,0.88-0.63v1.15c0,4.45-0.02,8.9,0.01,13.35c0.02,3.83,2.62,6.35,6.48,6.36c2.27,0.01,4.54,0,6.81,0h0.98 c0,0.87,0.05,1.6-0.01,2.33c-0.07,0.85,0.17,1.54,0.85,2.06h1.06c1.4-1.1,2.84-2.16,4.2-3.31c0.92-0.78,1.86-1.13,3.1-1.11 c2.78,0.04,5.18-1.81,5.8-4.5c0.15-0.65,0.2-1.32,0.22-2c0.02-0.11,0.03-0.22,0.03-0.33c0.03-1.9,0.01-13.81,0.01-15.71 c-0.01-4.18-2.51-6.66-6.71-6.67c-3.42-0.01-6.84,0-10.26,0h-0.94v-6.62c6.15,1.08,12.31,0.17,18.49,0.6 c0,2.01,0.01,3.97-0.01,5.93c-0.01,0.65,0.08,1.23,0.73,1.57c0.7,0.36,1.23,0.05,1.77-0.37c2.94-2.25,5.89-4.5,8.86-6.71 c0.39-0.29,0.94-0.45,1.43-0.49c1.09-0.07,2.18,0,3.27-0.03c5.43-0.15,9.79-4.3,9.82-9.56C85.08,31.99,85.07,21.62,85.02,11.26z M29.26,62.44c-0.09,0.28-0.27,0.59-0.5,0.77c-1.76,1.38-3.54,2.73-5.31,4.09c-0.15,0.11-0.33,0.18-0.59,0.33c0-0.93,0-1.75,0-2.56 c0-1.81-0.3-2.12-2.09-2.12c-4.1,0-8.2,0.02-12.29-0.01c-3.51-0.02-5.74-2.27-5.75-5.73c-0.01-2.99,0-5.97,0-8.96 c0-0.94,0.01-1.88,0-2.82c0.02-2.71,0-10.86,0-11.54c0.01-3.57,2.26-5.82,5.84-5.82c7.84-0.01,15.68-0.01,23.53,0 c3.57,0,5.85,2.28,5.86,5.83c0.01,7.7,0,15.4,0,23.1v1.05c-1.08,0-2.05-0.04-3.01,0.01C32.18,58.19,30.09,59.83,29.26,62.44z M51.78,60.66c2.82,0,4.12,1.29,4.13,4.07c0,1.75,0,12.2,0,15.11c0,0.4,0.01,0.8-0.01,1.19c-0.07,2.21-1.49,3.69-3.71,3.57 c-1.66-0.09-2.98,0.35-4.15,1.47c-0.46,0.44-1.01,0.8-1.53,1.18c-0.14,0.11-0.33,0.16-0.56,0.27c0-0.37,0-0.63,0-0.9 c-0.01-1.66-0.34-1.99-2.02-1.99c-2.71,0-5.42,0-8.14,0c-2.81,0-4.11-1.29-4.12-4.07c0-5.27,0-10.54,0-15.81 c0-2.8,1.29-4.09,4.09-4.09C41.11,60.65,46.45,60.66,51.78,60.66z M82.36,42.3c-0.02,3.48-2.67,6.42-6.17,6.84 c-1.69,0.2-3.41,0.07-5.12,0.16c-0.52,0.03-1.11,0.22-1.52,0.52c-2.32,1.71-4.6,3.47-6.9,5.21c-0.24,0.18-0.49,0.35-0.86,0.62 c0-1.62,0-3.06,0-4.49c0-1.49-0.39-1.88-1.88-1.88c-5.1,0-10.2,0.03-15.3-0.03c-1.09-0.01-2.18-0.38-3.27-0.61 c-0.62-0.13-0.77-0.54-0.77-1.16c0.03-4.57,0.01-9.14,0.02-13.71c0-2.68-1-4.88-3.08-6.62c-0.25-0.21-0.47-0.61-0.47-0.93 c-0.03-4.98-0.06-9.96,0.01-14.93c0.04-3.4,2.54-6.2,5.91-6.81c0.6-0.11,1.23-0.14,1.84-0.14c5.91-0.01,22.75,0,28.72-0.01 c0.6,0,1.2,0,1.79,0.01c3.84,0.1,7.02,3.15,7.04,6.95C82.41,21.63,82.4,31.97,82.36,42.3z M71.21,22.43c-2.03,0-4.06,0-6.08,0 c-0.01-0.12-0.04-0.19-0.02-0.24c0.11-0.3,0.23-0.6,0.34-0.91c1.04-2.96,0.8-5.82-0.73-8.55c-0.55-0.99-1.45-1.46-2.57-1.36 c-1.12,0.1-1.94,0.71-2.32,1.76c-0.18,0.48-0.11,1.05-0.25,1.55c-0.34,1.17-0.51,2.47-1.18,3.43c-1.26,1.82-2.82,3.43-4.11,4.95 c-0.81-0.15-1.39-0.33-1.98-0.34c-2.06-0.04-4.13-0.02-6.19-0.01c-1.23,0.01-1.65,0.42-1.65,1.64c-0.01,5.09-0.01,10.19,0,15.28 c0,1.21,0.43,1.63,1.65,1.64c2.15,0.01,4.3,0.03,6.45-0.02c0.54-0.01,1.07-0.28,1.62-0.44c1.31,0.33,2.66,0.92,4.03,0.97 c4.47,0.14,8.96,0.13,13.43,0.07c2.03-0.03,3.31-1.54,3.32-3.59c0.01-4.04,0.01-8.08,0-12.12C74.95,23.8,73.56,22.43,71.21,22.43z M51.5,38.59h-4.32V25.42h4.32V38.59z M72.3,38.03c0,0.99-0.19,1.2-1.17,1.21c-4.01,0.01-8.02,0.01-12.03,0 c-1.65,0-3.14-0.49-4.4-1.56c-0.25-0.21-0.45-0.62-0.45-0.94c-0.03-3.05-0.04-6.09,0-9.14c0-0.36,0.2-0.79,0.45-1.07 c1.46-1.69,2.93-3.37,4.45-5.01c1.84-1.99,2.99-4.25,3.1-6.99c0-0.11,0.06-0.21,0.15-0.52c1.13,2.14,1.31,4.15,0.6,6.22 c-0.32,0.94-0.76,1.84-1.13,2.76c-0.48,1.2,0.08,2.04,1.39,2.05c2.59,0.02,5.19,0.01,7.78,0.02c1.13,0,1.26,0.14,1.27,1.28 C72.3,30.24,72.3,34.13,72.3,38.03z M29.14,44.24c0.98-0.02,1.59-0.77,1.35-1.62c-0.2-0.73-0.75-1-1.48-1.01c-1.2,0-2.4,0-3.6,0 c-0.02-0.19-0.04-0.27-0.03-0.36c0.2-1.27,0.41-2.54,0.62-3.81c0.14-0.89-0.23-1.54-0.98-1.69c-0.81-0.17-1.43,0.27-1.61,1.2 c-0.25,1.32-0.44,2.65-0.7,3.97c-0.05,0.25-0.3,0.63-0.49,0.65c-0.9,0.07-1.81,0.03-2.78,0.03c0.07-0.47,0.11-0.84,0.17-1.21 c0.17-1.07,0.38-2.13,0.5-3.21c0.09-0.8-0.36-1.36-1.08-1.44c-0.79-0.09-1.3,0.27-1.49,1.04c-0.06,0.23-0.09,0.46-0.13,0.69 c-0.24,1.37-0.47,2.74-0.69,4.06c-0.18,0.04-0.24,0.06-0.3,0.06c-1.53,0.01-3.06,0-4.6,0.01c-1.11,0.01-1.73,0.47-1.74,1.31 c-0.01,0.85,0.58,1.32,1.7,1.33c1.44,0.01,2.88,0,4.48,0c-0.14,0.86-0.33,1.58-0.35,2.3c-0.02,0.86-0.46,0.97-1.18,0.95 c-1.09-0.04-2.18-0.03-3.27,0c-0.86,0.03-1.37,0.54-1.37,1.29c0,0.72,0.48,1.22,1.27,1.31c0.35,0.04,0.71,0.02,1.06,0.02 c0.93,0,1.87,0,2.88,0c-0.25,1.45-0.48,2.77-0.69,4.09c-0.16,1.01,0.26,1.68,1.08,1.79c0.84,0.11,1.38-0.38,1.55-1.41 c0.25-1.46,0.5-2.93,0.75-4.41h3.18c-0.22,1.37-0.43,2.66-0.64,3.96c-0.17,1.02,0.18,1.7,0.97,1.85c0.84,0.16,1.43-0.33,1.63-1.41 c0.19-1.06,0.35-2.13,0.54-3.2c0.22-1.27,0.23-1.26,1.52-1.27c1.36,0,2.71,0.02,4.07-0.03c0.8-0.03,1.27-0.58,1.27-1.3 c0-0.73-0.48-1.22-1.28-1.28c-0.44-0.04-0.88-0.02-1.33-0.02c-1.17,0-2.33,0-3.58,0c0.2-1.16,0.38-2.18,0.56-3.23 C26.38,44.24,27.76,44.27,29.14,44.24z M21.65,47.44h-3.18c0.16-0.97,0.28-1.89,0.47-2.79c0.03-0.16,0.35-0.37,0.55-0.38 c0.85-0.04,1.7-0.02,2.68-0.02C21.99,45.35,21.83,46.37,21.65,47.44z M38.43,76.39c1.44,1.22,3.12,2.18,4.74,3.18 c0.31,0.19,0.91,0.18,1.25,0.01c1.93-0.95,3.78-2.05,5.24-3.66c1.11-1.21,1.74-2.63,1.75-4.61c0.08-4.14-4.59-5.98-7.31-4.11 c-0.16,0.11-0.55,0.06-0.75-0.06c-2.87-1.6-6.25-0.18-7,3.01C35.76,72.63,36.53,74.78,38.43,76.39z M38.9,70.87 c0.17-0.86,0.67-1.5,1.58-1.71c0.91-0.2,1.58,0.14,2.1,0.91c0.69,1.02,1.69,1.04,2.37,0.1c0.71-0.97,1.29-1.22,2.22-0.96 c0.9,0.26,1.51,1.08,1.57,2.11c0.01,0.09,0,0.18,0,0.26c0.08,0.04,0.15,0.07,0.23,0.11c-0.42,0.81-0.66,1.8-1.29,2.4 c-1.07,1.02-2.37,1.81-3.59,2.66c-0.14,0.1-0.48,0.08-0.63-0.02c-1.2-0.83-2.45-1.62-3.55-2.58C38.96,73.32,38.64,72.13,38.9,70.87 z"></path> </g> </svg> 