<?xml version="1.0" encoding="UTF-8"?> <svg xmlns="http://www.w3.org/2000/svg" xmlns:xlink="http://www.w3.org/1999/xlink" version="1.1" id="Layer_1" x="0px" y="0px" viewBox="0 0 84.2 71.5" style="enable-background:new 0 0 84.2 71.5;" xml:space="preserve"> <style type="text/css"> .st0{fill:#00A089;} </style> <g> <g> <path class="st0" d="M21.8,29.9c-0.6-0.2-1,0.1-1.5,0.5c-1.5,1.5-3,3-4.5,4.5c-0.6,0.6-1.1,1.2-1.8,1.9c-0.8-0.9-1.6-1.6-2.3-2.4 c-0.2-0.2-0.4-0.4-0.6-0.6c-0.5-0.5-1.2-0.5-1.6-0.1c-0.5,0.4-0.5,1.1,0,1.7c1.1,1.1,2.2,2.2,3.3,3.4c0.9,0.9,1.4,0.8,2.2,0 c1.5-1.5,3-3,4.5-4.5c0.1-0.1,0.3-0.3,0.5-0.5V42H7.9V29.7h0.8c2.4,0,4.8,0,7.2,0c0.3,0,0.6,0,0.8-0.1c0.6-0.2,0.8-0.6,0.8-1.2 c-0.1-0.6-0.4-0.9-0.9-1c-0.2,0-0.5,0-0.7,0c-2.4,0-4.8,0.1-7.2,0c-1.5,0-2.5,0.4-3.1,1.8v13.5c0.6,1.4,1.7,1.8,3.1,1.8 c3.7-0.1,7.4,0,11.1,0c1.7,0,2.7-0.9,2.7-2.6c0-3.5,0-6.9,0-10.4C22.5,30.7,22.4,30.1,21.8,29.9z M21.8,5.4 c-0.6-0.2-1.1,0.1-1.5,0.5c-1.5,1.6-3.1,3.1-4.6,4.7c-0.5,0.5-1,1.1-1.5,1.7c-1-1-1.8-1.9-2.7-2.7c-0.3-0.3-0.7-0.5-1.1-0.5 c-0.3,0-0.9,0.4-0.9,0.7c-0.1,0.4,0,1,0.3,1.3c1.1,1.2,2.2,2.3,3.3,3.4c0.8,0.8,1.3,0.8,2.1,0c1.5-1.5,3-3,4.5-4.5 c0.2-0.2,0.3-0.3,0.6-0.5v8.2H7.9V5.2h0.8c2.4,0,4.8,0,7.2,0c0.3,0,0.6,0,0.9-0.1c0.5-0.2,0.8-0.6,0.7-1.2c0-0.5-0.4-0.9-0.9-1 c-0.3,0-0.5,0-0.8,0c-2.4,0-4.8,0.1-7.2,0c-1.5,0-2.5,0.4-3.1,1.8v13.5c0.6,1.4,1.7,1.8,3.1,1.8c3.7-0.1,7.4,0,11,0 c1.8,0,2.7-0.9,2.7-2.7c0-3.4,0-6.8,0-10.2C22.5,6.3,22.4,5.7,21.8,5.4z M19.7,51.9c-3.7,0-7.3,0-11,0c-1.5,0-2.5,0.4-3.1,1.8 v13.5c0.6,1.4,1.7,1.8,3.1,1.8c3.7-0.1,7.3,0,11,0c1.9,0,2.8-0.9,2.8-2.8c0-3.8,0-7.6,0-11.4C22.5,52.7,21.6,51.9,19.7,51.9z M20.2,66.5H7.9V54.2h12.3V66.5z M77,34.7c-16,0-31.9,0-47.9,0c-1,0-1.6,0.4-1.6,1.1c0,0.7,0.5,1.1,1.6,1.1h0.1 c15.9,0,31.7,0,47.6,0c0.7,0,1.3-0.1,1.7-0.7v-0.9C78.2,34.9,77.7,34.7,77,34.7z M76.9,10.2c-15.9,0-31.7,0-47.6,0 c-0.3,0-0.5,0-0.8,0c-0.6,0.1-0.9,0.5-0.9,1.1c0,0.6,0.3,0.9,0.9,1.1c0.2,0.1,0.5,0.1,0.7,0.1c16,0,31.9,0,47.9,0 c0.7,0,1.3-0.2,1.6-0.9v-0.7C78.2,10.3,77.6,10.2,76.9,10.2z M77.1,59.2c-16,0-32.1,0-48.1,0c-0.9,0-1.4,0.4-1.4,1.1 c0,0.7,0.5,1.1,1.4,1.2c0.1,0,0.2,0,0.3,0c15.9,0,31.7,0,47.6,0c0.7,0,1.3-0.1,1.7-0.7v-0.7C78.3,59.4,77.8,59.2,77.1,59.2z M29.3,6.4c5.9,0,11.8,0,17.7,0c6,0,12,0,18,0c1,0,1.5-0.4,1.5-1.1c0-0.7-0.5-1.1-1.5-1.1c-0.1,0-0.1,0-0.2,0 c-11.8,0-23.6,0-35.4,0c-1.1,0-1.7,0.4-1.7,1.2C27.5,6,28.1,6.4,29.3,6.4z M28.7,30.9c0.2,0,0.5,0,0.7,0h17.5c6,0,12,0,18,0 c0.9,0,1.4-0.4,1.4-1.1c0-0.7-0.5-1.2-1.4-1.2c-0.1,0-0.3,0-0.4,0c-11.8,0-23.5,0-35.3,0c-0.2,0-0.5,0-0.7,0 c-0.6,0.1-1.1,0.6-1.1,1.2C27.6,30.4,28,30.8,28.7,30.9z M29.3,55.4h17.7c6,0,12,0,18,0c0.9,0,1.4-0.4,1.4-1.1 c0-0.7-0.5-1.1-1.4-1.2c-0.1,0-0.2,0-0.3,0c-11.8,0-23.6,0-35.4,0c-1.1,0-1.7,0.4-1.7,1.2C27.5,55,28.1,55.4,29.3,55.4z M29.2,18.6c7,0,14,0,21,0c0.2,0,0.5,0,0.7-0.1c0.6-0.1,0.9-0.5,0.9-1.1c0-0.6-0.4-1-1-1.1c-0.2,0-0.5,0-0.7,0 c-3.4,0-6.9,0-10.3,0c-3.3,0-6.6,0-9.9,0c-0.4,0-0.8,0-1.2,0c-0.6,0.1-1,0.4-1,1c0,0.6,0.3,1,0.9,1.2 C28.7,18.6,28.9,18.6,29.2,18.6z M29.1,43.1c7,0,14,0,21,0c0.3,0,0.5,0,0.8-0.1c0.6-0.1,0.8-0.6,0.8-1.1c0-0.6-0.4-1-1-1.1 c-0.3,0-0.5,0-0.8,0c-3.5,0-6.9,0-10.4,0c-3.4,0-6.9,0-10.3,0c-0.3,0-0.5,0-0.8,0c-0.6,0.1-0.9,0.5-0.9,1c0,0.5,0.2,0.9,0.7,1.1 C28.5,43.1,28.8,43.1,29.1,43.1z M50.9,65.4c-0.3-0.1-0.5,0-0.8,0c-3.5,0-6.9,0-10.4,0c-3.5,0-6.9,0-10.4,0c-0.3,0-0.5,0-0.8,0 c-0.6,0.1-0.9,0.5-0.9,1c0,0.6,0.2,1,0.8,1.1c0.3,0.1,0.6,0.1,0.8,0.1c7,0,14,0,21,0c0.3,0,0.6,0,0.8-0.1c0.3-0.3,0.7-0.7,0.8-1.1 C51.8,65.9,51.4,65.5,50.9,65.4z"></path> </g> </g> </svg> 