<?xml version="1.0" encoding="UTF-8"?> <svg xmlns="http://www.w3.org/2000/svg" xmlns:xlink="http://www.w3.org/1999/xlink" version="1.1" id="Layer_1" x="0px" y="0px" viewBox="0 0 26.7 24.5" style="enable-background:new 0 0 26.7 24.5;" xml:space="preserve"> <style type="text/css"> .st0{fill:#00A089;} </style> <path class="st0" d="M20.4,6.4c0,0.7-0.6,1.3-1.3,1.3c-0.7,0-1.3-0.6-1.3-1.3c0-0.7,0.6-1.3,1.3-1.3C19.9,5.1,20.4,5.7,20.4,6.4z M18.8,12.2c0,3-2.4,5.4-5.4,5.4c-3,0-5.4-2.4-5.4-5.4c0-3,2.4-5.4,5.4-5.4C16.4,6.8,18.8,9.2,18.8,12.2z M16.9,12.2 c0-1.9-1.6-3.5-3.5-3.5c-1.9,0-3.5,1.6-3.5,3.5c0,1.9,1.6,3.5,3.5,3.5C15.3,15.7,16.9,14.1,16.9,12.2z M24.3,16.6V7.8 c0-3.6-3-6.6-6.6-6.6H8.9c-3.6,0-6.6,3-6.6,6.6v8.8c0,3.6,3,6.6,6.6,6.6h8.8C21.4,23.2,24.3,20.2,24.3,16.6z M17.7,3.3 c2.5,0,4.5,2,4.5,4.5v8.8c0,2.5-2,4.5-4.5,4.5H8.9c-2.5,0-4.5-2-4.5-4.5V7.8c0-2.5,2-4.5,4.5-4.5H17.7z"></path> </svg> 