<?xml version="1.0" encoding="UTF-8"?> <svg xmlns="http://www.w3.org/2000/svg" xmlns:xlink="http://www.w3.org/1999/xlink" version="1.1" id="Layer_1" x="0px" y="0px" viewBox="0 0 489 470" style="enable-background:new 0 0 489 470;" xml:space="preserve"> <style type="text/css"> .st0{fill:#00A089;} </style> <path class="st0" d="M182,432c0-91.1,0-182.2,0-273.5c27.3,0,54.1,0,81.6,0c0,12,0,24,0,36.3c1-0.3,1.4-0.3,1.5-0.5 c18.8-29.8,46.6-42.4,80.9-42.5c20-0.1,39.5,2.8,57.2,13.1c20,11.6,31.3,29.8,36.5,51.5c3.3,14,4.4,28.5,6.5,42.8 c0.2,1.3,0.6,2.6,0.9,3.8c0,56,0,112,0,168c-1,0.1-2,0.3-3,0.3c-26.3,0-52.6,0-78.9,0c-0.9,0-1.9-0.2-3.3-0.4c0-2.2,0-4.2,0-6.2 c0-41.1,0.1-82.3-0.1-123.4c-0.1-11.6-0.6-23.3-1.8-34.9c-2.5-24.3-14.3-37.7-36.3-40c-25.8-2.7-46.7,7.2-52.7,35 c-2.5,11.8-3.7,24-3.8,36.1c-0.4,44.8-0.2,89.6-0.2,134.4C238.7,432,210.3,432,182,432z"></path> <path class="st0" d="M44,432c0-17-0.1-34-0.1-51c0-72,0-143.9,0-215.9c0-2.1,0-4.3,0-6.7c28.4,0,56.3,0,85.1,0 c0,91.2,0,182.3,0,273.5C100.7,432,72.3,432,44,432z"></path> <path class="st0" d="M93,22c4.8,1.6,9.8,2.9,14.4,5c20.9,9.8,32.2,33.1,27,55.1c-5.8,24.2-25.6,39.4-50.5,38.9 c-21.7-0.5-41.5-17.9-45.9-40.3c-0.2-0.9-0.7-1.8-1-2.6c0-4.3,0-8.7,0-13c0.3-0.7,0.8-1.4,0.9-2.2c3.6-18.4,14.4-30.9,31.7-37.7 C73,23.8,76.6,23,80,22C84.3,22,88.7,22,93,22z"></path> </svg> 