<?xml version="1.0" encoding="UTF-8"?> <svg xmlns="http://www.w3.org/2000/svg" xmlns:xlink="http://www.w3.org/1999/xlink" version="1.1" id="Layer_1" x="0px" y="0px" viewBox="0 0 33.8 36.7" style="enable-background:new 0 0 33.8 36.7;" xml:space="preserve"> <style type="text/css"> .st0{fill:#FFFFFF;} </style> <g> <g> <path class="st0" d="M17.1,24.3c1.8-1.8,3.5-3.6,5.3-5.3c0.6-0.6,0.6-1.3,0.1-1.8c-2-2-3.9-4-5.9-5.9c-0.3-0.3-0.7-0.5-1.2-0.3 c-0.9,0.2-1.2,1.3-0.5,2c1.2,1.2,2.4,2.4,3.6,3.6c0.1,0.1,0.2,0.1,0.2,0.3h-6c-3.3,0-6.6,0-9.9,0c-0.6,0-1.1,0.2-1.4,0.8 c0,0-0.1,0-0.1,0.1v0.6c0.4,0.8,1,0.9,1.8,0.9c5,0,10.1,0,15.1,0h0.5c-0.1,0.1-0.2,0.2-0.3,0.3c-1.2,1.2-2.4,2.4-3.6,3.6 c-0.5,0.5-0.5,1.2,0,1.7c0.5,0.5,1.2,0.5,1.7,0C16.7,24.7,16.9,24.5,17.1,24.3z M32.4,7.3c0-0.4,0-0.8-0.1-1.1c-0.6-3-3-5-6-5 c-2.3,0-4.5,0-6.8,0c-0.9,0-1.8,0-2.6,0c-0.7,0-1.2,0.6-1.2,1.3c0,0.7,0.6,1.1,1.3,1.1c3.1,0,6.2,0,9.2,0c2.2,0,3.7,1.5,3.7,3.8 c0,7.1,0,14.2,0,21.3c0,0.4,0,0.7-0.1,1c-0.4,1.7-1.8,2.7-3.6,2.7c-3.1,0-6.2,0-9.2,0c-0.8,0-1.3,0.4-1.4,1.1 c-0.1,0.7,0.4,1.2,1.2,1.3c0.3,0,0.7,0,1,0l8.5,0c0.4,0,0.8,0,1.2-0.1c2.9-0.6,4.8-3,4.8-6C32.4,21.6,32.4,14.4,32.4,7.3z"></path> </g> </g> </svg> 