<?xml version="1.0" encoding="UTF-8"?> <svg xmlns="http://www.w3.org/2000/svg" xmlns:xlink="http://www.w3.org/1999/xlink" version="1.1" id="Layer_1" x="0px" y="0px" viewBox="0 0 40.4 39.7" style="enable-background:new 0 0 40.4 39.7;" xml:space="preserve"> <style type="text/css"> .st0{fill:#FFFFFF;} </style> <g> <g> <path class="st0" d="M17.1,33.3c-0.1,0-0.3,0-0.4,0c-3.6,0-7.1,0-10.7,0c-1.5,0-2.6-1-2.6-2.5c0-6.9,0-13.8,0-20.7 c0-1.4,1-2.4,2.5-2.5c0.5,0,1,0,1.5,0c0.8,0,0.8,0,0.8,0.8c0,1.4,1,2.4,2.4,2.4c3.2,0,6.5,0,9.7,0c1.1,0,2-0.7,2.3-1.8 c0.1-0.4,0.1-0.8,0.1-1.2c0-0.2,0.1-0.3,0.3-0.3c0.6,0,1.2,0,1.8,0c1.6-0.1,2.8,1.1,2.7,2.7c-0.1,1.5,0,2.9,0,4.4 c0,0.6,0.3,0.9,0.8,0.9c0.5,0,0.8-0.4,0.8-0.9c0-1.6,0-3.1,0-4.7c0-1.9-1.3-3.5-3.1-3.9C25.2,5.9,24.3,6,23.4,6 c-0.7,0-0.7,0-0.7-0.7c0-0.7-0.3-0.9-1-0.9c-0.7,0-1.3,0-2,0c-0.2,0-0.3,0-0.4-0.3c-0.5-1.8-2.1-2.9-3.9-2.9 c-1.8,0-3.3,1.2-3.8,2.9c-0.1,0.2-0.1,0.3-0.4,0.3c-0.7,0-1.4,0-2.1,0c-0.5,0-0.8,0.3-0.9,0.8c0,0.1,0,0.3,0,0.5 C8.3,5.9,8.2,6,7.9,6C7.2,6,6.5,6,5.8,6C4,6,2.5,7.2,2,8.8C2,9,1.9,9.2,1.8,9.5v22c0,0,0.1,0.1,0.1,0.1c0.2,1.7,1.8,3.4,4.2,3.4 c3.6,0,7.1,0,10.7,0c0.1,0,0.2,0,0.3,0c0.5,0,0.8-0.4,0.8-0.8C17.9,33.6,17.6,33.3,17.1,33.3z M10.2,6c0.6,0,1.3,0,1.9,0 c0.7,0,0.9-0.2,1-0.9c0.2-1.9,2.2-2.9,3.7-1.9c0.7,0.4,1,1.1,1.1,1.8c0.1,0.7,0.3,1,1,1c0.6,0,1.2,0,1.8,0c0.3,0,0.4,0.1,0.4,0.4 c0,0.6,0,1.2,0,1.8c0,0.7-0.3,1-1,1c-1.5,0-3.1,0-4.6,0c-1.5,0-3.1,0-4.6,0c-0.8,0-1-0.3-1-1c0-0.6,0-1.3,0-1.9 C9.9,6.1,10,6,10.2,6z M38.7,26c-0.9-5.6-6.3-9.5-11.9-8.6c-5.6,0.9-9.4,6-8.7,11.6c0.5,4.1,3.5,7.6,7.4,8.7 c0.7,0.2,1.4,0.3,2.1,0.4h1.7c0.4-0.1,0.7-0.1,1.1-0.2C36,36.9,39.6,31.7,38.7,26z M28.6,36.6c-4.7,0.2-8.8-3.7-9-8.4 c-0.2-4.9,3.6-9.1,8.4-9.2c5-0.2,9.1,3.6,9.3,8.6C37.4,32.3,33.6,36.4,28.6,36.6z M23.6,15.6c0.4,0,0.6-0.3,0.7-0.7 c0.1-0.5-0.3-0.9-0.9-0.9c-2.6,0-5.3,0-7.9,0c-2.6,0-5.2,0-7.8,0c-0.6,0-1,0.3-1,0.8c0,0.5,0.4,0.8,1,0.8h0.1c5.2,0,10.3,0,15.5,0 C23.3,15.6,23.5,15.6,23.6,15.6z M19.3,20.1c0.2-0.3,0.2-0.5,0.1-0.8c-0.2-0.3-0.4-0.5-0.8-0.5c-1.8,0-3.7,0-5.5,0 c-1.8,0-3.6,0-5.3,0c-0.1,0-0.3,0-0.4,0c-0.4,0-0.7,0.3-0.7,0.7c0,0.4,0.2,0.7,0.5,0.8c0.2,0.1,0.3,0.1,0.5,0.1c2.4,0,4.8,0,7.1,0 c1.2,0,2.5,0,3.7,0C18.9,20.4,19.1,20.4,19.3,20.1z M11.5,23.6c-1.3,0-2.7,0-4,0c-0.5,0-0.8,0.3-0.8,0.8c0,0.4,0.3,0.8,0.8,0.8 c2.7,0,5.3,0,8,0c0.3,0,0.6-0.2,0.7-0.4c0.3-0.5-0.1-1.1-0.8-1.1C14.1,23.6,12.8,23.6,11.5,23.6z M32.8,23.8 c-0.3-0.1-0.6-0.1-0.8,0.1c-0.1,0.1-0.3,0.3-0.4,0.4c-1.5,1.7-3,3.4-4.5,5.1c-0.3,0.3-0.4,0.3-0.6,0c-0.7-0.8-1.5-1.5-2.2-2.2 c-0.4-0.4-0.9-0.4-1.2-0.1c-0.3,0.3-0.3,0.8,0.1,1.2c1,1,2,2,3.1,3.1c0.4,0.4,0.9,0.4,1.3,0c1.8-2.1,3.6-4.2,5.5-6.2 c0.2-0.2,0.3-0.4,0.3-0.5C33.2,24.2,33.1,24,32.8,23.8z"></path> </g> </g> </svg> 