<?xml version="1.0" encoding="UTF-8"?> <svg xmlns="http://www.w3.org/2000/svg" xmlns:xlink="http://www.w3.org/1999/xlink" version="1.1" id="Layer_1" x="0px" y="0px" viewBox="0 0 26.7 23.1" style="enable-background:new 0 0 26.7 23.1;" xml:space="preserve"> <style type="text/css"> .st0{fill:#00A089;} </style> <path class="st0" d="M25.4,4.2C25.4,4.2,25.4,4.3,25.4,4.2c-0.1,0.3-0.3,0.5-0.4,0.7c-0.3,0.4-0.7,0.8-1.1,1.1 c-0.2,0.2-0.5,0.4-0.8,0.6C23,6.7,23,6.8,23,6.9c0,0.2,0,0.5,0,0.7c0,0.6-0.1,1.2-0.2,1.8c-0.1,0.8-0.3,1.5-0.6,2.3 c-0.3,0.8-0.6,1.6-1,2.3c-0.4,0.8-0.9,1.5-1.5,2.2c-0.2,0.3-0.5,0.6-0.7,0.8c-0.5,0.5-1.1,1-1.7,1.4c-0.4,0.3-0.9,0.6-1.4,0.9 c-0.8,0.4-1.6,0.8-2.5,1.1c-0.8,0.3-1.6,0.4-2.5,0.6C10.7,21,10.3,21,10,21c-0.1,0-0.2,0-0.3,0c0,0-0.1,0-0.1,0c-0.1,0-0.1,0-0.2,0 c-0.3,0-0.5,0-0.8,0c-0.1,0-0.1,0-0.2,0c0,0-0.1,0-0.1,0c-1.1,0-2.2-0.2-3.2-0.5c-0.9-0.3-1.8-0.6-2.7-1.1c-0.3-0.1-0.6-0.3-0.8-0.5 c-0.1-0.1-0.1-0.1-0.1-0.2c0.1,0,0.2,0,0.3,0c0.4,0,0.8,0.1,1.3,0c0.4,0,0.7,0,1.1-0.1C5,18.6,5.9,18.4,6.7,18 c0.6-0.3,1.2-0.7,1.8-1c0,0,0,0,0,0c-0.2,0-0.4,0-0.5-0.1c-0.6-0.1-1.1-0.3-1.7-0.6c-0.5-0.3-0.9-0.6-1.2-1 c-0.4-0.4-0.6-0.8-0.8-1.2c-0.1-0.1-0.1-0.3-0.2-0.4c0-0.1,0-0.2,0.2-0.2c0.2,0,0.5,0.1,0.7,0.1c0.4,0,0.8,0,1.1-0.1 c-0.2,0-0.4-0.1-0.6-0.2C5.2,13.2,5,13.1,4.8,13c-0.2-0.1-0.4-0.2-0.6-0.4c-0.6-0.4-1-1-1.4-1.6c-0.3-0.5-0.5-1.1-0.5-1.7 c0-0.2,0-0.4,0-0.6c0-0.1,0.1-0.2,0.2-0.1C3,9,3.6,9.1,4.2,9.2c0.1,0,0.1,0,0.2,0C4.2,9.1,4,8.9,3.8,8.7C3.4,8.4,3.1,7.9,2.9,7.5 C2.6,6.9,2.4,6.4,2.4,5.8c-0.1-0.7,0-1.4,0.2-2.1C2.7,3.4,2.8,3.2,2.9,3C3,2.8,3.1,2.8,3.2,3c0.2,0.2,0.4,0.5,0.6,0.7 c0.4,0.4,0.9,0.8,1.4,1.2c0.6,0.5,1.2,0.9,1.9,1.2c0.8,0.5,1.7,0.8,2.6,1.1c0.8,0.2,1.6,0.4,2.5,0.5c0.3,0,0.6,0.1,0.9,0.1 c0.1,0,0.1,0,0.1-0.1c0-0.2-0.1-0.3-0.1-0.5c0-0.3,0-0.5,0-0.8c0-0.3,0.1-0.6,0.1-0.8c0.2-0.7,0.5-1.3,0.9-1.8c0.5-0.6,1-1,1.7-1.3 C16.2,2.2,16.6,2.1,17,2c0.2,0,0.3,0,0.5,0c0,0,0,0,0,0c0,0,0.1,0,0.1,0c0,0,0.1,0,0.1,0c0.2,0,0.4,0,0.7,0c0.1,0,0.3,0,0.4,0 c0.4,0,0.7,0.2,1,0.3c0.5,0.2,1,0.5,1.4,0.8c0.1,0.1,0.2,0.2,0.2,0.2c0.1,0.1,0.1,0.1,0.2,0.1c0.6-0.1,1.2-0.3,1.8-0.5 c0.4-0.2,0.7-0.3,1.1-0.5c0,0,0.1,0,0.1,0c0,0,0,0.1,0,0.1c-0.1,0.3-0.2,0.6-0.4,0.9c-0.2,0.4-0.5,0.8-0.9,1.1 c-0.2,0.2-0.4,0.4-0.6,0.5l0,0c0.4-0.1,0.7-0.1,1.1-0.2c0.5-0.1,0.9-0.3,1.3-0.4C25.3,4.2,25.3,4.2,25.4,4.2z"></path> </svg> 