<?xml version="1.0" encoding="utf-8"?>
<!-- Generator: Adobe Illustrator 26.0.1, SVG Export Plug-In . SVG Version: 6.00 Build 0)  -->
<svg version="1.1" id="outline" xmlns="http://www.w3.org/2000/svg" xmlns:xlink="http://www.w3.org/1999/xlink" x="0px" y="0px"
	 viewBox="0 0 512 512" style="enable-background:new 0 0 512 512;" xml:space="preserve">
<style type="text/css">
	.st0{fill:#444444;}
	.st1{fill:#FD8500;}
</style>
<path class="st0" d="M509.7,407.8L399.3,297.4c0.5-0.4,1.1-0.8,1.7-1.2l29.4-15.7c15.6-8.2,21.9-27.4,14.1-43.3l-14.7-30
	c-2.3-4.6-2.3-10.1,0-14.7l14.7-30c7.8-15.9,1.6-35.1-14.1-43.3l-29.5-15.6c-4.6-2.4-7.8-6.8-8.6-11.9L386.6,59
	c-3-17.4-19.3-29.3-36.8-26.8l-33,4.7c-5.1,0.7-10.3-1-14-4.5l-24-23.2c-12.7-12.3-32.8-12.3-45.5,0l-24,23.2
	c-3.7,3.6-8.9,5.2-14,4.5l-33-4.7c-17.5-2.5-33.8,9.3-36.8,26.8l-5.8,32.9c-0.9,5.1-4.1,9.5-8.6,11.9l-29.4,15.6
	c-15.6,8.2-21.9,27.4-14.1,43.3l14.7,30c2.3,4.6,2.3,10.1,0,14.7l-14.7,30c-7.8,15.9-1.6,35.1,14.1,43.3l29.5,15.6
	c0.6,0.4,1.2,0.7,1.7,1.2L2.4,407.8c-3.1,3.1-3.1,8.2,0,11.3c1.1,1.1,2.4,1.8,3.9,2.1l68.7,15.8l15.8,68.7c1,4.3,5.3,7,9.6,6
	c1.5-0.3,2.8-1.1,3.9-2.1l123.9-123.9l5.2,5c12.7,12.3,32.8,12.3,45.5,0l5.2-5l123.9,123.9c3.1,3.1,8.2,3.1,11.3,0
	c1.1-1.1,1.8-2.4,2.1-3.9l15.8-68.7l68.7-15.8c4.3-1,7-5.3,6-9.6C511.5,410.2,510.7,408.9,509.7,407.8L509.7,407.8z M103.1,488.1
	l-13.7-59.5c-0.7-3-3-5.3-6-6l-59.5-13.7l96.6-96.6l5,28.6c3,17.4,19.3,29.3,36.8,26.8l33-4.7c5.1-0.7,10.3,1,14,4.5l7.3,7
	L103.1,488.1z M244.4,379.3l-10.8-10.4l-13.2-12.8c-6.1-5.9-14.2-9.2-22.7-9.2c-1.6,0-3.1,0.1-4.6,0.3l-33.1,4.7
	c-8.9,1.3-17.3-4.8-18.8-13.7l-5.8-32.9c-0.7-3.7-2.1-7.3-4-10.6c-0.2-0.4-0.4-0.8-0.6-1.1c-3-4.9-7.2-8.8-12.2-11.6l-29.5-15.6
	c-8-4.2-11.2-14-7.2-22.1l14.7-30c4.5-9.1,4.5-19.7,0-28.8l-14.7-30c-4-8.1-0.8-17.9,7.2-22.1l29.5-15.6
	c8.9-4.7,15.2-13.3,16.9-23.2l5.8-32.9c1.5-8.9,9.8-15,18.8-13.7l33,4.7c10,1.4,20.1-1.8,27.3-8.9l24-23.2c6.5-6.3,16.8-6.3,23.2,0
	l24,23.2c7.2,7,17.3,10.3,27.3,8.9l33.1-4.7c8.9-1.3,17.3,4.8,18.8,13.7l5.8,32.9c1.7,10,8,18.5,16.9,23.2l29.5,15.6
	c8,4.2,11.2,14,7.2,22.1l-14.7,30c-4.5,9.1-4.5,19.7,0,28.8l14.7,30c4,8.1,0.8,17.9-7.2,22.1l-29.5,15.6
	c-8.9,4.7-15.2,13.3-16.9,23.2l-5.8,32.9c-1.5,8.9-9.8,15-18.8,13.7l-33.1-4.7c-10-1.4-20.1,1.8-27.3,8.9l-24,23.2
	C261.1,385.6,250.8,385.6,244.4,379.3L244.4,379.3z M428.7,422.7c-3,0.7-5.3,3-6,6l-13.7,59.5L295.4,374.6l7.3-7
	c3.7-3.6,8.9-5.2,14-4.5l33,4.7c17.5,2.5,33.8-9.3,36.8-26.8l5-28.6l96.6,96.6L428.7,422.7z"/>
<path class="st1" d="M376,200c0-28.7-10.3-56.5-29.1-78.3c-2.6-3.5-7.7-4.3-11.2-1.6c-3.5,2.6-4.3,7.7-1.6,11.2
	c0.2,0.3,0.4,0.6,0.7,0.8c37.4,43.5,32.5,109.1-11.1,146.5s-109.1,32.5-146.5-11.1s-32.5-109.1,11.1-146.5
	c35.4-30.4,86.7-33.5,125.5-7.6c3.6,2.6,8.6,1.7,11.2-1.9c2.6-3.6,1.7-8.6-1.9-11.2c-0.1-0.1-0.3-0.2-0.4-0.3
	c-55.1-36.9-129.6-22.1-166.5,33s-22.1,129.6,33,166.5s129.6,22.1,166.5-33C368.9,247,376,223.8,376,200z"/>
<path class="st1" d="M302.2,162.5l-62.3,65.6l-29.9-34c-2.7-3.5-7.8-4.1-11.2-1.4c-3.5,2.7-4.1,7.8-1.4,11.2
	c0.2,0.2,0.4,0.5,0.6,0.7l35.6,40.6c1.5,1.7,3.6,2.7,5.9,2.7h0.2c2.2,0,4.3-0.9,5.8-2.5l68.4-72c3.1-3.1,3.2-8.2,0.1-11.3
	c-3.1-3.1-8.2-3.2-11.3-0.1C302.4,162.2,302.3,162.4,302.2,162.5L302.2,162.5z"/>
</svg>
