<?xml version="1.0" encoding="utf-8"?>
<!-- Generator: Adobe Illustrator 26.0.1, SVG Export Plug-In . SVG Version: 6.00 Build 0)  -->
<svg version="1.1" id="Layer_1" xmlns="http://www.w3.org/2000/svg" xmlns:xlink="http://www.w3.org/1999/xlink" x="0px" y="0px"
	 viewBox="0 0 639 639" style="enable-background:new 0 0 639 639;" xml:space="preserve">
<style type="text/css">
	.st0{fill:#FD8500;}
	.st1{fill:#444444;}
</style>
<path class="st0" d="M559.1,348.5v-20c5.5,0,10-4.5,10-10v-59.9c0-5.5-4.5-10-10-10h-53.9l-1.9-7.5c-4.4-17.2-11.3-33.6-20.4-48.8
	l-4-6.7l38.3-38.3c3.9-3.9,3.9-10.1,0-14l-42.4-42.5c-3.9-3.7-10.1-3.7-14,0l-38.4,38.4l-6.7-4c-15.2-9.1-31.7-16-48.8-20.4l-7.5-2
	v-54c0-5.5-4.5-10-10-10h-59.9c-5.5,0-10,4.5-10,10v53.9l-7.5,1.9c-17.2,4.4-33.6,11.3-48.8,20.4l-6.7,4l-38.3-38.3
	c-3.9-3.8-10.1-3.8-14,0l-42.4,42.4c-1.9,1.9-2.9,4.4-2.9,7c0,2.6,1,5.2,2.9,7l38.4,38.3l-4,6.7c-9.1,15.2-16,31.6-20.4,48.8l-2,7.5
	h-54c-5.5,0-10,4.5-10,10v59.9c0,5.5,4.5,10,10,10v20c-16.5,0-30-13.4-30-30v-59.9c0-16.5,13.4-30,30-30h38.6
	c4.1-13.8,9.7-27.1,16.6-39.8l-27.5-27.5c-5.6-5.6-8.8-13.2-8.8-21.1c0-7.9,3.2-15.5,8.8-21.1l42.4-42.4c11.8-11.3,30.5-11.3,42.3,0
	l27.4,27.4c12.6-6.9,26-12.5,39.8-16.6V48.9c0-16.5,13.4-30,30-30h59.9c16.5,0,30,13.4,30,30v38.6c13.8,4.1,27.1,9.7,39.8,16.6
	l27.5-27.5c11.8-11.3,30.5-11.3,42.3,0l42.4,42.4c5.6,5.6,8.8,13.2,8.8,21.1c0,7.9-3.2,15.5-8.8,21.1l-27.5,27.5
	c6.9,12.6,12.5,26,16.6,39.8h38.6c16.5,0,30,13.4,30,30v59.9C589.1,335,575.7,348.5,559.1,348.5z"/>
<path class="st0" d="M459.3,288.5h-20c0-66.2-53.6-119.8-119.8-119.8s-119.8,53.6-119.8,119.8h-20c0-77.2,62.6-139.8,139.8-139.8
	C396.7,148.8,459.3,211.3,459.3,288.5z"/>
<path class="st1" d="M319.5,368.4c-33.1,0-59.9-26.8-59.9-59.9c0-33.1,26.8-59.9,59.9-59.9c33.1,0,59.9,26.8,59.9,59.9
	C379.4,341.6,352.6,368.4,319.5,368.4z M319.5,268.6c-22.1,0-39.9,17.9-39.9,39.9s17.9,39.9,39.9,39.9c22.1,0,39.9-17.9,39.9-39.9
	S341.6,268.6,319.5,268.6z"/>
<path class="st1" d="M489.2,408.4c-33.1,0-59.9-26.8-59.9-59.9c0-33.1,26.8-59.9,59.9-59.9s59.9,26.8,59.9,59.9
	C549.1,381.5,522.3,408.3,489.2,408.4z M489.2,308.5c-22.1,0-39.9,17.9-39.9,39.9s17.9,39.9,39.9,39.9s39.9-17.9,39.9-39.9
	S511.3,308.5,489.2,308.5z"/>
<path class="st1" d="M149.8,408.4c-33.1,0-59.9-26.8-59.9-59.9c0-33.1,26.8-59.9,59.9-59.9c33.1,0,59.9,26.8,59.9,59.9
	C209.6,381.5,182.8,408.3,149.8,408.4z M149.8,308.5c-22.1,0-39.9,17.9-39.9,39.9s17.9,39.9,39.9,39.9s39.9-17.9,39.9-39.9
	S171.8,308.5,149.8,308.5z"/>
<path class="st1" d="M579.7,434c-14.9-10.2-32.5-15.7-50.6-15.6h-79.9c-4.9,0-9.7,0.5-14.5,1.3c-6.4-10-14.7-18.6-24.5-25.4
	c-1.5-1.1-3-2.1-4.6-3c-14-8.5-30-12.9-46.3-12.9h-79.9c-30.5-0.1-59,15.5-75.3,41.3c-4.8-0.8-9.7-1.3-14.5-1.3h-79.9
	c-18-0.1-35.7,5.4-50.5,15.6C34.7,450.7,20,478.5,20,508.2v39.9c0,27.3,15.9,52,40.7,63.4c9.1,4.3,19.1,6.5,29.2,6.5h99.8v-20H99.8
	V488.2h-20v108.8c-3.8-0.8-7.4-2-10.9-3.6c-17.7-8.2-29-25.8-29.1-45.3v-39.9c0-23.1,11.5-44.8,30.6-57.8
	c11.6-7.9,25.3-12.2,39.3-12.1h79.9c1.8,0,3.5,0.2,5.2,0.3c-3.4,9.5-5.1,19.5-5.2,29.6v99.8c0,27.6,22.4,49.9,49.9,49.9h30V458.3
	h-20v139.8h-10c-16.5,0-30-13.4-30-30v-99.8c0-38.6,31.3-69.9,69.9-69.9h79.9c12.8,0,25.4,3.6,36.4,10.3c1,0.6,2,1.2,2.9,1.9
	c9.4,6.4,17,15,22.4,25c5.4,10.1,8.2,21.4,8.2,32.8v99.8c0,16.5-13.4,30-30,30h-10V458.3h-20V618h30c27.6,0,49.9-22.4,49.9-49.9
	v-99.8c0-10.1-1.8-20.1-5.2-29.6c1.7-0.1,3.4-0.3,5.2-0.3h79.9c14,0,27.7,4.2,39.3,12.1c19.1,13,30.6,34.6,30.6,57.8v39.9
	c0,19.5-11.5,37.3-29.2,45.4c-3.4,1.6-7,2.8-10.7,3.5V488.2h-20v109.8h-89.9v20h99.8c10,0.1,20-2.1,29.1-6.4
	c24.8-11.4,40.8-36.2,40.8-63.5v-39.9C619,478.5,604.3,450.7,579.7,434z"/>
<path class="st1" d="M279.6,598.1h79.9v20h-79.9V598.1z"/>
</svg>
