<?xml version="1.0" encoding="utf-8"?>
<!-- Generator: Adobe Illustrator 26.0.1, SVG Export Plug-In . SVG Version: 6.00 Build 0)  -->
<svg version="1.1" id="svg315" xmlns="http://www.w3.org/2000/svg" xmlns:xlink="http://www.w3.org/1999/xlink" x="0px" y="0px"
	 viewBox="0 0 682.7 682.7" style="enable-background:new 0 0 682.7 682.7;" xml:space="preserve">
<style type="text/css">
	.st0{fill:#FD8500;}
	.st1{fill:none;stroke:#444444;stroke-width:26.6667;stroke-linecap:round;stroke-linejoin:round;stroke-miterlimit:5.3333;}
	.st2{fill:none;stroke:#FD8500;stroke-width:26.6667;stroke-linecap:round;stroke-linejoin:round;stroke-miterlimit:5.3333;}
</style>
<g id="g331" transform="translate(201.3604,314.4302)">
	<path id="path333" class="st0" d="M67.1-51c-2.1-1.3-4.5-2.1-7.1-2.1c-7.4,0-13.3,6-13.3,13.3c0,3.5,1.3,6.7,3.5,9.1
		c2.4,2.6,5.9,4.3,9.8,4.3c7.4,0,13.3-6,13.3-13.3C73.3-44.5,70.8-48.6,67.1-51"/>
</g>
<g id="g335" transform="translate(256,502)">
	<path id="path337" class="st1" d="M85.3-488.7v88"/>
</g>
<g id="g339" transform="translate(256,76)">
	<path id="path341" class="st1" d="M85.3,505.3v88"/>
</g>
<g id="g343" transform="translate(66.29,425.71)">
	<path id="path345" class="st1" d="M22.1-310.7l56.6,56.6"/>
</g>
<g id="g347" transform="translate(403.2803,118.7202)">
	<path id="path349" class="st1" d="M134.4,405.7l56.6,56.6"/>
</g>
<g id="g351" transform="translate(445.71,425.71)">
	<path id="path353" class="st1" d="M148.6-310.7L92-254.1"/>
</g>
<g id="g355" transform="translate(108.7197,118.7202)">
	<path id="path357" class="st1" d="M36.2,405.7l-56.6,56.6"/>
</g>
<g id="g359" transform="translate(476,256)">
	<path id="path361" class="st1" d="M158.7,85.3c0,0-116.6,173.3-293.3,173.3S-428,85.3-428,85.3S-311.4-88-134.7-88
		S158.7,85.3,158.7,85.3z"/>
</g>
<g id="g363" transform="translate(227.4102,330.7402)">
	<path id="path365" class="st2" d="M75.8-89.1c0.5-0.2,1-0.4,1.4-0.5c0.5-0.2,1.1-0.4,1.6-0.6c0.5-0.2,1-0.3,1.5-0.5
		c0.6-0.2,1.3-0.4,1.9-0.6c0.8-0.3,1.7-0.5,2.5-0.7c0.8-0.2,1.6-0.5,2.5-0.7c0.9-0.2,1.8-0.4,2.6-0.6c0.8-0.2,1.6-0.4,2.5-0.5
		c0.7-0.1,1.3-0.3,2-0.4c0.6-0.1,1.2-0.2,1.8-0.3c0.3-0.1,0.7-0.1,1-0.2c0.6-0.1,1.2-0.2,1.8-0.3c0.2,0,0.3-0.1,0.5-0.1
		c0.5-0.1,1-0.1,1.5-0.2c0.6-0.1,1.1-0.1,1.7-0.2l0.8-0.1c0.6-0.1,1.2-0.1,1.7-0.2c0.3,0,0.6-0.1,0.9-0.1c0.4,0,0.8-0.1,1.2-0.1
		c0.6,0,1.2-0.1,1.7-0.1c0.7,0,1.5-0.1,2.3-0.1c0.9,0,1.8,0,2.8,0c58.9,0,106.7,47.8,106.7,106.7c0,18.4-4.7,35.7-12.9,50.8
		c-0.8,1.5-1.7,3-2.5,4.4c-0.5,0.8-0.9,1.5-1.4,2.2c-0.9,1.3-1.7,2.6-2.6,3.9c-0.1,0.1-0.2,0.3-0.3,0.4c-1.9,2.7-4,5.4-6.2,7.9
		c-1.7,1.9-3.4,3.8-5.2,5.6c-1.6,1.6-3.3,3.2-5.1,4.8c-7.3,6.4-15.5,11.9-24.4,16.1c-1.5,0.7-2.9,1.4-4.5,2
		c-3.2,1.3-6.5,2.5-9.8,3.6c-3.3,1-6.7,1.9-10.2,2.6c-6.9,1.4-14.1,2.2-21.5,2.2C55,117.3,7.3,69.5,7.3,10.6c0-0.9,0-1.8,0-2.7
		c0-0.7,0-1.5,0.1-2.2c0-0.7,0.1-1.4,0.1-2.1c0-0.2,0-0.4,0-0.6C7.6,2.3,7.6,1.7,7.7,1c0-0.2,0-0.3,0-0.5C7.8-0.2,7.9-1,8-1.7v0
		c0.1-0.8,0.2-1.6,0.3-2.4c0.1-0.6,0.2-1.2,0.3-1.8c0.1-0.8,0.2-1.6,0.4-2.4C8.9-8.5,9-8.7,9-8.9"/>
</g>
<g id="g367" transform="translate(256,226)">
	<path id="path369" class="st2" d="M85.3,155.3c-22.1,0-40-17.9-40-40s17.9-40,40-40s40,17.9,40,40S107.4,155.3,85.3,155.3z"/>
</g>
</svg>
