<svg fill="none" height="532" viewBox="0 0 20 532" width="20" xmlns="http://www.w3.org/2000/svg"
     xmlns:xlink="http://www.w3.org/1999/xlink">
    <clipPath id="a">
        <path d="m0 0h532v20h-532z" transform="matrix(-.00000004 -1 -1 .00000004 20 532)"/>
    </clipPath>
    <g clip-path="url(#a)" fill="#fff">
        <path
            d="m14.0874 498.801c-.2897.258-.4655-.237-.3899-1.101.0755-.865.2358-1.66.3568-1.768s.2963.388.39 1.102c.0937.713-.0671 1.509-.3569 1.767z"/>
        <path clip-rule="evenodd"
              d="m20.0005 532v-532l-.5586.00000016c-.1089.42925984-.1463.86773684-.079 1.26208984.0258.15191.0401.30871.0436.46661-.252.49438-.4896 1.20788-.6975 2.03387-.4729.38849-.7945.30756-.7203-.19323.0763-.51526-.1235-1.23096-.4439-1.59143-.2172-.24427-.4442.39276-.5984 1.53369-.1032-1.36243-.0988-2.560306.072-3.200504.0304-.113891.0531-.217773.0685-.31109574l-.7038.00000003c-.3826 1.09466971-.6563 4.12176971-.8167 8.99853971-.1677.22656-1.173 2.18826-1.1144 4.93086-.0382 2.502.9437 5.3226-1.0541 8.4555.0027 4.3812-.0878 8.3746-.2022 8.875-.114.5002-.1766 2.1865-.1395 3.7474.0114.4822.0195 1.0589.0241 1.6715l-.45 2.2659-.1521-9.1765-.5848 3.6051c-.3222 1.9834-.7824 3.605-1.0236 3.605-.2411 0-.5173 3.6864-.614 8.1933-.0588 2.7447-.33135 6.8006-.66621 11.0271-.33471 1.1613-.69148 4.2135-.80429 6.9165-.11634 2.7881-1.39389 6.1078-1.6164 7.3772-.42517 2.42-.70797 7.398-.96386 16.9319-.04002 1.4815.08912 3.0618.28627 3.5114.19694.45.07891 1.0114-.26281 1.2478-.3424.2363-.33233.6993.02171 1.0288.4316.4017.55355.3132.36988-.2678-.1922-.6111-.00701-.6979.62559-.2936.06844.0437.13632.0806.20301.1106.01077.8359.02147 1.6913.0321 2.5643-.40948.0943-.76113.2474-.80319.3543-.0453.1151.16501.4395.46736.721.1085.101.23014.1441.35039.1352.01808 1.523.03592 3.0949.0534 4.7057-.01514.039-.0299.079-.04418.122-.16657.493-.1418.709.05213.615l.01516 1.432c-.3316.248-.76408.273-1.01281.042-.58461-.544-.81595-.259-.36052.442.40935.632.97471.759 1.38268.418l.00699.684c-.18764.165-.37464.281-.55327.329-1.2022.325-1.3234.738-1.25967 4.292.06435 3.562-.03277 4.596-.6539 6.947-.10681.407.16835.666.61242.576.46212-.094.49039.155.06548.584-.98579.993-2.05527.676-1.60228-.475.19759-.502.1203-.814-.17181-.692-.29278.122-.53042.81-.52935 1.528.00198.971.41182 1.326 1.59009 1.383 1.48486.071 1.48935.103.0596.505-1.01856.286-1.32487.617-.91866.996.4413.411.30544.724-.49516 1.137-.79388.41-.8884.626-.33716.765.42146.107.61498.579.43012 1.049-.21161.538.03994.782.67955.659.63465-.122.50534.075-.34642.525-1.12348.595-1.23417.84-.62994 1.402.40229.375.38758 1.029-.03312 1.453-.42092.424-.50383.837-.18415.918.74592.189.37661 5.398-.42284 5.95-.33255.23-.2894.499.09722.597.38594.097.40654.474.04649.838-.36005.363-.38735 1.102-.05972 1.642.83345 1.373.02698 4.422-.93755 3.546-.58043-.527-.62014-.449-.20368.401.28448.581.25145 1.167-.07391 1.302-.32536.136-.30997.318.03409.406.34495.087.34175.968-.00569 1.957-.63426 1.802-.855189 5.316-1.315151 20.911-.135656 4.606-.319885 9.517-.4096234 10.913-.0897369 1.396.1831664 2.468.6060254 2.382.424439-.086.428719.187.009566.609-.424692.428-.391953 1.408.073183 2.223.45762.801.71706 1.535.57598 1.63-.14107.095-.29315.367-.339204.604s-.294443.828-.552862 1.313c-.257951.485-.212978 1.121.100445 1.413.347828.324.568961.108.568751-.556-.00072-.975.05662-.974.56598.015.31237.605.96116 1.094 1.44265 1.086.4815-.007.97975.317 1.10712.72.13033.415-.15172.588-.65162.398-1.79393-.681-3.330164-.795-3.5398331-.263-.118639.302.2453671.665.8089031.808.56354.143.84985.69.63687 1.216-.33158.818-.4377.812-.726752-.033-.642014-1.877-.915932.309-.526768 4.2.209267 2.093.251647 4.132.094178 4.532-.157683.401-.007769.799.332401.885.340855.086.236811.644-.230774 1.241-.578745.737-.550882 1.023.085203.894.608112-.123.673872.074.188095.564-.411605.414-.51263 1.217-.225273 1.782.286675.566.250683.968-.081073.895-.3308604-.073-.147906.38.406641 1.007.555442.627.812462 1.091.572012 1.03-.24044-.061-.31981.931-.17705 2.204.14276 1.272.06053 3.896-.184411 5.829-.337841 2.677-.16374 3.565.730901 3.725.84896.153.91037.348.2219.704-.65147.336-.77921.762-.40392 1.341.30239.466.29689.784-.01186.705-.30943-.078-.32526.325-.03531.896.28995.57.29803.979.01797.908s-.27858.324.00288.878c.28078.554.15581 1.269-.27762 1.587-.434326.319-.449102.454-.03415.301.41516-.154.901.344 1.07968 1.108.21186.907.57522 1.214 1.0488.887.39759-.275.36506-.591-.07279-.702s-.48995-.511-.11433-.889c.37494-.378.37789-1.065.00762-1.527-.37605-.469-.30435-1.311.16168-1.905.53367-.681.52141-1.003-.033-.89-.55667.113-.56357-.213-.01797-.908.61696-.787.56893-1.028-.17547-.877-.79201.161-.76544.004.11666-.688.7777-.609.99143-1.131.66708-1.632-.32436-.5-.10508-.754.68437-.792.83246-.04.94318.163.39032.721-.48222.486-.44177.71.10835.598.56501-.114.58522.231.05612.97-.67197.939-.62365 1.033.26424.52.84935-.492.84914-.308-.00053.843-.76631 1.037-.81362 1.416-.16129 1.284.59593-.121.66172.078.18461.559-.40826.412-.41129.832-.00691.934.4037.102.41179.511.01798.909-.39471.397-.34406.816.11224.932.46858.119.50673.535.08735.958-.40758.411-.46028.69-.11662.62.34365-.069.8556.718 1.13677 1.75.35279 1.296.23465 1.932-.38338 2.058-.57404.116-.59565-.025-.05904-.396.55649-.385.51658-.513-.12108-.383-.52576.106-.8674.472-.75983.814.10756.341.50716.557.88896.48.38134-.078.60459.649.49684 1.615-.10821.966.06748 2.003.39061 2.304.39144.364.62667.024.70501-1.02.12529-1.672 1.49913-1.91 1.62151-.282.03235.425.34789.859.74466 1.062-.011 1.222-.0249 2.29-.037 3.222-.0469 3.617-.067 5.172.2119 5.569.684.973.6974 1.234.0647 1.25-.51642.012-.61696.343-.3267 1.27-.30927-.201-.78156-.346-1.27028-.366-1.15497-.046-.35734-.588-.18053-3.159.1816-2.65-.92991-2.928-1.76441-1.903l.02215 1.199-.53928-1.389c.25357-.765.28528-1.842.07048-2.393-.52532-1.349-1.0596 2.3-.75741 5.174.12238 1.159.02451 2.19-.21705 2.29-.24087.101-.60149-1.134-.80144-2.745-.21064-1.703.27476-2.854-.22978-2.751-.59096.119-.71568.629-.3932 1.596.77535 2.318-.02689 6.669-.7045 6.498-.34495-.088-.59779-.627-.56242-1.198.04361-.692-.13374-.587-.53406.317-.32939.745-.49003 3.688-.35637 6.539s.19344 5.782.13268 6.512c-.06144.731.16085 1.397.49282 1.481.33129.084.47581.324.32047.533-.45216.609.78358 7.728 1.60211 9.228.44925.825.43735 1.093-.02987.677-.52949-.471-.58759-.041-.18386 1.357.32471 1.125.8319 2.108 1.12699 2.182.2944.075.43803.384.31874.687s.03875 1.97.35196 3.705c.3507 1.947.26416 3.081-.22687 2.962-.43752-.106-.14988.314.63943.933.78909.619 1.34533 1.366 1.23561 1.66-.10883.294-.07856.897.06863 1.339.1465.443.05223 1.759-.21015 2.926-.26215 1.166-.22506 2.606.08304 3.201.46237.892 1.1455 6.496.91408 7.499-.05214.225.007.864.15349 1.802.38547 10.018.86006 22.702 1.29682 35.184-.13505 1.649-.25092 4.432-.29795 7.508-.07387 4.788-.35803 8.573-.63129 8.411s-.15203 1.091.27008 2.784c.44383 1.782.61943 4.092.41669 5.483-.19279 1.322-.126 2.884.14853 3.471.27462.587.20182 1.333-.16111 1.657-.36344.324.26564 4.57.17569 9.436-.09042 4.865-.37029 9.725-.62189 10.798-.25161 1.074-.37682 3.791-.27836 6.039.09846 2.249-.00382 4.251-.22685 4.45s-.23378 1.675-.02332 3.281c.49621 3.794.4069 16.665-.11884 17.134-.22351.199-.10165 1.783.27063 3.52.47703 2.225.4639 3.146-.04402 3.119-.39663-.021-.7514-.795-.78849-1.717-.03733-.923-.25169-1.094-.47663-.38-.22446.713-.20918 1.722.03391 2.243.61815 1.322 2.7945 2.139 2.5491.957-.51427-2.479-.68867-5.987-.2715-5.453.5861.748 1.1387-10.171.5757-11.375-.2282-.488-.2321-1.051-.009-1.25.6462-.576.7603-9.131.1398-10.458-.3528-.755-.3033-1.051.133-.791.383.226.6109-.241.506-1.038-.1048-.798.1099-1.272.4772-1.055.4789.284.5354.815.1993 1.881-.6126 1.945-.3959 3.379.6062 4.004.6.375.5542.751-.1782 1.459-.8785.849-.8249 1.028.4859 1.636.289.133.5749.209.8298.229-.0335.657-.0772 1.29-.1282 1.87-.4754-.673-.9826-.984-1.2383-.706-.4205.458-.3851.66.1277.731 1.0936.154 1.1356 2.387.0461 2.468-.7404.054-.6817.255.2531.868.089.058.1794.112.27.161-.0752 1.444 1.0619 4.853 1.3241 9.197-.1457.216-.3283.43-.5485.645-.7374.72-1.0217 1.355-.632 1.409.7855.11 1.4317 3.56.7765 4.144-.2285.204-.1885 2.096.0886 4.205s.6489 3.373.8265 2.81c.1775-.562.3066.124.2871 1.525-.0323 2.274-.1284 2.291-.8903.158-.8526-2.387-.854-2.384-1.0815 1.573-.1257 2.18.9631 4.372 1.1961 4.871.2337.5 1.3305 2.139 1.215 3.643-.1651 2.147-.2698 2.32-.4863.807-.1515-1.06-.4437 1.157-.6482 4.926.7542 4.517-.1524 7.019.2748 7.341.4376.329.4631.658.08 1.016-.7305.679-2.3842 13.424-1.6879 13.411.7356-.015-.5955 7.151-1.3622 7.835-.6363.568-1.70149 7.132-1.0992 10.015.1894.908-.94179 1.48-1.29218 1.272-.39998-.237-.40571.342-.01639 1.557.42099 1.311.39384 1.799-.08518 1.515-.40045-.237-.61274.318-.49103 1.287.11772.938-.19263 3.699-.68964 6.135-.497 2.436-.86045 3.738-.80831 2.894.15315-2.458.22295-7.291.13269-9.175-.14495-3.013-.45793-1.568-.74257 3.424-.26323 4.626-.4869 6.606-1.32681 11.767-.21069 1.296-.40547 4.055-.43182 6.132-.02953 2.281-.43444 4.119-1.02338 4.644-1.20535 1.075-2.28097 6.757-1.09942 7.494.95716.597.55599 1.184-.72561 1.06-.48825-.046-.82217-.89-.74137-1.875.08517-1.041-.09433-.789-.428956.6-.205122.854-.285276 2.166-.236324 3.426zm-12.5998-442.802-.0126-.8818c-.04767.0944-.09343.2043-.13516.3276-.19087.5649-.1305.7668.14776.5542zm.29926 27.972-.00304-.366-.01069.007c-.41129.284-.3994.423.01373.359zm4.12834 111.259c-.4072-.832-.4421-.997-.0269-.665-.0211-.337-1.053-.636-1.0956-.873-.1596-.887-.2802.156-.2686 2.319.0117 2.163 1.1422 2.889 1.2901 1.614.0839-.723.1171-1.605.101-2.395zm-8.01652-41.497c.11864-.301-.03171-.778-.33406-1.06-.30235-.281-.64684-.265-.76548.037-.11864.301.03171.778.33406 1.059.30235.282.64684.266.76548-.036zm.17304 6c.50821.128.47853-2.289-.03432-2.766-.56569-.527-.57015-.512-.3977 1.3.07334.764.2674 1.424.43202 1.466zm.90414 1.544c.29814-.206.09455-.488-.45259-.627-1.15166-.291-1.32024-.144-.60107.525.28135.263.75551.308 1.05366.102zm-.48181 22.782c.35294-.345.51451-.824.35934-1.064-.15516-.239-.44364.043-.64162.629-.21852.646-.10775.817.28228.435zm4.29011-2.66c.11498-.293-.25205-.648-.81559-.791-.56353-.143-1.06279-.163-1.10938-.044-.04659.118.32043.474.81559.79.49537.316.99463.336 1.10938.045zm-.36813-2.153c-.03983-.525-.19324-.984-.34078-1.022-.5533-.14-.65364.983-.13065 1.47.31112.289.51238.099.47143-.448zm5.87457 279.824c.3357-.73.5545-.69.4864.091-.0344.394-.0044.753.0714 1.012v4.44l-.0216.1c-.4919 2.263-1.0568 3.907-1.2553 3.654-.5346-.682.0124-7.758.7191-9.297zm-3.8768-101.755c-.3125 3.405.0368 4.628.6163 2.155.2918-1.246.317-2.722.0557-3.28-.2886-.618-.552-.176-.672 1.125zm3.2547 46.328c-.2159.685.7023 1.938.8179 2.784.127.924.3016.589.4378-.838.2909-3.044-.7681-3.492-1.2557-1.946zm3.372 12.153c-.2159.686-.2977 1.938-.1821 2.784.127.924.3016.589.4377-.838.291-3.043.232-3.492-.2556-1.946zm-5.772 67.838c-.3671.8-.5067 1.659-.3102 1.91.1962.25.205 1.629.0193 3.064-.2073 1.598.9663 1.267 1.4485-.854.9066-3.988-.1802-6.248-1.1576-4.12zm1.3749-30.288c.0177-1.253 1.1203-2.356 1.2279-2.452.4032-.36.5015 2.315.1281 3.498-.2221.706-1.3741.26-1.356-1.046zm-5.82565 21.508c-.36718.8-.52415 1.637-.34903 1.861.17503.223.50711-.192.73699-.923.62651-1.987.37403-2.597-.38796-.938zm9.72085-31.578c-.6293.561-.9776-2.089-.6818-5.189.1767-1.851.3323-1.59.7035 1.184.2616 1.958.2521 3.76-.0217 4.005z"
              fill-rule="evenodd"/>
        <path
            d="m3.40395 235.5c.16682.53.46363.315.82321-.599.62772-1.595.50631-2.834-.44414-1.876-.35229.355-.52334 2.019-.37907 2.475z"/>
    </g>
</svg>
