<?xml version="1.0" encoding="utf-8"?>
<!-- Generator: Adobe Illustrator 21.1.0, SVG Export Plug-In . SVG Version: 6.00 Build 0)  -->
<svg version="1.1" id="Layer_1" xmlns="http://www.w3.org/2000/svg" xmlns:xlink="http://www.w3.org/1999/xlink" x="0px" y="0px"
	 viewBox="0 0 36.5 26.7" style="enable-background:new 0 0 36.5 26.7;" xml:space="preserve">
<style type="text/css">
	.st0{fill:#08cf65;}
</style>
<path class="st0" d="M5.9,12.9c0.1-0.1,0.2-0.2,0.3-0.3c1-1,2-1.9,3.1-2.9c1.7,1.8,3.4,3.7,5.2,5.5c4.1-3.8,8.1-7.6,12.2-11.4
	c0.4,0.4,0.7,0.8,1,1.1c0.7,0.7,1.3,1.4,2,2.1c0.1,0.1,0.1,0.1,0.2,0.2c0,0,0,0,0,0c-0.6,0.6-1.3,1.2-1.9,1.8
	c-4.5,4.2-9.1,8.4-13.6,12.6c0,0-0.1,0.1-0.1,0.1c-0.1-0.1-0.2-0.2-0.3-0.3c-2.7-2.8-5.3-5.7-8-8.5C6,13,5.9,12.9,5.9,12.9
	C5.9,12.9,5.9,12.9,5.9,12.9z"/>
</svg>
