<?xml version="1.0" encoding="utf-8"?>
<!-- Generator: Adobe Illustrator 21.1.0, SVG Export Plug-In . SVG Version: 6.00 Build 0)  -->
<svg version="1.1" id="Layer_1" xmlns="http://www.w3.org/2000/svg" xmlns:xlink="http://www.w3.org/1999/xlink" x="0px" y="0px"
	 viewBox="0 0 32 32.5" style="enable-background:new 0 0 32 32.5;" xml:space="preserve">
<style type="text/css">
	.st0{fill:#D93F3F;}
</style>
<path class="st0" d="M6.8,3.4C6.8,3.4,6.8,3.4,6.8,3.4c0.1,0,0.1,0.1,0.1,0.1c2.9,2.9,5.8,5.8,8.8,8.8c0,0,0.1,0.1,0.1,0.1
	c0.1-0.1,0.1-0.1,0.2-0.1c2.9-2.9,5.8-5.8,8.7-8.7c0,0,0.1-0.1,0.1-0.1c0,0,0,0,0,0c0,0,0.1,0.1,0.1,0.1c1.1,1.1,2.2,2.2,3.2,3.2
	c0,0,0.1,0.1,0.1,0.1c0,0,0,0,0,0c0,0-0.1,0-0.1,0.1c-2.9,2.9-5.8,5.8-8.8,8.8c0,0-0.1,0.1-0.1,0.1c0.1,0.1,0.1,0.1,0.1,0.2
	c2.9,2.9,5.8,5.8,8.7,8.7c0,0,0.1,0.1,0.1,0.1c0,0,0,0,0,0c-0.1,0.1-0.1,0.1-0.2,0.2c-1,1-2.1,2.1-3.1,3.1c-0.1,0.1-0.1,0.1-0.2,0.2
	c-3-3-6-6-9-9c-3,3-6,6-9,9c-1.1-1.1-2.2-2.2-3.3-3.3c-0.1-0.1-0.1-0.1-0.2-0.2c0,0,0,0,0,0c0,0,0.1,0,0.1-0.1
	c2.9-2.9,5.8-5.8,8.8-8.8c0,0,0.1-0.1,0.1-0.1c-0.1-0.1-0.1-0.1-0.1-0.2C9.2,12.8,6.3,9.9,3.4,7c0,0-0.1-0.1-0.1-0.1c0,0,0,0,0,0
	c0,0,0.1-0.1,0.1-0.1c1.1-1.1,2.2-2.2,3.2-3.2C6.7,3.5,6.7,3.4,6.8,3.4z"/>
</svg>
