<?xml version="1.0" encoding="utf-8"?>
<!-- Generator: Adobe Illustrator 27.0.0, SVG Export Plug-In . SVG Version: 6.00 Build 0)  -->
<svg version="1.1" id="Layer_1" xmlns="http://www.w3.org/2000/svg" xmlns:xlink="http://www.w3.org/1999/xlink" x="0px" y="0px"
	 viewBox="0 0 261.08 43.29" style="enable-background:new 0 0 261.08 43.29;" xml:space="preserve">
<style type="text/css">
	.st0{fill:#181f38;}
</style>
<g>
	<g>
		<path class="st0" d="M232.95,36.53c-1.3,0-2.36,1.06-2.36,2.36c0,1.3,1.06,2.36,2.36,2.36c1.3,0,2.36-1.06,2.36-2.36
			C235.31,37.59,234.25,36.53,232.95,36.53z M238.92,30.92c-1.3,0-2.36,1.06-2.36,2.36c0,1.3,1.06,2.36,2.36,2.36
			c1.3,0,2.36-1.06,2.36-2.36C241.28,31.98,240.23,30.92,238.92,30.92z M226.97,30.92c-1.3,0-2.36,1.06-2.36,2.36
			c0,1.3,1.06,2.36,2.36,2.36c1.3,0,2.36-1.06,2.36-2.36C229.34,31.98,228.28,30.92,226.97,30.92z M244.89,25.32
			c-1.3,0-2.36,1.06-2.36,2.36c0,1.3,1.06,2.36,2.36,2.36c1.3,0,2.36-1.06,2.36-2.36C247.26,26.37,246.2,25.32,244.89,25.32z
			 M221,25.32c-1.3,0-2.36,1.06-2.36,2.36c0,1.3,1.06,2.36,2.36,2.36c1.3,0,2.36-1.06,2.36-2.36
			C223.36,26.37,222.31,25.32,221,25.32z M250.87,19.71c-1.3,0-2.36,1.06-2.36,2.36c0,1.3,1.06,2.36,2.36,2.36
			c1.3,0,2.36-1.06,2.36-2.36C253.23,20.77,252.17,19.71,250.87,19.71z M256.84,14.1c-1.3,0-2.36,1.06-2.36,2.36
			c0,1.3,1.06,2.36,2.36,2.36c1.3,0,2.36-1.06,2.36-2.36C259.2,15.16,258.15,14.1,256.84,14.1z M215.03,19.71
			c-1.3,0-2.36,1.06-2.36,2.36c0,1.3,1.06,2.36,2.36,2.36c1.3,0,2.36-1.06,2.36-2.36C217.39,20.77,216.33,19.71,215.03,19.71z
			 M209.05,14.1c-1.3,0-2.36,1.06-2.36,2.36c0,1.3,1.06,2.36,2.36,2.36c1.3,0,2.36-1.06,2.36-2.36
			C211.42,15.16,210.36,14.1,209.05,14.1z M232.95,24.17c-1.3,0-2.36,1.06-2.36,2.36c0,1.3,1.06,2.36,2.36,2.36
			c1.3,0,2.36-1.06,2.36-2.36C235.31,25.23,234.25,24.17,232.95,24.17z M238.92,18.56c-1.3,0-2.36,1.06-2.36,2.36
			c0,1.3,1.06,2.36,2.36,2.36c1.3,0,2.36-1.06,2.36-2.36C241.28,19.62,240.23,18.56,238.92,18.56z M226.97,18.56
			c-1.3,0-2.36,1.06-2.36,2.36c0,1.3,1.06,2.36,2.36,2.36c1.3,0,2.36-1.06,2.36-2.36C229.34,19.62,228.28,18.56,226.97,18.56z
			 M244.89,12.95c-1.3,0-2.36,1.06-2.36,2.36c0,1.3,1.06,2.36,2.36,2.36c1.3,0,2.36-1.06,2.36-2.36
			C247.26,14.01,246.2,12.95,244.89,12.95z M221,12.95c-1.3,0-2.36,1.06-2.36,2.36c0,1.3,1.06,2.36,2.36,2.36
			c1.3,0,2.36-1.06,2.36-2.36C223.36,14.01,222.31,12.95,221,12.95z M250.87,7.34c-1.3,0-2.36,1.06-2.36,2.36
			c0,1.3,1.06,2.36,2.36,2.36c1.3,0,2.36-1.06,2.36-2.36C253.23,8.4,252.17,7.34,250.87,7.34z M256.84,6.46
			c1.3,0,2.36-1.06,2.36-2.36c0-1.3-1.06-2.36-2.36-2.36c-1.3,0-2.36,1.06-2.36,2.36C254.48,5.4,255.54,6.46,256.84,6.46z
			 M215.03,7.34c-1.3,0-2.36,1.06-2.36,2.36c0,1.3,1.06,2.36,2.36,2.36c1.3,0,2.36-1.06,2.36-2.36
			C217.39,8.4,216.33,7.34,215.03,7.34z M209.05,1.74c-1.3,0-2.36,1.06-2.36,2.36c0,1.3,1.06,2.36,2.36,2.36
			c1.3,0,2.36-1.06,2.36-2.36C211.42,2.79,210.36,1.74,209.05,1.74z M129.95,36.53c-1.3,0-2.36,1.06-2.36,2.36
			c0,1.3,1.06,2.36,2.36,2.36c1.3,0,2.36-1.06,2.36-2.36C132.31,37.59,131.25,36.53,129.95,36.53z M135.92,30.92
			c-1.3,0-2.36,1.06-2.36,2.36c0,1.3,1.06,2.36,2.36,2.36c1.3,0,2.36-1.06,2.36-2.36C138.28,31.98,137.23,30.92,135.92,30.92z
			 M123.97,30.92c-1.3,0-2.36,1.06-2.36,2.36c0,1.3,1.06,2.36,2.36,2.36c1.3,0,2.36-1.06,2.36-2.36
			C126.34,31.98,125.28,30.92,123.97,30.92z M141.89,25.32c-1.3,0-2.36,1.06-2.36,2.36c0,1.3,1.06,2.36,2.36,2.36
			c1.3,0,2.36-1.06,2.36-2.36C144.26,26.37,143.2,25.32,141.89,25.32z M118,25.32c-1.3,0-2.36,1.06-2.36,2.36
			c0,1.3,1.06,2.36,2.36,2.36c1.3,0,2.36-1.06,2.36-2.36C120.36,26.37,119.3,25.32,118,25.32z M147.87,19.71
			c-1.3,0-2.36,1.06-2.36,2.36c0,1.3,1.06,2.36,2.36,2.36c1.3,0,2.36-1.06,2.36-2.36C150.23,20.77,149.17,19.71,147.87,19.71z
			 M153.84,14.1c-1.3,0-2.36,1.06-2.36,2.36c0,1.3,1.06,2.36,2.36,2.36c1.3,0,2.36-1.06,2.36-2.36
			C156.2,15.16,155.15,14.1,153.84,14.1z M112.03,19.71c-1.3,0-2.36,1.06-2.36,2.36c0,1.3,1.06,2.36,2.36,2.36
			c1.3,0,2.36-1.06,2.36-2.36C114.39,20.77,113.33,19.71,112.03,19.71z M106.05,14.1c-1.3,0-2.36,1.06-2.36,2.36
			c0,1.3,1.06,2.36,2.36,2.36c1.3,0,2.36-1.06,2.36-2.36C108.42,15.16,107.36,14.1,106.05,14.1z M129.95,24.17
			c-1.3,0-2.36,1.06-2.36,2.36c0,1.3,1.06,2.36,2.36,2.36c1.3,0,2.36-1.06,2.36-2.36C132.31,25.23,131.25,24.17,129.95,24.17z
			 M135.92,18.56c-1.3,0-2.36,1.06-2.36,2.36c0,1.3,1.06,2.36,2.36,2.36c1.3,0,2.36-1.06,2.36-2.36
			C138.28,19.62,137.23,18.56,135.92,18.56z M123.97,18.56c-1.3,0-2.36,1.06-2.36,2.36c0,1.3,1.06,2.36,2.36,2.36
			c1.3,0,2.36-1.06,2.36-2.36C126.34,19.62,125.28,18.56,123.97,18.56z M141.89,12.95c-1.3,0-2.36,1.06-2.36,2.36
			c0,1.3,1.06,2.36,2.36,2.36c1.3,0,2.36-1.06,2.36-2.36C144.26,14.01,143.2,12.95,141.89,12.95z M118,12.95
			c-1.3,0-2.36,1.06-2.36,2.36c0,1.3,1.06,2.36,2.36,2.36c1.3,0,2.36-1.06,2.36-2.36C120.36,14.01,119.3,12.95,118,12.95z
			 M147.87,7.34c-1.3,0-2.36,1.06-2.36,2.36c0,1.3,1.06,2.36,2.36,2.36c1.3,0,2.36-1.06,2.36-2.36
			C150.23,8.4,149.17,7.34,147.87,7.34z M153.84,1.74c-1.3,0-2.36,1.06-2.36,2.36c0,1.3,1.06,2.36,2.36,2.36
			c1.3,0,2.36-1.06,2.36-2.36C156.2,2.79,155.15,1.74,153.84,1.74z M112.03,7.34c-1.3,0-2.36,1.06-2.36,2.36
			c0,1.3,1.06,2.36,2.36,2.36c1.3,0,2.36-1.06,2.36-2.36C114.39,8.4,113.33,7.34,112.03,7.34z M106.05,1.74
			c-1.3,0-2.36,1.06-2.36,2.36c0,1.3,1.06,2.36,2.36,2.36c1.3,0,2.36-1.06,2.36-2.36C108.42,2.79,107.36,1.74,106.05,1.74z
			 M27.95,36.53c-1.3,0-2.36,1.06-2.36,2.36c0,1.3,1.06,2.36,2.36,2.36c1.3,0,2.36-1.06,2.36-2.36
			C30.31,37.59,29.25,36.53,27.95,36.53z M33.92,30.92c-1.3,0-2.36,1.06-2.36,2.36c0,1.3,1.06,2.36,2.36,2.36
			c1.3,0,2.36-1.06,2.36-2.36C36.28,31.98,35.23,30.92,33.92,30.92z M21.97,30.92c-1.3,0-2.36,1.06-2.36,2.36
			c0,1.3,1.06,2.36,2.36,2.36c1.3,0,2.36-1.06,2.36-2.36C24.34,31.98,23.28,30.92,21.97,30.92z M39.89,25.32
			c-1.3,0-2.36,1.06-2.36,2.36c0,1.3,1.06,2.36,2.36,2.36c1.3,0,2.36-1.06,2.36-2.36C42.26,26.37,41.2,25.32,39.89,25.32z M16,25.32
			c-1.3,0-2.36,1.06-2.36,2.36c0,1.3,1.06,2.36,2.36,2.36c1.3,0,2.36-1.06,2.36-2.36C18.36,26.37,17.31,25.32,16,25.32z
			 M45.87,19.71c-1.3,0-2.36,1.06-2.36,2.36c0,1.3,1.06,2.36,2.36,2.36c1.3,0,2.36-1.06,2.36-2.36
			C48.23,20.77,47.17,19.71,45.87,19.71z M51.84,14.1c-1.3,0-2.36,1.06-2.36,2.36c0,1.3,1.06,2.36,2.36,2.36
			c1.3,0,2.36-1.06,2.36-2.36C54.2,15.16,53.15,14.1,51.84,14.1z M10.03,19.71c-1.3,0-2.36,1.06-2.36,2.36
			c0,1.3,1.06,2.36,2.36,2.36c1.3,0,2.36-1.06,2.36-2.36C12.39,20.77,11.33,19.71,10.03,19.71z M4.05,14.1
			c-1.3,0-2.36,1.06-2.36,2.36c0,1.3,1.06,2.36,2.36,2.36c1.3,0,2.36-1.06,2.36-2.36C6.42,15.16,5.36,14.1,4.05,14.1z M27.95,24.17
			c-1.3,0-2.36,1.06-2.36,2.36c0,1.3,1.06,2.36,2.36,2.36c1.3,0,2.36-1.06,2.36-2.36C30.31,25.23,29.25,24.17,27.95,24.17z
			 M33.92,18.56c-1.3,0-2.36,1.06-2.36,2.36c0,1.3,1.06,2.36,2.36,2.36c1.3,0,2.36-1.06,2.36-2.36
			C36.28,19.62,35.23,18.56,33.92,18.56z M21.97,18.56c-1.3,0-2.36,1.06-2.36,2.36c0,1.3,1.06,2.36,2.36,2.36
			c1.3,0,2.36-1.06,2.36-2.36C24.34,19.62,23.28,18.56,21.97,18.56z M39.89,12.95c-1.3,0-2.36,1.06-2.36,2.36
			c0,1.3,1.06,2.36,2.36,2.36c1.3,0,2.36-1.06,2.36-2.36C42.26,14.01,41.2,12.95,39.89,12.95z M16,12.95c-1.3,0-2.36,1.06-2.36,2.36
			c0,1.3,1.06,2.36,2.36,2.36c1.3,0,2.36-1.06,2.36-2.36C18.36,14.01,17.31,12.95,16,12.95z M45.87,7.34c-1.3,0-2.36,1.06-2.36,2.36
			c0,1.3,1.06,2.36,2.36,2.36c1.3,0,2.36-1.06,2.36-2.36C48.23,8.4,47.17,7.34,45.87,7.34z M51.84,1.74c-1.3,0-2.36,1.06-2.36,2.36
			c0,1.3,1.06,2.36,2.36,2.36c1.3,0,2.36-1.06,2.36-2.36C54.2,2.79,53.15,1.74,51.84,1.74z M10.03,7.34c-1.3,0-2.36,1.06-2.36,2.36
			c0,1.3,1.06,2.36,2.36,2.36c1.3,0,2.36-1.06,2.36-2.36C12.39,8.4,11.33,7.34,10.03,7.34z M4.05,1.74c-1.3,0-2.36,1.06-2.36,2.36
			c0,1.3,1.06,2.36,2.36,2.36c1.3,0,2.36-1.06,2.36-2.36C6.42,2.79,5.36,1.74,4.05,1.74z"/>
	</g>
</g>
</svg>
