<svg fill="none" preserveAspectRatio="none" height="16" viewBox="0 0 100 16" width="100%" xmlns="http://www.w3.org/2000/svg"><path clip-rule="evenodd" d="m54.634.136885c-1.919.069614-5.0237.176001-6.8991.23647-1.8755.06047-3.9809.132051-4.6788.158991-.6978.02704-3.5884.137262-6.4234.245026-2.835.107763-6.0467.238238-7.137.289958-4.7362.22457-6.2459.30087-6.7159.33971-.2753.02271-1.1429.09075-1.9279.15112-1.7385.13382-3.983.35034-5.789.55839-.7415.08535-1.8342.20983-2.4284.27649-.5941.06666-1.1614.17158-1.2609.23322-.0992.06156-.454.112-.7882.112-.3394 0-.6417.05427-.68484.1229-.04235.06765-.3521.1292-.68818.13687-.33607.00767-.78349.08397-.99411.16951-.21063.08564-.7015.16892-1.09103.18515-.84011.035-1.12321.12625-1.00141.3228.0663.10707-.03314.14434-.38492.14434-.50816 0-.7835.28356-.46645.48011.24377.15113-.18176.22428-.74828.12861-.69214-.1169-.70689-.31375-.02348-.31375.31245 0 .56827-.04896.56827-.10884s-.10975-.0827-.24393-.05084c-.13798.03284-.28263-.00442-.33306-.08603-.06376-.10285-.16733-.11809-.36304-.0531-.15067.04995-.69658.0824-1.2133.07197-.74289-.01504-.9394.0119-.9394.12852 0 .10442.13243.13785.45391.11445.32435-.0237.43346.00442.38192.09832-.03949.07227-.24377.13402-.45392.13736-.60491.00944-1.571427.15604-1.571427.23844 0 .08839.799357.19802 1.443597.19802.51625 0 1.00474.36351.84201.62653-.05535.08937-.02014.2228.07835.29634.1732.1293.08692.45318-.12085.45417-.05615.00029-.31609.10697-.57779.23706l-.4758.23666.38445.25447c.27501.1821.31799.25456.15067.25456-.12863 0-.3015-.04051-.38445-.09006-.09183-.05497-.22205-.0414-.3337.0348-.14036.09597-.09992.18947.17399.40244l.35685.27748.55511-.21268c.3053-.11701.60316-.18288.662-.1465.24346.15093 1.71591.21228 1.79236.07472.0314-.05634-.04679-.18908-.17351-.29497-.20095-.16814-.27406-.1761-.57255-.06303-.50198.19026-.57176.06362-.07597-.13775.41252-.16754.43013-.16568.80681.08613.48659.32536.48421.46911-.01285.75858-.25694.14955-.36558.29507-.30658.4104.06709.13087.00888.17866-.21697.17866-.1697 0-.58492.07423-.92274.16508-.59539.16008-.70895.18141-1.12956.21327-.10896.00816-.19826.06431-.19826.12478 0 .0643.16558.09016.40031.06233.22014-.02615.44155-.00609.49183.04435.05043.05054.19127.06814.31324.03913.12196-.029.36748-.01927.54559.02153.32037.07345.3199.0765-.03949.27689-.52101.29055-1.62694.54058-1.83122.41394-.11182-.06932-.35559-.03805-.77509.09961-.33655.11051-.748758.22661-.915924.25811-.230448.0434-.259631.0848-.120379.1712.271368.1682 1.705763.126 2.173323-.0639.41934-.1703.70942-.1357.70942.0848 0 .1872-.42473.3778-.91989.4128-1.36445.0965-1.622811.1247-1.808851.1969-.112924.044-.329732.0672-.481673.0516-.1773164-.018-.2469436.0195-.1941292.1048.1032502.1667.9327332.2119 1.3500232.0734.24789-.0822.33544-.0708.41268.054.05376.0871.02268.205-.06931.262-.25884.1605-.04156.3747.38001.3747.23156 0 .37953.0576.37953.1475 0 .1841.06122.1838.64519-.0034.42664-.1368.47978-.1362.56828.0066.0536.0867.02315.2541-.06773.3721-.09103.1181-.20697.2949-.25788.3929-.05091.0982-.16796.1495-.25995.1142-.11483-.044-.10738-.1091.02379-.207.13449-.1005.14147-.1738.02363-.2469-.16336-.1013-.33877-.019-.96097.4506-.26645.2011-.09183.3752.29897.2982.16986-.0335.30388-.0135.30388.0452 0 .0577-.08914.1117-.19826.1199-.10895.0082-.27517.02-.36922.0262-.09405.0061-.41046.1362-.70324.2889-.45773.2387-.50594.3037-.34448.4641.10325.1025.18778.2728.18778.3785 0 .2246.1862.3104.85851.3957.60871.0772.63409.3033.05345.4759-.30753.0914-.43615.2037-.43615.381 0 .233.03965.2468.54384.1881.90435-.1051 3.65054-.1676 6.75184-.1533 13.17668.0605 19.52958-.0057 19.92148-.2074.1639-.0842.2765-.085.4357-.0031.1446.0744.8817.0962 2.2601.0667 1.8894-.0404 5.5958-.08 19.0157-.2034 5.7839-.0532 12.0155-.1544 12.133-.197.0436-.016 1.8279-.0563 3.9651-.0899 2.1371-.0335 4.7065-.0808 5.7096-.1051 1.9423-.047 5.2369-.1183 9.1197-.1973 6.1573-.1252 7.6273-.1624 9.9771-.2524 2.6044-.0996 5.8492-.3314 6.1265-.4375.4284-.1642.7568-.8292.8488-1.7186.0532-.5138.1647-1.3544.2479-1.8682.0833-.5137.2638-2.06234.4011-3.44134.1374-1.379.3245-2.83912.4159-3.24471.4057-1.8018.3007-2.25261-.5726-2.4585-.3957-.09322-4.473-.30412-6.7391-.34847-.8287-.01622-2.6844-.07659-4.1237-.134015-5.02-.200582-13.07-.424369-19.8661-.552289-1.6365-.030776-3.2066-.074724-3.4893-.097535-.2827-.02291-1.5725-.046214-2.8659-.051818-1.9657-.008456-2.3376-.033137-2.2651-.150242.1048-.1693143-.2506-.1685266-5.2165.011604zm4.6391.014355c-.1525.024778-.4025.024778-.5551 0-.1525-.02468-.0277-.044934.2776-.044934s.4301.020254.2775.044934zm-42.9414 2.03571c0 .02124-.1107.06499-.2461.09724-.1412.03353-.2048.01702-.1493-.03864.0931-.0935.3954-.13824.3954-.0586zm-3.491 1.38579c.1705.12733.1321.13244-.2977.03952-.5616-.12133-.6293-.18573-.1957-.18573.1637 0 .3857.06578.4934.14621zm-3.49065.59358c-.11039.0824-.2333.12959-.27327.10491-.10991-.06823.11356-.25475.30515-.25475.10531 0 .09326.05643-.03188.14984zm-.27533.552c.08834.03451.10674.11671.04108.18258-.16749.16804-.39699-.07167-.37621-.3928.01332-.20344.02966-.21189.09532-.04916.04362.10815.15147.22486.23981.25938zm-4.35267.30225c.03235.10363-.10658.16607-.43616.19605-.53734.04887-.63107-.07679-.20618-.27648.3337-.15673.57763-.12625.64234.08043zm3.6461.21503c-.11245.07571-.2295.12291-.25995.10491-.09405-.05545.14433-.24246.30895-.24246.08565 0 .0636.06194-.049.13755zm-7.06096.61886c.15432.02497.36843.0233.47581-.00364.10737-.02694-.01888-.0473-.28057-.04533s-.34956.02399-.19524.04897zm6.93122.223c.12831.05034.19444.11553.14702.14493-.04742.02949-.22378-.01102-.3919-.08987-.33433-.15683-.13117-.20255.24488-.05506zm.63901.39713c0 .05408-.07566.09832-.16796.09832-.09231 0-.12387-.04424-.06995-.09832.05393-.05408.12942-.09833.16796-.09833s.06995.04425.06995.09833zm.79301.68827c0 .05408-.07566.09832-.16797.09832-.0923 0-.12386-.04424-.06994-.09832.05393-.05408.12942-.09832.16796-.09832s.06995.04424.06995.09832zm.95157 1.61183c0 .02124-.107.06411-.2379.09528-.1308.03107-.2379.01367-.2379-.03864 0-.05241.1071-.09528.2379-.09528.1309 0 .2379.01741.2379.03864zm-9.641686.1996c-.226007.07847-.196825.10403.191596.16843.45375.07522 1.04423-.03893 1.04423-.20196 0-.10923-.8942-.08495-1.235826.03353zm-.821399.15123c-.1283087.05034-.1920663.117-.1416309.14827.1249779.07748.6128369-.04592.6128369-.15496 0-.11209-.17462-.10963-.471206.00669zm4.753455 1.22708c0 .0239-.07137.0707-.1586.1041-.08723.0335-.1586.0139-.1586-.0433 0-.0573.07137-.1042.1586-.1042s.1586.0195.1586.0434zm1.80203 1.6773c.06915.1119-.02966.1475-.40998.1475-.4747 0-.48485-.0076-.19318-.1443.39286-.1843.49072-.1848.60316-.0032zm-5.4348 1.0266c-.15765.0605-.16209.097-.01824.1521.1042.04.26074.0284.34797-.0257.20666-.1281-.05916-.23-.32973-.1264zm4.74298.0058c0 .0541-.07137.0984-.1586.0984s-.1586-.0443-.1586-.0984c0-.054.07137-.0983.1586-.0983s.1586.0443.1586.0983zm6.36442 2.0403c.2012.1592.1938.1612-.0996.0278-.1745-.0794-.3469-.1567-.3834-.1721-.0363-.0153.0086-.0278.0996-.0278.0911 0 .2636.0775.3834.1721z" fill="#ffd041" fill-rule="evenodd"/></svg>