<?xml version="1.0" encoding="utf-8"?>
<!-- Generator: Adobe Illustrator 27.0.0, SVG Export Plug-In . SVG Version: 6.00 Build 0)  -->
<svg version="1.1" id="Layer_1" xmlns="http://www.w3.org/2000/svg" xmlns:xlink="http://www.w3.org/1999/xlink" x="0px" y="0px"
	 viewBox="0 0 25.84 25.76" style="enable-background:new 0 0 25.84 25.76;" xml:space="preserve">
<style type="text/css">
	.st0{fill-rule:evenodd;clip-rule:evenodd;fill:none;stroke:#A0A0A0;stroke-miterlimit:10;}
	.st1{fill:#A0A0A0;}
</style>
<path class="st0" d="M12.92,0.85c6.63,0,12,5.37,12,12s-5.37,12-12,12c-6.63,0-12-5.37-12-12S6.29,0.85,12.92,0.85z"/>
<path class="st1" d="M12.07,18.83c-0.2-0.25-0.3-0.59-0.3-1v-3.82H7.74c-0.37,0-0.69-0.09-0.96-0.28c-0.27-0.19-0.4-0.47-0.4-0.86
	c0-0.36,0.13-0.64,0.38-0.84c0.25-0.2,0.58-0.29,0.98-0.29h4.02V7.89c0-0.37,0.09-0.7,0.27-0.98c0.18-0.28,0.47-0.43,0.87-0.43
	c0.36,0,0.64,0.14,0.84,0.41c0.19,0.27,0.29,0.61,0.29,1v3.85h4.04c0.36,0,0.68,0.09,0.96,0.28c0.28,0.19,0.41,0.47,0.41,0.85
	c0,0.36-0.13,0.65-0.39,0.84c-0.26,0.2-0.59,0.3-0.98,0.3h-4.04v3.82c0,0.37-0.09,0.69-0.28,0.97c-0.19,0.28-0.47,0.42-0.85,0.42
	C12.55,19.21,12.27,19.09,12.07,18.83z"/>
</svg>
