<?xml version="1.0" encoding="utf-8"?>
<!-- Generator: Adobe Illustrator 27.0.0, SVG Export Plug-In . SVG Version: 6.00 Build 0)  -->
<svg version="1.1" id="Layer_1" xmlns="http://www.w3.org/2000/svg" xmlns:xlink="http://www.w3.org/1999/xlink" x="0px" y="0px"
	 viewBox="0 0 17.18 18.68" style="enable-background:new 0 0 17.18 18.68;" xml:space="preserve">
<style type="text/css">
	.st0{fill:#181f38;}
</style>
<g>
	<g>
		<path class="st0" d="M9.98,8.37C7.34,5.9,4.69,3.43,2.04,0.97c-0.18-0.17-0.4-0.29-0.6-0.44c-0.13,0-0.27,0.01-0.4,0.01
			C0.76,0.68,0.57,0.88,0.46,1.17c0,0.13,0.01,0.27,0.01,0.4c0.15,0.19,0.29,0.39,0.46,0.55c2.43,2.27,4.86,4.53,7.29,6.79
			c0.07,0.07,0.17,0.11,0.3,0.2C8.38,9.24,8.3,9.29,8.23,9.37c-2.26,2.42-4.52,4.84-6.78,7.27c-0.17,0.18-0.29,0.4-0.44,0.6
			c0,0.13,0.01,0.27,0.01,0.4c0.01,0.01,0.03,0.02,0.04,0.03C1.4,18.32,2,18.4,2.51,17.86c2.51-2.69,5.02-5.37,7.52-8.06
			C10.53,9.26,10.52,8.87,9.98,8.37z M16.43,8.16c-2.65-2.47-5.3-4.94-7.96-7.41c-0.18-0.17-0.4-0.29-0.6-0.44
			c-0.13,0-0.27,0.01-0.4,0.01C7.46,0.33,7.45,0.35,7.44,0.36C6.79,0.69,6.7,1.29,7.24,1.79c2.47,2.3,4.93,4.6,7.4,6.9
			c0.07,0.07,0.17,0.11,0.26,0.17c-0.11,0.13-0.17,0.2-0.23,0.26c-2.29,2.46-4.58,4.91-6.87,7.36c-0.07,0.07-0.14,0.14-0.2,0.23
			c-0.36,0.49-0.06,1.19,0.54,1.27c0.33,0.04,0.57-0.11,0.79-0.35c2.51-2.7,5.02-5.39,7.54-8.08C16.96,9.04,16.94,8.63,16.43,8.16z"
			/>
	</g>
</g>
</svg>
