<?xml version="1.0" encoding="utf-8"?>
<!-- Generator: Adobe Illustrator 26.0.1, SVG Export Plug-In . SVG Version: 6.00 Build 0)  -->
<svg version="1.1" id="Layer_1" xmlns="http://www.w3.org/2000/svg" xmlns:xlink="http://www.w3.org/1999/xlink" x="0px" y="0px"
	 viewBox="0 0 128 128" style="enable-background:new 0 0 128 128;" xml:space="preserve">
<style type="text/css">
	.st0{fill:#444444;}
	.st1{fill:#FD8500;}
</style>
<path class="st0" d="M114,124H99c-2.8-3.8-2.6-9.1,0.5-12.7c0,0,0,0,0-0.1c0.1-0.1,0.2-0.2,0.2-0.4c0,0,0,0,0-0.1
	c0.1-0.2,0.1-0.3,0.1-0.5c0,0,0-0.1,0-0.1c0-0.1,0-0.1,0-0.2V38c0-4.4-3.6-8-8-8H44c-8.8,0-16,7.2-16,16v72c0,2.2,0.7,4.3,2,6H14
	c-1.1,0-2,0.9-2,2s0.9,2,2,2h100c1.1,0,2-0.9,2-2S115.1,124,114,124z M32,46c0-5.1,3.2-9.6,8-11.3V108h-2c-2.2,0-4.3,0.7-6,2V46z
	 M94.3,124H38c-3.3,0-6-2.7-6-6s2.7-6,6-6h56.3C92.6,115.8,92.6,120.2,94.3,124z M96,108H44V34h48c2.2,0,4,1.8,4,4V108z"/>
<path class="st0" d="M126,124h-4c-1.1,0-2,0.9-2,2s0.9,2,2,2h4c1.1,0,2-0.9,2-2S127.1,124,126,124z"/>
<path class="st0" d="M85,49H56c-3.3,0-6,2.7-6,6v32c0,3.3,2.7,6,6,6h29c3.3,0,6-2.7,6-6V55C91,51.7,88.3,49,85,49z M87,87
	c0,1.1-0.9,2-2,2H56c-1.1,0-2-0.9-2-2V55c0-1.1,0.9-2,2-2h29c1.1,0,2,0.9,2,2V87z"/>
<path class="st0" d="M81,79H60c-1.1,0-2,0.9-2,2s0.9,2,2,2h21c1.1,0,2-0.9,2-2S82.1,79,81,79z"/>
<path class="st0" d="M81,69H60c-1.1,0-2,0.9-2,2s0.9,2,2,2h21c1.1,0,2-0.9,2-2S82.1,69,81,69z"/>
<path class="st0" d="M81,59H60c-1.1,0-2,0.9-2,2s0.9,2,2,2h21c1.1,0,2-0.9,2-2S82.1,59,81,59z"/>
<path class="st1" d="M64,14c1.1,0,2-0.9,2-2V2c0-1.1-0.9-2-2-2s-2,0.9-2,2v10C62,13.1,62.9,14,64,14z"/>
<path class="st1" d="M100.8,29.2c0.5,0,1-0.2,1.4-0.6l7.1-7.1c0.8-0.8,0.8-2,0-2.8c-0.8-0.8-2-0.8-2.8,0l-7.1,7.1
	c-0.8,0.8-0.7,2.1,0.1,2.9C99.8,29,100.3,29.2,100.8,29.2z"/>
<path class="st1" d="M25.8,28.6c0.8,0.8,2,0.8,2.8,0c0.8-0.8,0.8-2,0-2.8c0,0,0,0,0,0l-7.1-7.1c-0.8-0.8-2-0.8-2.8,0
	c-0.8,0.8-0.8,2,0,2.8L25.8,28.6z"/>
<path class="st1" d="M42.7,16.5c0.4,1,1.6,1.5,2.6,1.1c1-0.4,1.5-1.6,1.1-2.6l-3.7-9.3c-0.4-1-1.6-1.5-2.6-1.1s-1.5,1.6-1.1,2.6
	L42.7,16.5z"/>
<path class="st1" d="M112.2,46.5c0.3,0,0.5,0,0.7-0.1l9.3-3.7c1-0.4,1.5-1.6,1.1-2.6s-1.6-1.5-2.6-1.1l0,0l-9.3,3.7
	c-1,0.4-1.5,1.6-1.1,2.6c0,0,0,0,0,0C110.7,46,111.4,46.5,112.2,46.5z"/>
<path class="st1" d="M83.5,18c1,0.4,2.2-0.1,2.6-1.1l3.9-9.2c0.4-1,0-2.2-1.1-2.6s-2.2,0-2.6,1.1l0,0l-3.9,9.2
	C82,16.4,82.5,17.5,83.5,18C83.5,18,83.5,18,83.5,18z"/>
<path class="st1" d="M6.1,41.6l9.2,3.9c1,0.4,2.2-0.1,2.6-1.1c0.4-1,0-2.2-1.1-2.6c0,0,0,0,0,0l-9.2-3.9c-1-0.4-2.2,0-2.6,1.1
	S5.1,41.2,6.1,41.6L6.1,41.6z"/>
<path class="st1" d="M122.9,74c1.1,0,2-0.9,2-2c0-0.1,0-0.2,0-0.3l-0.8-4.8l3.3-3.4c0.8-0.8,0.7-2.1-0.1-2.9c-0.3-0.3-0.7-0.5-1-0.5
	l-4.5-0.7l-2-4.3c-0.5-1-1.7-1.4-2.7-0.9c-0.4,0.2-0.7,0.5-0.9,0.9l-2,4.3l-4.5,0.7c-1.1,0.2-1.8,1.2-1.6,2.3c0.1,0.4,0.2,0.7,0.5,1
	l3.3,3.4l-0.8,4.8c-0.2,1.1,0.6,2.1,1.7,2.3c0.4,0.1,0.9,0,1.3-0.2l4-2.2l4,2.2C122.3,73.9,122.6,74,122.9,74z M120.6,64.8
	c-0.4,0.5-0.6,1.1-0.5,1.7l0.3,1.7l-1.3-0.7c-0.6-0.3-1.3-0.3-1.9,0l-1.3,0.7l0.3-1.7c0.1-0.6-0.1-1.3-0.5-1.7l-1.3-1.3l1.7-0.3
	c0.7-0.1,1.2-0.5,1.5-1.1l0.7-1.4l0.7,1.4c0.3,0.6,0.8,1,1.5,1.1l1.7,0.3L120.6,64.8z"/>
<path class="st1" d="M14.9,74c1.1,0,2-0.9,2-2c0-0.1,0-0.2,0-0.3l-0.8-4.8l3.3-3.4c0.8-0.8,0.8-2.1,0-2.8c-0.3-0.3-0.7-0.5-1.1-0.5
	l-4.5-0.7l-2-4.3c-0.5-1-1.7-1.4-2.7-1c-0.4,0.2-0.8,0.5-1,1l-2,4.3l-4.5,0.7c-1.1,0.2-1.8,1.2-1.6,2.3c0.1,0.4,0.2,0.7,0.5,1
	l3.3,3.4l-0.8,4.8c-0.2,1.1,0.6,2.1,1.7,2.3C5.2,74,5.6,74,6,73.8l4-2.2l4,2.2C14.3,73.9,14.6,74,14.9,74z M12.6,64.8
	c-0.4,0.5-0.6,1.1-0.5,1.7l0.3,1.7L11,67.5c-0.6-0.3-1.3-0.3-1.9,0l-1.3,0.7L8,66.5c0.1-0.6-0.1-1.3-0.5-1.7l-1.3-1.3l1.7-0.3
	c0.7-0.1,1.2-0.5,1.5-1.1l0.7-1.4l0.7,1.4c0.3,0.6,0.8,1,1.5,1.1l1.7,0.3L12.6,64.8z"/>
</svg>
