<?xml version="1.0" encoding="UTF-8"?> <svg xmlns="http://www.w3.org/2000/svg" xmlns:xlink="http://www.w3.org/1999/xlink" version="1.1" id="Layer_1" x="0px" y="0px" viewBox="0 0 84.2 63.7" style="enable-background:new 0 0 84.2 63.7;" xml:space="preserve"> <style type="text/css"> .st0{fill:#181f38;} </style> <path class="st0" d="M2.3,8.4c0.4-1,0.7-2.2,1.3-3.1C4.9,3.5,6.8,2.7,9,2.7c16.1,0,32.3,0,48.4,0c3.9,0,6.6,2.8,6.7,6.8 c0,5,0,9.9,0,14.9c0,0.3,0,0.6,0,0.8c1.4,0.4,2.8,0.6,4.1,1c6.8,2.5,10.8,7.3,12,14.5c0,0.2,0.1,0.4,0.2,0.7c0,1.3,0,2.6,0,3.9 c-0.3,1.6-1,3.1-2.3,4.2c-2.7,2.3-6.7,2-9.1-0.7c-0.1-0.1-0.3-0.3-0.4-0.5c-1.4,1.5-3,2.3-5,2.7c-3,0.5-6.4-1.2-8-4 c-1.6-2.7-1.4-6.3,0.5-8.8c2.8-3.7,7.9-4.4,11.5-1.6c0.2,0.1,0.5,0.2,0.7,0.1c1.3-0.5,2.4,0.1,2.4,1.6c0,1.9,0,3.9,0,5.8 c0,0.3,0,0.7,0.1,1c0.3,1.6,1.7,2.7,3.2,2.7c1.6,0,3-1.2,3.2-2.8c0.8-7.5-3.6-13.8-10.3-15.9c-8.2-2.5-16.6,2.5-18.5,10.8 c-2,8.6,4.4,17,13.3,17.5c2.6,0.2,5.1-0.3,7.5-1.5c0.2-0.1,0.5-0.2,0.8-0.4c1-0.4,1.9-0.2,2.3,0.7c0.4,0.8,0.1,1.7-0.9,2.2 c-1.3,0.6-2.7,1.3-4.1,1.7c-9.2,2.4-18.5-2.6-21.5-11.5c-0.2-0.6-0.5-0.7-1.1-0.7c-11.6,0-23.3,0-34.9,0c-1.3,0-2.6-0.1-3.8-0.8 c-1.8-1-2.9-2.5-3.3-4.5c0-0.1-0.1-0.2-0.1-0.3C2.3,30.9,2.3,19.6,2.3,8.4z M5.8,7.8C5.7,8.5,5.6,9.1,5.6,9.6c0,10.4,0,20.8,0,31.2 c0,2.5,1.3,3.7,3.8,3.7c11.5,0,22.9,0,34.4,0c0.3,0,0.5,0,0.9,0c-0.3-4.9,1-9.2,4.1-12.9c3.1-3.7,7.2-5.8,12-6.3 c0-0.1,0.1-0.2,0.1-0.3c0-5.3,0-10.6,0-15.9c0-0.4-0.1-0.8-0.2-1.3c-0.3,0.2-0.5,0.4-0.7,0.5C52.3,14.6,44.7,20.8,37.1,27 c-2.5,2-5.2,2-7.7,0C21.8,20.8,14.1,14.6,6.5,8.4C6.3,8.2,6.1,8.1,5.8,7.8z M57.8,5.9c-16.5,0-32.7,0-49.1,0C9,6.2,9.2,6.4,9.4,6.6 c7.3,6,14.7,11.9,22,17.9c1.2,1,2.3,1,3.6,0c5.8-4.7,11.7-9.5,17.5-14.2C54.2,8.8,55.9,7.5,57.8,5.9z M57.6,43 c0,2.7,2.2,4.9,4.9,4.8c2.7,0,4.8-2.2,4.8-4.8c0-2.6-2.2-4.8-4.9-4.8C59.8,38.2,57.6,40.3,57.6,43z"></path> </svg> 