<?xml version="1.0" encoding="UTF-8"?> <svg xmlns="http://www.w3.org/2000/svg" xmlns:xlink="http://www.w3.org/1999/xlink" version="1.1" id="Layer_1" x="0px" y="0px" viewBox="0 0 78.3 77.3" style="enable-background:new 0 0 78.3 77.3;" xml:space="preserve"> <style type="text/css"> .st0{fill:#181f38;} </style> <g> <g> <path class="st0" d="M36.4,51.7c2.6-0.6,5.2-1.3,7.7-2c0.4-0.1,0.7-0.3,1-0.6c9.2-9.2,18.4-18.4,27.5-27.6c1.6-1.7,1.6-4,0-5.7 c-0.6-0.6-1.2-1.3-1.9-1.9c-2-2-4.2-2-6.2,0c-1.4,1.4-2.8,2.8-4.3,4.3v-0.9c0-2.5,0-5,0-7.5c0-3.6-2.3-5.9-5.9-5.9 C39.8,4,25.2,4,10.7,4c-0.5,0-1,0-1.4,0.1C6.5,4.7,4.8,6.9,4.8,9.9c0,15.8,0,31.6,0,47.5c0,3.6,2.3,5.9,5.9,5.9 c6.6,0,13.3,0,19.9,0c0.6,0,1,0.2,1.4,0.5c4,2.9,8.1,5.8,12.1,8.7c0.6,0.4,1.1,0.8,1.9,0.4c0.7-0.4,0.7-1,0.7-1.7 c0-2.4,0-4.7,0-7.1v-0.8c2.6,0,5,0,7.5,0c3.6,0,5.9-2.3,5.9-5.9c0-4.6,0-9.1,0-13.7c0-0.4,0-0.8,0-1.2c0-0.8-0.6-1.4-1.3-1.4 c-0.7,0-1.3,0.5-1.3,1.3c0,0.2,0,0.5,0,0.7c0,4.8,0,9.5,0,14.3c0,2.1-1.1,3.2-3.2,3.2c-3.5,0-7,0-10.5,0c-0.2,0-0.5,0-0.7,0 c-0.7,0.1-1.2,0.7-1.2,1.4c0,0.7,0.5,1.2,1.2,1.3c0.3,0,0.6,0,0.9,0V69c-0.3-0.2-0.5-0.3-0.7-0.4c-3.5-2.5-6.9-5-10.4-7.4 c-0.4-0.3-1.1-0.5-1.6-0.5c-6.9,0-13.8,0-20.7,0c-2.1,0-3.1-1.1-3.1-3.2c0-15.8,0-31.7,0-47.5c0-2,1.1-3.2,3.2-3.2 c14.6,0,29.1,0,43.7,0c2,0,3.2,1.1,3.2,3.2c0,3.3,0,6.6,0,9.8c0,0.9-0.3,1.5-0.9,2.2c-6.4,6.4-12.8,12.8-19.2,19.2 c-0.3,0.3-0.6,0.7-0.8,1.2c-0.7,2.5-1.4,5.1-2.1,7.6C34.3,51.1,35.1,52,36.4,51.7z M68.7,15.7c0.6,0.6,1.2,1.2,1.8,1.8 c0.9,0.9,0.8,1.5-0.1,2.3c-1.3-1.3-2.6-2.6-3.9-4C67.1,15,67.9,14.9,68.7,15.7z M64.5,17.9c1.3,1.3,2.6,2.6,3.8,3.9 C60.2,29.9,52,38.1,43.9,46.2c-1.3-1.2-2.6-2.6-3.9-3.8C48.2,34.3,56.3,26.1,64.5,17.9z M38.7,45.2c0.8,0.8,1.6,1.6,2.4,2.4 c-1,0.3-2.1,0.6-3.3,0.9C38.1,47.3,38.4,46.2,38.7,45.2z M43.1,28.8c0.6-0.2,0.9-0.7,0.9-1.3c0-0.6-0.3-1-0.9-1.2 c-0.3-0.1-0.5-0.1-0.8-0.1c-2.3,0-4.6,0-6.9,0c-1,0-2,0-3,0c-1.4,0-2.8,0-4.2,0c-0.8,0-1.4,0.6-1.4,1.3c0,0.7,0.6,1.3,1.4,1.4 c0.1,0,0.3,0,0.4,0c4.5,0,9.1,0,13.6,0C42.6,28.9,42.9,28.9,43.1,28.8z M17.8,51.5c4.1,0,8.2,0,12.3,0c1,0,1.6-0.5,1.6-1.4 c0-0.8-0.6-1.3-1.6-1.3c-2,0-4.1,0-6.1,0c-2.1,0-4.1,0-6.2,0c-1,0-1.6,0.5-1.6,1.4C16.2,50.9,16.8,51.5,17.8,51.5z M28.2,17.6 c1,0,1.6-0.5,1.6-1.3c0-0.8-0.5-1.4-1.5-1.4c-3.5,0-7,0-10.6,0c-0.3,0-0.6,0.1-0.9,0.2c-0.5,0.3-0.7,0.8-0.6,1.4 c0.2,0.6,0.6,1,1.3,1c1.8,0,3.6,0,5.4,0c0,0,0,0,0,0C24.7,17.6,26.5,17.6,28.2,17.6z M38.5,17.6c1.3,0,2.6,0,4,0 c0.3,0,0.6,0,0.8-0.1c0.6-0.2,0.9-0.9,0.8-1.4c-0.1-0.7-0.6-1.1-1.4-1.1c-2.7,0-5.4,0-8.1,0c-0.9,0-1.5,0.5-1.5,1.3 c0,0.8,0.6,1.3,1.5,1.3C35.9,17.6,37.2,17.6,38.5,17.6z M17.6,28.9c1.7,0,3.4,0,5.1,0c0.8,0,1.4-0.7,1.4-1.4 c0-0.7-0.6-1.3-1.4-1.3c-0.8,0-1.7,0-2.5,0c-0.8,0-1.6,0-2.5,0c-0.8,0-1.4,0.6-1.5,1.3C16.2,28.2,16.7,28.9,17.6,28.9z M33.9,38.8 c0-0.8-0.6-1.3-1.4-1.3c-0.7,0-1.5,0-2.2,0c-0.8,0-1.5,0-2.3,0c-0.8,0-1.4,0.6-1.4,1.3c0,0.8,0.6,1.3,1.4,1.3c1.5,0,3,0,4.6,0 C33.3,40.2,33.9,39.6,33.9,38.8z M18.7,37.5c-0.7,0-1.2,0.6-1.2,1.3c0,0.7,0.5,1.3,1.3,1.3c0.5,0,1,0,1.5,0c0,0,0,0,0,0 c0.5,0,1,0,1.6,0c0.7,0,1.2-0.6,1.2-1.3c0-0.7-0.5-1.3-1.2-1.3C20.8,37.5,19.8,37.5,18.7,37.5z M50.5,17.6c0.7,0,1.2-0.6,1.3-1.3 c0-0.7-0.5-1.3-1.2-1.3c-1-0.1-2-0.1-2.9,0c-0.7,0-1.2,0.6-1.2,1.3c0,0.7,0.5,1.3,1.2,1.3c0.5,0,0.9,0,1.4,0v0 C49.5,17.6,50,17.6,50.5,17.6z"></path> </g> </g> </svg> 