<?xml version="1.0" encoding="UTF-8"?> <svg xmlns="http://www.w3.org/2000/svg" xmlns:xlink="http://www.w3.org/1999/xlink" version="1.1" id="Layer_1" x="0px" y="0px" viewBox="0 0 96.5 98.3" style="enable-background:new 0 0 96.5 98.3;" xml:space="preserve"> <style type="text/css"> .st0{fill:#181f38;} </style> <g> <g> <path class="st0" d="M90.8,14.3c0-4.3-3.1-8.3-7.4-9.2c-1.1-0.2-2.3-0.3-3.5-0.3c-0.2,0-0.4-0.1-0.6-0.1c-5.9,0-22.9,0-28.8,0 c-6.1,0-10.4,4.2-10.4,10.3c0,4.2,0,8.4,0,12.6v1c-0.6-0.1-1.1-0.1-1.6-0.1c-8.3,0-16.6,0-24.9,0c-3.7,0-6.9,2.7-7.6,6.3 c-0.2,1.2-0.2,8.7-0.2,12.5c0,0.1,0,0.2,0,0.2c0,4.4,0,8.7,0,13.1c0,0.5,0,0.9,0.1,1.4c0.8,4,4,6.6,8.3,6.6c3.5,0,7.1,0,10.6,0H26 c0,1.6,0,3,0,4.4c0,0.6,0.1,1.2,0.7,1.6c0.7,0.4,1.2,0.1,1.8-0.4c1.8-1.4,3.6-2.8,5.5-4.2c0.2-0.2,0.5-0.3,0.9-0.6v1.2 c0,4.5,0,8.9,0,13.4c0,3.8,2.6,6.4,6.5,6.4c2.3,0,4.5,0,6.8,0h1c0,0.9,0,1.6,0,2.3c-0.1,0.9,0.2,1.5,0.9,2.1H51 c1.4-1.1,2.8-2.2,4.2-3.3c0.9-0.8,1.9-1.1,3.1-1.1c2.8,0,5.2-1.8,5.8-4.5c0.1-0.6,0.2-1.3,0.2-2c0-0.1,0-0.2,0-0.3 c0-1.9,0-13.8,0-15.7c0-4.2-2.5-6.7-6.7-6.7c-3.4,0-6.8,0-10.3,0h-0.9v-6.6c6.1,1.1,12.3,0.2,18.5,0.6c0,2,0,4,0,5.9 c0,0.7,0.1,1.2,0.7,1.6c0.7,0.4,1.2,0,1.8-0.4c2.9-2.2,5.9-4.5,8.9-6.7c0.4-0.3,0.9-0.5,1.4-0.5c1.1-0.1,2.2,0,3.3,0 c5.4-0.1,9.8-4.3,9.8-9.6C90.9,35,90.8,24.6,90.8,14.3z M35,65.4c-0.1,0.3-0.3,0.6-0.5,0.8c-1.8,1.4-3.5,2.7-5.3,4.1 c-0.1,0.1-0.3,0.2-0.6,0.3c0-0.9,0-1.7,0-2.6c0-1.8-0.3-2.1-2.1-2.1c-4.1,0-8.2,0-12.3,0c-3.5,0-5.7-2.3-5.8-5.7c0-3,0-6,0-9 c0-0.9,0-1.9,0-2.8c0-2.7,0-10.9,0-11.5c0-3.6,2.3-5.8,5.8-5.8c7.8,0,15.7,0,23.5,0c3.6,0,5.9,2.3,5.9,5.8c0,7.7,0,15.4,0,23.1V61 c-1.1,0-2.1,0-3,0C38,61.2,35.9,62.8,35,65.4z M57.6,63.7c2.8,0,4.1,1.3,4.1,4.1c0,1.7,0,12.2,0,15.1c0,0.4,0,0.8,0,1.2 c-0.1,2.2-1.5,3.7-3.7,3.6c-1.7-0.1-3,0.3-4.2,1.5c-0.5,0.4-1,0.8-1.5,1.2c-0.1,0.1-0.3,0.2-0.6,0.3c0-0.4,0-0.6,0-0.9 c0-1.7-0.3-2-2-2c-2.7,0-5.4,0-8.1,0c-2.8,0-4.1-1.3-4.1-4.1c0-5.3,0-10.5,0-15.8c0-2.8,1.3-4.1,4.1-4.1 C46.9,63.7,52.2,63.7,57.6,63.7z M88.1,45.3c0,3.5-2.7,6.4-6.2,6.8c-1.7,0.2-3.4,0.1-5.1,0.2c-0.5,0-1.1,0.2-1.5,0.5 c-2.3,1.7-4.6,3.5-6.9,5.2c-0.2,0.2-0.5,0.4-0.9,0.6c0-1.6,0-3.1,0-4.5c0-1.5-0.4-1.9-1.9-1.9c-5.1,0-10.2,0-15.3,0 c-1.1,0-2.2-0.4-3.3-0.6c-0.6-0.1-0.8-0.5-0.8-1.2c0-4.6,0-9.1,0-13.7c0-2.7-1-4.9-3.1-6.6c-0.3-0.2-0.5-0.6-0.5-0.9 c0-5-0.1-10,0-14.9c0-3.4,2.5-6.2,5.9-6.8c0.6-0.1,1.2-0.1,1.8-0.1c5.9,0,22.7,0,28.7,0c0.6,0,1.2,0,1.8,0c3.8,0.1,7,3.1,7,7 C88.2,24.6,88.2,35,88.1,45.3z M77,25.4c-2,0-4.1,0-6.1,0c0-0.1,0-0.2,0-0.2c0.1-0.3,0.2-0.6,0.3-0.9c1-3,0.8-5.8-0.7-8.6 c-0.6-1-1.4-1.5-2.6-1.4c-1.1,0.1-1.9,0.7-2.3,1.8c-0.2,0.5-0.1,1.1-0.3,1.5c-0.3,1.2-0.5,2.5-1.2,3.4c-1.3,1.8-2.8,3.4-4.1,4.9 c-0.8-0.1-1.4-0.3-2-0.3c-2.1,0-4.1,0-6.2,0c-1.2,0-1.7,0.4-1.7,1.6c0,5.1,0,10.2,0,15.3c0,1.2,0.4,1.6,1.6,1.6c2.2,0,4.3,0,6.5,0 c0.5,0,1.1-0.3,1.6-0.4c1.3,0.3,2.7,0.9,4,1c4.5,0.1,9,0.1,13.4,0.1c2,0,3.3-1.5,3.3-3.6c0-4,0-8.1,0-12.1 C80.7,26.8,79.3,25.4,77,25.4z M57.3,41.6H53V28.4h4.3V41.6z M78.1,41c0,1-0.2,1.2-1.2,1.2c-4,0-8,0-12,0c-1.6,0-3.1-0.5-4.4-1.6 c-0.2-0.2-0.4-0.6-0.5-0.9c0-3,0-6.1,0-9.1c0-0.4,0.2-0.8,0.4-1.1c1.5-1.7,2.9-3.4,4.4-5c1.8-2,3-4.3,3.1-7c0-0.1,0.1-0.2,0.1-0.5 c1.1,2.1,1.3,4.2,0.6,6.2c-0.3,0.9-0.8,1.8-1.1,2.8c-0.5,1.2,0.1,2,1.4,2.1c2.6,0,5.2,0,7.8,0c1.1,0,1.3,0.1,1.3,1.3 C78.1,33.2,78.1,37.1,78.1,41z M34.9,47.2c1,0,1.6-0.8,1.4-1.6c-0.2-0.7-0.8-1-1.5-1c-1.2,0-2.4,0-3.6,0c0-0.2,0-0.3,0-0.4 c0.2-1.3,0.4-2.5,0.6-3.8c0.1-0.9-0.2-1.5-1-1.7C30,38.6,29.4,39,29.2,40c-0.2,1.3-0.4,2.7-0.7,4c0,0.2-0.3,0.6-0.5,0.6 c-0.9,0.1-1.8,0-2.8,0c0.1-0.5,0.1-0.8,0.2-1.2c0.2-1.1,0.4-2.1,0.5-3.2c0.1-0.8-0.4-1.4-1.1-1.4c-0.8-0.1-1.3,0.3-1.5,1 c-0.1,0.2-0.1,0.5-0.1,0.7c-0.2,1.4-0.5,2.7-0.7,4.1c-0.2,0-0.2,0.1-0.3,0.1c-1.5,0-3.1,0-4.6,0c-1.1,0-1.7,0.5-1.7,1.3 c0,0.8,0.6,1.3,1.7,1.3c1.4,0,2.9,0,4.5,0c-0.1,0.9-0.3,1.6-0.3,2.3c0,0.9-0.5,1-1.2,0.9c-1.1,0-2.2,0-3.3,0 c-0.9,0-1.4,0.5-1.4,1.3c0,0.7,0.5,1.2,1.3,1.3c0.4,0,0.7,0,1.1,0c0.9,0,1.9,0,2.9,0c-0.2,1.5-0.5,2.8-0.7,4.1 c-0.2,1,0.3,1.7,1.1,1.8c0.8,0.1,1.4-0.4,1.6-1.4c0.2-1.5,0.5-2.9,0.7-4.4H27c-0.2,1.4-0.4,2.7-0.6,4c-0.2,1,0.2,1.7,1,1.9 c0.8,0.2,1.4-0.3,1.6-1.4c0.2-1.1,0.4-2.1,0.5-3.2c0.2-1.3,0.2-1.3,1.5-1.3c1.4,0,2.7,0,4.1,0c0.8,0,1.3-0.6,1.3-1.3 c0-0.7-0.5-1.2-1.3-1.3c-0.4,0-0.9,0-1.3,0c-1.2,0-2.3,0-3.6,0c0.2-1.2,0.4-2.2,0.6-3.2C32.2,47.3,33.5,47.3,34.9,47.2z M27.4,50.4h-3.2c0.2-1,0.3-1.9,0.5-2.8c0-0.2,0.4-0.4,0.6-0.4c0.8,0,1.7,0,2.7,0C27.8,48.4,27.6,49.4,27.4,50.4z M44.2,79.4 c1.4,1.2,3.1,2.2,4.7,3.2c0.3,0.2,0.9,0.2,1.2,0c1.9-1,3.8-2,5.2-3.7c1.1-1.2,1.7-2.6,1.8-4.6c0.1-4.1-4.6-6-7.3-4.1 c-0.2,0.1-0.5,0.1-0.8-0.1c-2.9-1.6-6.3-0.2-7,3C41.5,75.6,42.3,77.8,44.2,79.4z M44.7,73.9c0.2-0.9,0.7-1.5,1.6-1.7 c0.9-0.2,1.6,0.1,2.1,0.9c0.7,1,1.7,1,2.4,0.1c0.7-1,1.3-1.2,2.2-1c0.9,0.3,1.5,1.1,1.6,2.1c0,0.1,0,0.2,0,0.3 c0.1,0,0.2,0.1,0.2,0.1c-0.4,0.8-0.7,1.8-1.3,2.4c-1.1,1-2.4,1.8-3.6,2.7c-0.1,0.1-0.5,0.1-0.6,0c-1.2-0.8-2.5-1.6-3.5-2.6 C44.7,76.3,44.4,75.1,44.7,73.9z"></path> </g> </g> </svg> 