<?xml version="1.0" encoding="UTF-8"?> <svg xmlns="http://www.w3.org/2000/svg" xmlns:xlink="http://www.w3.org/1999/xlink" version="1.1" id="Layer_1" x="0px" y="0px" viewBox="0 0 75.3 82.5" style="enable-background:new 0 0 75.3 82.5;" xml:space="preserve"> <style type="text/css"> .st0{fill:#181f38;} </style> <g> <g> <path class="st0" d="M71.7,6.2c0-2.1-1-3.1-3.1-3.1c-15.9,0-31.8,0-47.6,0c-2.2,0-3.1,1-3.1,3.1c0,8.2,0,16.5,0,24.7 c0,0.4,0,0.8,0.1,1.1c0.3,1.3,1.6,2.2,2.9,2c1.4-0.2,2.2-1.3,2.2-2.9c0-7.3,0-14.6,0-21.9V8.3h43.4v67.5H23.1v-1 c0-7.1,0-14.3,0-21.4c0-0.3,0-0.7,0-1c-0.1-1.5-1.5-2.5-3-2.3c-1.4,0.2-2.2,1.3-2.2,3c0,8.3,0,16.6,0,24.9c0,2.1,1,3.1,3.2,3.1 c15.9,0,31.7,0,47.6,0c2.2,0,3.2-1,3.2-3.1C71.7,54,71.7,30.1,71.7,6.2z M41.5,44.7c-0.3,0.3-0.5,0.5-0.7,0.7 c-1.8,1.8-3.6,3.6-5.4,5.3c-1.2,1.2-1.2,2.8-0.1,3.8c1,1,2.7,1,3.8-0.1c3.5-3.5,7-6.9,10.5-10.4c1.2-1.2,1.2-2.7,0-3.9 c-3.5-3.5-7-6.9-10.5-10.4c-1.1-1.1-2.7-1.2-3.8-0.1c-1.1,1.1-1,2.6,0.1,3.8c1.8,1.8,3.6,3.6,5.4,5.3c0.2,0.2,0.4,0.4,0.7,0.7h-1 c-11.1,0-22.3,0-33.4,0c-0.3,0-0.5,0-0.8,0c-1.3,0.1-2.3,1.1-2.5,2.3c-0.1,1.2,0.6,2.4,1.8,2.7c0.4,0.1,0.9,0.1,1.3,0.1 c11.2,0,22.4,0,33.6,0H41.5z"></path> </g> </g> </svg> 