<?xml version="1.0" encoding="UTF-8"?> <svg xmlns="http://www.w3.org/2000/svg" xmlns:xlink="http://www.w3.org/1999/xlink" version="1.1" id="Layer_1" x="0px" y="0px" viewBox="0 0 84.2 105.2" style="enable-background:new 0 0 84.2 105.2;" xml:space="preserve"> <style type="text/css"> .st0{fill:#181f38;} </style> <g> <g> <path class="st0" d="M70.2,65.3c4-2.8,6.2-6.6,6.4-11.5c0.1-1.9,0.5-3.6,1.4-5.3c2.4-4.6,2.4-9.2,0-13.7c-0.9-1.7-1.3-3.4-1.4-5.3 c-0.2-4.9-2.4-8.7-6.4-11.4c-1.8-1.2-3.3-2.7-4.5-4.6c-2.5-3.7-6-5.8-10.4-6.3C53.8,7,52.2,7,50.7,6.4c-2.2-0.9-4.3-2-6.7-2.4 h-3.4c-1.6,0.5-3.2,0.9-4.6,1.6c-1.9,0.9-3.7,1.5-5.8,1.6c-5,0.3-8.9,2.6-11.6,6.9c-1,1.6-2.4,2.8-4,3.9 c-4.1,2.7-6.3,6.6-6.5,11.5c-0.1,1.9-0.5,3.6-1.4,5.3c-2.4,4.6-2.4,9.2,0,13.7c0.9,1.7,1.3,3.4,1.4,5.3c0.2,4.9,2.4,8.7,6.5,11.5 c0.9,0.6,1.8,1.4,2.6,2.1c0.6,0.4,0.7,0.9,0.3,1.6c-3.5,7.3-6.9,14.6-10.3,22c-0.4,0.8-0.4,1.5,0.1,2.2c0.6,0.7,1.3,0.8,2.1,0.6 c3-0.6,6-1.2,9.1-1.8c0.7-0.1,1,0,1.3,0.6c1.4,2.7,2.9,5.4,4.4,8.1c0.7,1.2,1.9,1.6,2.8,0.8c0.4-0.3,0.7-0.8,0.9-1.3 c3.2-6.9,6.4-13.8,9.7-20.7c0.2-0.3,0.3-0.7,0.4-0.9c1.4,0.2,2.7,0.4,4,0.5c1.3,0,2.6-0.1,3.9-0.4c0.8-0.2,1,0,1.3,0.6 c3.2,7,6.5,14,9.8,21c0.4,0.8,0.9,1.5,1.9,1.5c1,0,1.5-0.6,2-1.4c1.4-2.6,2.8-5.1,4.2-7.7c0.4-0.8,0.8-0.9,1.6-0.7 c3,0.6,6,1.2,9,1.8c0.8,0.2,1.5,0,2-0.6c0.5-0.6,0.6-1.3,0.3-2.1c-0.1-0.3-0.2-0.5-0.4-0.8c-3.4-7.2-6.7-14.4-10.1-21.6 c-0.3-0.7-0.3-1.1,0.3-1.6C68.5,66.6,69.4,65.9,70.2,65.3z M25.8,95.8c-1.2-2.2-2.3-4.3-3.5-6.3c-0.9-1.6-1.3-1.8-3.1-1.5 c-2.1,0.4-4.2,0.8-6.4,1.2c-0.2,0-0.5,0.1-0.9,0.1c2.8-5.9,5.5-11.7,8.2-17.6c0.2,0.2,0.4,0.3,0.6,0.5c2.6,2.5,5.8,3.7,9.4,3.9 c1.4,0.1,2.8,0.4,4.4,0.7C31.7,83.3,28.8,89.4,25.8,95.8z M72.8,89.4c-2.4-0.4-4.5-0.9-6.7-1.3c-0.3-0.1-0.6-0.1-0.8-0.2 c-1.4-0.3-1.9,0-2.6,1.3c-1,1.8-2,3.7-3,5.5c-0.2,0.3-0.3,0.6-0.6,1c-3-6.3-5.8-12.5-8.8-18.9c1-0.2,1.9-0.7,2.9-0.7 c4.4-0.1,8.2-1.4,11.4-4.7C67.3,77.5,70,83.4,72.8,89.4z M62.8,67.4c-2,3.2-4.9,4.8-8.7,4.9c-2.4,0.1-4.6,0.6-6.6,1.8 c-1.6,0.9-3.3,1.4-5.2,1.3c-1.7,0-3.3-0.4-4.8-1.2c-2.2-1.2-4.6-1.8-7.1-1.9c-3.6-0.2-6.5-1.8-8.4-4.8c-1.4-2.2-3.1-4-5.3-5.4 c-3-2-4.7-4.8-4.8-8.4c-0.1-2.5-0.7-4.8-1.8-7c-1.8-3.4-1.8-6.8,0-10.1c1.1-2.2,1.7-4.4,1.8-6.9c0.1-3.8,1.8-6.6,5-8.6 c2.1-1.3,3.7-2.9,5-5c2-3.2,4.9-4.9,8.7-5.1c2.5-0.1,4.8-0.8,7.1-1.9c3.1-1.6,6.4-1.7,9.5,0c2.3,1.2,4.7,1.9,7.3,2 c3.7,0.2,6.6,1.9,8.6,5.1c1.3,2,2.9,3.7,4.9,5c3.2,2,4.9,5,5,8.8c0.1,2.4,0.7,4.6,1.8,6.7c1.8,3.4,1.8,6.9,0,10.3 c-1.1,2.1-1.7,4.4-1.8,6.8c-0.1,3.7-1.8,6.6-4.9,8.6C65.8,63.5,64.1,65.2,62.8,67.4z M57.5,17.7c-1.8-1.2-3.9-2-6-2.9 c-1.1-0.5-2.1,0.1-2.5,1.1c-0.4,1,0.1,2,1.3,2.5c0.2,0.1,0.4,0.1,0.5,0.2c11,4.1,17.5,15.3,15.7,26.9C64.4,58.9,51.8,68,38.3,65.8 c-10.7-1.7-19-10.4-20.3-21.6c-1.3-11,5-20.7,14.1-24.9c0.8-0.4,1.7-0.6,2.5-1c1-0.4,1.4-1.4,1.1-2.4c-0.3-0.9-1.2-1.4-2.2-1.2 c-0.3,0.1-0.7,0.2-1,0.3C21.4,19.1,14,29.8,14,41.6c0.1,1.4,0.2,2.8,0.4,4.2c2.2,14.9,15.6,25.4,30.6,24 c13.5-1.2,24.6-12.2,25.5-25.8C71.3,32.9,66.9,24,57.5,17.7z M35.8,37.2c-1.7,1-3.5,1.9-4.9,3.1c-3.6,3-5.3,6.9-5.2,11.6 c0,2.9,0.3,3.3,3.2,3.3H48c3,0,6,0,9,0c1.3,0,2-0.6,2.1-1.8c0.2-3.2-0.3-6.3-2-9.2c-1.9-3.2-4.7-5.4-8-6.6c0.5-1.5,1-3,1.3-4.4 c0.2-1.2,0.1-2.4,0-3.6c-0.2-4.1-3.6-7.4-7.8-7.6c-4-0.2-7.7,2.8-8.2,6.8C34.1,31.7,34,34.7,35.8,37.2z M38.3,29.1 c0.3-2.2,2.4-3.6,4.5-3.4c2.2,0.2,3.8,1.9,3.9,4.1c0,0.5,0,1,0,1.4c0,0,0,0,0,0c0,0.7,0,1.4-0.1,2.1c-0.4,2.1-2.2,3.4-4.2,3.4 c-2.1,0-3.8-1.4-4.1-3.5C38.1,31.9,38.1,30.5,38.3,29.1z M40.6,40.7c0,0.7,0,1.5,0,2.2c0,1.2,0.7,2,1.8,2c1.1,0,1.9-0.7,2-2 c0-0.8,0-1.5,0-2.3c5.6-0.6,11.4,5.1,10.9,10.5H29.7C29,46.9,33.6,40.3,40.6,40.7z M42.3,17c1.1,0,1.9-0.8,1.9-1.8 c0-1.1-0.9-2-1.9-2c-1,0-1.9,0.9-1.9,1.9C40.4,16.2,41.3,17,42.3,17z"></path> </g> </g> </svg> 