<?xml version="1.0" encoding="UTF-8"?> <svg xmlns="http://www.w3.org/2000/svg" xmlns:xlink="http://www.w3.org/1999/xlink" version="1.1" id="Layer_1" x="0px" y="0px" viewBox="0 0 84.2 84.71" style="enable-background:new 0 0 84.2 84.71;" xml:space="preserve"> <style type="text/css"> .st0{fill:#08cf65;} </style> <g> <g> <path class="st0" d="M81.31,29.45c-0.49-0.5-0.98-0.99-1.47-1.48c-2.65-2.65-5.69-2.66-8.32-0.01c-0.93,0.94-1.82,1.91-2.73,2.87 c-0.07-0.04-0.15-0.09-0.22-0.13c0-0.29,0-0.59,0-0.88c0-6.38,0.01-12.76-0.01-19.14c0-0.83-0.06-1.68-0.26-2.48 c-1-4.2-4.46-6.84-8.98-6.84c-16.34-0.01-32.69,0-49.03,0c-0.61,0-1.23,0.01-1.82,0.12C3.96,2.31,1.1,5.89,1.1,10.7 c-0.01,21.09,0,42.18,0,63.27c0,0.64,0,1.29,0.11,1.92c0.79,4.52,4.38,7.46,9.14,7.46c16.32,0.01,32.63,0,48.95,0 c0.61,0,1.23-0.01,1.82-0.11c4.41-0.78,7.43-4.38,7.44-8.93c0.02-7.69,0.02-15.38-0.01-23.07c0-0.73,0.21-1.23,0.72-1.74 c4.02-4,8.02-8.02,12.01-12.05C83.7,35.01,83.69,31.89,81.31,29.45z M4.63,13.78c0-1.09,0-2.17,0-3.26 c0.01-3.34,2.27-5.62,5.59-5.62c12.81,0,25.63,0,38.44,0c3.58,0,7.16-0.01,10.73,0c3.34,0.01,5.59,2.24,5.63,5.59 c0.02,1.67,0,3.33,0,5.09c-20.17,0-40.22,0-60.4,0C4.63,14.98,4.63,14.38,4.63,13.78z M65.03,54.85c0,6.35,0,12.71,0,19.06 c0,3.72-2.19,5.9-5.92,5.9c-16.21,0-32.41,0-48.62,0c-3.68,0-5.87-2.18-5.87-5.85c0-17.94,0-35.89,0-53.83c0-0.28,0-0.55,0-0.9 c20.12,0,40.19,0,60.4,0c0,0.36,0,0.66,0,0.96c0,4.49-0.01,8.97,0.01,13.46c0,0.62-0.2,1.03-0.62,1.45 c-8.6,8.62-17.19,17.26-25.8,25.87c-1.39,1.38-2.11,2.94-2.04,4.91c0.06,1.59,0,3.18,0.01,4.76c0.01,1.34,0.66,2,2,2.02 c1.69,0.02,3.39-0.03,5.08,0.01c1.75,0.04,3.16-0.6,4.39-1.84c5.39-5.43,10.79-10.84,16.18-16.27c0.2-0.21,0.27-0.55,0.4-0.83 c0.13,0.1,0.26,0.21,0.39,0.31C65.03,54.31,65.03,54.58,65.03,54.85z M40.22,64.83c1.4,1.41,2.77,2.79,4.15,4.18 c-1.32,0-2.73,0-4.15,0C40.22,67.62,40.22,66.2,40.22,64.83z M47.28,66.37c-1.45-1.46-2.94-2.97-4.39-4.44 c8.51-8.55,17.1-17.17,25.62-25.72c1.42,1.43,2.92,2.94,4.4,4.42C64.41,49.17,55.82,57.79,47.28,66.37z M79.08,34.58 c-1.1,1.17-2.28,2.26-3.38,3.35c-1.5-1.51-3-3.01-4.5-4.52c1.08-1.11,2.17-2.28,3.33-3.39c0.66-0.63,1.66-0.59,2.34,0.05 c0.75,0.7,1.48,1.42,2.17,2.18C79.7,32.96,79.74,33.87,79.08,34.58z M13.82,51.25c2.25,0.01,4.49,0,6.74,0 c2.27,0,4.55,0.01,6.82,0c3.45-0.02,5.66-2.23,5.67-5.71c0.01-4.51,0.01-9.03,0-13.54c-0.01-3.46-2.25-5.7-5.69-5.7 c-4.49-0.01-8.99,0-13.48,0c-3.45,0-5.7,2.23-5.71,5.68c-0.02,4.54-0.02,9.08,0,13.62C8.19,49.02,10.41,51.23,13.82,51.25z M29.05,47.03c-0.37,0.29-0.84,0.63-1.28,0.64c-3.24,0.05-6.47,0.03-9.83,0.03c1.77-1.81,3.42-3.56,5.14-5.24 c0.67-0.66,1.61-0.58,2.33,0.11c1.24,1.19,2.45,2.41,3.63,3.66C29.18,46.38,29.18,46.93,29.05,47.03z M13.95,29.86 c4.44-0.01,8.88-0.01,13.32,0c1.59,0,2.21,0.63,2.21,2.23c0.01,2.87,0,5.74,0,8.61c0,0.22-0.02,0.43-0.03,0.65 c-0.08,0.05-0.16,0.1-0.24,0.15c-0.4-0.46-0.77-0.94-1.21-1.37c-2.27-2.21-5.39-2.23-7.66-0.01c-2.3,2.26-4.56,4.56-6.83,6.85 c-0.7,0.71-1.24,0.6-1.61-0.35c-0.12-0.33-0.14-0.71-0.15-1.06c-0.01-4.48-0.01-8.97,0-13.45C11.75,30.49,12.36,29.86,13.95,29.86 z M34.93,54.87c-0.28-0.02-0.55-0.02-0.83-0.02c-3.88,0-7.77,0-11.65,0c-2.72,0-5.44,0-8.15,0c-1.44,0-2.89-0.02-4.33,0.01 c-1.03,0.02-1.76,0.76-1.78,1.72c-0.02,0.99,0.73,1.76,1.79,1.82c0.14,0.01,0.28,0,0.42,0c8.02,0,16.03,0,24.05,0 c0.19,0,0.39,0.01,0.58-0.02c0.94-0.13,1.62-0.93,1.57-1.85C36.55,55.63,35.87,54.94,34.93,54.87z M31.83,62.09 c-0.36-0.11-0.76-0.13-1.15-0.13c-3.33-0.01-6.65,0-9.98-0.01c-3.35,0-6.71,0-10.06,0c-1.6,0-2.48,0.66-2.46,1.83 c0.03,1.15,0.87,1.76,2.44,1.76c6.65,0,13.3,0,19.96,0c0.41,0,0.84-0.02,1.23-0.13c0.75-0.2,1.26-0.94,1.22-1.7 C32.99,62.92,32.6,62.33,31.83,62.09z M38.28,29.84c0.28,0.02,0.55,0.01,0.83,0.01c3.3,0,6.6,0,9.9,0c2.63,0,5.27,0,7.9,0 c0.97,0,1.94,0.02,2.91-0.02c0.95-0.05,1.59-0.76,1.62-1.68c0.03-0.96-0.62-1.72-1.57-1.83c-0.27-0.03-0.55-0.02-0.83-0.02 c-6.26,0-12.53,0-18.79,0c-0.67,0-1.33-0.03-1.99,0.02c-0.95,0.07-1.65,0.86-1.64,1.78C36.62,29.03,37.31,29.76,38.28,29.84z M31.01,69.11c-6.93-0.01-13.86,0-20.79,0c-0.19,0-0.39,0-0.58,0.03c-1.25,0.25-1.85,1.68-1.15,2.73 c0.44,0.65,1.08,0.79,1.81,0.79c3.44-0.01,6.87-0.01,10.31-0.01c3.46,0,6.93,0,10.39,0c1.05,0,1.68-0.42,1.94-1.24 C33.33,70.16,32.46,69.11,31.01,69.11z M38.68,37c2.33,0.01,4.66,0,6.99,0c3.39,0,6.77-0.01,10.16,0.01 c0.82,0,1.48-0.23,1.88-0.98c0.64-1.22-0.23-2.55-1.71-2.56c-2.91-0.02-5.83-0.01-8.74-0.01c-2.86,0-5.72-0.01-8.57,0 c-1.28,0-2.08,0.7-2.08,1.77C36.61,36.29,37.42,37,38.68,37z M48.83,40.56c-1.69-0.03-3.38-0.01-5.07-0.01 c-1.75,0-3.49-0.02-5.24,0.01c-1.15,0.02-1.91,0.75-1.92,1.77c-0.01,1.02,0.74,1.79,1.88,1.8c3.49,0.03,6.98,0.02,10.47,0 c0.78,0,1.39-0.36,1.7-1.12C51.17,41.78,50.3,40.59,48.83,40.56z M42.1,47.73c-1.3-0.06-2.61-0.06-3.9,0 c-0.94,0.05-1.62,0.9-1.58,1.82c0.04,0.9,0.71,1.62,1.64,1.68c0.63,0.04,1.27,0.01,1.91,0.01c0.64,0,1.28,0.03,1.91-0.01 c0.92-0.06,1.6-0.79,1.63-1.69C43.73,48.62,43.04,47.77,42.1,47.73z M60.09,8.54c-0.29-0.07-0.6-0.08-0.91-0.08 c-9.13,0-18.26,0-27.39,0c-0.33,0-0.67,0.02-0.99,0.1c-0.79,0.2-1.33,0.93-1.31,1.72c0.02,0.77,0.53,1.47,1.29,1.65 c0.37,0.09,0.77,0.11,1.15,0.11c4.52,0.01,9.05,0,13.57,0c4.16,0,8.32,0,12.49,0c0.69,0,1.39,0.02,2.07-0.09 c0.87-0.14,1.38-0.86,1.37-1.73C61.43,9.39,60.92,8.74,60.09,8.54z M24.12,8.47c-1.16-0.04-2.33-0.05-3.49,0 c-1.07,0.04-1.81,0.84-1.79,1.81c0.02,0.95,0.74,1.67,1.78,1.75c0.58,0.04,1.16,0.01,1.74,0.01c0,0,0,0,0,0 c0.58,0,1.17,0.03,1.75-0.01c1.1-0.07,1.82-0.79,1.83-1.78C25.94,9.27,25.21,8.51,24.12,8.47z M13.52,8.48 c-1.19-0.05-2.38-0.05-3.57,0C8.91,8.52,8.2,9.3,8.19,10.24c-0.01,0.94,0.7,1.71,1.73,1.79c0.58,0.05,1.16,0.01,1.74,0.01 c0,0,0,0,0,0.01c0.61,0,1.22,0.03,1.83-0.01c1.09-0.07,1.81-0.82,1.79-1.81C15.27,9.27,14.57,8.52,13.52,8.48z M17.02,37 c0.98,0.02,1.79-0.78,1.79-1.78c0-0.99-0.73-1.74-1.71-1.75c-1-0.02-1.81,0.77-1.81,1.76C15.3,36.17,16.08,36.97,17.02,37z"></path> </g> </g> </svg> 