<?xml version="1.0" encoding="utf-8"?>
<!-- Generator: Adobe Illustrator 25.4.1, SVG Export Plug-In . SVG Version: 6.00 Build 0)  -->
<svg version="1.1" id="Layer_1" xmlns="http://www.w3.org/2000/svg" xmlns:xlink="http://www.w3.org/1999/xlink" x="0px" y="0px"
	 viewBox="0 0 79 90" style="enable-background:new 0 0 79 90;" xml:space="preserve">
<style type="text/css">
	.st0{fill:#3C3C3C;}
	.st1{fill:#FD7920;}
</style>
<path class="st0" d="M61.6,13.7l5.1,3.3c0.2,0.1,0.3,0.2,0.5,0.2c0.3,0,0.6-0.1,0.8-0.4c0.3-0.4,0.2-1-0.3-1.3l-5.1-3.3
	c-0.4-0.3-1-0.2-1.3,0.3C61.1,12.9,61.2,13.4,61.6,13.7z"/>
<path class="st1" d="M5.5,41.4c1.2,0,2.3-0.4,3.2-1l8,7.9c0.2,0.2,0.4,0.3,0.7,0.3h15c0.5,0,0.9-0.4,0.9-0.9s-0.4-0.9-0.9-0.9H17.6
	l-7.7-7.7c0.6-0.9,1-2,1-3.1c0-3-2.5-5.4-5.5-5.4C2.5,30.6,0,33,0,36C0,39,2.5,41.4,5.5,41.4z M5.5,32.4c2,0,3.6,1.6,3.6,3.6
	s-1.6,3.6-3.6,3.6c-2,0-3.6-1.6-3.6-3.6S3.5,32.4,5.5,32.4z"/>
<path class="st0" d="M34.2,9.9h12.9c2.3,0,4.2-1.9,4.2-4.1V4.2c0-2.3-1.9-4.2-4.2-4.2H34.2C31.9,0,30,1.9,30,4.2v1.6
	C30,8.1,31.9,9.9,34.2,9.9z M31.9,4.2c0-1.3,1-2.3,2.3-2.3h12.9c1.3,0,2.3,1,2.3,2.3v1.6c0,1.3-1,2.3-2.3,2.3H34.2
	c-1.3,0-2.3-1-2.3-2.3V4.2z"/>
<path class="st0" d="M43,55.5l8.2,8.2c0.2,0.2,0.4,0.3,0.7,0.3c0.2,0,0.5-0.1,0.7-0.3c0.4-0.4,0.4-1,0-1.3l-8.2-8.2
	c0.4-0.7,0.7-1.5,0.7-2.4c0-2.1-1.5-3.9-3.5-4.3V25.2c0-0.5-0.4-0.9-0.9-0.9c-0.5,0-0.9,0.4-0.9,0.9v22.3c-2,0.4-3.5,2.2-3.5,4.3
	c0,2.4,2,4.4,4.4,4.4C41.5,56.3,42.3,56,43,55.5z M38.1,51.8c0-1.4,1.2-2.6,2.6-2.6c1.4,0,2.6,1.1,2.6,2.6c0,1.4-1.2,2.6-2.6,2.6
	C39.2,54.4,38.1,53.2,38.1,51.8z"/>
<path class="st0" d="M40.6,13.7c-0.5,0-0.9,0.4-0.9,0.9c0,0.5,0.4,0.9,0.9,0.9c20.1,0,36.5,16.3,36.5,36.3c0,20-16.4,36.3-36.5,36.3
	c-0.5,0-0.9,0.4-0.9,0.9s0.4,0.9,0.9,0.9C61.8,90,79,72.9,79,51.8C79,30.8,61.8,13.7,40.6,13.7z"/>
<path class="st0" d="M65.7,66.8c0.1,0.1,0.3,0.1,0.5,0.1c0.3,0,0.6-0.2,0.8-0.5c2.5-4.5,3.8-9.5,3.8-14.6c0-1.2-0.1-2.4-0.2-3.6
	c-0.1-0.5-0.5-0.9-1-0.8c-0.5,0.1-0.9,0.5-0.8,1c0.1,1.1,0.2,2.2,0.2,3.4c0,4.8-1.2,9.6-3.6,13.7C65.1,66,65.3,66.6,65.7,66.8z"/>
<path class="st1" d="M17.6,56.9h14.6c0.5,0,0.9-0.4,0.9-0.9c0-0.5-0.4-0.9-0.9-0.9h-15c-0.2,0-0.5,0.1-0.7,0.3l-8,7.9
	c-0.9-0.6-2-1-3.2-1c-3,0-5.5,2.4-5.5,5.4c0,3,2.5,5.4,5.5,5.4c3,0,5.5-2.4,5.5-5.4c0-1.2-0.4-2.2-1-3.1L17.6,56.9z M5.5,71.3
	c-2,0-3.6-1.6-3.6-3.6c0-2,1.6-3.6,3.6-3.6c2,0,3.6,1.6,3.6,3.6C9.1,69.7,7.5,71.3,5.5,71.3z"/>
<path class="st0" d="M52.2,78.6c0.2,0.3,0.5,0.5,0.8,0.5c0.1,0,0.3,0,0.4-0.1c3.3-1.5,6.2-3.6,8.8-6.2c0.4-0.4,0.4-1,0-1.3
	c-0.4-0.4-1-0.4-1.3,0c-2.4,2.4-5.2,4.4-8.2,5.8C52.2,77.6,52,78.2,52.2,78.6z"/>
<path class="st1" d="M23.3,27c0.6-0.9,1-2,1-3.1c0-3-2.5-5.4-5.5-5.4c-3,0-5.5,2.4-5.5,5.4c0,3,2.5,5.4,5.5,5.4c1.2,0,2.3-0.4,3.1-1
	l12.2,12.1c0.2,0.2,0.4,0.3,0.7,0.3c0.2,0,0.5-0.1,0.7-0.3c0.4-0.4,0.4-1,0-1.3L23.3,27z M18.8,27.4c-2,0-3.6-1.6-3.6-3.6
	c0-2,1.6-3.6,3.6-3.6c2,0,3.6,1.6,3.6,3.6C22.4,25.8,20.8,27.4,18.8,27.4z"/>
<path class="st1" d="M34.1,63.3L22,75.4c-0.9-0.6-2-1-3.1-1c-3,0-5.5,2.4-5.5,5.4c0,3,2.5,5.4,5.5,5.4c3,0,5.5-2.4,5.5-5.4
	c0-1.2-0.4-2.2-1-3.1l12.2-12.1c0.4-0.4,0.4-1,0-1.3C35.1,62.9,34.5,62.9,34.1,63.3z M18.8,83.4c-2,0-3.6-1.6-3.6-3.6
	c0-2,1.6-3.6,3.6-3.6c2,0,3.6,1.6,3.6,3.6C22.4,81.8,20.8,83.4,18.8,83.4z"/>
</svg>
