<?xml version="1.0" encoding="utf-8"?>
<!-- Generator: Adobe Illustrator 25.4.1, SVG Export Plug-In . SVG Version: 6.00 Build 0)  -->
<svg version="1.1" id="Layer_1" xmlns="http://www.w3.org/2000/svg" xmlns:xlink="http://www.w3.org/1999/xlink" x="0px" y="0px"
	 viewBox="0 0 88 90" style="enable-background:new 0 0 88 90;" xml:space="preserve">
<style type="text/css">
	.st0{fill:#3C3C3C;}
	.st1{fill:#FE7920;}
</style>
<path class="st0" d="M77.9,36.8H42.2c-0.5,0-1,0.4-1,1c0,0.5,0.4,1,1,1h35.8c0.5,0,1-0.4,1-1C78.9,37.3,78.5,36.8,77.9,36.8z"/>
<path class="st0" d="M77.9,45.7H47c-0.5,0-1,0.4-1,1c0,0.5,0.4,1,1,1h30.9c0.5,0,1-0.4,1-1C78.9,46.2,78.5,45.7,77.9,45.7z"/>
<path class="st0" d="M29.5,18.1c0.5,0,1-0.4,1-1v-3.5c0-2,1.6-3.6,3.6-3.6h10.7v0c0,1.7,1.4,3.1,3.1,3.1h20.8c1.7,0,3.1-1.4,3.1-3.1
	V6.3c0-1.7-1.4-3.1-3.1-3.1h-3.1V3.1c0-1.7-1.4-3.1-3.1-3.1H54c-1.7,0-3.1,1.4-3.1,3.1v0.2h-3.1c-1.7,0-3.1,1.4-3.1,3.1v1.8H34
	c-3.1,0-5.6,2.5-5.6,5.6v3.5C28.5,17.7,28.9,18.1,29.5,18.1z M46.7,6.3c0-0.6,0.5-1.1,1.1-1.1h4.1c0.5,0,1-0.4,1-1V3.1
	C52.9,2.5,53.4,2,54,2h8.5c0.6,0,1.1,0.5,1.1,1.1v1.1c0,0.5,0.4,1,1,1h4.1c0.6,0,1.1,0.5,1.1,1.1V10c0,0.6-0.5,1.1-1.1,1.1H47.8
	c-0.6,0-1.1-0.5-1.1-1.1V6.3z"/>
<path class="st0" d="M64.6,27.6c0.5,0,1-0.4,1-1c0-0.5-0.4-1-1-1H51.9c-0.5,0-1,0.4-1,1c0,0.5,0.4,1,1,1H64.6z"/>
<path class="st0" d="M82.4,8.1h-5.2c-0.5,0-1,0.4-1,1c0,0.5,0.4,1,1,1h5.2c2,0,3.6,1.6,3.6,3.6v6.8c0,0.5,0.4,1,1,1s1-0.4,1-1v-6.8
	C88,10.5,85.5,8.1,82.4,8.1z"/>
<path class="st1" d="M12.4,34.8h1.9c-0.1,0.5-0.1,0.9-0.1,1.4c0,1.6,0.3,3.1,1,4.5c1.8,3.9,5.7,6.4,9.9,6.4c4.3,0,8.2-2.5,9.9-6.4
	c0.2-0.5,0-1.1-0.5-1.3c-0.5-0.2-1.1,0-1.3,0.5c-1.5,3.2-4.7,5.2-8.2,5.2c-3.5,0-6.7-2-8.1-5.2c-0.5-1.2-0.8-2.4-0.8-3.7
	c0-0.5,0-0.9,0.1-1.4h21.6c0.5,0,1-0.4,1-1c0-0.5-0.4-1-1-1h-1.7c-0.3-3.3-1.8-6.2-4.3-8.2c-0.4-0.3-1-0.3-1.4,0.2
	c-0.3,0.4-0.3,1,0.2,1.4c2.1,1.6,3.3,4,3.6,6.7H16.1c0.4-4.5,3.8-8,8.1-8.5v0.2c0,0.5,0.4,1,1,1s1-0.4,1-1v-3.8c0-0.5-0.4-1-1-1
	s-1,0.4-1,1v1.6c-5.3,0.5-9.6,4.9-10.1,10.5h-1.7c-0.5,0-1,0.4-1,1C11.5,34.4,11.9,34.8,12.4,34.8z"/>
<path class="st0" d="M87,25.7c-0.5,0-1,0.4-1,1v48.5c0,2-1.6,3.6-3.6,3.6H44.9c-0.5,0-1,0.4-1,1c0,0.5,0.4,1,1,1h37.6
	c3.1,0,5.6-2.5,5.6-5.6V26.7C88,26.1,87.6,25.7,87,25.7z"/>
<path class="st1" d="M46.3,52.9c-0.6-0.8-1.5-1.3-2.5-1.3H25.5c-1.4,0-2.6,0.9-3,2.2l-2.9,9.1c-0.2,0.5,0.1,1.1,0.6,1.2
	c0.5,0.2,1.1-0.1,1.2-0.6l2.9-9.1c0.2-0.5,0.6-0.8,1.1-0.8h18.2c0.4,0,0.7,0.2,0.9,0.5c0.2,0.3,0.3,0.7,0.2,1l-7.3,22.8
	c-0.2,0.5-0.6,0.8-1.1,0.8h-8.8c-0.5,0-1,0.4-1,1c0,0.5,0.4,1,1,1h8.8c1.4,0,2.6-0.9,3-2.2l7.3-22.8C47,54.7,46.9,53.7,46.3,52.9z"
	/>
<path class="st1" d="M23.4,69.4c-1.1-1.1-2.6-1.7-4.2-1.7h-7.5v-2.9c0-0.5-0.4-1-1-1s-1,0.4-1,1v3.9c0,0.5,0.4,1,1,1h8.4
	c1.1,0,2,0.4,2.8,1.2c0.3,0.3,0.5,0.6,0.7,0.9c0.3,0.6,0.5,1.2,0.5,1.8c0,2.2-1.8,3.9-3.9,3.9H6.6C4,77.5,2,75.5,2,72.9V62.3
	c0-5.7,4.3-10.1,9.9-10.1l6.5,0c0.5,0,1-0.4,1-1c0-0.5-0.4-1-1-1h0l-6.5,0c-3.2,0-6.2,1.2-8.4,3.4C1.2,55.9,0,58.9,0,62.3v10.7
	c0,3.6,2.9,6.5,6.6,6.5h1.3V89c0,0.5,0.4,1,1,1c0.5,0,1-0.4,1-1v-9.5h9.5c3.3,0,5.9-2.6,5.9-5.9c0-1-0.2-1.9-0.7-2.8
	C24.2,70.3,23.8,69.8,23.4,69.4z"/>
<path class="st1" d="M33.2,84.3c-0.5,0-1,0.4-1,1V89c0,0.5,0.4,1,1,1s1-0.4,1-1v-3.8C34.2,84.7,33.8,84.3,33.2,84.3z"/>
</svg>
