<?xml version="1.0" encoding="utf-8"?>
<!-- Generator: Adobe Illustrator 25.4.1, SVG Export Plug-In . SVG Version: 6.00 Build 0)  -->
<svg version="1.1" id="Layer_1" xmlns="http://www.w3.org/2000/svg" xmlns:xlink="http://www.w3.org/1999/xlink" x="0px" y="0px"
	 viewBox="0 0 89.9 90" style="enable-background:new 0 0 89.9 90;" xml:space="preserve">
<style type="text/css">
	.st0{fill:#3C3C3C;}
	.st1{fill:#FE7A20;}
</style>
<path class="st0" d="M89.9,38.6c0-1.6-1.3-2.9-2.9-2.9l-9.2,0c-0.5,0-1,0.4-1,1c0,0.5,0.4,1,1,1h0l9.2,0c0.5,0,1,0.4,1,1l0,12.9
	c0,0.3-0.1,0.5-0.3,0.7c-0.2,0.2-0.4,0.3-0.7,0.3l-9.2,0h0c-0.4,0-0.7,0.2-0.9,0.6l-3.7,9c-0.2,0.4-0.1,0.8,0.2,1.1l6.5,6.5
	c0.2,0.2,0.3,0.4,0.3,0.7c0,0.3-0.1,0.5-0.3,0.7l-9.2,9.2c-0.2,0.2-0.4,0.3-0.7,0.3c-0.3,0-0.5-0.1-0.7-0.3l-6.4-6.6
	c-0.3-0.3-0.7-0.4-1.1-0.2l-9,3.7c-0.4,0.1-0.6,0.5-0.6,0.9l-0.1,9.1c0,0.3-0.1,0.5-0.3,0.7c-0.2,0.2-0.4,0.3-0.7,0.3L38.3,88
	c-0.3,0-0.5-0.1-0.7-0.3c-0.2-0.2-0.3-0.4-0.3-0.7l0.1-9.2c0-0.4-0.2-0.7-0.6-0.9l-9-3.8c-0.4-0.2-0.8-0.1-1,0.2l-6.6,6.4
	c-0.2,0.2-0.4,0.3-0.7,0.3h0c-0.3,0-0.5-0.1-0.7-0.3L10.2,71c-0.2-0.2-0.3-0.4-0.3-0.7c0-0.3,0.1-0.5,0.3-0.7l6.4-6.5
	c0.3-0.3,0.3-0.7,0.2-1l-3.8-9c-0.2-0.4-0.5-0.6-0.9-0.6h0L3,52.6c-0.3,0-0.5-0.1-0.7-0.3C2.1,52.2,2,51.9,2,51.7L1.9,38.8
	c0-0.3,0.1-0.5,0.3-0.7c0.2-0.2,0.4-0.3,0.7-0.3l9.1-0.1c0.4,0,0.7-0.2,0.9-0.6l3.7-9c0.1-0.4,0.1-0.8-0.2-1.1l-6.6-6.4
	c-0.2-0.2-0.3-0.4-0.3-0.7c0-0.3,0.1-0.5,0.3-0.7l9.2-9.3c0.2-0.2,0.4-0.3,0.7-0.3h0c0.3,0,0.5,0.1,0.7,0.3l6.5,6.5
	c0.3,0.3,0.7,0.4,1.1,0.2l9-3.7c0.4-0.1,0.6-0.5,0.6-0.9l0-9.1c0-0.3,0.1-0.5,0.3-0.7c0.2-0.2,0.4-0.3,0.7-0.3l12.9,0
	c0.5,0,1,0.4,1,1l0,9.2c0,0.4,0.2,0.7,0.6,0.9l9,3.7c0.4,0.1,0.8,0.1,1-0.2l6.5-6.5c0.2-0.2,0.4-0.3,0.7-0.3h0
	c0.3,0,0.5,0.1,0.7,0.3l9.2,9.2c0.2,0.2,0.3,0.4,0.3,0.7c0,0.3-0.1,0.5-0.3,0.7l-6.5,6.5c-0.3,0.3-0.4,0.7-0.2,1l1,2.5
	c0.2,0.5,0.8,0.7,1.3,0.5c0.5-0.2,0.7-0.8,0.5-1.3L75.3,28l6-6c0.5-0.5,0.8-1.3,0.9-2c0-0.8-0.3-1.5-0.8-2.1l-9.2-9.2
	c-0.5-0.5-1.3-0.8-2-0.8h0c-0.8,0-1.5,0.3-2,0.9l-6,6l-7.8-3.2l0-8.5c0-1.6-1.3-2.9-2.9-2.9L38.4,0h0c-0.8,0-1.5,0.3-2,0.8
	c-0.6,0.5-0.9,1.3-0.9,2.1l0,8.5l-7.8,3.3l-6-6c-0.6-0.6-1.3-0.9-2.1-0.9h0c-0.8,0-1.5,0.3-2,0.9l-9.2,9.3c-0.5,0.6-0.8,1.3-0.8,2.1
	c0,0.8,0.3,1.5,0.9,2.1l6.1,6l-3.2,7.8l-8.5,0.1c-0.8,0-1.5,0.3-2.1,0.9c-0.5,0.6-0.8,1.3-0.8,2L0,51.7c0,0.8,0.3,1.5,0.9,2.1
	c0.6,0.5,1.3,0.8,2.1,0.8l8.5-0.1l3.3,7.8l-6,6.1C8.3,68.9,8,69.6,8,70.4c0,0.8,0.3,1.5,0.9,2l8.7,8.7c0.5,0.6,1.3,0.9,2,0.9h0
	c0.8,0,1.5-0.3,2-0.8l6.1-6l7.8,3.3L35.4,87c0,0.8,0.3,1.5,0.8,2.1c0.5,0.6,1.3,0.9,2.1,0.9L51.1,90c0,0,0,0,0.1,0
	c0.7,0,1.5-0.3,2-0.8c0.6-0.5,0.9-1.3,0.9-2.1l0.1-8.5l7.8-3.2l6,6.1c0.5,0.6,1.3,0.9,2.1,0.9h0c0.8,0,1.5-0.3,2.1-0.8l9.2-9.2
	c0.6-0.5,0.9-1.3,0.9-2c0-0.8-0.3-1.5-0.9-2.1l-6-6l3.3-7.8l8.5,0c0.8,0,1.5-0.3,2-0.9c0.6-0.6,0.9-1.3,0.8-2.1L89.9,38.6z"/>
<path class="st1" d="M46.7,66.6c0.1,0.5,0.5,0.9,1,0.9c0,0,0.1,0,0.1,0c3.9-0.4,7.6-1.9,10.8-4.2c0.4-0.3,0.5-0.9,0.2-1.3
	c-0.3-0.4-0.9-0.5-1.3-0.2c-2.9,2.1-6.3,3.4-9.9,3.8C47,65.5,46.6,66,46.7,66.6z"/>
<path class="st1" d="M61.9,58.7c0.4,0.3,1,0.2,1.3-0.2c3.2-4.3,4.7-9.7,4.3-15.1c-0.4-5.4-2.8-10.5-6.6-14.4c-8.8-8.9-23.1-9-32-0.2
	c-6.9,7-8.5,17.6-3.9,26.4c0.9,1.8,2.1,3.4,3.5,4.9L26,62.6c-0.6,0.6-0.7,1.4-0.4,2.1c0.3,0.7,1,1.2,1.8,1.2c0,0,0,0,0.1,0l11.5-0.4
	c1.8-0.1,3.2-1.5,3.3-3.3l0.4-11.5c0-0.8-0.4-1.5-1.2-1.8c-0.7-0.3-1.6-0.2-2.1,0.4l-2.4,2.4c-1.2-1.4-2-3-2.4-4.8
	c-0.7-3.5,0.3-7.1,2.8-9.7c2.6-2.5,6.2-3.5,9.7-2.8c0.5,0.1,1,0.2,1.5,0.4c1.5,0.5,2.9,1.4,4,2.6l0.1,0.1c0.4,0.4,1,0.4,1.4,0
	c0.4-0.4,0.4-1,0-1.4L53.8,36c-1.3-1.4-2.9-2.4-4.7-3c-0.6-0.2-1.2-0.4-1.8-0.5c-4.1-0.8-8.4,0.4-11.4,3.3c0,0,0,0,0,0
	c-2.9,3-4.2,7.3-3.3,11.4c0.5,2.5,1.7,4.7,3.5,6.5l0,0c0.2,0.2,0.4,0.3,0.7,0.3h0c0.3,0,0.5-0.1,0.7-0.3l3.1-3.1l-0.4,11.5
	c0,0.8-0.6,1.4-1.4,1.4L27.3,64l3.1-3.1c0.2-0.2,0.3-0.4,0.3-0.7c0-0.3-0.1-0.5-0.3-0.7c-1.5-1.5-2.8-3.2-3.8-5.1
	c-4.2-8-2.7-17.7,3.6-24.1c8.1-8,21.2-7.9,29.3,0.2c3.5,3.5,5.7,8.2,6.1,13.1c0.4,4.9-1,9.8-3.9,13.8C61.4,57.8,61.5,58.4,61.9,58.7
	z"/>
<path class="st1" d="M55.1,52.2c0.3,0,0.6-0.2,0.8-0.5c0.8-1.3,1.3-2.6,1.6-4.1c0.1-0.5-0.2-1-0.8-1.1c-0.5-0.1-1,0.2-1.1,0.8
	c-0.2,1.2-0.7,2.4-1.3,3.5c-0.3,0.5-0.1,1,0.3,1.3C54.7,52.1,54.9,52.2,55.1,52.2z"/>
<path class="st1" d="M48,57.3c0.1,0,0.2,0,0.2,0c0.9-0.2,1.8-0.6,2.7-1c0.5-0.2,0.7-0.8,0.4-1.3c-0.2-0.5-0.8-0.7-1.3-0.4
	c-0.7,0.4-1.5,0.6-2.3,0.8c-0.5,0.1-0.8,0.6-0.7,1.2C47.2,57,47.5,57.3,48,57.3z"/>
</svg>
