<?xml version="1.0" encoding="utf-8"?>
<!-- Generator: Adobe Illustrator 25.4.1, SVG Export Plug-In . SVG Version: 6.00 Build 0)  -->
<svg version="1.1" id="Layer_1" xmlns="http://www.w3.org/2000/svg" xmlns:xlink="http://www.w3.org/1999/xlink" x="0px" y="0px"
	 viewBox="0 0 80 90" style="enable-background:new 0 0 80 90;" xml:space="preserve">
<style type="text/css">
	.st0{fill:#3C3C3C;}
	.st1{fill:#FE7820;}
</style>
<path class="st0" d="M50.6,31.5c-2.2,4.3-6.3,7-10.6,7s-8.4-2.7-10.6-7c-0.2-0.5-0.8-0.7-1.3-0.4c-0.5,0.2-0.7,0.8-0.4,1.3
	c2.5,5,7.2,8.1,12.3,8.1c5.1,0,9.8-3.1,12.3-8.1c0.2-0.5,0.1-1.1-0.4-1.3C51.4,30.8,50.8,31,50.6,31.5z"/>
<path class="st1" d="M28.2,25.2h23.6c1.5,0,2.8-0.6,3.9-1.6c1-1,1.6-2.4,1.6-3.8c0-2.7-2-4.9-4.7-5.3c-0.3-4.8-3.1-9-7.4-11V1
	c0-0.5-0.4-1-1-1h-8.5c-0.5,0-1,0.4-1,1v2.6c-4.3,2-7.1,6.2-7.4,11c-1.1,0.2-2.2,0.7-3,1.5c-1,1-1.6,2.4-1.6,3.8
	C22.7,22.9,25.2,25.2,28.2,25.2z M25.7,17.5c0.7-0.7,1.6-1,2.5-1h0.1c0.5,0,1-0.4,1-1c0-4.1,2.1-7.8,5.5-9.8v1.7c0,0.5,0.4,1,1,1
	c0.5,0,1-0.4,1-1V1.9h6.6v5.6c0,0.5,0.4,1,1,1s1-0.4,1-1V5.8c3.4,2,5.5,5.6,5.5,9.8c0,0.5,0.4,1,1,1h0.1c2,0,3.6,1.5,3.6,3.4
	c0,0.9-0.4,1.7-1,2.4c-0.7,0.7-1.6,1-2.5,1H28.2c-2,0-3.6-1.5-3.6-3.4C24.6,19,25,18.2,25.7,17.5z"/>
<path class="st0" d="M12.7,52.8c3.2-4.1,8.1-6.4,13.4-6.4h3.6c0.5,5,4.9,8.9,10.2,8.9s9.7-3.9,10.2-8.9h3.6c5.3,0,10.2,2.3,13.4,6.4
	c0.3,0.4,0.9,0.5,1.4,0.2c0.4-0.3,0.5-0.9,0.2-1.4c-3.6-4.5-9-7.1-15-7.1h-4.5c-0.5,0-1,0.4-1,1c0,4.4-3.7,8-8.3,8
	c-4.6,0-8.3-3.6-8.3-8c0-0.5-0.4-1-1-1h-4.5c-5.9,0-11.4,2.6-15,7.1c-0.3,0.4-0.3,1,0.2,1.4C11.8,53.3,12.4,53.2,12.7,52.8z"/>
<path class="st0" d="M79.9,88.7L70.1,63c-0.1-0.4-0.5-0.6-0.9-0.6H10.8c-0.4,0-0.8,0.2-0.9,0.6L0.1,88.7C0,89,0,89.3,0.2,89.6
	C0.3,89.8,0.6,90,1,90H79c0.3,0,0.6-0.2,0.8-0.4C80,89.3,80,89,79.9,88.7z M2.4,88.1l9.1-23.8h57.1l9.1,23.8H2.4z"/>
<path class="st0" d="M40,78.8H18.7l2-9c0.1-0.5-0.2-1-0.7-1.2c-0.5-0.1-1,0.2-1.1,0.7l-2.9,13.1c-0.1,0.5,0.2,1,0.7,1.2
	c0.1,0,0.1,0,0.2,0c0.4,0,0.8-0.3,0.9-0.8l0.5-2.2H40c0.5,0,1-0.4,1-1C41,79.3,40.5,78.8,40,78.8z"/>
<path class="st0" d="M59.1,70.7h-6l-0.2-1.3c-0.1-0.5-0.6-0.9-1.1-0.8c-0.5,0.1-0.9,0.6-0.8,1.1l0.1,1H34.9c-0.5,0-1,0.4-1,1
	c0,0.5,0.4,1,1,1h16.5l1.5,10.2c0.1,0.5,0.5,0.8,1,0.8c0,0,0.1,0,0.1,0c0.5-0.1,0.9-0.6,0.8-1.1l-1.4-9.9h5.7c0.5,0,1-0.4,1-1
	C60,71.2,59.6,70.7,59.1,70.7z"/>
</svg>
